<svg xmlns="http://www.w3.org/2000/svg" viewBox="0 0 404.45 165.84"><defs><style>.cls-1{fill:#13070c;}</style></defs><title>Active-Ego-Monochrome-With-Trademark-vector</title><g id="Layer_2" data-name="Layer 2"><g id="Layer_1-2" data-name="Layer 1"><path class="cls-1" d="M129.93,35.91a75.88,75.88,0,0,0-28.65-18L108,31.23A66.61,66.61,0,0,1,142,99.36l6.67,13.34a76.35,76.35,0,0,0-18.77-76.79Zm-25.21,114a66.49,66.49,0,0,1-57.22,0h-18a76.11,76.11,0,0,0,93.27,0Zm-82.43-114A76.23,76.23,0,0,0,7.62,123l5.62-11.24A66.63,66.63,0,0,1,56,26.2L61.63,15A75.6,75.6,0,0,0,22.29,35.91Z"/><path class="cls-1" d="M151,138.43l-7-14.07-5.51-11L94.6,25.72l-5.5-11L82.2.9a1.63,1.63,0,0,0-2.92,0L67.93,23.61,18.31,122.83l-5,10L10.71,138a1.63,1.63,0,0,0,1.45,2.35H149.75A1.35,1.35,0,0,0,151,138.43Zm-26.44-7.08H28.38a1.37,1.37,0,0,1-1.22-2L75.23,33.24a1.36,1.36,0,0,1,2.44,0l48.06,96.14A1.36,1.36,0,0,1,124.52,131.35Z"/><path class="cls-1" d="M127.87,70a10.86,10.86,0,0,0-4.5-2.49,4,4,0,0,0-.78,0,19.65,19.65,0,0,1-2.89-.29c-2.63-.61-5.25-1.29-7.86-2a21.67,21.67,0,0,0-6-.91,39.78,39.78,0,0,1-4.88-.14c-1.53-.17-3-.57-4.56-.87-.28-.05-.57-.12-1-.22.37-.3.58-.49.81-.66,1.79-1.24,3.58-2.49,5.38-3.71,1-.65,1.93-1.27,2.9-1.89,1.28-.82,2.65-1.52,3.84-2.46,2-1.63,4-3.41,6-5.13a3.57,3.57,0,0,1,2.41-1.2c1.8.07,3.25-.92,4.85-1.48a.53.53,0,0,0,.3-.85c-.75-.48-1.61.59-2.41-.25a3.92,3.92,0,0,1,.69-.6c1-.49,2-.94,3.06-1.41.36-.16.85-.13,1-.69a1.16,1.16,0,0,0-1.07-.48,9.71,9.71,0,0,0-3.35.38,5.76,5.76,0,0,0-1.7.56,26.9,26.9,0,0,1-7.23,3.61,33.89,33.89,0,0,0-10.71,5.73,13.9,13.9,0,0,1-3.16,1.9,24.28,24.28,0,0,0-6.42,3.78,3.38,3.38,0,0,1-1,.55,18.27,18.27,0,0,0-4.09,2.18,2.36,2.36,0,0,1-1.18.38,3.48,3.48,0,0,1-3.5-1.82A3.88,3.88,0,0,1,81,55.41l.66-.26a6.89,6.89,0,0,0,1.13-4l-.4-.34c.06-1.21.12-2.31.16-3.41a3.84,3.84,0,0,0-1-2.6,6.79,6.79,0,0,0-8-1.72c-2.16,1-3.49,2.69-3.22,5.26.09.81.16,1.62.24,2.44l-.49.41a7.1,7.1,0,0,0,1.19,4l.6.2a3.69,3.69,0,0,1,.57,3,3.54,3.54,0,0,1-5.38,2.41c-1.07-.7-2.26-1.2-3.38-1.82q-1-.54-2-1.17c-.72-.47-1.38-1.06-2.13-1.47-1.27-.69-2.6-1.27-3.87-1.94a19.66,19.66,0,0,1-2.43-1.44C51.11,51.36,49,49.6,46.47,48.6c-1.37-.53-2.72-1.11-4.09-1.65a32.46,32.46,0,0,1-6.81-3.24,4.28,4.28,0,0,0-1-.68,11.61,11.61,0,0,0-5-.77,3.06,3.06,0,0,0-.92.43c0,.09,0,.17,0,.26l1,.47c.89.37,1.8.71,2.68,1.13a5.8,5.8,0,0,1,1.06.82c0,.08-.05.17-.08.25a2.57,2.57,0,0,1-.66.13c-.33,0-.66-.14-1-.18s-.71-.08-.8.51a3,3,0,0,0,.61.49c.91.42,1.82.82,2.76,1.16a3.3,3.3,0,0,0,1.31.23,3.81,3.81,0,0,1,2.85,1.1c1.28,1.09,2.57,2.17,3.82,3.29a29.49,29.49,0,0,0,7,4.87,9.68,9.68,0,0,1,1.46.92c.93.64,1.85,1.3,2.77,2l3.54,2.51a6,6,0,0,1,.45.48c-.7.14-1.29.22-1.86.36a26.8,26.8,0,0,1-7.88.83,11.16,11.16,0,0,0-2.83.12c-2.13.42-4.25.93-6.35,1.49a31.89,31.89,0,0,1-8.71,1.6,2,2,0,0,0-.83.21,16.94,16.94,0,0,0-1.94.88,14.86,14.86,0,0,0-1.89,1.27.87.87,0,0,0-.33,1.2c.51-.15,1-.33,1.54-.44.94-.22,1.89-.42,2.84-.57a2.54,2.54,0,0,1,.91.18c0,.09,0,.19,0,.29l-1.93,1.17c.23.72.65.64,1.07.53.91-.23,1.83-.44,2.74-.71a3.31,3.31,0,0,0,1.2-.56,4,4,0,0,1,3.16-.87c2.25.17,4.52.24,6.76.48,3.17.35,6.25-.59,9.41-.55,2.09,0,4.19-.43,6.28-.06a21.26,21.26,0,0,1,3.62,1,3.51,3.51,0,0,1,2.22,2.59,27.06,27.06,0,0,0,.86,2.78c1.41,3.86,1.52,7.89,1.44,11.9-.06,2.48-.67,4.95-.82,7.43a14,14,0,0,1-2.16,6.16c-2.24,4-4.47,7.91-6.56,11.94A31.72,31.72,0,0,1,53,120.15c-1.07,1.23-2.12,2.48-3.12,3.76a26.28,26.28,0,0,0-3.83,6c-.75,1.85-1.38,3.75-2.16,5.58-.44,1-1.1,1.95-1.64,2.94a3.11,3.11,0,0,0-.43,1,2.18,2.18,0,0,1-1.18,1.66c-.76.42-1.52.84-2.24,1.33a1.32,1.32,0,0,0-.42,2,11.68,11.68,0,0,0,1.75,1.9,1.43,1.43,0,0,0,2.29-.11,22,22,0,0,0,1.71-2.53c.45-.67.89-1.35,1.31-2a5.49,5.49,0,0,0,.64-1.16,7.5,7.5,0,0,1,1.64-2.84,52.86,52.86,0,0,0,5.92-7.36,39.19,39.19,0,0,1,6.12-7.28,14.06,14.06,0,0,0,1.2-1.36c1.7-2.11,3.38-4.24,5.07-6.35a8.32,8.32,0,0,1,.61-.66,3.4,3.4,0,0,1,.17.4c.22,1.42.46,2.85.63,4.28a37.69,37.69,0,0,1,.45,4.85c0,1.91-.32,3.81-.39,5.73-.08,2.25-.08,4.51,0,6.76a14.7,14.7,0,0,0,.44,2.95c.52,2.17,1.14,4.31,1.66,6.48a13.86,13.86,0,0,1,.2,1.94,5.37,5.37,0,0,0,.19,1.52,2.27,2.27,0,0,1,0,2c-.44,1-.84,2-1.22,2.88A1.68,1.68,0,0,0,69.68,156a17,17,0,0,0,2.56.36,1.31,1.31,0,0,0,1.39-1.05,2.44,2.44,0,0,0,.15-.84c-.1-1.94-.22-3.87-.34-5.81a1.76,1.76,0,0,0-.12-.45,8.42,8.42,0,0,1-.28-3.89,54.62,54.62,0,0,0,.45-7.78,52,52,0,0,1,.57-10,68.56,68.56,0,0,0,.53-7.46c.08-1.18.09-2.36.17-3.54q.39-5.14.8-10.28c0-.36.11-.71.16-1h1.54c0,.33.06.61.08.89.12,1.7.23,3.4.35,5.11.19,2.8.45,5.6.57,8.4a77.31,77.31,0,0,0,.76,9.49,25.66,25.66,0,0,1,.43,5.17,67.81,67.81,0,0,0,.36,10.76,8.92,8.92,0,0,1-.3,4.35,4.78,4.78,0,0,0-.1,1.32c0,.7-.06,1.41-.11,2.11-.07.91-.22,1.83-.21,2.74A1.61,1.61,0,0,0,81,156.34a9.53,9.53,0,0,0,2.3-.43c1.2-.4,1.46-1.12,1-2.28-.3-.7-.63-1.39-1-2.07a2.06,2.06,0,0,1,0-2,2.26,2.26,0,0,0,.24-1.13A10.07,10.07,0,0,1,84,145c.7-2.87,1.74-5.66,1.88-8.67a68.06,68.06,0,0,0-.32-9.36,26.7,26.7,0,0,1-.07-4.47c.17-2.06.54-4.1.84-6.16.07-.51.17-1,.26-1.54l.22,0c.7.87,1.41,1.74,2.11,2.62a76,76,0,0,0,6.27,7.39,29.41,29.41,0,0,1,3.48,4.16,66.57,66.57,0,0,0,5.91,7.67,10.64,10.64,0,0,1,2.8,4.32,4.21,4.21,0,0,0,.59.92l1.33,2.13a23.11,23.11,0,0,0,1.29,2.07,1.66,1.66,0,0,0,2.72.25,9.19,9.19,0,0,0,1.45-1.54c.78-1.06.55-1.88-.61-2.53-.68-.38-1.36-.78-2-1.18a1.86,1.86,0,0,1-.95-1.36,4.57,4.57,0,0,0-.59-1.27c-.41-.73-.89-1.41-1.26-2.16s-.62-1.56-.92-2.34c-.95-2.45-1.73-5-3.3-7.13-1.38-1.89-2.82-3.73-4.27-5.57a48.81,48.81,0,0,1-3.16-3.92c-1.23-1.92-2.2-4-3.31-6-2.21-4-4.45-8-6.66-12a4.46,4.46,0,0,1-.45-1.48c-.26-1.79-.48-3.59-.69-5.39a33.63,33.63,0,0,1-.6-6.1,44.47,44.47,0,0,1,.87-8.06c.39-1.57,1.06-3.08,1.43-4.66a3.75,3.75,0,0,1,2.34-2.75,9.67,9.67,0,0,1,1.86-.62,17.6,17.6,0,0,1,5.47-.37c2.32.24,4.66.08,7,.5a31.31,31.31,0,0,0,8.09-.08c1.49-.11,3-.16,4.48-.22a2.66,2.66,0,0,1,1.83.6c1.33,1.06,3,1.15,4.57,1.58.38.11.75,0,.72-.54-.35-.73-1.56-.5-1.74-1.58a3.36,3.36,0,0,1,.9-.08c1.08.2,2.15.45,3.22.69.39.09.77.21,1.16.31l.18-.21A2.51,2.51,0,0,0,127.87,70Z"/><path class="cls-1" d="M201.12,90.27h-9.26L190,94.9H184.1L194,70.39h5.18l9.66,24.51H203Zm-1.55-4.33-3-8.24-3.05,8.24Z"/><path class="cls-1" d="M228.57,94.13a11.41,11.41,0,0,1-5.4,1.32,13.14,13.14,0,0,1-9.63-3.56,13.13,13.13,0,0,1,0-18.52,13,13,0,0,1,9.15-3.53,14.57,14.57,0,0,1,5.88,1.36v6.54a7.79,7.79,0,0,0-5.73-2.61,6.87,6.87,0,0,0-5,1.91,7.87,7.87,0,0,0-2.32,5.66,7.36,7.36,0,0,0,2.13,5.4,7.44,7.44,0,0,0,5.3,2.06,7.72,7.72,0,0,0,5.62-2.53Z"/><path class="cls-1" d="M241.69,75.17V94.9H236V75.17H230.7V70.39H247v4.78Z"/><path class="cls-1" d="M255.76,70.39V94.9H250.1V70.39Z"/><path class="cls-1" d="M264.8,70.39,271,86.08l6.21-15.69h6.1L272.93,94.9H269.1L258.7,70.39Z"/><path class="cls-1" d="M300,75.17h-8.19v4.74h7.79v4.78h-7.79v5.43H300V94.9H286.16V70.39H300Z"/><path class="cls-1" d="M303.76,83.29h9.41v4.63h-9.41Z"/><path class="cls-1" d="M331.54,75.17h-8.19v4.74h7.79v4.78h-7.79v5.43h8.19V94.9H317.69V70.39h13.85Z"/><path class="cls-1" d="M347.93,81.53h12.16v.25c0,3-1.06,7.5-3.78,10.33s-5.84,3.34-8.75,3.34-6.1-.47-9-3.41A13,13,0,0,1,335,82.7a13.14,13.14,0,0,1,3.52-9.3c3-3.12,6.73-3.56,9.63-3.56A12.33,12.33,0,0,1,355,71.68a13.46,13.46,0,0,1,4,4.37l-5.11,2.76a7.36,7.36,0,0,0-2.16-2.65A6.17,6.17,0,0,0,348,75a6.62,6.62,0,0,0-5.07,2,8.4,8.4,0,0,0-2.1,5.81,7.7,7.7,0,0,0,2.06,5.62,6.44,6.44,0,0,0,5,1.91A6.3,6.3,0,0,0,352.08,89a5.74,5.74,0,0,0,1.77-2.91h-5.92Z"/><path class="cls-1" d="M386,73.4a13,13,0,0,1,0,18.45,13.08,13.08,0,0,1-9.48,3.6,13.49,13.49,0,0,1-9.56-3.6,12.51,12.51,0,0,1-3.82-9.11,13.68,13.68,0,0,1,3.79-9.3,14.49,14.49,0,0,1,19.07,0Zm-14.88,3.75A7.5,7.5,0,0,0,369,82.7a7.3,7.3,0,0,0,2.24,5.51,7.18,7.18,0,0,0,5.25,2,7.23,7.23,0,0,0,7.57-7.56,7.72,7.72,0,0,0-2.13-5.52,7.88,7.88,0,0,0-5.4-2.09A7.52,7.52,0,0,0,371.16,77.15Z"/><path class="cls-1" d="M395.64,71.14v4.71h-1.48V71.14h-1.28v-1.3h4.06v1.3Zm1.55,4.71,1-6h1.31l1.3,3.31,1.39-3.31h1.3l.93,6H403l-.44-3.29-1.38,3.29h-.63l-1.34-3.29-.49,3.29Z"/></g></g></svg>