<svg xmlns="http://www.w3.org/2000/svg" xmlns:xlink="http://www.w3.org/1999/xlink" viewBox="0 0 750.34 691.46"><defs><style>.cls-1,.cls-4,.cls-9{fill:none;}.cls-2{fill:#49e69a;}.cls-3{clip-path:url(#clip-path);}.cls-4,.cls-8,.cls-9{stroke:#2c3e50;stroke-width:5px;}.cls-4,.cls-8{stroke-miterlimit:10;}.cls-5{fill:#2c3e50;}.cls-6,.cls-8{fill:#9c47ed;}.cls-7{fill:#ff7d7d;}.cls-9{stroke-linecap:round;stroke-linejoin:round;}</style><clipPath id="clip-path"><rect class="cls-1" y="113" width="750" height="590.05"/></clipPath></defs><title>hosting-email-vector</title><g id="Layer_2" data-name="Layer 2"><g id="Layer_1-2" data-name="Layer 1"><path class="cls-2" d="M543.38,63.11c38.55,47,42,119.47,41.59,191.92s-4.33,144.48-42.46,207.88C504,525.87,431.6,580.21,364,575.47s-130.84-68.14-183.7-131.54C127.47,381,84.15,318,85,256.32c1.3-61.67,46.36-122,99.21-169.06,53.29-47,114-80.21,181.1-86.25S505.25,16.1,543.38,63.11Z"/><g class="cls-3"><path class="cls-4" d="M399.84,317H202.33V428.4H399.84Z"/><path class="cls-4" d="M607,437.7H492.58V545"/><path class="cls-5" d="M604,543.74h-59.8L536,529.56l29.89-51.79Z"/><path class="cls-6" d="M544.18,543.74H501.7L522.94,507l13,22.6Z"/><path class="cls-4" d="M524.14,482.56a16.35,16.35,0,1,0-16.35-16.35A16.35,16.35,0,0,0,524.14,482.56Z"/><path class="cls-4" d="M185.57,290a5.8,5.8,0,1,0-5.8-5.8A5.8,5.8,0,0,0,185.57,290Z"/><path class="cls-4" d="M207,290a5.8,5.8,0,1,0-5.8-5.8A5.8,5.8,0,0,0,207,290Z"/><path class="cls-4" d="M228.34,290a5.8,5.8,0,1,0-5.79-5.8A5.8,5.8,0,0,0,228.34,290Z"/><path class="cls-4" d="M641.52,266.53H167.91V578.79H641.52Z"/><path class="cls-4" d="M452.32,190.94a44.39,44.39,0,0,1-58.47,3.78l-40,40a5.7,5.7,0,0,1-8.06-8.07l40-40a44.38,44.38,0,1,1,66.53,4.28Z"/><path class="cls-4" d="M366.52,222.05a5.7,5.7,0,0,1-8.06-8.07"/><path class="cls-4" d="M420.94,196.79a37.23,37.23,0,1,0-37.23-37.23A37.22,37.22,0,0,0,420.94,196.79Z"/><path class="cls-4" d="M202.33,428.4,399.83,317"/><path class="cls-4" d="M399.83,428.4,202.33,317"/><path class="cls-7" d="M469.39,454.35H202.33v21.38H469.39Z"/><path class="cls-7" d="M469.39,487.6H202.33V509H469.39Z"/><path class="cls-7" d="M469.39,520.84H202.33v21.39H469.39Z"/><path class="cls-4" d="M488.28,316.94v83.6h28.89v-83.6Z"/><path class="cls-4" d="M533.2,317v55.73h28.89V317Z"/><path class="cls-4" d="M443.36,317V428.41h28.89V317Z"/><path class="cls-4" d="M578.13,316.94v27.87H607V316.94Z"/><path class="cls-4" d="M739.73,533.64a42.36,42.36,0,1,1-27.53-39.7l-14.84,39.7L739.22,527A43.57,43.57,0,0,1,739.73,533.64Z"/><path class="cls-8" d="M747.48,520.15l-41.85,6.61,14.84-39.69A42.39,42.39,0,0,1,747.48,520.15Z"/><path class="cls-4" d="M370.89,560.3a5.94,5.94,0,1,0-5.93-5.93A5.93,5.93,0,0,0,370.89,560.3Z"/><path class="cls-4" d="M180.09,436.26a5.94,5.94,0,1,0-5.94-5.94A5.94,5.94,0,0,0,180.09,436.26Z"/><path class="cls-4" d="M344.12,309a5.94,5.94,0,1,0-5.94-5.93A5.93,5.93,0,0,0,344.12,309Z"/><path class="cls-4" d="M586.89,368.9A5.94,5.94,0,1,0,581,363,5.93,5.93,0,0,0,586.89,368.9Z"/><path class="cls-4" d="M370.89,560.3c-1.68,37.46-29,75-78.66,84.64"/><path class="cls-4" d="M91.75,477.71c19.19-30.78,43.92-45.76,82.4-47.39"/><path class="cls-4" d="M350,303.11c31.74-4.55,64.77-42.72,51.1-89.12"/><path class="cls-4" d="M592.57,364.68c52.89,19.85,83.67,59.56,93.74,117.89"/><path class="cls-5" d="M51.7,465a51.71,51.71,0,1,0,51.7,51.71A51.76,51.76,0,0,0,51.7,465ZM16.28,505.56A2.32,2.32,0,1,1,14,507.87,2.32,2.32,0,0,1,16.28,505.56ZM14.06,488.2v13.3a6.75,6.75,0,1,0,8.59,8.59h3.79v2.38a32.3,32.3,0,0,0,4.7,16.69h-25a47.11,47.11,0,0,1,8-41ZM64,532.5,51.71,544.17,39.46,532.5a27.78,27.78,0,0,1-8.58-20v-15a11.44,11.44,0,0,0,9-9H63.56a11.45,11.45,0,0,0,9,9v15A27.87,27.87,0,0,1,64,532.5ZM7.56,533.6H34.38c.65.73,1.31,1.44,2,2.12L51.71,550.3,67,535.72c.7-.68,1.37-1.38,2-2.12h9.78A6.83,6.83,0,0,0,83,537.75v14.39A47.2,47.2,0,0,1,7.56,533.6Zm77.62.08a2.31,2.31,0,1,1,2.31-2.31A2.3,2.3,0,0,1,85.18,533.68Zm2.21,14v-9.91a6.75,6.75,0,1,0-8.59-8.59H72.27A32.3,32.3,0,0,0,77,512.46V493.2H74.75a7,7,0,0,1-7-7V484H35.62v2.22a7,7,0,0,1-7,7H26.44v12.45H22.65a6.74,6.74,0,0,0-4.14-4.15V483.14a47.21,47.21,0,0,1,79.13,22.5H77v4.44H98.49a47,47,0,0,1-11.1,37.58Z"/><path class="cls-5" d="M63.43,504.74,51,517.23l-7.5-7.5L41,512.22l10,10L52.19,521l1.24-1.24,12.49-12.49Z"/></g><path class="cls-9" d="M202.8,618.54h70.42a8.83,8.83,0,0,1,8.8,8.8v52.81a8.83,8.83,0,0,1-8.8,8.81H202.8a8.83,8.83,0,0,1-8.8-8.81V627.34A8.83,8.83,0,0,1,202.8,618.54Z"/><polyline class="cls-9" points="282.02 627.34 238.01 658.15 194 627.34"/></g></g></svg>