<svg width="303" height="202" viewBox="0 0 303 202" fill="none" xmlns="http://www.w3.org/2000/svg">
<path d="M288.682 21.7039C301.946 37.8701 303.138 62.7868 302.989 87.7035C302.84 112.62 301.499 137.389 288.384 159.191C275.12 180.845 250.231 199.532 226.982 197.901C203.733 196.269 181.974 174.467 163.792 152.665C145.61 131.011 130.706 109.357 131.004 88.1484C131.451 66.9396 146.951 46.1756 165.133 30.0094C183.464 13.8432 204.329 2.42307 227.429 0.346678C250.529 -1.72971 275.567 5.53766 288.682 21.7039Z" fill="#49E69A"/>
<g clip-path="url(#clip0)">
<path d="M83.0543 166.957L92.9643 184.115L102.877 201.273H83.0543H63.2314L73.1414 184.115L83.0543 166.957Z" fill="#FDCF00" stroke="#2C3E50" stroke-width="1.5" stroke-miterlimit="10"/>
<path d="M132.215 74.4014H66.9043V111.235H132.215V74.4014Z" stroke="#2C3E50" stroke-width="1.5" stroke-miterlimit="10"/>
<path d="M200.718 114.307H162.881V149.757" stroke="#2C3E50" stroke-width="1.5" stroke-miterlimit="10"/>
<path d="M199.715 149.353H179.942L177.234 144.666L187.118 127.551L199.715 149.353Z" fill="#453396"/>
<path d="M179.941 149.354H165.896L172.919 137.197L177.234 144.666L179.941 149.354Z" fill="#9C47ED"/>
<path d="M173.314 129.132C176.3 129.132 178.72 126.713 178.72 123.729C178.72 120.745 176.3 118.326 173.314 118.326C170.329 118.326 167.909 120.745 167.909 123.729C167.909 126.713 170.329 129.132 173.314 129.132Z" stroke="#2C3E50" stroke-width="1.5" stroke-miterlimit="10"/>
<path d="M61.3616 65.4939C62.4199 65.4939 63.2779 64.6364 63.2779 63.5787C63.2779 62.5209 62.4199 61.6635 61.3616 61.6635C60.3033 61.6635 59.4453 62.5209 59.4453 63.5787C59.4453 64.6364 60.3033 65.4939 61.3616 65.4939Z" stroke="#2C3E50" stroke-width="1.5" stroke-miterlimit="10"/>
<path d="M68.4339 65.4939C69.4922 65.4939 70.3501 64.6364 70.3501 63.5787C70.3501 62.5209 69.4922 61.6635 68.4339 61.6635C67.3755 61.6635 66.5176 62.5209 66.5176 63.5787C66.5176 64.6364 67.3755 65.4939 68.4339 65.4939Z" stroke="#2C3E50" stroke-width="1.5" stroke-miterlimit="10"/>
<path d="M75.5056 65.4939C76.564 65.4939 77.4219 64.6364 77.4219 63.5787C77.4219 62.5209 76.564 61.6635 75.5056 61.6635C74.4473 61.6635 73.5894 62.5209 73.5894 63.5787C73.5894 64.6364 74.4473 65.4939 75.5056 65.4939Z" stroke="#2C3E50" stroke-width="1.5" stroke-miterlimit="10"/>
<path d="M212.129 57.74H55.5229V160.935H212.129V57.74Z" stroke="#2C3E50" stroke-width="1.5" stroke-miterlimit="10"/>
<path d="M149.566 32.758C144.288 38.0328 135.989 38.4513 130.234 34.0077L117.006 47.2282C116.271 47.9634 115.078 47.9634 114.34 47.2282C113.604 46.4929 113.604 45.3013 114.34 44.5631L127.568 31.3426C126.024 29.3461 125.067 27.0414 124.698 24.6641C123.997 20.1943 125.372 15.4659 128.818 12.022C131.866 8.97622 135.922 7.54926 139.915 7.74398C143.424 7.91835 146.885 9.34241 149.569 12.022C155.294 17.7473 155.294 27.0327 149.566 32.758Z" stroke="#2C3E50" stroke-width="1.5" stroke-miterlimit="10"/>
<path d="M121.197 43.0372C120.461 43.7725 119.269 43.7725 118.533 43.0372C117.797 42.302 117.797 41.1075 118.53 40.3722" stroke="#2C3E50" stroke-width="1.5" stroke-miterlimit="10"/>
<path d="M139.191 34.6906C145.989 34.6906 151.5 29.1827 151.5 22.3885C151.5 15.5942 145.989 10.0863 139.191 10.0863C132.393 10.0863 126.882 15.5942 126.882 22.3885C126.882 29.1827 132.393 34.6906 139.191 34.6906Z" stroke="#2C3E50" stroke-width="1.5" stroke-miterlimit="10"/>
<path d="M66.9043 111.235L132.212 74.4014" stroke="#2C3E50" stroke-width="1.5" stroke-miterlimit="10"/>
<path d="M132.212 111.235L66.9043 74.4014" stroke="#2C3E50" stroke-width="1.5" stroke-miterlimit="10"/>
<path d="M155.213 119.809H66.9043V126.877H155.213V119.809Z" fill="#FF7D7D"/>
<path d="M155.213 130.797H66.9043V137.865H155.213V130.797Z" fill="#FF7D7D"/>
<path d="M155.213 141.786H66.9043V148.854H155.213V141.786Z" fill="#FF7D7D"/>
<path d="M161.458 74.3999V102.027H171.01V74.3999H161.458Z" stroke="#2C3E50" stroke-width="1.5" stroke-miterlimit="10"/>
<path d="M176.312 74.4025V92.8194H185.865V74.4025H176.312Z" stroke="#2C3E50" stroke-width="1.5" stroke-miterlimit="10"/>
<path d="M146.605 74.4029V111.237H156.158V74.4029H146.605Z" stroke="#2C3E50" stroke-width="1.5" stroke-miterlimit="10"/>
<path d="M191.167 74.3994V83.6093H200.72V74.3994H191.167Z" stroke="#2C3E50" stroke-width="1.5" stroke-miterlimit="10"/>
<path d="M81.2666 196.287C81.2666 195.195 82.0231 194.409 83.0543 194.409C84.1467 194.409 84.8421 195.195 84.8421 196.287C84.8421 197.348 84.1467 198.162 83.0543 198.162C81.9925 198.165 81.2666 197.348 81.2666 196.287ZM82.0231 191.961L81.599 177.43H84.5062L84.0822 191.961H82.0231Z" stroke="#2C3E50" stroke-width="1.3" stroke-miterlimit="10"/>
<path d="M244.604 146.014C244.604 153.748 238.331 160.016 230.594 160.016C222.856 160.016 216.583 153.748 216.583 146.014C216.583 138.281 222.856 132.009 230.594 132.009C232.321 132.009 233.975 132.32 235.502 132.892L230.594 146.014L244.435 143.829C244.545 144.541 244.604 145.27 244.604 146.014Z" stroke="#2C3E50" stroke-width="1.5" stroke-miterlimit="10"/>
<path d="M247.169 141.556L233.327 143.742L238.236 130.623C242.894 132.364 246.378 136.514 247.169 141.556Z" fill="#9C47ED" stroke="#2C3E50" stroke-width="1.5" stroke-miterlimit="10"/>
<path d="M122.642 154.826C123.726 154.826 124.605 153.947 124.605 152.864C124.605 151.781 123.726 150.902 122.642 150.902C121.558 150.902 120.679 151.781 120.679 152.864C120.679 153.947 121.558 154.826 122.642 154.826Z" stroke="#2C3E50" stroke-width="1.5" stroke-miterlimit="10"/>
<path d="M59.5502 113.83C60.6342 113.83 61.513 112.952 61.513 111.869C61.513 110.785 60.6342 109.907 59.5502 109.907C58.4662 109.907 57.5874 110.785 57.5874 111.869C57.5874 112.952 58.4662 113.83 59.5502 113.83Z" stroke="#2C3E50" stroke-width="1.5" stroke-miterlimit="10"/>
<path d="M113.788 71.7887C114.872 71.7887 115.75 70.9105 115.75 69.827C115.75 68.7436 114.872 67.8653 113.788 67.8653C112.703 67.8653 111.825 68.7436 111.825 69.827C111.825 70.9105 112.703 71.7887 113.788 71.7887Z" stroke="#2C3E50" stroke-width="1.5" stroke-miterlimit="10"/>
<path d="M194.065 91.5715C195.149 91.5715 196.028 90.6932 196.028 89.6097C196.028 88.5263 195.149 87.648 194.065 87.648C192.981 87.648 192.102 88.5263 192.102 89.6097C192.102 90.6932 192.981 91.5715 194.065 91.5715Z" stroke="#2C3E50" stroke-width="1.5" stroke-miterlimit="10"/>
<path d="M122.642 154.826C122.087 167.204 113.052 179.599 96.6313 182.796" stroke="#2C3E50" stroke-width="1.5" stroke-miterlimit="10"/>
<path d="M30.3379 127.53C36.6858 117.359 44.8627 112.406 57.5875 111.869" stroke="#2C3E50" stroke-width="1.5" stroke-miterlimit="10"/>
<path d="M115.748 69.827C126.242 68.3245 137.164 55.7085 132.642 40.3752" stroke="#2C3E50" stroke-width="1.5" stroke-miterlimit="10"/>
<path d="M195.943 90.1766C213.431 96.736 223.609 109.861 226.941 129.135" stroke="#2C3E50" stroke-width="1.5" stroke-miterlimit="10"/>
<path d="M17.0953 123.34C7.66804 123.34 0 131.006 0 140.428C0 149.85 7.66804 157.514 17.0953 157.514C26.5226 157.514 34.1907 149.85 34.1907 140.428C34.1907 131.006 26.5226 123.34 17.0953 123.34ZM5.38245 136.734C5.80409 136.734 6.14722 137.077 6.14722 137.499C6.14722 137.92 5.80409 138.263 5.38245 138.263C4.96081 138.263 4.61769 137.92 4.61769 137.499C4.61769 137.077 4.96372 136.734 5.38245 136.734ZM4.64967 130.998V135.392C3.77731 135.697 3.15212 136.522 3.15212 137.496C3.15212 138.725 4.15243 139.728 5.38536 139.728C6.3595 139.728 7.18533 139.1 7.49065 138.231H8.74394V139.016C8.74394 140.969 9.29353 142.881 10.2967 144.535H2.02096C1.6633 143.227 1.46847 141.849 1.46847 140.428C1.46847 136.889 2.65488 133.619 4.64967 130.998ZM21.146 145.636L17.0982 149.493L13.0476 145.636C11.2418 143.919 10.2095 141.507 10.2095 139.013V134.043C11.7012 133.75 12.8818 132.57 13.1784 131.079H21.018C21.3146 132.57 22.4923 133.75 23.987 134.043V139.013C23.9841 141.507 22.9489 143.919 21.146 145.636ZM2.50076 146H11.3697C11.582 146.241 11.8001 146.476 12.0356 146.7L17.0982 151.521L22.1608 146.7C22.3935 146.476 22.6145 146.244 22.8267 146H26.0603C26.2842 146.639 26.7901 147.145 27.4328 147.371V152.129C24.6761 154.564 21.0587 156.046 17.0982 156.046C10.4421 156.046 4.75145 151.867 2.50076 146ZM28.1656 146.029C27.7439 146.029 27.4008 145.686 27.4008 145.264C27.4008 144.843 27.7439 144.5 28.1656 144.5C28.5872 144.5 28.9303 144.843 28.9303 145.264C28.9274 145.689 28.5872 146.029 28.1656 146.029ZM28.8983 150.647V147.371C29.7678 147.066 30.3959 146.241 30.3959 145.267C30.3959 144.038 29.3956 143.035 28.1627 143.035C27.1885 143.035 26.3627 143.663 26.0574 144.532H23.8968C24.9 142.881 25.4496 140.969 25.4496 139.013V132.648H24.7168C23.4461 132.648 22.4138 131.614 22.4138 130.347V129.611H11.7798V130.347C11.7798 131.614 10.7475 132.648 9.47673 132.648H8.74394V136.764H7.49065C7.26675 136.124 6.76078 135.616 6.12105 135.392V129.324C8.94459 126.534 12.8237 124.807 17.0982 124.807C24.4522 124.807 30.6314 129.914 32.286 136.761H25.4525V138.228H32.5681C32.6698 138.946 32.7251 139.679 32.7251 140.425C32.7251 144.334 31.2799 147.906 28.8983 150.647Z" fill="#2C3E50"/>
<path d="M20.9745 136.464L16.8483 140.591L14.3678 138.112L13.5449 138.935L16.8483 142.233L17.2583 141.823L17.6683 141.414L21.7974 137.287L20.9745 136.464Z" fill="#2C3E50"/>
</g>
<defs>
<clipPath id="clip0">
<rect width="248" height="195" fill="white" transform="translate(0 7)"/>
</clipPath>
</defs>
</svg>
