<svg width="651" height="651" viewBox="0 0 651 651" fill="none" xmlns="http://www.w3.org/2000/svg">
<rect width="651" height="651" fill="white"/>
<path d="M485.32 123.961C517.195 168.553 536.461 212.449 555.025 274.809C573.59 337.168 591.454 417.644 559.579 467.81C527.704 517.628 446.79 536.441 380.937 521.112C315.085 505.784 264.996 456.314 208.251 406.496C151.856 356.329 89.1564 306.511 73.3939 240.668C57.6314 175.172 89.1564 93.6518 145.551 49.4078C201.946 4.81533 283.911 -3.19736 346.61 15.2667C409.66 34.0791 453.795 79.3683 485.32 123.961Z" fill="#FF7D7D"/>
<path d="M554.375 586.442C554.435 586.351 554.496 586.25 554.557 586.088C554.456 586.229 554.405 586.341 554.375 586.442Z" fill="#5D4DA3"/>
<path d="M532.842 576.861L533.155 576.76C532.983 576.73 532.902 576.78 532.842 576.861Z" fill="#5D4DA3"/>
<path d="M567.116 592.286C567.086 592.306 567.076 592.336 567.055 592.367C567.248 592.458 567.511 592.579 567.947 592.792L567.116 592.286Z" fill="#5D4DA3"/>
<path d="M484.387 562.895L484.701 562.936C484.559 562.905 484.468 562.845 484.387 562.895Z" fill="#5D4DA3"/>
<path d="M513.324 570.683C513.193 570.825 513.031 570.845 512.869 570.855C513.051 570.926 513.203 570.926 513.324 570.683Z" fill="#5D4DA3"/>
<path d="M570.783 602.93L570.641 602.241C570.56 602.474 570.59 602.768 570.783 602.93Z" fill="#5D4DA3"/>
<path d="M584.547 606.171C584.557 606.131 584.568 606.09 584.568 606.039C584.517 606.08 584.527 606.121 584.547 606.171Z" fill="#5D4DA3"/>
<path d="M580.435 601.856C580.303 601.856 580.141 601.897 579.969 601.937C580.141 601.988 580.334 602.069 580.435 601.856Z" fill="#5D4DA3"/>
<path d="M579.746 601.998C579.817 601.978 579.898 601.958 579.979 601.937C579.868 601.917 579.787 601.907 579.746 601.998Z" fill="#5D4DA3"/>
<path d="M304.355 586.088C303.96 586.229 303.818 586.766 303.616 587.242L304.355 586.088Z" fill="#5D4DA3"/>
<path d="M438.719 558.064L438.82 557.831C438.729 557.902 438.719 557.983 438.719 558.064Z" fill="#5D4DA3"/>
<path d="M305.895 590.908H305.581C305.712 590.949 305.814 590.939 305.895 590.908Z" fill="#5D4DA3"/>
<path d="M563.379 601.694C562.801 602.079 562.285 601.147 562.093 601.664C562.518 601.735 562.923 602.353 563.379 601.694Z" fill="#5D4DA3"/>
<path d="M428.875 579.272L428.61 579.302C428.732 579.312 428.814 579.302 428.875 579.272Z" fill="#5D4DA3"/>
<path d="M305.895 590.908L306.259 590.898C306.188 590.807 306.117 590.746 306.057 590.675C306.016 590.777 305.965 590.858 305.895 590.908Z" fill="#5D4DA3"/>
<path d="M390.76 559.625C390.771 559.625 390.771 559.625 390.781 559.625C390.812 559.584 390.832 559.553 390.862 559.513L390.76 559.625Z" fill="#5D4DA3"/>
<path d="M388.117 559.026C388.289 558.945 388.451 558.864 388.634 558.773C388.34 558.753 388.198 558.864 388.117 559.026Z" fill="#5D4DA3"/>
<path d="M303.616 587.242L303.2 587.9C303.393 587.759 303.514 587.505 303.616 587.242Z" fill="#5D4DA3"/>
<path d="M361.054 564.333C361.135 564.303 361.216 564.262 361.287 564.212C361.175 564.232 361.104 564.273 361.054 564.333Z" fill="#5D4DA3"/>
<path d="M515.097 571.463C515.147 571.534 515.218 571.575 515.279 571.635C515.34 571.514 515.34 571.413 515.097 571.463Z" fill="#5D4DA3"/>
<path d="M493.899 582.239L493.888 582.25C493.899 582.25 493.899 582.239 493.899 582.239Z" fill="#5D4DA3"/>
<path d="M494.982 581.733C494.708 581.55 494.212 581.864 493.898 582.239C494.202 582.3 494.506 582.239 494.982 581.733Z" fill="#5D4DA3"/>
<path d="M491.933 581.55C491.964 581.581 491.994 581.601 492.035 581.642C491.994 581.601 491.964 581.571 491.933 581.55Z" fill="#5D4DA3"/>
<path d="M510.61 586.767C510.61 586.746 510.62 586.726 510.62 586.705C510.61 586.726 510.6 586.736 510.61 586.767Z" fill="#5D4DA3"/>
<path d="M506.862 585.946C506.822 585.824 506.751 585.723 506.66 585.642C506.7 585.764 506.761 585.875 506.862 585.946Z" fill="#5D4DA3"/>
<path d="M482.27 581.459L482.281 581.439C482.271 581.439 482.271 581.449 482.26 581.439L482.27 581.459Z" fill="#5D4DA3"/>
<path d="M446.305 581.631C449.87 581.55 454.579 580.689 458.084 581.408C458.965 580.315 460.089 580.386 461.244 580.234L461.203 581.793L462.196 581.388C462.53 581.895 461.447 581.611 462.054 582.259L462.51 581.338C462.53 581.874 464.87 581.986 463.178 582.897L466.804 583.343C467.605 583.485 467.432 582.117 468.273 582.604C468.395 583.08 467.919 582.877 467.919 583.434C470.43 584.913 471.393 580.801 473.793 581.884L473.55 582.057C474.036 581.712 474.836 581.884 474.877 581.662C474.776 580.062 474.31 582.431 473.682 581.408C473.935 580.112 474.735 580.841 474.826 579.849C475.343 580.406 475.798 579.717 476.325 579.717C477.075 580.659 478.412 580.264 478.918 581.388C479.404 581.044 480.083 579.829 481.015 579.92C481.511 581.044 480.701 580.862 481.531 581.398L481.794 580.669C482.503 580.912 482.362 581.105 482.271 581.459C483.05 581.631 483.091 580.538 483.992 581.196L483.324 581.834C484.094 581.672 484.367 581.854 485.37 582.097C485.269 582.523 484.874 582.431 484.6 582.249C484.955 583.464 485.623 581.925 485.896 582.097C485.866 581.753 485.198 581.479 485.664 580.801C486.14 581.024 486.909 579.97 487.112 580.912L486.433 581.54C487.588 581.135 487.163 580.7 488.307 581.196C488.236 581.246 488.226 581.429 488.175 581.591C489.107 580.76 489.948 581.803 491.052 582.097L490.799 582.259C491.295 582.097 491.67 581.469 491.913 581.571C491.356 581.014 491.568 580.831 491.649 580.092C492.257 581.5 493.219 578.917 494.465 579.92C494.354 580.345 493.918 580.801 493.635 580.264C492.915 581.439 492.652 582.512 491.7 582.938C492.277 582.745 492.926 582.695 492.693 583.201L493.088 582.057C493.412 582.087 493.645 582.209 493.888 582.259C494.171 581.54 493.483 580.912 494.323 580.568C495.235 580.345 494.526 581.864 494.759 581.358C495.995 581.115 495.488 580.183 496.511 580.791C496.379 580.872 496.126 581.024 496.055 580.902C496.744 581.53 498.04 581.074 497.98 582.543C497.797 582.837 497.686 583.262 497.412 583.08L497.473 582.867C496.4 583.728 498.253 582.735 497.716 583.951C497.818 583.181 498.881 583.566 499.347 583.819L499.377 582.918C501.585 580.689 498.922 584.619 500.623 584.649C501.788 584.295 500.289 584.315 501.049 583.849C501.717 584.153 501.808 584.984 502.912 584.842C503.125 585.247 503.601 585.844 503.429 586.827C504.138 586.574 505.211 587.678 505.779 586.817C504.908 585.763 504.492 587.597 503.54 586.057L504.097 585.186C504.948 585.429 506.153 585.196 506.67 585.672C506.589 585.46 506.599 585.206 506.72 585.024C508.027 584.933 508.604 584.092 509.729 584.67C509.678 585.571 509.02 585.247 508.493 585.196C509.091 586.077 509.283 585.449 510.397 586.027C510.276 586.796 509.607 585.784 509.293 586.493L510.66 586.584C510.64 586.624 510.64 586.685 510.62 586.736C511.116 585.52 511.592 587.09 512.494 586.918C514.388 587.394 515.107 585.774 516.434 585.034C516.636 585.439 516.636 585.784 516.434 586.067C516.11 585.389 516.079 585.855 515.826 586.138C516.505 586.169 516.92 587.728 516.423 588.143C517.538 588.052 516.231 587.384 516.95 587.161L518.317 587.627C518.328 586.938 517.872 586.665 518.723 586.371C519.381 586.361 519.644 586.563 520.424 586.827C520.222 587.11 520.414 587.87 519.827 587.667C520.151 588.012 520.738 588.204 521.133 587.647C520.414 586.827 522.713 587.485 522.338 586.31L523.047 587.131C522.855 587.06 522.713 587.485 522.45 587.283C522.43 588.326 523.24 587.202 523.574 587.191C523.827 587.465 524.607 587.769 524.567 588.154C524.921 587.961 525.529 588.356 525.519 588.883C525.985 588.812 525.731 588.255 525.934 587.981L527.301 588.478C527.22 589.035 526.906 590.564 526.643 590.696C527.312 590.351 527.281 589.166 528.061 589.45C527.312 590.351 528.871 590.564 527.858 591.597C528.091 592.498 529.378 592.843 530.168 592.782C530.846 592.093 529.54 592.093 529.834 591.263C531.92 591.546 532.74 589.268 534.087 590.108L533.773 589.764C534.837 589.561 534.705 589.632 535.455 589.085C534.888 590.047 535.627 592.215 537.187 592.468C537.48 591.982 536.66 591.202 537.166 590.453L538.21 590.615C538.26 590.726 538.088 590.858 537.916 590.949C538.929 590.868 539.152 592.832 539.79 591.698L540.205 593.511L540.053 592.751C540.337 592.275 541.39 592.448 541.663 592.306C542.869 592.063 543.102 592.63 543.436 593.46C543.395 592.974 543.274 591.86 544.135 591.962C543.568 593.633 545.603 593.157 545.289 594.017C545.624 594.109 546.019 594.828 546.282 594.149L545.877 595.172C546.444 593.744 547.599 594.21 548.581 594.26C547.7 596.164 549.624 594.453 549.402 596.377C550.04 595.101 551.184 596.397 551.741 595.314C552.46 595.486 551.954 596.711 551.974 597.198L552.47 596.813C552.592 597.562 553.848 598.129 554.466 598.838L555.6 597.927L555.671 598.555C555.894 598.301 556.552 598.342 556.34 597.765L556.704 597.977C557.2 596.701 557.373 597.825 558.355 597.562C558.456 597.836 558.294 598.119 558.071 598.231C558.456 598.382 558.041 598.98 558.102 599.486C557.95 599.061 560.34 597.704 559.51 596.742C559.631 596.195 560.381 596.033 560.674 596.408L560.482 597.643L561.394 596.6C562.052 596.651 562.032 597.481 562.467 597.795C561.951 597.674 560.543 599.578 561.819 600.043C561.1 599.932 560.533 600.449 560.097 600.57C560.34 600.712 560.431 600.874 559.844 601.208C560.968 601.218 560.441 600.621 561.464 600.854C561.019 601.856 561.171 602.292 561.88 602.98L561.535 601.978C561.616 601.866 561.687 601.795 561.758 601.745C561.556 601.542 561.556 601.35 561.647 600.935C561.829 601.016 563.257 600.104 563.186 600.793C562.812 598.808 565.374 600.226 565.121 599.021C565.344 598.767 566.053 598.97 565.931 599.517C564.817 599.972 566.093 600.925 565.688 601.583C566.103 601.411 565.344 600.57 565.901 600.347C566.417 600.469 566.529 601.238 566.67 601.664L566.397 601.775L566.964 602.525C567.288 602.069 566.579 601.38 567.369 601.38C567.471 601.664 568.261 601.674 568.078 602.069C567.471 602.646 567.339 603.669 566.691 603.608C567.207 603.73 568.808 604.216 568.554 603.011L569.122 603.274C568.929 602.697 568.21 601.522 569.436 601.846L569.344 602.049L570.469 601.593L570.61 602.261C570.702 601.998 570.924 601.816 571.218 601.958C571.178 602.292 571.411 602.535 571.218 602.93C572.109 603.234 572.251 602.697 572.484 602.444C573.001 602.575 573.092 602.859 572.626 603.365C573.234 603.781 574.449 604.125 574.682 604.854C575.766 604.763 574.591 604.56 575.391 604.094C575.421 606.191 578.055 605.978 579.594 606.383C579.858 604.672 580.06 606.383 580.931 605.087C580.415 605.441 581.792 606.88 580.344 606.758L581.184 606.93C581.347 608.004 579.645 607.011 579.939 608.52C580.82 608.844 582.116 607.406 582.886 608.419C582.076 609.361 583.828 608.399 583.048 609.482C582.663 609.786 582.44 609.543 582.116 609.503L582.197 609.796C583.95 610.931 583.301 608.753 584.618 608.439C585.833 608.804 585.155 609.695 584.993 610.232C585.074 610.526 585.732 610.607 586.158 610.455C585.165 610.809 585.155 609.209 585.783 608.662C585.742 610.12 587.454 609.513 587.981 609.158C586.907 607.133 586.866 608.601 585.935 606.515C585.55 606.809 585.094 607.943 584.365 607.072C585.185 606.778 584.598 606.434 584.507 606.181C584.405 606.9 583.747 606.161 583.342 606.302C583.311 605.664 584.547 605.067 583.706 604.398L582.876 605.826C582.602 605.441 583.514 604.793 582.572 604.803C583.332 604.206 582.967 603.527 584.142 603.75C583.423 601.907 581.883 603.588 580.658 603.71C580.8 603.659 580.901 603.467 581.043 603.406C580.658 603.71 580.293 603.517 579.959 603.477C579.442 602.859 580.769 603.011 580.769 602.525L579.685 602.12C579.685 602.059 579.696 602.028 579.706 601.998C579.341 602.089 579.017 602.12 579.068 601.694C579.594 601.34 579.929 600.884 580.313 600.58L578.743 601.168C579.078 600.722 578.176 599.922 579.128 599.891L577.376 599.415L577.66 598.332C577.184 598.352 577.093 598.545 577.518 598.869C577.042 598.393 574.257 599.618 575.381 597.724C573.73 598.028 573.396 597.481 571.603 597.37C573.213 596.904 570.671 595.618 572.15 595.688C571.562 594.939 570.965 595.992 570.296 595.932C569.901 595.273 570.55 594.362 571.319 594.22L570.418 594.412L570.509 594.21L569.658 594.544C569.213 593.734 569.922 593.46 569.294 593.045L568.787 593.896L568.534 593.177C568.544 593.663 568.068 593.693 567.542 593.572L567.633 593.369L566.964 593.308C567.774 592.984 566.488 592.893 567.015 592.346C566.519 592.103 566.498 592.103 565.506 591.911L565.435 592.6C564.017 592.67 565.739 591.648 564.776 591.212L564.564 591.962C563.602 590.199 561.89 591.759 561.13 590.584C561.799 590.635 561.951 589.744 561.87 589.946C560.867 589.875 559.449 589.136 558.193 589.673C558.234 588.498 558.264 588.154 557.464 587.323C556.735 587.131 556.593 587.191 556.147 587.718C555.61 587.05 554.111 587.232 554.344 586.442C553.969 586.999 553.767 586.108 553.21 586.493L553.24 586.148L553.048 586.898C552.389 584.842 550.678 587.11 549.938 585.267L550.212 585.146L549.594 585.257C549.624 584.913 549.898 584.781 550.06 584.376L547.7 583.414L547.994 584.123C547.457 584.021 546.89 584.609 546.454 583.971C547.781 583.191 545.664 583.667 545.786 582.776L546.404 582.654C545.674 582.492 545.674 582.492 545.482 583.252C544.479 583.211 545.31 581.652 544.196 582.168L544.793 582.401C544.834 582.887 544.206 583.353 543.801 583.201C543.74 583.059 543.557 582.634 543.902 582.644C543.081 582.695 542.119 581.966 541.704 582.158C541.38 581.803 541.674 581.317 541.957 581.196C540.195 581.348 541.299 580.831 539.536 580.973L539.688 580.558L539 580.892L538.514 579.758L538.625 580.386C538.088 580.294 537.683 580.487 537.156 580.072L537.592 579.525C536.032 579.434 536.225 577.985 534.584 578.441C534.523 578.299 534.796 578.168 534.938 578.097C533.368 578.694 534.3 576.699 532.659 577.509C532.801 577.327 532.73 577.023 532.842 576.861L532.133 577.094L532.426 576.264L531.586 577.368L531.474 576.395L531.13 576.73C530.968 574.927 529.732 575.869 529.206 574.42L529.054 575.534C526.258 577.155 524.405 572.932 521.488 573.235L521.761 572.405L520.414 573.104C520.009 572.273 520.951 572.476 520.88 571.99C519.594 572.152 520.07 573.114 518.642 573.023C518.095 572.273 519.047 572.456 519.452 572.233C518.064 572.334 516.069 572.334 515.279 571.635C515.228 571.747 515.137 571.878 515.168 571.939C514.226 572.111 513.193 571.453 512.24 571.271C512.352 570.886 512.605 570.876 512.858 570.855C512.534 570.724 512.139 570.339 511.754 570.663L512.281 570.015C511.592 569.681 510.043 570.035 510.083 569.134C510.093 569.488 509.911 570.116 509.293 569.934C509.242 568.546 507.46 570.106 506.619 569.174C506.812 568.891 507.561 568.992 507.359 568.921C506.933 568.465 506.346 568.972 505.809 569.286L506.062 568.789L503.56 568.992C503.49 567.605 501.312 568.688 501.666 567.777C500.836 567.564 502.254 568.496 501.16 568.435C500.988 567.827 500.147 568.516 500.36 567.665L500.492 567.584L499.732 567.503L500.37 566.754C499.691 566.804 499.053 567.554 498.891 568.192C498.385 567.605 497.443 567.817 497.321 566.997L497.585 566.835C495.812 566.835 495.204 563.948 493.584 565.123C493.503 564.981 493.554 564.769 493.766 564.819L492.713 564.566L493.088 563.969L491.153 564.647L491.254 564.222C490.12 563.847 488.267 563.756 486.747 563.624L487 563.462C485.258 563.847 485.491 562.774 484.225 563.047C484.286 562.936 484.337 562.905 484.377 562.885C484.023 562.824 483.658 562.774 483.293 562.733L483.597 562.348C482.655 563.169 481.501 560.789 481.865 561.66C481.349 562.004 480.498 562.389 480.275 562.905C479.09 562.774 480.073 562.308 479.394 561.832C478.543 561.66 478.29 562.389 477.196 561.832L477.277 561.396C476.73 561.396 476.345 561.66 475.586 561.609L475.839 561.437C474.492 562.166 474.482 559.928 473.256 561.72C472.79 561.305 471.767 561.457 471.929 560.586C470.319 560.961 469.104 561.082 467.534 561.244C467.453 559.776 467.199 561.295 466.369 560.363L466.349 561.143C464.191 560.981 461.902 558.874 459.482 558.945L459.492 558.166L458.935 558.966C456.403 558.317 453.08 557.811 451.024 557.649C450.326 558.003 449.242 558.864 448.188 558.51L448.31 558.409C446.426 558.702 444.441 558.976 442.436 558.439C442.577 558.115 442.385 557.882 442.618 557.679C442.101 558.51 441.423 557.669 440.987 557.629L441.473 558.226C440.866 558.935 440.065 558.196 439.792 557.608L438.85 558.398C438.789 558.317 438.708 558.196 438.698 558.074L438.526 558.479L438.07 557.436C437.837 557.629 436.612 557.862 436.217 558.834C436.136 558.49 435.295 558.216 435.953 558.044L432.611 557.679L433.128 558.054C433.178 558.824 432.165 559.3 431.659 558.935C432.348 558.328 431.73 557.841 431.446 557.264C430.99 557.669 431.831 557.953 431.588 558.378C431.011 558.885 429.805 559.128 429.502 558.783L429.846 558.479C429.066 558.753 428.722 557.396 427.952 557.457C427.263 558.085 426.757 557.517 426.899 558.844C425.906 559.128 426.514 557.943 426.19 557.821C425.724 558.459 424.336 558.064 424.154 557.396C423.627 559.35 421.47 556.727 421.287 558.368L420.457 557.446C420.437 557.882 420.295 558.874 419.647 559.057C419.019 558.591 419.14 557.821 418.948 557.376L418.573 559.016C416.76 558.206 414.674 558.145 412.547 558.115C411.483 558.105 410.41 558.095 409.346 558.024C408.283 557.973 407.239 557.841 406.237 557.548C404.495 558.014 402.347 558.905 400.281 558.824L400.494 558.601L398.418 558.348L399.957 558.955C399.532 559.188 399.208 559.533 398.782 559.553C396.503 559.087 393.424 558.54 390.771 559.644C389.211 561.73 389.403 558.135 387.854 559.715C387.975 559.523 387.995 559.249 388.107 559.057C386.344 559.907 385.392 560.353 383.711 561.67C383.671 559.796 382.526 561.862 382.556 560.87L382.506 561.639C382.04 561.224 381.057 561.214 381.118 560.657L380.45 561.72L380.267 560.961C379.184 561.062 376.996 562.055 376.186 560.586C373.714 562.115 369.511 562.541 366.138 562.875C365.794 563.584 364.842 563.817 364.102 564.019L363.12 563.27C362.411 563.716 361.844 565.032 361.013 564.607C360.993 564.505 361.013 564.414 361.044 564.354C360.314 564.708 359.464 564.384 358.927 565.376C358.066 565.518 357.134 565.214 357.205 564.323C357.458 565.842 355.352 564.505 355.352 564.505C355.352 564.505 355.179 564.526 354.845 564.576C354.511 564.617 354.035 564.688 353.417 564.809C352.191 565.032 350.419 565.356 348.272 565.782C347.198 565.994 346.023 566.227 344.777 566.501C343.542 566.804 342.235 567.129 340.858 567.473C339.49 567.837 338.072 568.212 336.604 568.597C335.145 568.992 333.677 569.488 332.168 569.974C320.155 573.793 307.545 580.112 304.315 586.128C304.284 586.958 303.565 587.799 304.274 588.478C303.687 589.035 302.816 587.951 302.988 588.7C304.152 588.751 303.484 590.625 304.801 591.091L304.274 591.516C304.365 592.063 304.841 590.615 305.084 591.567L304.679 590.199C305.246 590.189 305.631 590.351 305.996 590.716C306.229 590.017 305.763 588.123 307.181 588.437L306.918 588.64C307.789 588.214 307.819 589.247 308.092 589.389L307.89 589.46L308.913 589.804C308.163 589.602 307.687 591.06 308.143 590.777C309.348 590.696 307.738 590.574 308.457 590.078C308.923 589.804 309.075 590.554 309.227 590.969L310.088 590.544C310.311 591.161 309.49 590.756 310.118 591.232L310.949 590.118C311.789 591.577 311.85 588.862 312.944 590.108C312.296 590.807 313.228 590.594 313.309 591.151C313.937 590.837 314.585 590.564 315.223 590.28C315.496 590.422 314.899 590.959 315.162 590.766C315.699 591.05 315.618 590.159 315.82 590.088C316.155 590.442 317.279 589.501 317.623 590.554C319.213 590.726 317.674 589.035 319.142 589.136C319.548 589.703 318.221 589.663 319.021 590.098L320.216 589.369C320.216 589.723 320.358 590.483 319.821 590.534C323.589 589.987 326.668 592.701 329.504 590.736C330.213 591.334 329.362 591.354 329.22 591.962C331.155 590.169 332.978 592.448 334.892 591.759L334.72 591.121C336.401 591.658 337.951 591.384 339.501 590.949C341.05 590.513 342.61 589.916 344.271 589.906L343.775 589.571C344.018 588.842 344.686 588.579 345.122 588.154C345.294 588.447 345.142 589.612 345.963 589.095C345.709 588.923 345.264 588.792 345.294 588.447C346.864 588.903 349.001 588.609 351.341 588.204C353.69 587.84 356.212 587.313 358.501 587.161C361.408 586.209 364.579 585.763 367.708 585.277C370.858 584.892 373.988 584.528 376.905 583.799C376.013 583.991 376.125 582.33 376.864 582.593C379.174 585.024 380.024 581.631 382.222 583.191C385.544 581.733 388.947 583.809 391.905 581.277L392.057 582.047C392.573 582.34 392.644 581.783 393.141 581.641L393.151 581.864C394.376 582.016 395.744 581.105 396.473 581.408L396.432 580.527C397.141 580.386 396.868 581.165 397.546 580.598L397.567 581.034L398.336 580.122C398.397 581.662 400.362 580.051 400.99 580.689C401.881 580.305 403.593 579.545 405.021 579.758C405.335 580.527 407.057 580.406 408.171 580.73C410.288 580.355 413.326 580.011 416.061 580.183L415.98 579.191L416.689 579.099C416.689 579.322 416.79 579.434 416.679 579.535C417.266 580.649 418.31 579.12 418.897 579.798C418.512 578.907 418.391 579.677 417.986 579.667C417.388 579.211 417.915 578.228 418.725 578.694L418.715 578.917L419.241 578.37C419.323 579.14 419.819 579.504 419.9 580.274C422.229 580.072 423.809 578.715 426.24 579.059C425.997 579.93 427.982 578.816 427.496 580.335C428.944 579.758 427.263 579.12 427.922 578.046C428.327 578.077 428.762 577.671 428.833 578.228C428.641 578.583 429.157 579.15 428.823 579.282L429.795 579.18C429.886 579.302 429.674 579.504 429.562 579.606C431.548 578.765 433.047 580.649 434.839 579.798C434.981 579.261 434.14 579.636 434.282 579.089C436.095 578.026 435.832 580.072 437.523 579.363L437.159 580.102C437.716 579.606 437.969 578.968 438.83 579.616C438.951 580.517 438.05 580.305 437.614 580.7C438.222 580.76 439.762 580.598 439.326 579.778C440.065 579.525 440.298 580.325 440.683 580.578C440.704 580.365 440.025 579.96 440.471 579.565C441.443 580.112 442.962 580.153 444.167 580.284C444.147 580.507 444.208 580.841 444.097 580.943C445.17 579.829 444.968 581.773 446.305 581.631Z" fill="#5D4DA3"/>
<path d="M511.055 587.009L510.61 586.756C510.559 586.948 510.488 587.161 510.215 587.313L511.055 587.009Z" fill="#5D4DA3"/>
<path d="M488.196 581.571C488.125 581.631 488.054 581.682 487.983 581.773C488.094 581.763 488.155 581.672 488.196 581.571Z" fill="#5D4DA3"/>
<path d="M482.311 582.138C482.746 582.016 482.422 581.722 482.26 581.469C482.23 581.641 482.2 581.854 482.311 582.138Z" fill="#5D4DA3"/>
<path d="M524.567 588.123C524.455 588.184 524.374 588.285 524.344 588.467C524.496 588.336 524.557 588.224 524.567 588.123Z" fill="#5D4DA3"/>
<path d="M559.55 600.226C559.52 600.165 559.489 600.135 559.459 600.054C559.459 600.114 559.5 600.175 559.55 600.226Z" fill="#5D4DA3"/>
<path d="M558.102 598.22C558.011 598.18 557.879 598.17 557.666 598.19C557.828 598.301 557.97 598.281 558.102 598.22Z" fill="#5D4DA3"/>
<path d="M515.816 586.108C515.674 586.108 515.532 586.138 515.37 586.29C515.583 586.321 515.714 586.219 515.816 586.108Z" fill="#5D4DA3"/>
<path d="M557.201 598.231L556.745 597.967C556.724 598.018 556.704 598.058 556.674 598.129L557.201 598.231Z" fill="#5D4DA3"/>
<path d="M560.127 600.55C559.945 600.459 559.692 600.357 559.55 600.226C559.712 600.54 559.895 600.611 560.127 600.55Z" fill="#5D4DA3"/>
<path d="M537.936 590.918C537.916 590.929 537.896 590.918 537.875 590.918C537.379 591.162 537.663 591.091 537.936 590.918Z" fill="#5D4DA3"/>
<path d="M554.558 598.879L554.507 598.818L554.283 599.001L554.558 598.879Z" fill="#5D4DA3"/>
<path d="M562.083 601.664C561.982 601.644 561.89 601.654 561.789 601.725C561.85 601.786 561.931 601.847 562.022 601.928C562.043 601.806 562.063 601.735 562.083 601.664Z" fill="#5D4DA3"/>
<path d="M544.905 594.615C545.148 594.352 545.269 594.159 545.33 593.997C545.158 593.947 545.006 594.058 544.905 594.615Z" fill="#5D4DA3"/>
<path d="M99.7513 260.008L236.89 208.134L214.749 130.982C212.318 122.505 203.203 117.877 194.928 120.905L73.9846 165.142C65.6388 168.201 61.6887 177.731 65.416 185.793L99.7513 260.008Z" stroke="#2C3E50" stroke-width="5" stroke-miterlimit="10"/>
<path d="M415.778 548.737L195.151 632.189" stroke="#2C3E50" stroke-width="5" stroke-miterlimit="10"/>
<path d="M253.571 254.397L122.733 303.891L137.996 499.82C138.837 510.667 148.114 518.941 158.992 518.475C219.388 515.913 268.035 540.027 305.55 589.45C299.878 526.507 321.715 476.881 368.367 439.287C376.864 432.441 378.374 420.075 371.81 411.355L253.571 254.397Z" stroke="#2C3E50" stroke-width="5" stroke-miterlimit="10"/>
<path d="M422.878 553.649C427.073 553.649 430.474 550.248 430.474 546.053C430.474 541.858 427.073 538.457 422.878 538.457C418.682 538.457 415.281 541.858 415.281 546.053C415.281 550.248 418.682 553.649 422.878 553.649Z" stroke="#2C3E50" stroke-width="5" stroke-miterlimit="10"/>
<path d="M188.051 642.468C192.246 642.468 195.647 639.067 195.647 634.872C195.647 630.677 192.246 627.276 188.051 627.276C183.855 627.276 180.454 630.677 180.454 634.872C180.454 639.067 183.855 642.468 188.051 642.468Z" stroke="#2C3E50" stroke-width="5" stroke-miterlimit="10"/>
<path d="M216.866 389.966C216.866 394.391 219.044 398.311 222.396 400.701C228.21 404.863 232.454 410.859 235.057 417.503C235.127 417.695 235.209 417.888 235.279 418.07C238.348 425.888 241.437 433.697 244.517 441.505L264.064 491.121L303.17 590.341L307.91 588.549L271.559 488.285L253.379 438.153C250.513 430.243 247.646 422.334 244.77 414.424C244.648 414.09 244.527 413.756 244.405 413.421C241.954 406.707 241.701 399.476 243.058 392.457C243.321 391.1 243.372 389.672 243.19 388.214C242.42 382.228 237.508 377.438 231.502 376.82C223.551 376.01 216.866 382.208 216.866 389.966Z" fill="#453396"/>
<path d="M111.014 311.932L262.808 254.519C267.315 252.807 269.594 247.774 267.883 243.257L254.473 207.81C252.761 203.303 247.727 201.025 243.21 202.736L91.4257 260.15C86.9186 261.861 84.6397 266.895 86.3514 271.412L99.7614 306.858C101.463 311.365 106.507 313.644 111.014 311.932Z" fill="#FDCF00"/>
<path d="M312.822 565.113L283.328 576.274C280.563 577.317 279.176 580.406 280.219 583.161L291.381 612.652C292.424 615.417 295.513 616.805 298.268 615.762L327.762 604.601C330.527 603.558 331.914 600.469 330.871 597.714L319.71 568.222C318.666 565.457 315.577 564.07 312.822 565.113Z" fill="#2C3E50"/>
<path d="M305.54 602.656C312.834 602.656 318.747 596.743 318.747 589.45C318.747 582.156 312.834 576.243 305.54 576.243C298.246 576.243 292.333 582.156 292.333 589.45C292.333 596.743 298.246 602.656 305.54 602.656Z" fill="#FDCF00"/>
</svg>
