<svg width="237" height="183" viewBox="0 0 237 183" fill="none" xmlns="http://www.w3.org/2000/svg">
<path d="M204.212 40.8617C215.263 56.3086 221.941 71.5141 228.378 93.1156C234.814 114.717 241.007 142.594 229.956 159.972C218.906 177.229 190.854 183.745 168.024 178.435C145.195 173.125 127.829 155.989 108.157 138.732C88.6059 121.354 66.869 104.097 61.4044 81.2891C55.9399 58.6015 66.869 30.3627 86.4201 15.0365C105.971 -0.41037 134.387 -3.18597 156.124 3.20999C177.982 9.72664 193.283 25.4149 204.212 40.8617Z" fill="#FF7D7D"/>
<g clip-path="url(#clip0)">
<path d="M170.821 162.725C170.842 162.694 170.863 162.659 170.884 162.603C170.849 162.652 170.831 162.69 170.821 162.725Z" fill="#5D4DA3"/>
<path d="M163.366 159.408L163.474 159.373C163.415 159.362 163.387 159.38 163.366 159.408Z" fill="#5D4DA3"/>
<path d="M175.232 164.748C175.221 164.755 175.218 164.766 175.211 164.776C175.278 164.808 175.369 164.85 175.52 164.924L175.232 164.748Z" fill="#5D4DA3"/>
<path d="M146.59 154.573L146.699 154.587C146.65 154.576 146.618 154.555 146.59 154.573Z" fill="#5D4DA3"/>
<path d="M156.608 157.269C156.563 157.318 156.507 157.325 156.451 157.329C156.514 157.353 156.566 157.353 156.608 157.269Z" fill="#5D4DA3"/>
<path d="M176.501 168.434L176.452 168.195C176.424 168.276 176.435 168.378 176.501 168.434Z" fill="#5D4DA3"/>
<path d="M181.267 169.556C181.27 169.542 181.274 169.528 181.274 169.51C181.256 169.525 181.259 169.539 181.267 169.556Z" fill="#5D4DA3"/>
<path d="M179.843 168.062C179.797 168.062 179.741 168.076 179.682 168.09C179.741 168.108 179.808 168.136 179.843 168.062Z" fill="#5D4DA3"/>
<path d="M179.604 168.112C179.629 168.104 179.658 168.097 179.686 168.09C179.647 168.083 179.619 168.08 179.604 168.112Z" fill="#5D4DA3"/>
<path d="M84.2618 162.603C84.1251 162.652 84.076 162.837 84.0059 163.002L84.2618 162.603Z" fill="#5D4DA3"/>
<path d="M130.779 152.901L130.815 152.819C130.783 152.844 130.779 152.872 130.779 152.901Z" fill="#5D4DA3"/>
<path d="M84.7948 164.272H84.686C84.7316 164.286 84.7667 164.282 84.7948 164.272Z" fill="#5D4DA3"/>
<path d="M173.938 168.006C173.738 168.139 173.559 167.817 173.493 167.996C173.64 168.02 173.78 168.234 173.938 168.006Z" fill="#5D4DA3"/>
<path d="M127.372 160.243L127.28 160.253C127.322 160.257 127.351 160.253 127.372 160.243Z" fill="#5D4DA3"/>
<path d="M84.7949 164.272L84.9211 164.268C84.8966 164.237 84.872 164.216 84.851 164.191C84.837 164.226 84.8195 164.254 84.7949 164.272Z" fill="#5D4DA3"/>
<path d="M114.176 153.441C114.18 153.441 114.18 153.441 114.184 153.441C114.194 153.427 114.202 153.416 114.212 153.401L114.176 153.441Z" fill="#5D4DA3"/>
<path d="M113.261 153.233C113.32 153.205 113.376 153.177 113.44 153.145C113.338 153.138 113.289 153.177 113.261 153.233Z" fill="#5D4DA3"/>
<path d="M84.0061 163.002L83.8623 163.23C83.9289 163.181 83.971 163.093 84.0061 163.002Z" fill="#5D4DA3"/>
<path d="M103.892 155.071C103.92 155.06 103.948 155.046 103.973 155.028C103.934 155.036 103.909 155.05 103.892 155.071Z" fill="#5D4DA3"/>
<path d="M157.222 157.539C157.24 157.564 157.265 157.578 157.286 157.599C157.307 157.557 157.307 157.521 157.222 157.539Z" fill="#5D4DA3"/>
<path d="M149.885 161.27L149.879 161.275C149.885 161.275 149.885 161.27 149.885 161.27Z" fill="#5D4DA3"/>
<path d="M150.258 161.095C150.164 161.032 149.992 161.14 149.883 161.27C149.988 161.291 150.094 161.27 150.258 161.095Z" fill="#5D4DA3"/>
<path d="M149.203 161.032C149.213 161.042 149.223 161.049 149.237 161.063C149.223 161.049 149.213 161.038 149.203 161.032Z" fill="#5D4DA3"/>
<path d="M155.669 162.838C155.669 162.831 155.673 162.823 155.673 162.816C155.669 162.823 155.665 162.827 155.669 162.838Z" fill="#5D4DA3"/>
<path d="M154.371 162.553C154.357 162.511 154.333 162.476 154.301 162.448C154.315 162.49 154.336 162.529 154.371 162.553Z" fill="#5D4DA3"/>
<path d="M145.857 160.999L145.86 160.993C145.857 160.993 145.857 160.996 145.854 160.993L145.857 160.999Z" fill="#5D4DA3"/>
<path d="M133.406 161.06C134.64 161.032 136.271 160.734 137.484 160.982C137.789 160.604 138.178 160.628 138.578 160.576L138.564 161.116L138.908 160.975C139.023 161.151 138.648 161.053 138.859 161.277L139.016 160.958C139.023 161.144 139.833 161.182 139.248 161.498L140.503 161.652C140.78 161.701 140.721 161.228 141.012 161.396C141.054 161.561 140.889 161.491 140.889 161.684C141.758 162.196 142.092 160.772 142.923 161.147L142.838 161.207C143.007 161.088 143.284 161.147 143.298 161.07C143.263 160.516 143.101 161.337 142.884 160.982C142.972 160.534 143.249 160.786 143.28 160.442C143.459 160.635 143.617 160.397 143.799 160.397C144.059 160.723 144.522 160.586 144.697 160.975C144.865 160.856 145.1 160.435 145.423 160.467C145.595 160.856 145.314 160.793 145.602 160.979L145.693 160.727C145.938 160.811 145.889 160.877 145.858 161C146.128 161.06 146.142 160.681 146.454 160.909L146.222 161.13C146.489 161.074 146.583 161.137 146.931 161.221C146.896 161.368 146.759 161.337 146.664 161.274C146.787 161.694 147.018 161.161 147.113 161.221C147.102 161.102 146.871 161.007 147.032 160.772C147.197 160.849 147.464 160.485 147.534 160.811L147.299 161.028C147.699 160.888 147.551 160.737 147.947 160.909C147.923 160.926 147.919 160.99 147.902 161.046C148.225 160.758 148.516 161.119 148.898 161.221L148.81 161.277C148.982 161.221 149.112 161.004 149.196 161.039C149.003 160.846 149.077 160.783 149.105 160.527C149.315 161.014 149.648 160.12 150.079 160.467C150.041 160.614 149.89 160.772 149.792 160.586C149.543 160.993 149.452 161.365 149.122 161.512C149.322 161.445 149.546 161.428 149.466 161.603L149.603 161.207C149.715 161.217 149.795 161.26 149.88 161.277C149.978 161.028 149.739 160.811 150.03 160.691C150.346 160.614 150.101 161.14 150.181 160.965C150.609 160.881 150.434 160.558 150.788 160.769C150.742 160.797 150.655 160.849 150.63 160.807C150.868 161.025 151.317 160.867 151.296 161.375C151.233 161.477 151.195 161.624 151.1 161.561L151.121 161.487C150.749 161.785 151.391 161.442 151.205 161.863C151.24 161.596 151.608 161.729 151.77 161.817L151.78 161.505C152.545 160.734 151.622 162.094 152.211 162.105C152.615 161.982 152.096 161.989 152.359 161.828C152.59 161.933 152.622 162.22 153.004 162.171C153.078 162.311 153.242 162.518 153.183 162.858C153.428 162.771 153.8 163.153 153.996 162.855C153.695 162.49 153.551 163.125 153.221 162.592L153.414 162.29C153.709 162.375 154.126 162.294 154.305 162.459C154.277 162.385 154.28 162.297 154.322 162.234C154.775 162.203 154.975 161.912 155.364 162.112C155.346 162.424 155.118 162.311 154.936 162.294C155.143 162.599 155.21 162.382 155.595 162.581C155.553 162.848 155.322 162.497 155.213 162.743L155.686 162.774C155.679 162.788 155.679 162.809 155.672 162.827C155.844 162.406 156.009 162.95 156.321 162.89C156.977 163.055 157.226 162.494 157.685 162.238C157.755 162.378 157.755 162.497 157.685 162.595C157.573 162.361 157.562 162.522 157.475 162.62C157.71 162.631 157.853 163.171 157.682 163.314C158.067 163.283 157.615 163.051 157.864 162.974L158.337 163.135C158.341 162.897 158.183 162.802 158.478 162.701C158.706 162.697 158.797 162.767 159.067 162.858C158.997 162.957 159.063 163.22 158.86 163.15C158.972 163.269 159.175 163.335 159.312 163.143C159.063 162.858 159.859 163.086 159.729 162.68L159.975 162.964C159.908 162.939 159.859 163.086 159.768 163.016C159.761 163.377 160.042 162.988 160.157 162.985C160.245 163.079 160.515 163.185 160.501 163.318C160.624 163.251 160.834 163.388 160.83 163.57C160.992 163.546 160.904 163.353 160.974 163.258L161.448 163.43C161.42 163.623 161.311 164.152 161.22 164.198C161.451 164.079 161.441 163.668 161.711 163.767C161.451 164.079 161.991 164.152 161.641 164.51C161.721 164.822 162.166 164.941 162.44 164.92C162.675 164.682 162.223 164.682 162.324 164.394C163.047 164.493 163.331 163.704 163.797 163.995L163.688 163.875C164.057 163.805 164.011 163.83 164.27 163.64C164.074 163.974 164.33 164.724 164.87 164.812C164.972 164.643 164.688 164.373 164.863 164.114L165.224 164.17C165.242 164.208 165.182 164.254 165.122 164.286C165.473 164.258 165.55 164.938 165.771 164.545L165.915 165.173L165.862 164.91C165.961 164.745 166.325 164.805 166.42 164.756C166.837 164.671 166.918 164.868 167.034 165.155C167.02 164.987 166.977 164.601 167.276 164.636C167.079 165.215 167.784 165.05 167.675 165.348C167.791 165.38 167.928 165.629 168.019 165.394L167.879 165.748C168.075 165.253 168.475 165.415 168.815 165.432C168.51 166.091 169.176 165.499 169.099 166.165C169.32 165.723 169.716 166.172 169.909 165.797C170.158 165.857 169.983 166.281 169.99 166.449L170.161 166.316C170.203 166.575 170.638 166.772 170.852 167.017L171.245 166.702L171.269 166.919C171.347 166.831 171.575 166.845 171.501 166.646L171.627 166.719C171.799 166.277 171.859 166.667 172.199 166.575C172.234 166.67 172.178 166.768 172.1 166.807C172.234 166.859 172.09 167.066 172.111 167.242C172.058 167.094 172.886 166.624 172.598 166.291C172.641 166.102 172.9 166.046 173.002 166.176L172.935 166.603L173.251 166.242C173.479 166.26 173.472 166.547 173.622 166.656C173.444 166.614 172.956 167.273 173.398 167.435C173.149 167.396 172.953 167.575 172.802 167.617C172.886 167.666 172.918 167.722 172.714 167.838C173.103 167.841 172.921 167.634 173.275 167.715C173.121 168.062 173.174 168.213 173.419 168.451L173.3 168.104C173.328 168.066 173.352 168.041 173.377 168.024C173.307 167.953 173.307 167.887 173.338 167.743C173.401 167.771 173.896 167.456 173.871 167.694C173.742 167.007 174.629 167.498 174.541 167.08C174.618 166.993 174.864 167.063 174.822 167.252C174.436 167.41 174.878 167.74 174.737 167.967C174.881 167.908 174.618 167.617 174.811 167.54C174.99 167.582 175.028 167.848 175.078 167.996L174.983 168.034L175.179 168.294C175.291 168.136 175.046 167.897 175.319 167.897C175.355 167.996 175.628 167.999 175.565 168.136C175.355 168.336 175.309 168.69 175.085 168.669C175.263 168.711 175.817 168.879 175.73 168.462L175.926 168.553C175.859 168.353 175.611 167.946 176.035 168.059L176.003 168.129L176.392 167.971L176.442 168.202C176.473 168.111 176.55 168.048 176.652 168.097C176.638 168.213 176.719 168.297 176.652 168.434C176.961 168.539 177.01 168.353 177.09 168.266C177.269 168.311 177.301 168.409 177.139 168.585C177.35 168.728 177.771 168.848 177.851 169.1C178.226 169.069 177.82 168.998 178.097 168.837C178.107 169.563 179.019 169.489 179.552 169.63C179.643 169.037 179.713 169.63 180.015 169.181C179.836 169.303 180.313 169.801 179.811 169.759L180.102 169.819C180.159 170.191 179.569 169.847 179.671 170.369C179.976 170.482 180.425 169.984 180.691 170.334C180.411 170.661 181.018 170.327 180.748 170.703C180.614 170.808 180.537 170.724 180.425 170.71L180.453 170.811C181.06 171.204 180.835 170.45 181.291 170.341C181.712 170.468 181.477 170.776 181.421 170.962C181.449 171.064 181.677 171.092 181.824 171.039C181.48 171.162 181.477 170.608 181.694 170.419C181.68 170.923 182.273 170.713 182.455 170.59C182.084 169.889 182.07 170.398 181.747 169.675C181.614 169.777 181.456 170.17 181.203 169.868C181.487 169.766 181.284 169.647 181.253 169.559C181.217 169.808 180.99 169.552 180.849 169.602C180.839 169.381 181.267 169.174 180.976 168.942L180.688 169.437C180.593 169.303 180.909 169.079 180.583 169.083C180.846 168.876 180.72 168.641 181.126 168.718C180.877 168.08 180.344 168.662 179.92 168.704C179.969 168.686 180.004 168.62 180.053 168.599C179.92 168.704 179.794 168.637 179.678 168.623C179.499 168.409 179.959 168.462 179.959 168.294L179.583 168.153C179.583 168.132 179.587 168.122 179.59 168.111C179.464 168.143 179.352 168.153 179.37 168.006C179.552 167.883 179.668 167.726 179.801 167.62L179.257 167.824C179.373 167.669 179.061 167.392 179.391 167.382L178.784 167.217L178.882 166.842C178.717 166.849 178.686 166.916 178.833 167.028C178.668 166.863 177.704 167.287 178.093 166.632C177.522 166.737 177.406 166.547 176.785 166.509C177.343 166.347 176.463 165.902 176.975 165.927C176.771 165.667 176.564 166.032 176.333 166.011C176.196 165.783 176.421 165.467 176.687 165.418L176.375 165.485L176.407 165.415L176.112 165.53C175.958 165.25 176.203 165.155 175.986 165.011L175.81 165.306L175.723 165.057C175.726 165.225 175.561 165.236 175.379 165.194L175.411 165.124L175.179 165.103C175.46 164.99 175.014 164.959 175.197 164.77C175.025 164.685 175.018 164.685 174.674 164.619L174.65 164.857C174.159 164.882 174.755 164.528 174.422 164.377L174.348 164.636C174.015 164.026 173.422 164.566 173.159 164.159C173.391 164.177 173.443 163.868 173.415 163.938C173.068 163.914 172.577 163.658 172.143 163.844C172.157 163.437 172.167 163.318 171.89 163.03C171.638 162.964 171.589 162.985 171.434 163.167C171.248 162.936 170.729 162.999 170.81 162.725C170.68 162.918 170.61 162.61 170.417 162.743L170.428 162.624L170.361 162.883C170.133 162.171 169.541 162.957 169.285 162.318L169.379 162.276L169.166 162.315C169.176 162.196 169.271 162.15 169.327 162.01L168.51 161.677L168.612 161.922C168.426 161.887 168.229 162.091 168.078 161.87C168.538 161.6 167.805 161.764 167.847 161.456L168.061 161.414C167.809 161.358 167.809 161.358 167.742 161.621C167.395 161.607 167.682 161.067 167.297 161.245L167.503 161.326C167.517 161.494 167.3 161.656 167.16 161.603C167.139 161.554 167.076 161.407 167.195 161.41C166.911 161.428 166.578 161.175 166.434 161.242C166.322 161.119 166.423 160.951 166.522 160.909C165.911 160.961 166.294 160.783 165.684 160.832L165.736 160.688L165.498 160.804L165.329 160.411L165.368 160.628C165.182 160.597 165.042 160.663 164.86 160.52L165.01 160.33C164.47 160.299 164.537 159.797 163.969 159.955C163.948 159.906 164.042 159.86 164.092 159.836C163.548 160.043 163.871 159.352 163.303 159.632C163.352 159.569 163.327 159.464 163.366 159.408L163.12 159.489L163.222 159.201L162.931 159.583L162.892 159.247L162.773 159.362C162.717 158.738 162.289 159.064 162.107 158.563L162.054 158.949C161.086 159.51 160.445 158.048 159.435 158.153L159.53 157.865L159.063 158.107C158.923 157.82 159.249 157.89 159.225 157.721C158.779 157.778 158.944 158.111 158.45 158.079C158.26 157.82 158.59 157.883 158.73 157.806C158.25 157.841 157.559 157.841 157.285 157.599C157.268 157.637 157.236 157.683 157.247 157.704C156.921 157.764 156.563 157.536 156.233 157.472C156.272 157.339 156.36 157.336 156.447 157.329C156.335 157.283 156.198 157.15 156.065 157.262L156.247 157.038C156.009 156.922 155.473 157.045 155.487 156.733C155.49 156.855 155.427 157.073 155.213 157.01C155.196 156.529 154.578 157.069 154.287 156.747C154.354 156.648 154.613 156.683 154.543 156.659C154.396 156.501 154.193 156.676 154.007 156.785L154.094 156.613L153.228 156.683C153.204 156.203 152.45 156.578 152.573 156.263C152.285 156.189 152.776 156.512 152.397 156.491C152.338 156.28 152.047 156.519 152.12 156.224L152.166 156.196L151.903 156.168L152.124 155.909C151.889 155.926 151.668 156.186 151.612 156.406C151.436 156.203 151.11 156.277 151.068 155.993L151.159 155.937C150.546 155.937 150.335 154.937 149.774 155.344C149.746 155.295 149.764 155.221 149.838 155.239L149.473 155.151L149.603 154.944L148.933 155.179L148.968 155.032C148.575 154.902 147.933 154.871 147.407 154.825L147.495 154.769C146.892 154.902 146.973 154.53 146.534 154.625C146.555 154.587 146.573 154.576 146.587 154.569C146.464 154.548 146.338 154.53 146.212 154.516L146.317 154.383C145.991 154.667 145.591 153.843 145.717 154.145C145.539 154.264 145.244 154.397 145.167 154.576C144.757 154.53 145.097 154.369 144.862 154.204C144.567 154.145 144.48 154.397 144.101 154.204L144.129 154.054C143.94 154.054 143.806 154.145 143.543 154.127L143.631 154.068C143.165 154.32 143.161 153.545 142.737 154.166C142.575 154.022 142.221 154.075 142.277 153.773C141.72 153.903 141.299 153.945 140.756 154.001C140.728 153.493 140.64 154.019 140.352 153.696L140.345 153.966C139.598 153.91 138.806 153.18 137.968 153.205L137.971 152.935L137.779 153.212C136.902 152.988 135.752 152.812 135.04 152.756C134.798 152.879 134.423 153.177 134.058 153.054L134.1 153.019C133.448 153.121 132.761 153.216 132.066 153.03C132.115 152.917 132.049 152.837 132.13 152.767C131.951 153.054 131.716 152.763 131.565 152.749L131.733 152.956C131.523 153.202 131.246 152.946 131.151 152.742L130.825 153.016C130.804 152.988 130.776 152.946 130.772 152.903L130.713 153.044L130.555 152.683C130.474 152.749 130.05 152.83 129.913 153.166C129.885 153.047 129.594 152.953 129.822 152.893L128.665 152.767L128.844 152.896C128.861 153.163 128.511 153.328 128.335 153.202C128.574 152.991 128.36 152.823 128.262 152.623C128.104 152.763 128.395 152.861 128.311 153.009C128.111 153.184 127.694 153.268 127.589 153.149L127.708 153.044C127.438 153.138 127.319 152.669 127.052 152.69C126.814 152.907 126.638 152.711 126.687 153.17C126.344 153.268 126.554 152.858 126.442 152.816C126.281 153.037 125.8 152.9 125.737 152.669C125.555 153.345 124.808 152.437 124.745 153.005L124.457 152.686C124.45 152.837 124.401 153.18 124.177 153.244C123.959 153.082 124.001 152.816 123.935 152.662L123.805 153.23C123.177 152.949 122.455 152.928 121.719 152.917C121.35 152.914 120.979 152.91 120.611 152.886C120.242 152.868 119.881 152.823 119.534 152.721C118.931 152.882 118.188 153.191 117.472 153.163L117.546 153.086L116.827 152.998L117.36 153.209C117.213 153.289 117.101 153.408 116.953 153.415C116.164 153.254 115.098 153.065 114.18 153.447C113.64 154.169 113.706 152.924 113.17 153.472C113.212 153.405 113.219 153.31 113.257 153.244C112.647 153.538 112.318 153.692 111.736 154.148C111.721 153.5 111.325 154.215 111.336 153.871L111.318 154.138C111.157 153.994 110.817 153.99 110.838 153.798L110.606 154.166L110.543 153.903C110.168 153.938 109.411 154.282 109.13 153.773C108.275 154.303 106.819 154.45 105.652 154.566C105.532 154.811 105.203 154.892 104.947 154.962L104.607 154.702C104.361 154.857 104.165 155.312 103.877 155.165C103.87 155.13 103.877 155.099 103.888 155.077C103.635 155.2 103.341 155.088 103.155 155.432C102.857 155.481 102.534 155.376 102.559 155.067C102.647 155.593 101.917 155.13 101.917 155.13C101.917 155.13 101.858 155.137 101.742 155.155C101.626 155.169 101.461 155.193 101.247 155.235C100.823 155.312 100.21 155.425 99.4661 155.572C99.0944 155.646 98.6877 155.726 98.2564 155.821C97.8286 155.926 97.3762 156.038 96.8994 156.158C96.426 156.284 95.9351 156.413 95.4266 156.547C94.9217 156.683 94.4132 156.855 93.8908 157.024C89.732 158.346 85.3664 160.534 84.2478 162.617C84.2373 162.904 83.9883 163.195 84.2338 163.43C84.0304 163.623 83.7288 163.248 83.7884 163.507C84.1917 163.525 83.9602 164.173 84.4161 164.335L84.2338 164.482C84.2653 164.671 84.4301 164.17 84.5143 164.5L84.374 164.026C84.5704 164.023 84.7036 164.079 84.8299 164.205C84.9105 163.963 84.7492 163.307 85.2401 163.416L85.149 163.486C85.4505 163.339 85.461 163.697 85.5557 163.746L85.4856 163.77L85.8397 163.889C85.5803 163.819 85.4155 164.324 85.5732 164.226C85.9905 164.198 85.433 164.156 85.682 163.984C85.8433 163.889 85.8959 164.149 85.9484 164.293L86.2465 164.145C86.3236 164.359 86.0396 164.219 86.257 164.384L86.5446 163.998C86.8356 164.503 86.8566 163.563 87.2353 163.995C87.0109 164.237 87.3335 164.163 87.3616 164.356C87.579 164.247 87.8034 164.152 88.0243 164.054C88.119 164.103 87.9121 164.289 88.0033 164.223C88.1891 164.321 88.1611 164.012 88.2312 163.988C88.3469 164.11 88.7361 163.784 88.8554 164.149C89.4059 164.208 88.8729 163.623 89.3813 163.658C89.5216 163.854 89.0623 163.84 89.3393 163.991L89.753 163.739C89.753 163.861 89.8021 164.124 89.6163 164.142C90.9207 163.953 91.9867 164.892 92.9685 164.212C93.214 164.419 92.9194 164.426 92.8703 164.636C93.5401 164.016 94.1713 164.805 94.834 164.566L94.7744 164.345C95.3565 164.531 95.893 164.436 96.4295 164.286C96.966 164.135 97.506 163.928 98.0811 163.924L97.9092 163.809C97.9934 163.556 98.2248 163.465 98.3756 163.318C98.4352 163.42 98.3826 163.823 98.6667 163.644C98.579 163.584 98.4247 163.539 98.4352 163.42C98.9787 163.577 99.7186 163.476 100.529 163.335C101.342 163.209 102.215 163.027 103.008 162.974C104.014 162.645 105.112 162.49 106.195 162.322C107.286 162.189 108.369 162.062 109.379 161.81C109.071 161.877 109.109 161.302 109.365 161.393C110.165 162.234 110.459 161.06 111.22 161.6C112.37 161.095 113.548 161.814 114.572 160.937L114.625 161.203C114.804 161.305 114.828 161.112 115 161.063L115.004 161.14C115.428 161.193 115.901 160.877 116.154 160.982L116.14 160.677C116.385 160.628 116.29 160.898 116.525 160.702L116.532 160.853L116.799 160.537C116.82 161.07 117.5 160.513 117.718 160.734C118.026 160.6 118.619 160.337 119.113 160.411C119.222 160.677 119.818 160.635 120.204 160.748C120.937 160.618 121.989 160.499 122.935 160.558L122.907 160.215L123.153 160.183C123.153 160.26 123.188 160.299 123.149 160.334C123.353 160.72 123.714 160.19 123.917 160.425C123.784 160.116 123.742 160.383 123.602 160.379C123.395 160.222 123.577 159.881 123.858 160.043L123.854 160.12L124.036 159.931C124.064 160.197 124.236 160.323 124.264 160.59C125.071 160.52 125.618 160.05 126.459 160.169C126.375 160.471 127.063 160.085 126.894 160.611C127.396 160.411 126.814 160.19 127.042 159.818C127.182 159.829 127.333 159.689 127.357 159.881C127.29 160.004 127.469 160.201 127.354 160.246L127.69 160.211C127.722 160.253 127.648 160.323 127.61 160.358C128.297 160.067 128.816 160.719 129.436 160.425C129.486 160.239 129.195 160.369 129.244 160.179C129.871 159.811 129.78 160.52 130.366 160.274L130.239 160.53C130.432 160.358 130.52 160.137 130.818 160.362C130.86 160.674 130.548 160.6 130.397 160.737C130.608 160.758 131.141 160.702 130.99 160.418C131.246 160.33 131.327 160.607 131.46 160.695C131.467 160.621 131.232 160.481 131.386 160.344C131.723 160.534 132.249 160.548 132.666 160.593C132.659 160.67 132.68 160.786 132.641 160.821C133.013 160.435 132.943 161.109 133.406 161.06Z" fill="#5D4DA3"/>
<path d="M155.823 162.922L155.669 162.834C155.651 162.901 155.627 162.974 155.532 163.027L155.823 162.922Z" fill="#5D4DA3"/>
<path d="M147.91 161.039C147.885 161.06 147.86 161.078 147.835 161.109C147.874 161.106 147.896 161.074 147.91 161.039Z" fill="#5D4DA3"/>
<path d="M145.872 161.235C146.022 161.193 145.91 161.091 145.854 161.004C145.843 161.063 145.833 161.137 145.872 161.235Z" fill="#5D4DA3"/>
<path d="M160.501 163.307C160.462 163.328 160.434 163.363 160.424 163.427C160.476 163.381 160.497 163.342 160.501 163.307Z" fill="#5D4DA3"/>
<path d="M172.613 167.498C172.602 167.477 172.592 167.466 172.581 167.438C172.581 167.459 172.595 167.481 172.613 167.498Z" fill="#5D4DA3"/>
<path d="M172.111 166.803C172.079 166.789 172.034 166.786 171.96 166.793C172.016 166.831 172.065 166.824 172.111 166.803Z" fill="#5D4DA3"/>
<path d="M157.471 162.609C157.422 162.609 157.373 162.62 157.317 162.673C157.391 162.683 157.436 162.648 157.471 162.609Z" fill="#5D4DA3"/>
<path d="M171.799 166.807L171.641 166.716C171.634 166.733 171.627 166.747 171.617 166.772L171.799 166.807Z" fill="#5D4DA3"/>
<path d="M172.812 167.61C172.749 167.578 172.661 167.543 172.612 167.498C172.668 167.606 172.732 167.631 172.812 167.61Z" fill="#5D4DA3"/>
<path d="M165.129 164.275C165.122 164.279 165.115 164.275 165.108 164.275C164.936 164.359 165.035 164.335 165.129 164.275Z" fill="#5D4DA3"/>
<path d="M170.884 167.031L170.866 167.01L170.789 167.073L170.884 167.031Z" fill="#5D4DA3"/>
<path d="M173.489 167.995C173.454 167.988 173.422 167.992 173.387 168.017C173.408 168.038 173.436 168.059 173.468 168.087C173.475 168.045 173.482 168.02 173.489 167.995Z" fill="#5D4DA3"/>
<path d="M167.542 165.555C167.626 165.464 167.668 165.397 167.689 165.341C167.63 165.324 167.577 165.362 167.542 165.555Z" fill="#5D4DA3"/>
<path d="M13.4264 49.7027L60.9049 31.7422L53.2396 5.02942C52.398 2.09445 49.2422 0.491962 46.3773 1.54042L4.50581 16.857C1.61642 17.9159 0.248875 21.2156 1.53928 24.0068L13.4264 49.7027Z" stroke="#2C3E50" stroke-width="2" stroke-miterlimit="10"/>
<path d="M122.837 149.67L46.4546 178.564" stroke="#2C3E50" stroke-width="2" stroke-miterlimit="10"/>
<path d="M66.6802 47.76L21.3828 64.8964L26.6672 132.734C26.9582 136.489 30.1702 139.354 33.9362 139.193C54.8457 138.306 71.6875 146.655 84.6757 163.767C82.7121 141.974 90.2722 124.792 106.423 111.775C109.365 109.405 109.888 105.123 107.615 102.104L66.6802 47.76Z" stroke="#2C3E50" stroke-width="2" stroke-miterlimit="10"/>
<path d="M125.295 151.371C126.748 151.371 127.925 150.194 127.925 148.741C127.925 147.289 126.748 146.111 125.295 146.111C123.843 146.111 122.666 147.289 122.666 148.741C122.666 150.194 123.843 151.371 125.295 151.371Z" stroke="#2C3E50" stroke-width="2" stroke-miterlimit="10"/>
<path d="M43.9966 182.123C45.449 182.123 46.6265 180.946 46.6265 179.493C46.6265 178.041 45.449 176.864 43.9966 176.864C42.5441 176.864 41.3667 178.041 41.3667 179.493C41.3667 180.946 42.5441 182.123 43.9966 182.123Z" stroke="#2C3E50" stroke-width="2" stroke-miterlimit="10"/>
<path d="M53.9727 94.6985C53.9727 96.2308 54.7266 97.5879 55.8872 98.4154C57.9 99.8566 59.3692 101.932 60.2704 104.233C60.2949 104.299 60.323 104.366 60.3475 104.429C61.41 107.136 62.4795 109.84 63.5455 112.543L70.3131 129.722L83.8518 164.075L85.4929 163.455L72.9079 128.74L66.6137 111.383C65.6214 108.644 64.629 105.905 63.6332 103.167C63.5911 103.051 63.549 102.935 63.5069 102.82C62.6583 100.495 62.5707 97.9911 63.0406 95.5611C63.1317 95.0912 63.1493 94.5968 63.0861 94.0919C62.8196 92.0195 61.119 90.3609 59.0396 90.147C56.287 89.8665 53.9727 92.0125 53.9727 94.6985Z" fill="#453396"/>
<path d="M17.3259 67.6807L69.8783 47.8022C71.4387 47.2096 72.2277 45.4668 71.6351 43.9029L66.9924 31.6301C66.3998 30.0696 64.6571 29.2807 63.0932 29.8733L10.5442 49.7518C8.98383 50.3444 8.19486 52.0872 8.78747 53.6511L13.4301 65.9239C14.0192 67.4843 15.7655 68.2733 17.3259 67.6807Z" fill="#FDCF00"/>
<path d="M87.1933 155.341L76.9823 159.205C76.025 159.566 75.5446 160.635 75.9058 161.589L79.77 171.8C80.1312 172.758 81.2006 173.238 82.1544 172.877L92.3655 169.013C93.3227 168.651 93.8031 167.582 93.442 166.628L89.5778 156.417C89.2166 155.46 88.1471 154.979 87.1933 155.341Z" fill="#2C3E50"/>
<path d="M84.6721 168.339C87.1975 168.339 89.2447 166.292 89.2447 163.767C89.2447 161.241 87.1975 159.194 84.6721 159.194C82.1468 159.194 80.0996 161.241 80.0996 163.767C80.0996 166.292 82.1468 168.339 84.6721 168.339Z" fill="#FDCF00"/>
</g>
<defs>
<clipPath id="clip0">
<rect width="183.241" height="182.831" fill="white" transform="translate(0 0.169312)"/>
</clipPath>
</defs>
</svg>
