<svg width="459" height="550" viewBox="0 0 459 550" fill="none" xmlns="http://www.w3.org/2000/svg">
<path d="M367.543 102.154C395.169 140.771 411.867 178.785 427.957 232.789C444.047 286.793 459.53 356.485 431.903 399.929C404.277 443.072 334.148 459.363 277.074 446.088C219.999 432.814 176.586 389.973 127.405 346.83C78.5274 303.386 24.1852 260.243 10.5238 203.223C-3.13764 146.504 24.1852 75.9067 73.0628 37.5912C121.94 -1.02592 192.98 -7.96493 247.322 8.02499C301.968 24.3166 340.22 63.5372 367.543 102.154Z" fill="#FF7D7D"/>
<g clip-path="url(#clip0)">
<path d="M427.052 499.313C427.105 499.234 427.157 499.146 427.21 499.006C427.122 499.129 427.079 499.225 427.052 499.313Z" fill="#5D4DA3"/>
<path d="M408.415 491.02L408.687 490.932C408.538 490.906 408.468 490.95 408.415 491.02Z" fill="#5D4DA3"/>
<path d="M438.08 504.371C438.054 504.389 438.045 504.415 438.028 504.441C438.194 504.52 438.422 504.625 438.799 504.809L438.08 504.371Z" fill="#5D4DA3"/>
<path d="M366.477 478.931L366.749 478.966C366.626 478.94 366.547 478.887 366.477 478.931Z" fill="#5D4DA3"/>
<path d="M391.522 485.673C391.408 485.795 391.268 485.813 391.128 485.822C391.286 485.883 391.417 485.883 391.522 485.673Z" fill="#5D4DA3"/>
<path d="M441.254 513.585L441.131 512.989C441.061 513.19 441.087 513.444 441.254 513.585Z" fill="#5D4DA3"/>
<path d="M453.167 516.39C453.176 516.355 453.185 516.32 453.185 516.276C453.141 516.311 453.15 516.346 453.167 516.39Z" fill="#5D4DA3"/>
<path d="M449.608 512.655C449.494 512.655 449.354 512.69 449.205 512.725C449.354 512.769 449.52 512.839 449.608 512.655Z" fill="#5D4DA3"/>
<path d="M449.012 512.778C449.073 512.761 449.143 512.743 449.213 512.725C449.117 512.708 449.047 512.699 449.012 512.778Z" fill="#5D4DA3"/>
<path d="M210.655 499.006C210.313 499.129 210.19 499.593 210.015 500.005L210.655 499.006Z" fill="#5D4DA3"/>
<path d="M326.95 474.75L327.037 474.548C326.958 474.609 326.95 474.68 326.95 474.75Z" fill="#5D4DA3"/>
<path d="M211.988 503.179H211.716C211.83 503.214 211.917 503.205 211.988 503.179Z" fill="#5D4DA3"/>
<path d="M434.846 512.515C434.346 512.848 433.899 512.042 433.732 512.489C434.101 512.55 434.451 513.085 434.846 512.515Z" fill="#5D4DA3"/>
<path d="M318.429 493.106L318.201 493.133C318.306 493.141 318.376 493.133 318.429 493.106Z" fill="#5D4DA3"/>
<path d="M211.988 503.179L212.303 503.17C212.242 503.091 212.181 503.039 212.128 502.977C212.093 503.065 212.049 503.135 211.988 503.179Z" fill="#5D4DA3"/>
<path d="M285.441 476.1C285.45 476.1 285.45 476.1 285.458 476.1C285.485 476.065 285.502 476.038 285.529 476.003L285.441 476.1Z" fill="#5D4DA3"/>
<path d="M283.153 475.583C283.302 475.512 283.442 475.442 283.6 475.363C283.346 475.346 283.223 475.442 283.153 475.583Z" fill="#5D4DA3"/>
<path d="M210.015 500.005L209.656 500.575C209.822 500.452 209.928 500.233 210.015 500.005Z" fill="#5D4DA3"/>
<path d="M259.729 480.176C259.799 480.15 259.869 480.115 259.931 480.071C259.834 480.088 259.773 480.123 259.729 480.176Z" fill="#5D4DA3"/>
<path d="M393.057 486.347C393.1 486.409 393.162 486.444 393.214 486.496C393.267 486.391 393.267 486.304 393.057 486.347Z" fill="#5D4DA3"/>
<path d="M374.708 495.675L374.7 495.683C374.708 495.683 374.708 495.675 374.708 495.675Z" fill="#5D4DA3"/>
<path d="M375.647 495.237C375.41 495.079 374.98 495.351 374.708 495.675C374.971 495.727 375.235 495.675 375.647 495.237Z" fill="#5D4DA3"/>
<path d="M373.008 495.079C373.034 495.105 373.06 495.123 373.095 495.158C373.06 495.123 373.034 495.096 373.008 495.079Z" fill="#5D4DA3"/>
<path d="M389.173 499.593C389.173 499.576 389.182 499.558 389.182 499.541C389.173 499.558 389.164 499.567 389.173 499.593Z" fill="#5D4DA3"/>
<path d="M385.929 498.883C385.894 498.778 385.833 498.69 385.754 498.62C385.789 498.726 385.842 498.822 385.929 498.883Z" fill="#5D4DA3"/>
<path d="M364.644 495L364.653 494.982C364.644 494.982 364.644 494.991 364.636 494.982L364.644 495Z" fill="#5D4DA3"/>
<path d="M333.515 495.149C336.601 495.079 340.678 494.334 343.711 494.956C344.473 494.009 345.446 494.071 346.446 493.939L346.411 495.289L347.27 494.939C347.559 495.377 346.621 495.131 347.147 495.692L347.542 494.895C347.559 495.359 349.584 495.456 348.12 496.245L351.259 496.63C351.951 496.753 351.802 495.57 352.53 495.991C352.635 496.403 352.223 496.227 352.223 496.709C354.397 497.989 355.23 494.43 357.307 495.368L357.097 495.517C357.518 495.219 358.21 495.368 358.245 495.175C358.158 493.79 357.754 495.841 357.211 494.956C357.43 493.834 358.123 494.465 358.201 493.606C358.649 494.088 359.043 493.492 359.499 493.492C360.148 494.307 361.305 493.965 361.743 494.939C362.164 494.641 362.751 493.589 363.558 493.667C363.987 494.641 363.286 494.483 364.005 494.947L364.233 494.316C364.846 494.527 364.724 494.693 364.645 495C365.32 495.149 365.355 494.202 366.135 494.772L365.556 495.324C366.223 495.184 366.459 495.342 367.327 495.552C367.24 495.92 366.898 495.841 366.661 495.684C366.968 496.736 367.546 495.403 367.783 495.552C367.757 495.254 367.178 495.017 367.581 494.43C367.993 494.623 368.66 493.711 368.835 494.527L368.248 495.07C369.247 494.719 368.879 494.342 369.869 494.772C369.808 494.816 369.799 494.974 369.755 495.114C370.562 494.395 371.29 495.298 372.245 495.552L372.026 495.692C372.456 495.552 372.78 495.009 372.99 495.096C372.508 494.614 372.692 494.456 372.762 493.816C373.288 495.035 374.121 492.8 375.199 493.667C375.103 494.036 374.726 494.43 374.481 493.966C373.858 494.982 373.63 495.912 372.806 496.28C373.306 496.113 373.867 496.069 373.665 496.508L374.007 495.517C374.288 495.543 374.489 495.649 374.7 495.692C374.945 495.07 374.349 494.527 375.077 494.228C375.866 494.036 375.252 495.351 375.454 494.912C376.523 494.702 376.085 493.895 376.97 494.421C376.856 494.491 376.637 494.623 376.576 494.518C377.172 495.061 378.294 494.667 378.241 495.938C378.084 496.192 377.987 496.56 377.75 496.403L377.803 496.218C376.874 496.964 378.478 496.104 378.013 497.156C378.101 496.49 379.022 496.823 379.425 497.042L379.451 496.262C381.362 494.334 379.057 497.735 380.529 497.761C381.537 497.454 380.24 497.472 380.898 497.069C381.476 497.332 381.555 498.051 382.511 497.928C382.695 498.279 383.107 498.796 382.958 499.646C383.571 499.427 384.5 500.382 384.991 499.637C384.237 498.726 383.878 500.312 383.054 498.98L383.536 498.226C384.273 498.436 385.316 498.235 385.763 498.647C385.693 498.463 385.701 498.243 385.807 498.086C386.938 498.007 387.437 497.279 388.41 497.779C388.366 498.559 387.797 498.279 387.341 498.235C387.858 498.997 388.025 498.454 388.989 498.954C388.884 499.62 388.305 498.743 388.033 499.357L389.217 499.436C389.199 499.471 389.199 499.523 389.182 499.567C389.611 498.515 390.023 499.874 390.803 499.725C392.443 500.137 393.065 498.734 394.214 498.094C394.389 498.445 394.389 498.743 394.214 498.989C393.933 498.401 393.907 498.805 393.688 499.05C394.275 499.076 394.634 500.426 394.205 500.786C395.169 500.707 394.038 500.128 394.661 499.935L395.844 500.339C395.853 499.743 395.458 499.506 396.195 499.252C396.765 499.243 396.993 499.418 397.668 499.646C397.492 499.892 397.659 500.549 397.15 500.374C397.431 500.672 397.939 500.838 398.281 500.356C397.659 499.646 399.649 500.216 399.324 499.199L399.938 499.909C399.771 499.848 399.649 500.216 399.421 500.041C399.403 500.944 400.105 499.97 400.394 499.962C400.613 500.198 401.288 500.461 401.253 500.794C401.56 500.628 402.086 500.97 402.077 501.426C402.48 501.364 402.261 500.882 402.436 500.645L403.62 501.075C403.55 501.557 403.278 502.881 403.05 502.995C403.629 502.697 403.602 501.671 404.277 501.917C403.629 502.697 404.979 502.881 404.102 503.775C404.304 504.555 405.417 504.853 406.101 504.801C406.688 504.205 405.557 504.205 405.811 503.486C407.617 503.731 408.327 501.759 409.493 502.486L409.222 502.188C410.142 502.013 410.028 502.074 410.677 501.601C410.186 502.434 410.826 504.31 412.176 504.529C412.43 504.108 411.72 503.433 412.158 502.784L413.061 502.925C413.105 503.021 412.956 503.135 412.807 503.214C413.684 503.144 413.876 504.845 414.429 503.863L414.788 505.432L414.657 504.774C414.902 504.362 415.814 504.511 416.051 504.389C417.094 504.178 417.295 504.669 417.585 505.388C417.55 504.967 417.444 504.003 418.189 504.091C417.699 505.537 419.461 505.125 419.189 505.87C419.478 505.949 419.82 506.571 420.048 505.984L419.697 506.87C420.188 505.634 421.188 506.037 422.038 506.081C421.275 507.729 422.941 506.247 422.748 507.913C423.3 506.808 424.291 507.93 424.773 506.992C425.395 507.141 424.957 508.202 424.975 508.623L425.404 508.29C425.509 508.938 426.596 509.429 427.131 510.043L428.113 509.254L428.174 509.798C428.367 509.578 428.937 509.613 428.753 509.114L429.069 509.298C429.498 508.193 429.647 509.166 430.497 508.938C430.585 509.175 430.445 509.421 430.252 509.517C430.585 509.648 430.226 510.166 430.278 510.604C430.147 510.236 432.216 509.061 431.497 508.228C431.602 507.755 432.251 507.615 432.505 507.939L432.338 509.009L433.127 508.106C433.697 508.149 433.68 508.868 434.057 509.14C433.609 509.035 432.391 510.683 433.496 511.086C432.873 510.99 432.382 511.437 432.005 511.542C432.216 511.665 432.295 511.805 431.786 512.094C432.759 512.103 432.303 511.586 433.189 511.787C432.803 512.655 432.934 513.032 433.548 513.628L433.25 512.761C433.32 512.664 433.382 512.603 433.443 512.559C433.268 512.384 433.268 512.217 433.346 511.858C433.504 511.928 434.74 511.139 434.679 511.735C434.355 510.017 436.572 511.244 436.353 510.201C436.546 509.982 437.16 510.157 437.055 510.63C436.09 511.025 437.195 511.849 436.844 512.419C437.204 512.27 436.546 511.542 437.028 511.349C437.475 511.454 437.572 512.121 437.695 512.489L437.458 512.585L437.949 513.234C438.229 512.839 437.616 512.243 438.299 512.243C438.387 512.489 439.071 512.498 438.913 512.839C438.387 513.339 438.273 514.225 437.712 514.172C438.159 514.277 439.544 514.698 439.325 513.655L439.816 513.883C439.649 513.383 439.027 512.366 440.088 512.647L440.009 512.822L440.982 512.427L441.105 513.006C441.184 512.778 441.376 512.62 441.631 512.743C441.596 513.032 441.797 513.243 441.631 513.585C442.402 513.848 442.525 513.383 442.726 513.164C443.174 513.278 443.252 513.523 442.849 513.962C443.375 514.321 444.427 514.619 444.629 515.25C445.567 515.171 444.55 514.996 445.242 514.593C445.269 516.407 447.548 516.223 448.88 516.574C449.108 515.092 449.284 516.574 450.038 515.452C449.59 515.759 450.783 517.003 449.529 516.898L450.257 517.047C450.397 517.977 448.924 517.117 449.178 518.424C449.941 518.704 451.063 517.459 451.729 518.336C451.028 519.151 452.545 518.318 451.87 519.256C451.537 519.519 451.344 519.309 451.063 519.274L451.133 519.528C452.65 520.51 452.089 518.625 453.229 518.353C454.281 518.669 453.693 519.44 453.553 519.905C453.623 520.159 454.193 520.229 454.561 520.098C453.702 520.405 453.693 519.02 454.237 518.546C454.202 519.809 455.683 519.283 456.139 518.976C455.21 517.223 455.175 518.494 454.368 516.688C454.035 516.942 453.641 517.924 453.009 517.17C453.719 516.916 453.211 516.618 453.132 516.399C453.044 517.021 452.475 516.381 452.124 516.504C452.098 515.951 453.167 515.434 452.44 514.856L451.721 516.092C451.484 515.759 452.273 515.198 451.458 515.206C452.115 514.689 451.8 514.102 452.816 514.295C452.194 512.699 450.862 514.154 449.801 514.26C449.924 514.216 450.011 514.049 450.134 513.997C449.801 514.26 449.485 514.093 449.196 514.058C448.749 513.523 449.897 513.655 449.897 513.234L448.959 512.883C448.959 512.831 448.968 512.804 448.977 512.778C448.661 512.857 448.381 512.883 448.425 512.515C448.88 512.208 449.17 511.814 449.503 511.551L448.144 512.059C448.433 511.674 447.653 510.981 448.477 510.955L446.961 510.543L447.206 509.605C446.794 509.622 446.715 509.789 447.083 510.069C446.671 509.657 444.261 510.718 445.234 509.079C443.805 509.342 443.515 508.868 441.964 508.772C443.358 508.369 441.157 507.255 442.437 507.317C441.929 506.668 441.411 507.58 440.833 507.527C440.491 506.957 441.052 506.168 441.718 506.046L440.938 506.212L441.017 506.037L440.281 506.326C439.895 505.625 440.509 505.388 439.965 505.029L439.527 505.765L439.308 505.143C439.316 505.563 438.904 505.59 438.448 505.484L438.527 505.309L437.949 505.257C438.65 504.976 437.537 504.897 437.993 504.424C437.563 504.213 437.546 504.213 436.686 504.047L436.625 504.643C435.398 504.704 436.888 503.819 436.055 503.442L435.871 504.091C435.038 502.565 433.557 503.915 432.899 502.898C433.478 502.942 433.609 502.171 433.539 502.346C432.671 502.285 431.444 501.645 430.357 502.109C430.392 501.093 430.419 500.794 429.726 500.076C429.095 499.909 428.972 499.962 428.586 500.418C428.122 499.839 426.824 499.997 427.026 499.313C426.702 499.795 426.526 499.024 426.044 499.357L426.07 499.059L425.904 499.707C425.334 497.928 423.853 499.892 423.213 498.296L423.449 498.191L422.915 498.287C422.941 497.989 423.178 497.875 423.318 497.525L421.275 496.692L421.529 497.305C421.065 497.218 420.574 497.726 420.197 497.174C421.345 496.499 419.513 496.911 419.618 496.14L420.153 496.034C419.522 495.894 419.522 495.894 419.355 496.552C418.488 496.516 419.206 495.166 418.242 495.614L418.759 495.815C418.794 496.236 418.251 496.639 417.9 496.508C417.848 496.385 417.69 496.017 417.988 496.026C417.278 496.069 416.445 495.438 416.086 495.605C415.805 495.298 416.059 494.877 416.305 494.772C414.779 494.903 415.735 494.456 414.21 494.579L414.341 494.22L413.745 494.509L413.324 493.527L413.421 494.071C412.956 493.992 412.605 494.158 412.149 493.799L412.526 493.326C411.176 493.247 411.343 491.993 409.923 492.388C409.87 492.265 410.107 492.151 410.23 492.089C408.871 492.607 409.677 490.88 408.257 491.581C408.38 491.423 408.319 491.16 408.415 491.02L407.801 491.222L408.056 490.503L407.328 491.458L407.232 490.617L406.934 490.906C406.793 489.346 405.724 490.161 405.268 488.907L405.136 489.872C402.717 491.274 401.113 487.619 398.588 487.882L398.825 487.163L397.659 487.768C397.308 487.049 398.123 487.224 398.062 486.803C396.949 486.944 397.361 487.776 396.125 487.698C395.651 487.049 396.475 487.207 396.826 487.014C395.625 487.101 393.898 487.101 393.214 486.497C393.17 486.593 393.091 486.707 393.118 486.76C392.303 486.909 391.408 486.339 390.584 486.181C390.681 485.848 390.9 485.839 391.119 485.822C390.839 485.708 390.497 485.374 390.164 485.655L390.619 485.094C390.023 484.805 388.682 485.111 388.717 484.331C388.726 484.638 388.568 485.182 388.033 485.024C387.989 483.823 386.447 485.173 385.719 484.366C385.886 484.121 386.534 484.209 386.359 484.147C385.991 483.753 385.482 484.191 385.018 484.463L385.237 484.033L383.072 484.209C383.01 483.008 381.125 483.946 381.432 483.157C380.713 482.973 381.941 483.779 380.994 483.726C380.845 483.2 380.117 483.797 380.301 483.06L380.415 482.99L379.758 482.92L380.31 482.271C379.723 482.315 379.171 482.964 379.03 483.516C378.592 483.008 377.777 483.192 377.671 482.482L377.899 482.341C376.365 482.341 375.839 479.843 374.437 480.86C374.367 480.737 374.41 480.553 374.595 480.597L373.683 480.378L374.007 479.86L372.333 480.448L372.42 480.08C371.439 479.755 369.834 479.676 368.519 479.562L368.739 479.422C367.231 479.755 367.432 478.826 366.337 479.063C366.389 478.966 366.433 478.94 366.468 478.922C366.161 478.87 365.846 478.826 365.53 478.791L365.793 478.458C364.978 479.168 363.978 477.108 364.294 477.862C363.847 478.16 363.111 478.493 362.918 478.94C361.892 478.826 362.742 478.423 362.155 478.011C361.419 477.862 361.2 478.493 360.253 478.011L360.323 477.634C359.85 477.634 359.516 477.862 358.859 477.818L359.078 477.669C357.912 478.3 357.903 476.363 356.843 477.914C356.439 477.555 355.554 477.686 355.694 476.932C354.3 477.257 353.248 477.362 351.89 477.502C351.82 476.231 351.6 477.546 350.882 476.74L350.864 477.415C348.997 477.274 347.016 475.451 344.92 475.512L344.929 474.837L344.447 475.53C342.256 474.969 339.38 474.531 337.601 474.39C336.996 474.697 336.058 475.442 335.146 475.135L335.251 475.048C333.621 475.302 331.902 475.539 330.167 475.074C330.289 474.794 330.123 474.592 330.325 474.417C329.877 475.135 329.29 474.408 328.913 474.373L329.334 474.89C328.808 475.504 328.115 474.864 327.879 474.355L327.063 475.039C327.011 474.969 326.941 474.864 326.932 474.758L326.783 475.109L326.388 474.206C326.187 474.373 325.126 474.574 324.784 475.416C324.714 475.118 323.986 474.881 324.556 474.732L321.663 474.417L322.11 474.741C322.154 475.407 321.278 475.819 320.839 475.504C321.435 474.978 320.901 474.557 320.655 474.057C320.261 474.408 320.988 474.653 320.778 475.021C320.278 475.46 319.235 475.67 318.972 475.372L319.27 475.109C318.595 475.346 318.297 474.171 317.631 474.224C317.035 474.767 316.596 474.276 316.719 475.425C315.86 475.67 316.386 474.644 316.105 474.539C315.702 475.092 314.501 474.75 314.343 474.171C313.888 475.863 312.02 473.593 311.863 475.013L311.144 474.215C311.126 474.592 311.004 475.451 310.442 475.609C309.899 475.206 310.004 474.539 309.838 474.154L309.513 475.574C307.944 474.872 306.138 474.82 304.297 474.793C303.377 474.785 302.448 474.776 301.527 474.715C300.607 474.671 299.704 474.557 298.836 474.303C297.328 474.706 295.47 475.477 293.681 475.407L293.865 475.214L292.068 474.995L293.401 475.521C293.033 475.723 292.752 476.021 292.384 476.038C290.411 475.635 287.746 475.162 285.45 476.117C284.1 477.923 284.266 474.811 282.925 476.179C283.03 476.012 283.048 475.775 283.144 475.609C281.619 476.345 280.795 476.731 279.339 477.87C279.304 476.249 278.314 478.037 278.34 477.178L278.296 477.844C277.893 477.485 277.043 477.476 277.095 476.994L276.517 477.914L276.359 477.257C275.421 477.345 273.527 478.204 272.826 476.932C270.687 478.256 267.049 478.624 264.13 478.914C263.832 479.527 263.008 479.729 262.368 479.904L261.518 479.256C260.904 479.641 260.413 480.781 259.694 480.413C259.677 480.325 259.694 480.246 259.72 480.194C259.089 480.5 258.353 480.22 257.888 481.079C257.143 481.202 256.337 480.939 256.398 480.167C256.617 481.482 254.794 480.325 254.794 480.325C254.794 480.325 254.645 480.343 254.355 480.386C254.066 480.421 253.654 480.483 253.119 480.588C252.059 480.781 250.525 481.061 248.666 481.43C247.737 481.614 246.72 481.815 245.642 482.052C244.572 482.315 243.441 482.596 242.249 482.894C241.066 483.209 239.838 483.534 238.567 483.867C237.305 484.209 236.034 484.638 234.728 485.059C224.331 488.364 213.417 493.834 210.62 499.041C210.594 499.76 209.971 500.488 210.585 501.075C210.077 501.557 209.323 500.619 209.472 501.268C210.48 501.312 209.901 502.933 211.041 503.337L210.585 503.705C210.664 504.178 211.076 502.925 211.286 503.749L210.936 502.565C211.427 502.557 211.76 502.697 212.075 503.012C212.277 502.407 211.874 500.768 213.101 501.04L212.873 501.215C213.627 500.847 213.653 501.741 213.89 501.864L213.715 501.925L214.6 502.223C213.951 502.048 213.539 503.31 213.934 503.065C214.977 502.995 213.583 502.89 214.206 502.46C214.609 502.223 214.74 502.872 214.872 503.232L215.617 502.863C215.81 503.398 215.1 503.047 215.643 503.459L216.362 502.495C217.09 503.757 217.142 501.408 218.089 502.486C217.528 503.091 218.335 502.907 218.405 503.389C218.948 503.118 219.509 502.881 220.062 502.635C220.298 502.758 219.781 503.223 220.009 503.056C220.474 503.302 220.403 502.53 220.579 502.469C220.868 502.776 221.841 501.96 222.139 502.872C223.515 503.021 222.183 501.557 223.454 501.645C223.805 502.136 222.656 502.101 223.349 502.478L224.383 501.846C224.383 502.153 224.506 502.811 224.041 502.855C227.303 502.381 229.967 504.731 232.422 503.03C233.036 503.547 232.299 503.565 232.177 504.091C233.851 502.539 235.429 504.511 237.086 503.915L236.937 503.363C238.392 503.828 239.733 503.591 241.074 503.214C242.416 502.837 243.766 502.32 245.203 502.311L244.774 502.022C244.984 501.391 245.563 501.163 245.94 500.794C246.089 501.049 245.957 502.057 246.667 501.61C246.448 501.461 246.062 501.347 246.089 501.049C247.448 501.443 249.297 501.189 251.322 500.838C253.356 500.523 255.539 500.067 257.52 499.935C260.036 499.111 262.78 498.726 265.489 498.305C268.215 497.972 270.924 497.656 273.449 497.025C272.677 497.192 272.774 495.754 273.413 495.982C275.412 498.086 276.149 495.149 278.051 496.499C280.926 495.237 283.872 497.034 286.431 494.842L286.563 495.508C287.01 495.763 287.071 495.28 287.501 495.158L287.51 495.351C288.57 495.482 289.754 494.693 290.385 494.956L290.35 494.193C290.964 494.071 290.727 494.746 291.314 494.255L291.332 494.632L291.998 493.843C292.051 495.175 293.751 493.781 294.295 494.334C295.066 494.001 296.548 493.343 297.784 493.527C298.056 494.193 299.546 494.088 300.51 494.369C302.342 494.044 304.972 493.746 307.339 493.895L307.269 493.036L307.883 492.957C307.883 493.15 307.97 493.247 307.874 493.334C308.382 494.299 309.285 492.975 309.794 493.562C309.461 492.791 309.355 493.457 309.005 493.448C308.488 493.054 308.943 492.203 309.645 492.607L309.636 492.8L310.092 492.326C310.162 492.992 310.591 493.308 310.662 493.974C312.678 493.799 314.045 492.624 316.149 492.922C315.939 493.676 317.657 492.712 317.236 494.027C318.49 493.527 317.035 492.975 317.605 492.046C317.955 492.072 318.332 491.721 318.394 492.203C318.227 492.51 318.674 493.001 318.385 493.115L319.226 493.028C319.305 493.133 319.121 493.308 319.025 493.396C320.743 492.668 322.04 494.299 323.592 493.562C323.715 493.098 322.987 493.422 323.11 492.949C324.679 492.028 324.451 493.799 325.915 493.185L325.599 493.825C326.082 493.396 326.301 492.843 327.046 493.404C327.151 494.185 326.371 494.001 325.994 494.342C326.52 494.395 327.852 494.255 327.475 493.545C328.115 493.326 328.317 494.018 328.65 494.237C328.668 494.053 328.08 493.703 328.466 493.361C329.308 493.834 330.623 493.869 331.666 493.983C331.648 494.176 331.701 494.465 331.604 494.553C332.534 493.589 332.358 495.272 333.515 495.149Z" fill="#5D4DA3"/>
<path d="M389.559 499.804L389.173 499.585C389.129 499.751 389.068 499.935 388.831 500.067L389.559 499.804Z" fill="#5D4DA3"/>
<path d="M369.773 495.096C369.712 495.149 369.65 495.193 369.589 495.272C369.685 495.263 369.738 495.184 369.773 495.096Z" fill="#5D4DA3"/>
<path d="M364.68 495.587C365.057 495.482 364.776 495.228 364.636 495.009C364.61 495.158 364.584 495.342 364.68 495.587Z" fill="#5D4DA3"/>
<path d="M401.253 500.768C401.156 500.821 401.086 500.908 401.06 501.066C401.192 500.952 401.244 500.856 401.253 500.768Z" fill="#5D4DA3"/>
<path d="M431.532 511.244C431.506 511.191 431.479 511.165 431.453 511.095C431.453 511.148 431.488 511.2 431.532 511.244Z" fill="#5D4DA3"/>
<path d="M430.278 509.508C430.199 509.473 430.085 509.464 429.901 509.482C430.042 509.578 430.164 509.561 430.278 509.508Z" fill="#5D4DA3"/>
<path d="M393.679 499.024C393.556 499.024 393.433 499.05 393.293 499.181C393.477 499.208 393.591 499.12 393.679 499.024Z" fill="#5D4DA3"/>
<path d="M429.498 509.517L429.104 509.289C429.086 509.333 429.069 509.368 429.042 509.429L429.498 509.517Z" fill="#5D4DA3"/>
<path d="M432.031 511.524C431.874 511.446 431.654 511.358 431.532 511.244C431.672 511.516 431.83 511.577 432.031 511.524Z" fill="#5D4DA3"/>
<path d="M412.825 503.188C412.807 503.197 412.789 503.188 412.772 503.188C412.342 503.398 412.588 503.337 412.825 503.188Z" fill="#5D4DA3"/>
<path d="M427.21 510.078L427.166 510.025L426.974 510.183L427.21 510.078Z" fill="#5D4DA3"/>
<path d="M433.724 512.489C433.636 512.471 433.557 512.48 433.469 512.541C433.522 512.594 433.592 512.646 433.671 512.717C433.688 512.611 433.706 512.55 433.724 512.489Z" fill="#5D4DA3"/>
<path d="M418.855 506.387C419.066 506.16 419.171 505.993 419.224 505.853C419.075 505.809 418.943 505.905 418.855 506.387Z" fill="#5D4DA3"/>
<path d="M33.5666 216.756L152.263 171.855L133.1 105.073C130.996 97.7358 123.106 93.7296 115.944 96.3507L11.265 134.642C4.04155 137.29 0.622675 145.539 3.84869 152.517L33.5666 216.756Z" stroke="#2C3E50" stroke-width="5" stroke-miterlimit="10"/>
<path d="M307.094 466.676L116.137 538.91" stroke="#2C3E50" stroke-width="5" stroke-miterlimit="10"/>
<path d="M166.701 211.9L53.4575 254.741L66.6684 424.335C67.396 433.723 75.426 440.885 84.841 440.482C137.115 438.264 179.219 459.137 211.69 501.917C206.781 447.434 225.681 404.479 266.059 371.938C273.414 366.012 274.72 355.308 269.039 347.761L166.701 211.9Z" stroke="#2C3E50" stroke-width="5" stroke-miterlimit="10"/>
<path d="M313.239 470.928C316.87 470.928 319.814 467.984 319.814 464.353C319.814 460.722 316.87 457.778 313.239 457.778C309.608 457.778 306.664 460.722 306.664 464.353C306.664 467.984 309.608 470.928 313.239 470.928Z" stroke="#2C3E50" stroke-width="5" stroke-miterlimit="10"/>
<path d="M109.992 547.808C113.623 547.808 116.566 544.865 116.566 541.233C116.566 537.602 113.623 534.659 109.992 534.659C106.361 534.659 103.417 537.602 103.417 541.233C103.417 544.865 106.361 547.808 109.992 547.808Z" stroke="#2C3E50" stroke-width="5" stroke-miterlimit="10"/>
<path d="M134.932 329.246C134.932 333.077 136.816 336.47 139.718 338.538C144.75 342.141 148.423 347.331 150.676 353.082C150.737 353.248 150.807 353.415 150.869 353.573C153.525 360.34 156.199 367.099 158.864 373.858L175.783 416.804L209.63 502.688L213.732 501.136L182.27 414.35L166.534 370.956C164.053 364.11 161.573 357.263 159.083 350.417C158.978 350.128 158.873 349.838 158.767 349.549C156.646 343.737 156.427 337.478 157.601 331.403C157.829 330.228 157.873 328.992 157.715 327.73C157.049 322.549 152.797 318.402 147.599 317.867C140.717 317.166 134.932 322.531 134.932 329.246Z" fill="#453396"/>
<path d="M43.3149 261.701L174.696 212.005C178.597 210.524 180.569 206.167 179.088 202.257L167.481 171.575C166 167.674 161.643 165.701 157.733 167.183L26.3608 216.879C22.4598 218.361 20.4874 222.718 21.9689 226.627L33.5755 257.309C35.0483 261.211 39.4139 263.183 43.3149 261.701Z" fill="#FDCF00"/>
<path d="M217.984 480.851L192.456 490.512C190.063 491.415 188.862 494.088 189.765 496.473L199.426 522C200.329 524.394 203.002 525.595 205.387 524.692L230.914 515.031C233.308 514.128 234.509 511.454 233.606 509.07L223.945 483.542C223.042 481.149 220.368 479.948 217.984 480.851Z" fill="#2C3E50"/>
<path d="M211.681 513.348C217.994 513.348 223.112 508.23 223.112 501.917C223.112 495.603 217.994 490.485 211.681 490.485C205.367 490.485 200.25 495.603 200.25 501.917C200.25 508.23 205.367 513.348 211.681 513.348Z" fill="#FDCF00"/>
</g>
<defs>
<clipPath id="clip0">
<rect width="458.102" height="457.077" fill="white" transform="translate(0 92.9231)"/>
</clipPath>
</defs>
</svg>
