<svg width="541" height="565" viewBox="0 0 541 565" fill="none" xmlns="http://www.w3.org/2000/svg">
<g filter="url(#filter0_d)">
<g filter="url(#filter1_d)">
<path d="M55.7729 127.54C101.058 70.5623 224.684 42.8314 313.96 66.4504C403.539 89.6513 459.542 163.995 483.461 248.621C507.381 333.246 499.218 428.155 444.029 465.195C388.369 502.025 285.683 480.988 216.008 453.128C146.719 425.165 110.609 391.009 76.6061 330.664C42.2159 270.422 10.017 184.306 55.7729 127.54Z" fill="#FF7D7D"/>
</g>
<path d="M254.361 206.786L179.373 331.972C177.827 334.65 177.009 337.685 177 340.777C176.991 343.869 177.792 346.909 179.324 349.595C180.855 352.281 183.062 354.519 185.727 356.087C188.392 357.655 191.421 358.498 194.512 358.532H344.488C347.579 358.498 350.608 357.655 353.273 356.087C355.938 354.519 358.145 352.281 359.676 349.595C361.208 346.909 362.009 343.869 362 340.777C361.991 337.685 361.173 334.65 359.627 331.972L284.639 206.786C283.061 204.184 280.839 202.033 278.187 200.54C275.535 199.047 272.543 198.262 269.5 198.262C266.457 198.262 263.465 199.047 260.813 200.54C258.161 202.033 255.939 204.184 254.361 206.786V206.786Z" stroke="white" stroke-width="25" stroke-linecap="round" stroke-linejoin="round"/>
<path d="M269.502 252.292V287.706" stroke="white" stroke-width="25" stroke-linecap="round" stroke-linejoin="round"/>
<path d="M269.502 323.119H269.59" stroke="white" stroke-width="25" stroke-linecap="round" stroke-linejoin="round"/>
</g>
<defs>
<filter id="filter0_d" x="0" y="0" width="540.35" height="564.512" filterUnits="userSpaceOnUse" color-interpolation-filters="sRGB">
<feFlood flood-opacity="0" result="BackgroundImageFix"/>
<feColorMatrix in="SourceAlpha" type="matrix" values="0 0 0 0 0 0 0 0 0 0 0 0 0 0 0 0 0 0 127 0"/>
<feOffset dy="4"/>
<feGaussianBlur stdDeviation="2"/>
<feColorMatrix type="matrix" values="0 0 0 0 0 0 0 0 0 0 0 0 0 0 0 0 0 0 0.25 0"/>
<feBlend mode="normal" in2="BackgroundImageFix" result="effect1_dropShadow"/>
<feBlend mode="normal" in="SourceGraphic" in2="effect1_dropShadow" result="shape"/>
</filter>
<filter id="filter1_d" x="0" y="0" width="540.35" height="564.512" filterUnits="userSpaceOnUse" color-interpolation-filters="sRGB">
<feFlood flood-opacity="0" result="BackgroundImageFix"/>
<feColorMatrix in="SourceAlpha" type="matrix" values="0 0 0 0 0 0 0 0 0 0 0 0 0 0 0 0 0 0 127 0"/>
<feOffset dy="4"/>
<feGaussianBlur stdDeviation="2"/>
<feColorMatrix type="matrix" values="0 0 0 0 0 0 0 0 0 0 0 0 0 0 0 0 0 0 0.25 0"/>
<feBlend mode="normal" in2="BackgroundImageFix" result="effect1_dropShadow"/>
<feBlend mode="normal" in="SourceGraphic" in2="effect1_dropShadow" result="shape"/>
</filter>
</defs>
</svg>
