<svg xmlns="http://www.w3.org/2000/svg" viewBox="0 0 277.74 180.03"><defs><style>.cls-1{fill:#13070c;}</style></defs><title>Logo-Monochrome-Square_1-vector</title><g id="Layer_2" data-name="Layer 2"><g id="Layer_1-2" data-name="Layer 1"><path class="cls-1" d="M133.48,0V46.71A71.7,71.7,0,0,0,113,25.33Z"/><path class="cls-1" d="M164.75,25.32a71.35,71.35,0,0,0-20.51,21.5V0Z"/><path class="cls-1" d="M133.48,127.92v7L99.74,93.27a32.83,32.83,0,0,1-2.06-2.85c-.14-.21-.28-.44-.42-.67-.48-.78-1-1.58-1.38-2.41-.15-.27-.29-.55-.41-.82-.43-.85-.82-1.74-1.19-2.62L94,83.21a42.34,42.34,0,0,1-2-7c-.08-.39-.15-.81-.2-1.22-.14-.76-.25-1.54-.34-2.34,0-.53-.1-1.06-.14-1.59,0-.29,0-.57,0-.85a61.07,61.07,0,0,1,38.83,37.7A60.27,60.27,0,0,1,133.48,127.92Z"/><path class="cls-1" d="M186.47,70.19c0,.28,0,.56,0,.85-.06.53-.09,1.06-.16,1.59-.09.8-.2,1.58-.34,2.36-.05.41-.13.81-.2,1.2a42.34,42.34,0,0,1-2,7l-.28.69c-.37.88-.76,1.77-1.17,2.62-.14.27-.28.55-.43.82-.42.83-.9,1.63-1.38,2.42l-.42.66A29.08,29.08,0,0,1,178,93.27l-26,32.15L144.24,135v-7a60.54,60.54,0,0,1,42.23-57.73Z"/><path class="cls-1" d="M133.48,84.09v6.13a70.73,70.73,0,0,0-41.54-31,39.43,39.43,0,0,1,7.8-17.51l6.46-8A60.58,60.58,0,0,1,133.48,84.09Z"/><path class="cls-1" d="M185.81,59.2a72,72,0,0,0-41.57,31.15v-6h0a60.92,60.92,0,0,1,27.28-50.62l6.46,8A39.43,39.43,0,0,1,185.81,59.2Z"/><path class="cls-1" d="M20.34,178.6A12.26,12.26,0,0,1,14.51,180c-4.87,0-8.16-1.67-10.39-3.85a14.18,14.18,0,0,1,0-20A14,14,0,0,1,14,152.38a15.73,15.73,0,0,1,6.34,1.47v7.06a8.35,8.35,0,0,0-6.18-2.81,7.43,7.43,0,0,0-5.4,2.06,8.5,8.5,0,0,0-2.49,6.11,7.74,7.74,0,0,0,8,8,8.33,8.33,0,0,0,6.06-2.74Z"/><path class="cls-1" d="M31.33,153v21.3h8.21v5.15H25.22V153Z"/><path class="cls-1" d="M49.21,153v26.45h-6.1V153Z"/><path class="cls-1" d="M53.89,179.43,58.14,153h5.07L69.8,168.8,76.38,153h5.08l4.24,26.45H79.59l-2.1-15.78-6.62,15.78H68.73L62.1,163.65,60,179.43Z"/><path class="cls-1" d="M105.81,174.44h-10l-2,5H87.44L98.11,153h5.59l10.43,26.45h-6.34Zm-1.67-4.68-3.25-8.89-3.29,8.89Z"/><path class="cls-1" d="M124.72,158.14v21.29h-6.11V158.14h-5.75V153h17.61v5.16Z"/><path class="cls-1" d="M148.64,158.14h-8.85v5.11h8.41v5.16h-8.41v5.87h8.85v5.15h-15V153h15Z"/><path class="cls-1" d="M152.68,166.9h10.15v5H152.68Z"/><path class="cls-1" d="M177,153a10,10,0,0,1,6.94,2.18,8.14,8.14,0,0,1,2.58,6.43,8.49,8.49,0,0,1-2.26,6.22,9,9,0,0,1-6.75,2.34h-3.72v9.28h-6.11V153Zm-3.21,12.18H176a4.65,4.65,0,0,0,3.29-1,3.68,3.68,0,0,0,1-2.61,3.51,3.51,0,0,0-1-2.58,4.77,4.77,0,0,0-3.41-1h-2.06Z"/><path class="cls-1" d="M212.76,168.65c0,2.53-.32,5.67-2.93,8.36s-5.48,3-8.25,3-5.71-.4-8.25-3-2.94-5.83-2.94-8.36V153h6.11v15.51a6.23,6.23,0,0,0,1.39,4.44,5.59,5.59,0,0,0,7.38,0,6.27,6.27,0,0,0,1.38-4.44V153h6.11Z"/><path class="cls-1" d="M232.19,159.44a6.45,6.45,0,0,0-4.44-1.9,3.33,3.33,0,0,0-2.58.91,2.4,2.4,0,0,0-.67,1.67,1.89,1.89,0,0,0,.59,1.47c.64.59,1.55.83,3.33,1.5l2,.76a10.52,10.52,0,0,1,3.61,2,6.62,6.62,0,0,1,1.94,4.92,9.48,9.48,0,0,1-2.34,6.54c-2.34,2.46-5.75,2.7-7.5,2.7a11.24,11.24,0,0,1-5.23-1.11A17,17,0,0,1,217,176l3.18-4.36a16,16,0,0,0,2.45,2,6.15,6.15,0,0,0,3.34.95,4.23,4.23,0,0,0,2.77-.91,2.73,2.73,0,0,0,.95-2.14,2.31,2.31,0,0,0-.91-1.9,12.8,12.8,0,0,0-3.09-1.47l-2.18-.75a9,9,0,0,1-3.69-2.11,6.49,6.49,0,0,1-1.59-4.6,8.17,8.17,0,0,1,2.3-5.95,8.55,8.55,0,0,1,6.55-2.42,12.79,12.79,0,0,1,7.85,2.62Z"/><path class="cls-1" d="M246.47,163.05H257V153h6.1v26.45H257V168.21H246.47v11.22h-6.11V153h6.11Z"/><path class="cls-1" d="M270.6,154v3.82h-1.2V154h-1V153h3.29V154Zm1.26,3.82.83-4.87h1.07l1.05,2.68,1.12-2.68H277l.76,4.87h-1.2l-.36-2.67-1.12,2.67h-.51l-1.09-2.67-.4,2.67Z"/></g></g></svg>