<svg width="100" height="100" viewBox="0 0 100 100" fill="none" xmlns="http://www.w3.org/2000/svg">
<rect y="-0.000488281" width="100" height="100" fill="#E3E3E3"/>
<path d="M23.4297 41.9067C23.4297 43.5565 22.9717 44.8188 22.0557 45.6938C21.1396 46.5643 19.8203 46.9995 18.0977 46.9995H15.3018V37.0054H18.3916C19.9821 37.0054 21.2194 37.4338 22.1035 38.2905C22.9876 39.1473 23.4297 40.3527 23.4297 41.9067ZM21.707 41.9614C21.707 39.5688 20.5882 38.3726 18.3506 38.3726H16.9355V45.6255H18.0977C20.5039 45.6255 21.707 44.4041 21.707 41.9614ZM28.7139 47.1362C27.5381 47.1362 26.6175 46.7944 25.9521 46.1108C25.2913 45.4227 24.9609 44.4771 24.9609 43.2739C24.9609 42.0389 25.2686 41.0682 25.8838 40.3618C26.499 39.6554 27.3444 39.3022 28.4199 39.3022C29.418 39.3022 30.2064 39.6053 30.7852 40.2114C31.3639 40.8175 31.6533 41.6515 31.6533 42.7134V43.5815H26.6152C26.638 44.3153 26.8363 44.8804 27.21 45.2769C27.5837 45.6688 28.11 45.8647 28.7891 45.8647C29.2357 45.8647 29.6504 45.8237 30.0332 45.7417C30.4206 45.6551 30.8353 45.5138 31.2773 45.3179V46.6235C30.8854 46.8104 30.4889 46.9425 30.0879 47.02C29.6868 47.0975 29.2288 47.1362 28.7139 47.1362ZM28.4199 40.519C27.9095 40.519 27.4993 40.6808 27.1895 41.0044C26.8841 41.328 26.7018 41.7996 26.6426 42.4194H30.0742C30.0651 41.7951 29.9147 41.3234 29.623 41.0044C29.3314 40.6808 28.9303 40.519 28.4199 40.519ZM38.5576 44.8462C38.5576 45.5845 38.2887 46.1519 37.751 46.5483C37.2132 46.9403 36.443 47.1362 35.4404 47.1362C34.4333 47.1362 33.6243 46.9836 33.0137 46.6782V45.2905C33.9023 45.7007 34.7295 45.9058 35.4951 45.9058C36.484 45.9058 36.9785 45.6073 36.9785 45.0103C36.9785 44.8188 36.9238 44.6593 36.8145 44.5317C36.7051 44.4041 36.5251 44.272 36.2744 44.1353C36.0238 43.9985 35.6751 43.8436 35.2285 43.6704C34.3581 43.3332 33.7679 42.9959 33.458 42.6587C33.1527 42.3215 33 41.884 33 41.3462C33 40.6991 33.2598 40.1978 33.7793 39.8423C34.3034 39.4823 35.0143 39.3022 35.9121 39.3022C36.8008 39.3022 37.6416 39.4823 38.4346 39.8423L37.915 41.0522C37.0993 40.715 36.4134 40.5464 35.8574 40.5464C35.0098 40.5464 34.5859 40.7879 34.5859 41.271C34.5859 41.508 34.6953 41.7085 34.9141 41.8726C35.1374 42.0366 35.6204 42.2622 36.3633 42.5493C36.9876 42.7909 37.4411 43.0119 37.7236 43.2124C38.0062 43.4129 38.2158 43.6453 38.3525 43.9097C38.4893 44.1694 38.5576 44.4816 38.5576 44.8462ZM41.9072 46.9995H40.3008V39.439H41.9072V46.9995ZM40.2051 37.436C40.2051 37.1489 40.2826 36.9279 40.4375 36.7729C40.597 36.618 40.8226 36.5405 41.1143 36.5405C41.3968 36.5405 41.6156 36.618 41.7705 36.7729C41.93 36.9279 42.0098 37.1489 42.0098 37.436C42.0098 37.7095 41.93 37.9259 41.7705 38.0854C41.6156 38.2404 41.3968 38.3179 41.1143 38.3179C40.8226 38.3179 40.597 38.2404 40.4375 38.0854C40.2826 37.9259 40.2051 37.7095 40.2051 37.436ZM50.5957 39.439V40.3208L49.3037 40.5601C49.4222 40.7196 49.5202 40.9155 49.5977 41.1479C49.6751 41.3804 49.7139 41.6265 49.7139 41.8862C49.7139 42.6655 49.445 43.2785 48.9072 43.7251C48.3695 44.1717 47.6289 44.395 46.6855 44.395C46.444 44.395 46.2253 44.3768 46.0293 44.3403C45.6829 44.5545 45.5098 44.8052 45.5098 45.0923C45.5098 45.2655 45.5895 45.3953 45.749 45.4819C45.9131 45.5685 46.2116 45.6118 46.6445 45.6118H47.9639C48.7979 45.6118 49.4313 45.7896 49.8643 46.145C50.2972 46.5005 50.5137 47.0132 50.5137 47.6831C50.5137 48.5399 50.1605 49.2007 49.4541 49.6655C48.7477 50.1304 47.7269 50.3628 46.3916 50.3628C45.3617 50.3628 44.5755 50.1805 44.0332 49.8159C43.4909 49.4513 43.2197 48.9318 43.2197 48.2573C43.2197 47.7925 43.3656 47.4006 43.6572 47.0815C43.9535 46.7671 44.3659 46.5483 44.8945 46.4253C44.6803 46.3341 44.5026 46.1883 44.3613 45.9878C44.2246 45.7827 44.1562 45.5685 44.1562 45.3452C44.1562 45.0627 44.236 44.8234 44.3955 44.6274C44.555 44.4315 44.792 44.2378 45.1064 44.0464C44.7145 43.8778 44.3955 43.6043 44.1494 43.2261C43.9079 42.8433 43.7871 42.3966 43.7871 41.8862C43.7871 41.0659 44.0446 40.4302 44.5596 39.979C45.0791 39.5278 45.8174 39.3022 46.7744 39.3022C46.9886 39.3022 47.2119 39.3182 47.4443 39.3501C47.6813 39.3774 47.859 39.4071 47.9775 39.439H50.5957ZM44.6553 48.1753C44.6553 48.5216 44.8102 48.7882 45.1201 48.9751C45.4346 49.1619 45.8743 49.2554 46.4395 49.2554C47.3145 49.2554 47.9661 49.13 48.3945 48.8794C48.8229 48.6287 49.0371 48.2961 49.0371 47.8813C49.0371 47.5532 48.9186 47.3185 48.6816 47.1772C48.4492 47.0405 48.014 46.9722 47.376 46.9722H46.1592C45.6989 46.9722 45.332 47.0793 45.0586 47.2935C44.7897 47.5122 44.6553 47.8062 44.6553 48.1753ZM45.3457 41.8862C45.3457 42.3602 45.4665 42.7248 45.708 42.98C45.9541 43.2352 46.305 43.3628 46.7607 43.3628C47.6904 43.3628 48.1553 42.866 48.1553 41.8726C48.1553 41.3804 48.0391 41.0021 47.8066 40.7378C47.5788 40.4689 47.2301 40.3345 46.7607 40.3345C46.2959 40.3345 45.9427 40.4666 45.7012 40.731C45.4642 40.9953 45.3457 41.3804 45.3457 41.8862ZM58.6553 46.9995H57.042V42.3511C57.042 41.7677 56.9235 41.3325 56.6865 41.0454C56.4541 40.7583 56.0827 40.6147 55.5723 40.6147C54.8932 40.6147 54.3965 40.8153 54.082 41.2163C53.7676 41.6174 53.6104 42.2896 53.6104 43.2329V46.9995H52.0039V39.439H53.2617L53.4873 40.4302H53.5693C53.7972 40.0701 54.1208 39.7922 54.54 39.5962C54.9593 39.4002 55.4242 39.3022 55.9346 39.3022C57.7484 39.3022 58.6553 40.2251 58.6553 42.0708V46.9995ZM64.1924 47.1362C63.0166 47.1362 62.096 46.7944 61.4307 46.1108C60.7699 45.4227 60.4395 44.4771 60.4395 43.2739C60.4395 42.0389 60.7471 41.0682 61.3623 40.3618C61.9775 39.6554 62.8229 39.3022 63.8984 39.3022C64.8965 39.3022 65.6849 39.6053 66.2637 40.2114C66.8424 40.8175 67.1318 41.6515 67.1318 42.7134V43.5815H62.0938C62.1165 44.3153 62.3148 44.8804 62.6885 45.2769C63.0622 45.6688 63.5885 45.8647 64.2676 45.8647C64.7142 45.8647 65.1289 45.8237 65.5117 45.7417C65.8991 45.6551 66.3138 45.5138 66.7559 45.3179V46.6235C66.3639 46.8104 65.9674 46.9425 65.5664 47.02C65.1654 47.0975 64.7074 47.1362 64.1924 47.1362ZM63.8984 40.519C63.388 40.519 62.9779 40.6808 62.668 41.0044C62.3626 41.328 62.1803 41.7996 62.1211 42.4194H65.5527C65.5436 41.7951 65.3932 41.3234 65.1016 41.0044C64.8099 40.6808 64.4089 40.519 63.8984 40.519ZM72.792 39.3022C73.1156 39.3022 73.3822 39.325 73.5918 39.3706L73.4346 40.8677C73.2067 40.813 72.9697 40.7856 72.7236 40.7856C72.0811 40.7856 71.5592 40.9953 71.1582 41.4146C70.7617 41.8338 70.5635 42.3784 70.5635 43.0483V46.9995H68.957V39.439H70.2148L70.4268 40.772H70.5088C70.7594 40.3208 71.0853 39.9631 71.4863 39.6987C71.8919 39.4344 72.3271 39.3022 72.792 39.3022ZM76.2852 37.0054L76.3877 37.1558C76.1462 38.1082 75.7451 39.1997 75.1846 40.4302H74.0225C74.3369 39.1131 74.5648 37.9715 74.7061 37.0054H76.2852ZM82.7861 44.8462C82.7861 45.5845 82.5173 46.1519 81.9795 46.5483C81.4417 46.9403 80.6715 47.1362 79.6689 47.1362C78.6618 47.1362 77.8529 46.9836 77.2422 46.6782V45.2905C78.1309 45.7007 78.958 45.9058 79.7236 45.9058C80.7126 45.9058 81.207 45.6073 81.207 45.0103C81.207 44.8188 81.1523 44.6593 81.043 44.5317C80.9336 44.4041 80.7536 44.272 80.5029 44.1353C80.2523 43.9985 79.9036 43.8436 79.457 43.6704C78.5866 43.3332 77.9964 42.9959 77.6865 42.6587C77.3812 42.3215 77.2285 41.884 77.2285 41.3462C77.2285 40.6991 77.4883 40.1978 78.0078 39.8423C78.5319 39.4823 79.2428 39.3022 80.1406 39.3022C81.0293 39.3022 81.8701 39.4823 82.6631 39.8423L82.1436 41.0522C81.3278 40.715 80.6419 40.5464 80.0859 40.5464C79.2383 40.5464 78.8145 40.7879 78.8145 41.271C78.8145 41.508 78.9238 41.7085 79.1426 41.8726C79.3659 42.0366 79.849 42.2622 80.5918 42.5493C81.2161 42.7909 81.6696 43.0119 81.9521 43.2124C82.2347 43.4129 82.4443 43.6453 82.5811 43.9097C82.7178 44.1694 82.7861 44.4816 82.7861 44.8462ZM33.0547 66.1362C31.9108 66.1362 31.0404 65.8035 30.4434 65.1382C29.8509 64.4683 29.5547 63.509 29.5547 62.2603C29.5547 60.9888 29.8646 60.0112 30.4844 59.3276C31.1087 58.644 32.0088 58.3022 33.1846 58.3022C33.9821 58.3022 34.6999 58.4504 35.3379 58.7466L34.8525 60.0386C34.1735 59.7743 33.613 59.6421 33.1709 59.6421C31.863 59.6421 31.209 60.5103 31.209 62.2466C31.209 63.0942 31.3708 63.7323 31.6943 64.1606C32.0225 64.5845 32.501 64.7964 33.1299 64.7964C33.8454 64.7964 34.5221 64.6187 35.1602 64.2632V65.6646C34.873 65.8332 34.5654 65.9539 34.2373 66.0269C33.9137 66.0998 33.5195 66.1362 33.0547 66.1362ZM43.5889 65.9995H41.9756V61.3511C41.9756 60.7677 41.8571 60.3325 41.6201 60.0454C41.3877 59.7583 41.0163 59.6147 40.5059 59.6147C39.8314 59.6147 39.3346 59.8175 39.0156 60.2231C38.7012 60.6242 38.5439 61.2987 38.5439 62.2466V65.9995H36.9375V55.3628H38.5439V58.063C38.5439 58.4959 38.5166 58.9585 38.4619 59.4507H38.5645C38.7832 59.0861 39.0863 58.8035 39.4736 58.603C39.8656 58.4025 40.3213 58.3022 40.8408 58.3022C42.6729 58.3022 43.5889 59.2251 43.5889 61.0708V65.9995ZM52.5303 62.2056C52.5303 63.4406 52.2135 64.4045 51.5801 65.0972C50.9466 65.7899 50.0648 66.1362 48.9346 66.1362C48.2282 66.1362 47.6038 65.9767 47.0615 65.6577C46.5192 65.3387 46.1022 64.8807 45.8105 64.2837C45.5189 63.6867 45.373 62.994 45.373 62.2056C45.373 60.9797 45.6875 60.0226 46.3164 59.3345C46.9453 58.6463 47.8317 58.3022 48.9756 58.3022C50.0693 58.3022 50.9352 58.6554 51.5732 59.3618C52.2113 60.0636 52.5303 61.0116 52.5303 62.2056ZM47.0273 62.2056C47.0273 63.951 47.6722 64.8237 48.9619 64.8237C50.238 64.8237 50.876 63.951 50.876 62.2056C50.876 60.4784 50.2334 59.6147 48.9482 59.6147C48.2738 59.6147 47.7839 59.8381 47.4785 60.2847C47.1777 60.7313 47.0273 61.3716 47.0273 62.2056ZM55.9893 65.9995H54.3828V58.439H55.9893V65.9995ZM54.2871 56.436C54.2871 56.1489 54.3646 55.9279 54.5195 55.7729C54.679 55.618 54.9046 55.5405 55.1963 55.5405C55.4788 55.5405 55.6976 55.618 55.8525 55.7729C56.012 55.9279 56.0918 56.1489 56.0918 56.436C56.0918 56.7095 56.012 56.9259 55.8525 57.0854C55.6976 57.2404 55.4788 57.3179 55.1963 57.3179C54.9046 57.3179 54.679 57.2404 54.5195 57.0854C54.3646 56.9259 54.2871 56.7095 54.2871 56.436ZM61.3418 66.1362C60.1979 66.1362 59.3275 65.8035 58.7305 65.1382C58.138 64.4683 57.8418 63.509 57.8418 62.2603C57.8418 60.9888 58.1517 60.0112 58.7715 59.3276C59.3958 58.644 60.2959 58.3022 61.4717 58.3022C62.2692 58.3022 62.987 58.4504 63.625 58.7466L63.1396 60.0386C62.4606 59.7743 61.9001 59.6421 61.458 59.6421C60.1501 59.6421 59.4961 60.5103 59.4961 62.2466C59.4961 63.0942 59.6579 63.7323 59.9814 64.1606C60.3096 64.5845 60.7881 64.7964 61.417 64.7964C62.1325 64.7964 62.8092 64.6187 63.4473 64.2632V65.6646C63.1602 65.8332 62.8525 65.9539 62.5244 66.0269C62.2008 66.0998 61.8066 66.1362 61.3418 66.1362ZM68.5264 66.1362C67.3506 66.1362 66.43 65.7944 65.7646 65.1108C65.1038 64.4227 64.7734 63.4771 64.7734 62.2739C64.7734 61.0389 65.0811 60.0682 65.6963 59.3618C66.3115 58.6554 67.1569 58.3022 68.2324 58.3022C69.2305 58.3022 70.0189 58.6053 70.5977 59.2114C71.1764 59.8175 71.4658 60.6515 71.4658 61.7134V62.5815H66.4277C66.4505 63.3153 66.6488 63.8804 67.0225 64.2769C67.3962 64.6688 67.9225 64.8647 68.6016 64.8647C69.0482 64.8647 69.4629 64.8237 69.8457 64.7417C70.2331 64.6551 70.6478 64.5138 71.0898 64.3179V65.6235C70.6979 65.8104 70.3014 65.9425 69.9004 66.02C69.4993 66.0975 69.0413 66.1362 68.5264 66.1362ZM68.2324 59.519C67.722 59.519 67.3118 59.6808 67.002 60.0044C66.6966 60.328 66.5143 60.7996 66.4551 61.4194H69.8867C69.8776 60.7951 69.7272 60.3234 69.4355 60.0044C69.1439 59.6808 68.7428 59.519 68.2324 59.519Z" fill="#2C3E50"/>
</svg>
