<svg width="770" height="537" viewBox="0 0 770 537" fill="none" xmlns="http://www.w3.org/2000/svg">
<path d="M688.944 125.8C726.284 215.332 672.819 359.178 584.56 413.491C496.301 467.38 373.672 432.161 282.442 363.845C191.637 295.105 132.232 193.267 156.418 121.132C181.029 48.9974 288.807 6.56506 406.345 3.17048C524.306 0.200217 652.028 35.8433 688.944 125.8Z" fill="#42B9F8"/>
<path d="M135.68 130.45C139.32 130.45 142.27 127.5 142.27 123.86C142.27 120.22 139.32 117.27 135.68 117.27C132.04 117.27 129.09 120.22 129.09 123.86C129.09 127.5 132.04 130.45 135.68 130.45Z" stroke="#2C3E50" stroke-width="5" stroke-miterlimit="10"/>
<path d="M160 130.45C163.64 130.45 166.59 127.5 166.59 123.86C166.59 120.22 163.64 117.27 160 117.27C156.36 117.27 153.41 120.22 153.41 123.86C153.41 127.5 156.36 130.45 160 130.45Z" stroke="#2C3E50" stroke-width="5" stroke-miterlimit="10"/>
<path d="M184.32 130.45C187.96 130.45 190.91 127.5 190.91 123.86C190.91 120.22 187.96 117.27 184.32 117.27C180.68 117.27 177.73 120.22 177.73 123.86C177.73 127.5 180.68 130.45 184.32 130.45Z" stroke="#2C3E50" stroke-width="5" stroke-miterlimit="10"/>
<path d="M654.16 103.77H115.6V458.85H654.16V103.77Z" stroke="#2C3E50" stroke-width="5" stroke-miterlimit="10"/>
<path d="M626.5 138.19H597.69L600.16 127.43C600.195 127.244 600.294 127.076 600.44 126.955C600.587 126.835 600.77 126.769 600.96 126.77H623.25C623.448 126.774 623.638 126.848 623.788 126.977C623.938 127.107 624.037 127.285 624.07 127.48L626.5 138.19Z" fill="#2C3E50"/>
<path d="M338.78 309.13C338.18 308.13 337.6 307.13 337.04 306.13L330.23 312.94H341.09L338.78 309.13ZM434.17 233.6C428.125 232.413 422.761 228.965 419.17 223.96L370.62 272.5L383.1 284.98L412.37 255.71L415.65 258.99L387.65 286.99L384.75 289.91L383.1 291.55L367.34 275.79L341.06 302.1C344.487 308.803 349.009 314.887 354.44 320.1L384.87 349.1L415.29 320.1C421.863 313.786 427.099 306.215 430.688 297.836C434.276 289.458 436.144 280.444 436.18 271.33V234L434.17 233.6ZM458.94 328.2C457.048 327.537 455.329 326.456 453.911 325.039C452.494 323.621 451.413 321.902 450.75 320.01L450.16 318.34H424.34L423.59 319.2C422.07 320.94 420.59 322.51 419.02 323.99L384.87 356.5L350.71 323.95C349.17 322.47 347.63 320.85 346.15 319.16L345.41 318.3H324.82L294.1 349.06C295.973 351.58 297.973 354.027 300.1 356.4C309.944 367.529 321.884 376.611 335.238 383.125C348.592 389.64 363.099 393.46 377.929 394.368C392.76 395.277 407.624 393.255 421.673 388.418C435.722 383.582 448.681 376.025 459.81 366.18L460.65 365.43V328.79L458.94 328.2ZM463.26 307.71C461.694 307.714 460.165 308.182 458.865 309.054C457.566 309.927 456.554 311.165 455.957 312.613C455.361 314.061 455.207 315.652 455.515 317.187C455.822 318.722 456.578 320.132 457.687 321.237C458.795 322.343 460.206 323.095 461.742 323.399C463.278 323.703 464.869 323.545 466.315 322.945C467.762 322.345 468.997 321.33 469.867 320.028C470.736 318.726 471.2 317.196 471.2 315.63C471.2 314.587 470.994 313.553 470.593 312.59C470.193 311.626 469.606 310.751 468.866 310.016C468.126 309.28 467.249 308.697 466.283 308.301C465.318 307.906 464.283 307.705 463.24 307.71H463.26ZM495.7 257.82L494.96 254.73C490.128 234.645 479.887 216.267 465.35 201.59C461.39 197.591 457.146 193.885 452.65 190.5L423.1 220.06C424.807 222.695 427.145 224.862 429.903 226.362C432.661 227.862 435.75 228.649 438.89 228.65H441.58V257.82H495.7ZM496.99 265.38L496.68 263.23H441.58V271.3C441.558 284.646 437.878 297.73 430.94 309.13L428.63 312.93H450.08L450.66 311.25C451.402 309.122 452.672 307.218 454.351 305.715C456.03 304.212 458.063 303.16 460.259 302.657C462.456 302.155 464.744 302.218 466.909 302.841C469.075 303.464 471.046 304.627 472.64 306.22C474.233 307.814 475.396 309.785 476.019 311.951C476.642 314.116 476.705 316.404 476.203 318.601C475.7 320.798 474.648 322.83 473.145 324.509C471.642 326.188 469.738 327.458 467.61 328.2L465.94 328.78V356.29H469.57L470.41 355.43C481.065 343.22 488.957 328.853 493.544 313.311C498.132 297.769 499.307 281.419 496.99 265.38V265.38ZM602.3 146.5C601.22 146.498 600.163 146.817 599.264 147.415C598.365 148.014 597.663 148.866 597.248 149.864C596.834 150.861 596.724 151.959 596.934 153.019C597.143 154.079 597.662 155.053 598.426 155.817C599.189 156.582 600.162 157.103 601.221 157.314C602.281 157.526 603.379 157.418 604.377 157.005C605.375 156.592 606.229 155.893 606.829 154.994C607.429 154.096 607.75 153.04 607.75 151.96C607.747 150.514 607.173 149.129 606.151 148.106C605.13 147.083 603.746 146.505 602.3 146.5V146.5ZM621.9 146.5C620.82 146.5 619.764 146.82 618.867 147.42C617.969 148.02 617.269 148.873 616.856 149.871C616.442 150.868 616.334 151.966 616.545 153.025C616.756 154.084 617.276 155.057 618.039 155.821C618.803 156.584 619.776 157.104 620.835 157.315C621.894 157.526 622.992 157.418 623.989 157.004C624.987 156.591 625.84 155.891 626.44 154.993C627.04 154.096 627.36 153.04 627.36 151.96C627.357 150.513 626.781 149.125 625.758 148.102C624.734 147.079 623.347 146.503 621.9 146.5V146.5ZM621.9 146.5C620.82 146.5 619.764 146.82 618.867 147.42C617.969 148.02 617.269 148.873 616.856 149.871C616.442 150.868 616.334 151.966 616.545 153.025C616.756 154.084 617.276 155.057 618.039 155.821C618.803 156.584 619.776 157.104 620.835 157.315C621.894 157.526 622.992 157.418 623.989 157.004C624.987 156.591 625.84 155.891 626.44 154.993C627.04 154.096 627.36 153.04 627.36 151.96C627.357 150.513 626.781 149.125 625.758 148.102C624.734 147.079 623.347 146.503 621.9 146.5V146.5ZM602.3 146.5C601.22 146.498 600.163 146.817 599.264 147.415C598.365 148.014 597.663 148.866 597.248 149.864C596.834 150.861 596.724 151.959 596.934 153.019C597.143 154.079 597.662 155.053 598.426 155.817C599.189 156.582 600.162 157.103 601.221 157.314C602.281 157.526 603.379 157.418 604.377 157.005C605.375 156.592 606.229 155.893 606.829 154.994C607.429 154.096 607.75 153.04 607.75 151.96C607.747 150.514 607.173 149.129 606.151 148.106C605.13 147.083 603.746 146.505 602.3 146.5V146.5ZM539.7 103.5L456.4 186.8C469.938 197.019 481.127 210.024 489.211 224.936C497.295 239.848 502.086 256.32 503.261 273.242C504.436 290.163 501.968 307.14 496.023 323.026C490.078 338.913 480.794 353.339 468.799 365.332C456.803 377.324 442.375 386.604 426.487 392.546C410.599 398.487 393.622 400.951 376.701 399.772C359.779 398.593 343.308 393.797 328.398 385.71C313.488 377.622 300.486 366.431 290.27 352.89L184.27 458.89H654.15V103.5H539.7ZM621.9 160.5C619.912 160.497 617.988 159.794 616.467 158.514C614.945 157.234 613.923 155.458 613.58 153.5H610.58C610.205 155.588 609.062 157.46 607.376 158.747C605.69 160.035 603.584 160.645 601.471 160.457C599.358 160.268 597.392 159.296 595.96 157.731C594.528 156.166 593.734 154.121 593.734 152C593.734 149.879 594.528 147.834 595.96 146.269C597.392 144.704 599.358 143.732 601.471 143.543C603.584 143.355 605.69 143.965 607.376 145.253C609.062 146.54 610.205 148.412 610.58 150.5H613.58C613.873 148.92 614.609 147.455 615.704 146.278C616.799 145.101 618.206 144.261 619.761 143.855C621.316 143.448 622.955 143.494 624.485 143.985C626.015 144.476 627.374 145.394 628.402 146.629C629.43 147.865 630.085 149.368 630.29 150.962C630.495 152.556 630.241 154.175 629.559 155.631C628.877 157.086 627.794 158.317 626.438 159.179C625.081 160.042 623.507 160.5 621.9 160.5V160.5ZM634.15 141.23H590.04V138.23H594.6L597.21 126.85C597.397 125.998 597.87 125.236 598.551 124.69C599.231 124.144 600.078 123.848 600.95 123.85H623.24C624.125 123.851 624.981 124.159 625.665 124.72C626.349 125.282 626.817 126.063 626.99 126.93L629.59 138.27H634.15V141.23ZM621.9 146.5C620.82 146.5 619.764 146.82 618.867 147.42C617.969 148.02 617.269 148.873 616.856 149.871C616.442 150.868 616.334 151.966 616.545 153.025C616.756 154.084 617.276 155.057 618.039 155.821C618.803 156.584 619.776 157.104 620.835 157.315C621.894 157.526 622.992 157.418 623.989 157.004C624.987 156.591 625.84 155.891 626.44 154.993C627.04 154.096 627.36 153.04 627.36 151.96C627.357 150.513 626.781 149.125 625.758 148.102C624.734 147.079 623.347 146.503 621.9 146.5V146.5ZM602.3 146.5C601.22 146.498 600.163 146.817 599.264 147.415C598.365 148.014 597.663 148.866 597.248 149.864C596.834 150.861 596.724 151.959 596.934 153.019C597.143 154.079 597.662 155.053 598.426 155.817C599.189 156.582 600.162 157.103 601.221 157.314C602.281 157.526 603.379 157.418 604.377 157.005C605.375 156.592 606.229 155.893 606.829 154.994C607.429 154.096 607.75 153.04 607.75 151.96C607.747 150.514 607.173 149.129 606.151 148.106C605.13 147.083 603.746 146.505 602.3 146.5V146.5ZM602.3 146.5C601.22 146.498 600.163 146.817 599.264 147.415C598.365 148.014 597.663 148.866 597.248 149.864C596.834 150.861 596.724 151.959 596.934 153.019C597.143 154.079 597.662 155.053 598.426 155.817C599.189 156.582 600.162 157.103 601.221 157.314C602.281 157.526 603.379 157.418 604.377 157.005C605.375 156.592 606.229 155.893 606.829 154.994C607.429 154.096 607.75 153.04 607.75 151.96C607.747 150.514 607.173 149.129 606.151 148.106C605.13 147.083 603.746 146.505 602.3 146.5V146.5ZM621.9 146.5C620.82 146.5 619.764 146.82 618.867 147.42C617.969 148.02 617.269 148.873 616.856 149.871C616.442 150.868 616.334 151.966 616.545 153.025C616.756 154.084 617.276 155.057 618.039 155.821C618.803 156.584 619.776 157.104 620.835 157.315C621.894 157.526 622.992 157.418 623.989 157.004C624.987 156.591 625.84 155.891 626.44 154.993C627.04 154.096 627.36 153.04 627.36 151.96C627.357 150.513 626.781 149.125 625.758 148.102C624.734 147.079 623.347 146.503 621.9 146.5V146.5ZM621.9 146.5C620.82 146.5 619.764 146.82 618.867 147.42C617.969 148.02 617.269 148.873 616.856 149.871C616.442 150.868 616.334 151.966 616.545 153.025C616.756 154.084 617.276 155.057 618.039 155.821C618.803 156.584 619.776 157.104 620.835 157.315C621.894 157.526 622.992 157.418 623.989 157.004C624.987 156.591 625.84 155.891 626.44 154.993C627.04 154.096 627.36 153.04 627.36 151.96C627.357 150.513 626.781 149.125 625.758 148.102C624.734 147.079 623.347 146.503 621.9 146.5V146.5ZM602.3 146.5C601.22 146.498 600.163 146.817 599.264 147.415C598.365 148.014 597.663 148.866 597.248 149.864C596.834 150.861 596.724 151.959 596.934 153.019C597.143 154.079 597.662 155.053 598.426 155.817C599.189 156.582 600.162 157.103 601.221 157.314C602.281 157.526 603.379 157.418 604.377 157.005C605.375 156.592 606.229 155.893 606.829 154.994C607.429 154.096 607.75 153.04 607.75 151.96C607.747 150.514 607.173 149.129 606.151 148.106C605.13 147.083 603.746 146.505 602.3 146.5V146.5Z" fill="#2C3E50"/>
<path d="M539.71 103.46L576.59 66.5801V35.1401" stroke="#2C3E50" stroke-width="5" stroke-miterlimit="10"/>
<path d="M184.31 458.85L150.69 492.48V518.94" stroke="#2C3E50" stroke-width="5" stroke-miterlimit="10"/>
<path d="M576.59 66.58L601.23 41.94V18" stroke="#2C3E50" stroke-width="5" stroke-miterlimit="10"/>
<path d="M601.23 41.9399V73.1499" stroke="#2C3E50" stroke-width="5" stroke-miterlimit="10"/>
<path d="M576.59 35.1401C580.732 35.1401 584.09 31.7823 584.09 27.6401C584.09 23.498 580.732 20.1401 576.59 20.1401C572.448 20.1401 569.09 23.498 569.09 27.6401C569.09 31.7823 572.448 35.1401 576.59 35.1401Z" stroke="#2C3E50" stroke-width="5" stroke-miterlimit="10"/>
<path d="M601.23 18C605.372 18 608.73 14.6421 608.73 10.5C608.73 6.35786 605.372 3 601.23 3C597.088 3 593.73 6.35786 593.73 10.5C593.73 14.6421 597.088 18 601.23 18Z" stroke="#2C3E50" stroke-width="5" stroke-miterlimit="10"/>
<path d="M601.23 88.1499C605.372 88.1499 608.73 84.792 608.73 80.6499C608.73 76.5078 605.372 73.1499 601.23 73.1499C597.088 73.1499 593.73 76.5078 593.73 80.6499C593.73 84.792 597.088 88.1499 601.23 88.1499Z" stroke="#2C3E50" stroke-width="5" stroke-miterlimit="10"/>
<path d="M150.69 533.94C154.832 533.94 158.19 530.582 158.19 526.44C158.19 522.298 154.832 518.94 150.69 518.94C146.548 518.94 143.19 522.298 143.19 526.44C143.19 530.582 146.548 533.94 150.69 533.94Z" stroke="#2C3E50" stroke-width="5" stroke-miterlimit="10"/>
<path d="M10.5 354.41C14.6421 354.41 18 351.052 18 346.91C18 342.768 14.6421 339.41 10.5 339.41C6.35786 339.41 3 342.768 3 346.91C3 351.052 6.35786 354.41 10.5 354.41Z" stroke="#2C3E50" stroke-width="5" stroke-miterlimit="10"/>
<path d="M32.58 277.99C36.7221 277.99 40.08 274.632 40.08 270.49C40.08 266.348 36.7221 262.99 32.58 262.99C28.4378 262.99 25.08 266.348 25.08 270.49C25.08 274.632 28.4378 277.99 32.58 277.99Z" stroke="#2C3E50" stroke-width="5" stroke-miterlimit="10"/>
<path d="M61.02 241.74C65.1622 241.74 68.52 238.382 68.52 234.24C68.52 230.098 65.1622 226.74 61.02 226.74C56.8779 226.74 53.52 230.098 53.52 234.24C53.52 238.382 56.8779 241.74 61.02 241.74Z" stroke="#2C3E50" stroke-width="5" stroke-miterlimit="10"/>
<path d="M115.59 380.81H44.4001L15.8 352.21" stroke="#2C3E50" stroke-width="5" stroke-miterlimit="10"/>
<path d="M100.36 380.81V273.57L66.3199 239.54" stroke="#2C3E50" stroke-width="5" stroke-miterlimit="10"/>
<path d="M66.32 380.81V304.22L37.89 275.79" stroke="#2C3E50" stroke-width="5" stroke-miterlimit="10"/>
<path d="M759.25 150.4C763.392 150.4 766.75 147.042 766.75 142.9C766.75 138.758 763.392 135.4 759.25 135.4C755.108 135.4 751.75 138.758 751.75 142.9C751.75 147.042 755.108 150.4 759.25 150.4Z" stroke="#2C3E50" stroke-width="5" stroke-miterlimit="10"/>
<path d="M713.04 330.49C717.182 330.49 720.54 327.132 720.54 322.99C720.54 318.848 717.182 315.49 713.04 315.49C708.898 315.49 705.54 318.848 705.54 322.99C705.54 327.132 708.898 330.49 713.04 330.49Z" stroke="#2C3E50" stroke-width="5" stroke-miterlimit="10"/>
<path d="M708.73 420.87C712.872 420.87 716.23 417.512 716.23 413.37C716.23 409.228 712.872 405.87 708.73 405.87C704.588 405.87 701.23 409.228 701.23 413.37C701.23 417.512 704.588 420.87 708.73 420.87Z" stroke="#2C3E50" stroke-width="5" stroke-miterlimit="10"/>
<path d="M654.15 176.8H725.35L753.95 148.25" stroke="#2C3E50" stroke-width="5" stroke-miterlimit="10"/>
<path d="M669.39 176.8V374.03L703.43 408.07" stroke="#2C3E50" stroke-width="5" stroke-miterlimit="10"/>
<path d="M693.43 176.8V303.38L707.73 317.69" stroke="#2C3E50" stroke-width="5" stroke-miterlimit="10"/>
<path d="M305.29 200.8C324.553 181.729 350.018 170.201 377.059 168.311C404.1 166.421 430.921 174.294 452.65 190.5L456.4 186.75C433.569 169.439 405.243 160.979 376.658 162.936C348.073 164.892 321.163 177.132 300.903 197.393C280.644 217.653 268.406 244.564 266.451 273.149C264.496 301.734 272.957 330.06 290.27 352.89L294.1 349.06C287.854 340.691 282.806 331.493 279.1 321.73L277.8 318.34H324.8L330.21 312.93H276.11L275.6 311.08C271.025 294.353 270.365 276.798 273.67 259.775C276.976 242.752 284.158 226.719 294.66 212.92L299.15 207.03V247.38L297.47 247.96C295.345 248.702 293.444 249.971 291.943 251.648C290.442 253.325 289.391 255.355 288.888 257.549C288.384 259.742 288.446 262.028 289.066 264.191C289.686 266.355 290.844 268.326 292.432 269.92C294.021 271.514 295.988 272.679 298.149 273.307C300.31 273.935 302.595 274.004 304.791 273.508C306.986 273.013 309.02 271.969 310.702 270.474C312.384 268.979 313.66 267.082 314.41 264.96L314.99 263.28H328.14V271.34C328.17 283.509 331.229 295.478 337.04 306.17L341.04 302.17C336.137 292.641 333.563 282.086 333.53 271.37V234L335.53 233.6C340.25 232.669 344.586 230.356 347.989 226.955C351.391 223.554 353.706 219.219 354.64 214.5L355.04 212.5H414.69L415.1 214.5C415.777 217.897 417.175 221.11 419.2 223.92L423.1 220.02C421.132 216.972 420.09 213.418 420.1 209.79V207.12H349.68V209.79C349.667 214.788 347.672 219.576 344.132 223.104C340.592 226.633 335.798 228.613 330.8 228.61H328.14V257.78H315L314.41 256.11C313.75 254.216 312.671 252.496 311.253 251.077C309.834 249.659 308.114 248.58 306.22 247.92L304.55 247.33V201.5L305.29 200.8ZM309.77 260.5C309.77 262.066 309.306 263.598 308.435 264.9C307.565 266.203 306.328 267.218 304.881 267.817C303.434 268.417 301.841 268.573 300.305 268.268C298.769 267.962 297.357 267.208 296.25 266.1C295.142 264.993 294.388 263.581 294.082 262.045C293.777 260.509 293.933 258.916 294.533 257.469C295.132 256.022 296.147 254.785 297.45 253.915C298.752 253.044 300.284 252.58 301.85 252.58C303.95 252.583 305.963 253.418 307.447 254.903C308.932 256.387 309.767 258.4 309.77 260.5Z" fill="#2C3E50"/>
<path d="M365.531 267.443L362.25 270.724L367.349 275.822L370.63 272.541L365.531 267.443Z" fill="#2C3E50"/>
</svg>
