<svg width="701" height="489" viewBox="0 0 701 489" fill="none" xmlns="http://www.w3.org/2000/svg">
<path d="M626.741 139.626C660.755 221.214 612.054 352.295 531.658 401.788C451.262 450.895 339.557 418.802 256.456 356.548C173.74 293.908 119.628 201.107 141.659 135.373C164.077 69.6393 262.253 30.9723 369.319 27.879C476.772 25.1723 593.114 57.6525 626.741 139.626Z" fill="#42B9F8"/>
<path d="M123.814 119.05C127.128 119.05 129.815 116.363 129.815 113.049C129.815 109.735 127.128 107.049 123.814 107.049C120.5 107.049 117.813 109.735 117.813 113.049C117.813 116.363 120.5 119.05 123.814 119.05Z" stroke="#2C3E50" stroke-width="5" stroke-miterlimit="10"/>
<path d="M145.96 119.05C149.274 119.05 151.96 116.363 151.96 113.049C151.96 109.735 149.274 107.049 145.96 107.049C142.646 107.049 139.959 109.735 139.959 113.049C139.959 116.363 142.646 119.05 145.96 119.05Z" stroke="#2C3E50" stroke-width="5" stroke-miterlimit="10"/>
<path d="M168.104 119.05C171.418 119.05 174.105 116.363 174.105 113.049C174.105 109.735 171.418 107.049 168.104 107.049C164.79 107.049 162.104 109.735 162.104 113.049C162.104 116.363 164.79 119.05 168.104 119.05Z" stroke="#2C3E50" stroke-width="5" stroke-miterlimit="10"/>
<path d="M595.926 94.7561H105.53V418.074H595.926V94.7561Z" stroke="#2C3E50" stroke-width="5" stroke-miterlimit="10"/>
<path d="M288.272 297.909L400.172 186.011C406.701 189.162 413.448 191.775 420.168 193.769C429.292 196.483 438.371 198.058 446.757 198.304C447.34 198.322 447.868 198.577 448.241 199.014C448.624 199.451 448.797 200.007 448.733 200.58C443.233 248.593 427.417 318.105 353.888 368.54C323.011 347.361 302.313 322.812 288.272 297.909Z" fill="#2C3E50"/>
<path d="M570.758 126.097H544.506L546.755 116.3C546.819 115.954 547.129 115.699 547.484 115.699H567.78C568.136 115.699 568.445 115.954 568.527 116.345L570.758 126.097Z" fill="#2C3E50"/>
<path d="M491.712 94.4739L403.641 182.542C418.311 189.408 433.745 193.36 446.884 193.751C448.733 193.806 450.481 194.634 451.683 196.027C452.894 197.421 453.459 199.269 453.249 201.099C447.631 250.278 431.341 321.629 355.163 373.175L353.888 374.04L352.613 373.175C320.789 351.65 299.418 326.655 284.912 301.269L168.104 418.074H595.926V94.4739H491.712ZM566.56 146.375C562.772 146.375 559.622 143.634 558.984 140.038H556.289C555.643 143.634 552.492 146.375 548.713 146.375C544.461 146.375 541.01 142.924 541.01 138.672C541.01 134.429 544.461 130.969 548.713 130.969C552.492 130.969 555.643 133.709 556.28 137.306H558.984C559.622 133.709 562.772 130.969 566.56 130.969C570.804 130.969 574.264 134.429 574.264 138.672C574.264 142.924 570.804 146.375 566.56 146.375ZM577.715 128.829H537.55V126.097H541.702L544.078 115.735C544.388 114.151 545.827 112.967 547.484 112.967H567.781C569.438 112.967 570.876 114.151 571.195 115.772L573.563 126.097H577.715V128.829ZM566.56 133.7C563.82 133.7 561.589 135.931 561.589 138.672C561.589 141.413 563.82 143.644 566.56 143.644C569.301 143.644 571.532 141.413 571.532 138.672C571.532 135.931 569.301 133.7 566.56 133.7ZM548.713 133.7C545.972 133.7 543.741 135.931 543.741 138.672C543.741 141.413 545.972 143.644 548.713 143.644C551.454 143.644 553.676 141.413 553.676 138.672C553.676 135.931 551.454 133.7 548.713 133.7Z" fill="#2C3E50"/>
<path d="M355.9 140.484L353.888 136.614L351.866 140.484C335.33 172.217 291.76 192.84 260.882 193.751C259.043 193.806 257.295 194.634 256.084 196.027C254.882 197.421 254.308 199.269 254.517 201.099C257.796 229.736 264.689 265.885 284.912 301.269L288.272 297.909C268.886 263.517 262.23 228.434 259.043 200.58C258.979 200.006 259.152 199.451 259.526 199.014C259.908 198.577 260.436 198.322 261.019 198.304C277.792 197.812 297.305 192.012 314.56 182.396C331.788 172.799 345.602 160.052 353.888 146.202C362.165 160.052 375.978 172.799 393.215 182.396C395.501 183.671 397.823 184.873 400.172 186.011L403.641 182.542C383.827 173.282 365.407 158.713 355.9 140.484Z" fill="#2C3E50"/>
<path d="M491.712 94.4739L525.294 60.8928V32.2651" stroke="#2C3E50" stroke-width="5" stroke-miterlimit="10"/>
<path d="M168.104 418.074L137.482 448.696V472.789" stroke="#2C3E50" stroke-width="5" stroke-miterlimit="10"/>
<path d="M525.293 60.8927L547.73 38.4568V16.6582" stroke="#2C3E50" stroke-width="5" stroke-miterlimit="10"/>
<path d="M547.729 38.4568V66.875" stroke="#2C3E50" stroke-width="5" stroke-miterlimit="10"/>
<path d="M525.293 32.2651C529.065 32.2651 532.122 29.2076 532.122 25.4359C532.122 21.6643 529.065 18.6068 525.293 18.6068C521.521 18.6068 518.464 21.6643 518.464 25.4359C518.464 29.2076 521.521 32.2651 525.293 32.2651Z" stroke="#2C3E50" stroke-width="5" stroke-miterlimit="10"/>
<path d="M547.73 16.6582C551.501 16.6582 554.559 13.6007 554.559 9.82912C554.559 6.0575 551.501 3 547.73 3C543.958 3 540.9 6.0575 540.9 9.82912C540.9 13.6007 543.958 16.6582 547.73 16.6582Z" stroke="#2C3E50" stroke-width="5" stroke-miterlimit="10"/>
<path d="M547.73 80.5332C551.501 80.5332 554.559 77.4757 554.559 73.7041C554.559 69.9325 551.501 66.875 547.73 66.875C543.958 66.875 540.9 69.9325 540.9 73.7041C540.9 77.4757 543.958 80.5332 547.73 80.5332Z" stroke="#2C3E50" stroke-width="5" stroke-miterlimit="10"/>
<path d="M137.482 486.447C141.254 486.447 144.311 483.39 144.311 479.618C144.311 475.847 141.254 472.789 137.482 472.789C133.71 472.789 130.653 475.847 130.653 479.618C130.653 483.39 133.71 486.447 137.482 486.447Z" stroke="#2C3E50" stroke-width="5" stroke-miterlimit="10"/>
<path d="M9.82927 322.976C13.601 322.976 16.6585 319.919 16.6585 316.147C16.6585 312.375 13.601 309.318 9.82927 309.318C6.05757 309.318 3 312.375 3 316.147C3 319.919 6.05757 322.976 9.82927 322.976Z" fill="#42B9F8" stroke="#2C3E50" stroke-width="5" stroke-miterlimit="10"/>
<path d="M29.9347 253.392C33.7064 253.392 36.764 250.335 36.764 246.563C36.764 242.791 33.7064 239.734 29.9347 239.734C26.163 239.734 23.1055 242.791 23.1055 246.563C23.1055 250.335 26.163 253.392 29.9347 253.392Z" stroke="#2C3E50" stroke-width="5" stroke-miterlimit="10"/>
<path d="M55.8312 220.385C59.6029 220.385 62.6605 217.327 62.6605 213.555C62.6605 209.784 59.6029 206.726 55.8312 206.726C52.0595 206.726 49.002 209.784 49.002 213.555C49.002 217.327 52.0595 220.385 55.8312 220.385Z" fill="#2C3E50" stroke="#2C3E50" stroke-width="5" stroke-miterlimit="10"/>
<path d="M105.53 347.015H40.6976L14.6553 320.973" stroke="#2C3E50" stroke-width="5" stroke-miterlimit="10"/>
<path d="M91.653 347.015V249.367L60.6572 218.381" stroke="#2C3E50" stroke-width="5" stroke-miterlimit="10"/>
<path d="M60.657 347.015V277.276L34.7695 251.389" stroke="#2C3E50" stroke-width="5" stroke-miterlimit="10"/>
<path d="M691.618 137.215C695.39 137.215 698.447 134.158 698.447 130.386C698.447 126.614 695.39 123.557 691.618 123.557C687.846 123.557 684.789 126.614 684.789 130.386C684.789 134.158 687.846 137.215 691.618 137.215Z" fill="#49E59A" stroke="#2C3E50" stroke-width="5" stroke-miterlimit="10"/>
<path d="M649.54 301.196C653.312 301.196 656.37 298.138 656.37 294.367C656.37 290.595 653.312 287.538 649.54 287.538C645.769 287.538 642.711 290.595 642.711 294.367C642.711 298.138 645.769 301.196 649.54 301.196Z" fill="#FDCF00" stroke="#2C3E50" stroke-width="5" stroke-miterlimit="10"/>
<path d="M645.616 383.491C649.388 383.491 652.445 380.434 652.445 376.662C652.445 372.891 649.388 369.833 645.616 369.833C641.844 369.833 638.787 372.891 638.787 376.662C638.787 380.434 641.844 383.491 645.616 383.491Z" stroke="#2C3E50" stroke-width="5" stroke-miterlimit="10"/>
<path d="M595.926 161.254H660.75L686.792 135.266" stroke="#2C3E50" stroke-width="5" stroke-miterlimit="10"/>
<path d="M609.794 161.254V340.841L640.79 371.836" stroke="#2C3E50" stroke-width="5" stroke-miterlimit="10"/>
<path d="M631.685 161.254V276.52L644.706 289.541" stroke="#2C3E50" stroke-width="5" stroke-miterlimit="10"/>
</svg>
