<svg width="651" height="651" viewBox="0 0 651 651" fill="none" xmlns="http://www.w3.org/2000/svg">
<rect width="651" height="651" fill="white"/>
<path d="M581.244 205.284C612.649 280.587 567.681 401.572 493.449 447.253C419.217 492.577 316.077 462.956 239.346 405.497C162.973 347.681 113.009 262.028 133.351 201.358C154.05 140.687 244.7 104.998 343.558 102.143C442.771 99.6452 550.195 129.624 581.244 205.284Z" fill="#42B9F8"/>
<path d="M115.909 209.195C118.97 209.195 121.451 206.713 121.451 203.652C121.451 200.59 118.97 198.109 115.909 198.109C112.847 198.109 110.366 200.59 110.366 203.652C110.366 206.713 112.847 209.195 115.909 209.195Z" stroke="#2C3E50" stroke-width="5" stroke-miterlimit="10"/>
<path d="M136.363 209.195C139.425 209.195 141.906 206.713 141.906 203.652C141.906 200.59 139.425 198.109 136.363 198.109C133.302 198.109 130.821 200.59 130.821 203.652C130.821 206.713 133.302 209.195 136.363 209.195Z" stroke="#2C3E50" stroke-width="5" stroke-miterlimit="10"/>
<path d="M156.82 209.195C159.881 209.195 162.362 206.713 162.362 203.652C162.362 200.59 159.881 198.109 156.82 198.109C153.758 198.109 151.277 200.59 151.277 203.652C151.277 206.713 153.758 209.195 156.82 209.195Z" stroke="#2C3E50" stroke-width="5" stroke-miterlimit="10"/>
<path d="M551.988 186.755H99.0198V485.403H551.988V186.755Z" stroke="#2C3E50" stroke-width="5" stroke-miterlimit="10"/>
<path d="M528.725 215.705H504.493L506.571 206.655C506.6 206.498 506.684 206.357 506.806 206.255C506.93 206.154 507.084 206.099 507.244 206.1H525.991C526.158 206.103 526.318 206.165 526.444 206.274C526.57 206.383 526.653 206.533 526.681 206.697L528.725 215.705Z" fill="#2C3E50"/>
<path d="M286.73 359.477C286.226 358.636 285.738 357.795 285.267 356.954L279.539 362.682H288.673L286.73 359.477ZM366.96 295.951C361.876 294.953 357.365 292.053 354.344 287.843L313.51 328.669L324.007 339.166L348.625 314.547L351.384 317.306L327.834 340.856L325.395 343.312L324.007 344.691L310.751 331.436L288.648 353.565C291.53 359.202 295.334 364.319 299.902 368.704L325.495 393.095L351.081 368.704C356.609 363.393 361.013 357.026 364.032 349.978C367.05 342.932 368.621 335.35 368.651 327.685V296.288L366.96 295.951ZM387.794 375.517C386.202 374.959 384.757 374.05 383.564 372.858C382.372 371.665 381.463 370.22 380.905 368.628L380.409 367.224H358.693L358.062 367.947C356.783 369.411 355.539 370.731 354.218 371.976L325.495 399.319L296.764 371.942C295.469 370.697 294.174 369.335 292.929 367.913L292.307 367.19H274.989L249.151 393.061C250.727 395.181 252.409 397.239 254.198 399.235C262.477 408.595 272.52 416.234 283.751 421.713C294.983 427.192 307.184 430.405 319.658 431.169C332.132 431.933 344.633 430.233 356.449 426.164C368.266 422.097 379.165 415.741 388.525 407.461L389.232 406.83V376.013L387.794 375.517ZM391.427 358.283C390.11 358.286 388.824 358.68 387.731 359.413C386.638 360.148 385.787 361.189 385.285 362.407C384.784 363.625 384.654 364.963 384.913 366.254C385.171 367.545 385.807 368.731 386.74 369.66C387.672 370.591 388.859 371.223 390.15 371.479C391.442 371.734 392.78 371.602 393.997 371.097C395.214 370.592 396.252 369.739 396.984 368.643C397.715 367.548 398.105 366.262 398.105 364.944C398.105 364.067 397.932 363.197 397.595 362.388C397.258 361.577 396.765 360.841 396.142 360.223C395.52 359.604 394.782 359.113 393.97 358.78C393.158 358.448 392.288 358.279 391.41 358.283H391.427ZM418.712 316.322L418.089 313.723C414.025 296.83 405.412 281.373 393.185 269.029C389.854 265.665 386.285 262.548 382.503 259.701L357.65 284.563C359.085 286.779 361.052 288.602 363.372 289.864C365.691 291.125 368.289 291.787 370.93 291.788H373.193V316.322H418.712ZM419.797 322.681L419.536 320.872H373.193V327.66C373.174 338.885 370.079 349.889 364.244 359.477L362.301 362.674H380.342L380.83 361.261C381.454 359.471 382.522 357.869 383.934 356.605C385.346 355.341 387.056 354.456 388.903 354.033C390.751 353.611 392.675 353.664 394.496 354.188C396.318 354.712 397.976 355.69 399.316 357.03C400.656 358.371 401.634 360.028 402.158 361.85C402.682 363.671 402.735 365.595 402.313 367.443C401.89 369.291 401.005 371 399.741 372.412C398.477 373.824 396.876 374.893 395.086 375.517L393.681 376.005V399.142H396.734L397.441 398.419C406.402 388.15 413.04 376.066 416.898 362.994C420.757 349.922 421.745 336.17 419.797 322.681ZM508.37 222.694C507.461 222.692 506.572 222.96 505.816 223.463C505.06 223.967 504.47 224.684 504.121 225.523C503.773 226.362 503.68 227.285 503.857 228.177C504.032 229.068 504.469 229.888 505.112 230.53C505.753 231.174 506.572 231.612 507.462 231.789C508.354 231.967 509.277 231.877 510.117 231.529C510.956 231.182 511.674 230.594 512.179 229.838C512.684 229.083 512.954 228.194 512.954 227.286C512.951 226.07 512.468 224.905 511.609 224.045C510.75 223.184 509.586 222.698 508.37 222.694ZM524.855 222.694C523.947 222.694 523.058 222.963 522.304 223.468C521.549 223.972 520.96 224.69 520.613 225.529C520.264 226.368 520.173 227.291 520.351 228.182C520.528 229.073 520.966 229.891 521.608 230.533C522.25 231.175 523.068 231.613 523.959 231.79C524.85 231.967 525.773 231.877 526.612 231.528C527.451 231.181 528.169 230.592 528.673 229.837C529.178 229.083 529.447 228.194 529.447 227.286C529.445 226.069 528.96 224.902 528.1 224.041C527.238 223.181 526.072 222.696 524.855 222.694ZM524.855 222.694C523.947 222.694 523.058 222.963 522.304 223.468C521.549 223.972 520.96 224.69 520.613 225.529C520.264 226.368 520.173 227.291 520.351 228.182C520.528 229.073 520.966 229.891 521.608 230.533C522.25 231.175 523.068 231.613 523.959 231.79C524.85 231.967 525.773 231.877 526.612 231.528C527.451 231.181 528.169 230.592 528.673 229.837C529.178 229.083 529.447 228.194 529.447 227.286C529.445 226.069 528.96 224.902 528.1 224.041C527.238 223.181 526.072 222.696 524.855 222.694ZM508.37 222.694C507.461 222.692 506.572 222.96 505.816 223.463C505.06 223.967 504.47 224.684 504.121 225.523C503.773 226.362 503.68 227.285 503.857 228.177C504.032 229.068 504.469 229.888 505.112 230.53C505.753 231.174 506.572 231.612 507.462 231.789C508.354 231.967 509.277 231.877 510.117 231.529C510.956 231.182 511.674 230.594 512.179 229.838C512.684 229.083 512.954 228.194 512.954 227.286C512.951 226.07 512.468 224.905 511.609 224.045C510.75 223.184 509.586 222.698 508.37 222.694ZM455.719 186.528L385.657 256.589C397.044 265.184 406.455 276.122 413.254 288.664C420.053 301.206 424.083 315.06 425.071 329.293C426.059 343.525 423.983 357.804 418.983 371.165C413.983 384.527 406.175 396.66 396.086 406.747C385.996 416.834 373.861 424.639 360.498 429.636C347.135 434.633 332.857 436.706 318.625 435.714C304.392 434.722 290.539 430.689 277.998 423.887C265.458 417.084 254.522 407.672 245.93 396.283L156.776 485.436H551.979V186.528H455.719ZM524.855 234.469C523.183 234.466 521.565 233.875 520.285 232.798C519.005 231.722 518.146 230.228 517.857 228.581H515.334C515.019 230.337 514.057 231.912 512.639 232.994C511.221 234.078 509.45 234.591 507.673 234.433C505.895 234.274 504.242 233.456 503.037 232.14C501.833 230.824 501.165 229.104 501.165 227.32C501.165 225.536 501.833 223.816 503.037 222.5C504.242 221.183 505.895 220.366 507.673 220.207C509.45 220.049 511.221 220.562 512.639 221.645C514.057 222.727 515.019 224.302 515.334 226.058H517.857C518.104 224.729 518.723 223.497 519.644 222.507C520.565 221.517 521.748 220.811 523.056 220.469C524.364 220.127 525.742 220.166 527.029 220.579C528.316 220.991 529.459 221.764 530.324 222.802C531.188 223.842 531.739 225.106 531.911 226.447C532.084 227.787 531.87 229.149 531.297 230.374C530.723 231.597 529.812 232.633 528.672 233.358C527.53 234.084 526.207 234.469 524.855 234.469ZM535.158 218.261H498.058V215.738H501.894L504.089 206.167C504.246 205.45 504.644 204.809 505.217 204.35C505.789 203.891 506.501 203.642 507.234 203.644H525.982C526.726 203.644 527.446 203.903 528.022 204.375C528.597 204.848 528.99 205.505 529.136 206.234L531.323 215.772H535.158V218.261ZM524.855 222.694C523.947 222.694 523.058 222.963 522.304 223.468C521.549 223.972 520.96 224.69 520.613 225.529C520.264 226.368 520.173 227.291 520.351 228.182C520.528 229.073 520.966 229.891 521.608 230.533C522.25 231.175 523.068 231.613 523.959 231.79C524.85 231.967 525.773 231.877 526.612 231.528C527.451 231.181 528.169 230.592 528.673 229.837C529.178 229.083 529.447 228.194 529.447 227.286C529.445 226.069 528.96 224.902 528.1 224.041C527.238 223.181 526.072 222.696 524.855 222.694ZM508.37 222.694C507.461 222.692 506.572 222.96 505.816 223.463C505.06 223.967 504.47 224.684 504.121 225.523C503.773 226.362 503.68 227.285 503.857 228.177C504.032 229.068 504.469 229.888 505.112 230.53C505.753 231.174 506.572 231.612 507.462 231.789C508.354 231.967 509.277 231.877 510.117 231.529C510.956 231.182 511.674 230.594 512.179 229.838C512.684 229.083 512.954 228.194 512.954 227.286C512.951 226.07 512.468 224.905 511.609 224.045C510.75 223.184 509.586 222.698 508.37 222.694ZM508.37 222.694C507.461 222.692 506.572 222.96 505.816 223.463C505.06 223.967 504.47 224.684 504.121 225.523C503.773 226.362 503.68 227.285 503.857 228.177C504.032 229.068 504.469 229.888 505.112 230.53C505.753 231.174 506.572 231.612 507.462 231.789C508.354 231.967 509.277 231.877 510.117 231.529C510.956 231.182 511.674 230.594 512.179 229.838C512.684 229.083 512.954 228.194 512.954 227.286C512.951 226.07 512.468 224.905 511.609 224.045C510.75 223.184 509.586 222.698 508.37 222.694ZM524.855 222.694C523.947 222.694 523.058 222.963 522.304 223.468C521.549 223.972 520.96 224.69 520.613 225.529C520.264 226.368 520.173 227.291 520.351 228.182C520.528 229.073 520.966 229.891 521.608 230.533C522.25 231.175 523.068 231.613 523.959 231.79C524.85 231.967 525.773 231.877 526.612 231.528C527.451 231.181 528.169 230.592 528.673 229.837C529.178 229.083 529.447 228.194 529.447 227.286C529.445 226.069 528.96 224.902 528.1 224.041C527.238 223.181 526.072 222.696 524.855 222.694ZM524.855 222.694C523.947 222.694 523.058 222.963 522.304 223.468C521.549 223.972 520.96 224.69 520.613 225.529C520.264 226.368 520.173 227.291 520.351 228.182C520.528 229.073 520.966 229.891 521.608 230.533C522.25 231.175 523.068 231.613 523.959 231.79C524.85 231.967 525.773 231.877 526.612 231.528C527.451 231.181 528.169 230.592 528.673 229.837C529.178 229.083 529.447 228.194 529.447 227.286C529.445 226.069 528.96 224.902 528.1 224.041C527.238 223.181 526.072 222.696 524.855 222.694ZM508.37 222.694C507.461 222.692 506.572 222.96 505.816 223.463C505.06 223.967 504.47 224.684 504.121 225.523C503.773 226.362 503.68 227.285 503.857 228.177C504.032 229.068 504.469 229.888 505.112 230.53C505.753 231.174 506.572 231.612 507.462 231.789C508.354 231.967 509.277 231.877 510.117 231.529C510.956 231.182 511.674 230.594 512.179 229.838C512.684 229.083 512.954 228.194 512.954 227.286C512.951 226.07 512.468 224.905 511.609 224.045C510.75 223.184 509.586 222.698 508.37 222.694Z" fill="#2C3E50"/>
<path d="M455.727 186.494L486.746 155.475V129.032" stroke="#2C3E50" stroke-width="5" stroke-miterlimit="10"/>
<path d="M156.811 485.403L128.534 513.688V535.943" stroke="#2C3E50" stroke-width="5" stroke-miterlimit="10"/>
<path d="M486.746 155.475L507.47 134.751V114.616" stroke="#2C3E50" stroke-width="5" stroke-miterlimit="10"/>
<path d="M507.47 134.751V161.001" stroke="#2C3E50" stroke-width="5" stroke-miterlimit="10"/>
<path d="M486.746 129.032C490.23 129.032 493.054 126.208 493.054 122.724C493.054 119.24 490.23 116.416 486.746 116.416C483.262 116.416 480.438 119.24 480.438 122.724C480.438 126.208 483.262 129.032 486.746 129.032Z" stroke="#2C3E50" stroke-width="5" stroke-miterlimit="10"/>
<path d="M507.47 114.616C510.954 114.616 513.778 111.792 513.778 108.308C513.778 104.824 510.954 102 507.47 102C503.986 102 501.162 104.824 501.162 108.308C501.162 111.792 503.986 114.616 507.47 114.616Z" stroke="#2C3E50" stroke-width="5" stroke-miterlimit="10"/>
<path d="M507.47 173.617C510.954 173.617 513.778 170.793 513.778 167.309C513.778 163.825 510.954 161.001 507.47 161.001C503.986 161.001 501.162 163.825 501.162 167.309C501.162 170.793 503.986 173.617 507.47 173.617Z" stroke="#2C3E50" stroke-width="5" stroke-miterlimit="10"/>
<path d="M128.534 548.559C132.017 548.559 134.842 545.735 134.842 542.251C134.842 538.767 132.017 535.943 128.534 535.943C125.05 535.943 122.226 538.767 122.226 542.251C122.226 545.735 125.05 548.559 128.534 548.559Z" stroke="#2C3E50" stroke-width="5" stroke-miterlimit="10"/>
<path d="M10.6235 397.561C14.1073 397.561 16.9315 394.737 16.9315 391.253C16.9315 387.77 14.1073 384.945 10.6235 384.945C7.13963 384.945 4.31543 387.77 4.31543 391.253C4.31543 394.737 7.13963 397.561 10.6235 397.561Z" stroke="#2C3E50" stroke-width="5" stroke-miterlimit="10"/>
<path d="M29.1948 333.286C32.6786 333.286 35.5028 330.462 35.5028 326.978C35.5028 323.495 32.6786 320.67 29.1948 320.67C25.7109 320.67 22.8867 323.495 22.8867 326.978C22.8867 330.462 25.7109 333.286 29.1948 333.286Z" stroke="#2C3E50" stroke-width="5" stroke-miterlimit="10"/>
<path d="M53.1137 302.798C56.5976 302.798 59.4217 299.973 59.4217 296.49C59.4217 293.006 56.5976 290.182 53.1137 290.182C49.6299 290.182 46.8057 293.006 46.8057 296.49C46.8057 299.973 49.6299 302.798 53.1137 302.798Z" stroke="#2C3E50" stroke-width="5" stroke-miterlimit="10"/>
<path d="M99.0117 419.766H39.1358L15.0811 395.711" stroke="#2C3E50" stroke-width="5" stroke-miterlimit="10"/>
<path d="M86.2022 419.766V329.569L57.572 300.947" stroke="#2C3E50" stroke-width="5" stroke-miterlimit="10"/>
<path d="M57.5714 419.766V355.348L33.6597 331.436" stroke="#2C3E50" stroke-width="5" stroke-miterlimit="10"/>
<path d="M640.377 225.974C643.86 225.974 646.685 223.15 646.685 219.666C646.685 216.182 643.86 213.358 640.377 213.358C636.893 213.358 634.069 216.182 634.069 219.666C634.069 223.15 636.893 225.974 640.377 225.974Z" stroke="#2C3E50" stroke-width="5" stroke-miterlimit="10"/>
<path d="M601.511 377.443C604.995 377.443 607.819 374.619 607.819 371.135C607.819 367.651 604.995 364.827 601.511 364.827C598.027 364.827 595.203 367.651 595.203 371.135C595.203 374.619 598.027 377.443 601.511 377.443Z" stroke="#2C3E50" stroke-width="5" stroke-miterlimit="10"/>
<path d="M597.886 453.459C601.37 453.459 604.194 450.635 604.194 447.151C604.194 443.667 601.37 440.843 597.886 440.843C594.402 440.843 591.578 443.667 591.578 447.151C591.578 450.635 594.402 453.459 597.886 453.459Z" stroke="#2C3E50" stroke-width="5" stroke-miterlimit="10"/>
<path d="M551.98 248.178H611.864L635.919 224.166" stroke="#2C3E50" stroke-width="5" stroke-miterlimit="10"/>
<path d="M564.798 248.178V414.063L593.428 442.693" stroke="#2C3E50" stroke-width="5" stroke-miterlimit="10"/>
<path d="M585.017 248.178V354.641L597.044 366.677" stroke="#2C3E50" stroke-width="5" stroke-miterlimit="10"/>
<path d="M258.564 268.364C274.765 252.324 296.183 242.628 318.926 241.039C341.67 239.449 364.228 246.071 382.504 259.701L385.658 256.547C366.455 241.987 342.631 234.872 318.589 236.518C294.547 238.163 271.914 248.458 254.874 265.499C237.834 282.539 227.541 305.173 225.897 329.215C224.253 353.257 231.369 377.081 245.931 396.283L249.152 393.062C243.899 386.023 239.653 378.286 236.536 370.075L235.442 367.224H274.973L279.523 362.674H234.021L233.592 361.118C229.744 347.049 229.189 332.284 231.969 317.966C234.749 303.649 240.79 290.164 249.623 278.558L253.399 273.604V307.541L251.986 308.029C250.199 308.653 248.6 309.72 247.338 311.131C246.075 312.541 245.191 314.249 244.768 316.094C244.344 317.939 244.397 319.861 244.918 321.681C245.439 323.501 246.413 325.158 247.749 326.499C249.085 327.84 250.74 328.82 252.557 329.348C254.375 329.876 256.297 329.934 258.144 329.517C259.99 329.1 261.701 328.222 263.115 326.965C264.53 325.708 265.603 324.112 266.234 322.327L266.722 320.914H277.782V327.693C277.807 337.928 280.38 347.995 285.268 356.988L288.632 353.624C284.508 345.609 282.343 336.732 282.315 327.719V296.288L283.998 295.951C287.967 295.168 291.614 293.223 294.477 290.362C297.338 287.502 299.285 283.856 300.07 279.887L300.407 278.205H350.577L350.922 279.887C351.491 282.744 352.667 285.446 354.37 287.81L357.65 284.53C355.995 281.966 355.119 278.977 355.127 275.925V273.68H295.899V275.925C295.888 280.129 294.21 284.156 291.232 287.123C288.255 290.092 284.223 291.757 280.019 291.754H277.782V316.288H266.73L266.234 314.884C265.679 313.291 264.771 311.844 263.579 310.651C262.385 309.458 260.939 308.551 259.346 307.995L257.941 307.499V268.953L258.564 268.364ZM262.332 318.576C262.332 319.893 261.941 321.182 261.209 322.277C260.477 323.373 259.437 324.226 258.22 324.73C257.003 325.235 255.663 325.366 254.371 325.11C253.079 324.852 251.891 324.218 250.96 323.286C250.028 322.355 249.394 321.167 249.137 319.876C248.88 318.584 249.011 317.244 249.516 316.027C250.02 314.81 250.874 313.769 251.97 313.038C253.065 312.305 254.353 311.915 255.67 311.915C257.437 311.917 259.13 312.62 260.378 313.869C261.627 315.117 262.329 316.81 262.332 318.576Z" fill="#2C3E50"/>
<path d="M309.23 324.416L306.47 327.175L310.759 331.463L313.519 328.703L309.23 324.416Z" fill="#2C3E50"/>
</svg>
