<svg width="651" height="651" viewBox="0 0 651 651" fill="none" xmlns="http://www.w3.org/2000/svg">
<g clip-path="url(#clip0_1_1201)">
<rect width="651" height="651" fill="white"/>
<path d="M584.68 203.671C616.508 279.986 570.936 402.597 495.706 448.891C420.476 494.825 315.951 464.805 238.189 406.575C160.789 347.982 110.154 261.178 130.769 199.693C151.747 138.207 243.614 102.039 343.8 99.1453C444.347 96.6135 553.214 126.995 584.68 203.671Z" fill="#42B9F8"/>
<path d="M113.092 207.635C116.195 207.635 118.71 205.12 118.71 202.018C118.71 198.915 116.195 196.401 113.092 196.401C109.99 196.401 107.475 198.915 107.475 202.018C107.475 205.12 109.99 207.635 113.092 207.635Z" stroke="#2C3E50" stroke-width="5" stroke-miterlimit="10"/>
<path d="M133.822 207.635C136.925 207.635 139.439 205.12 139.439 202.018C139.439 198.915 136.925 196.401 133.822 196.401C130.72 196.401 128.205 198.915 128.205 202.018C128.205 205.12 130.72 207.635 133.822 207.635Z" stroke="#2C3E50" stroke-width="5" stroke-miterlimit="10"/>
<path d="M154.553 207.635C157.656 207.635 160.17 205.12 160.17 202.018C160.17 198.915 157.656 196.401 154.553 196.401C151.451 196.401 148.936 198.915 148.936 202.018C148.936 205.12 151.451 207.635 154.553 207.635Z" stroke="#2C3E50" stroke-width="5" stroke-miterlimit="10"/>
<path d="M555.031 184.894H95.9768V487.554H555.031V184.894Z" stroke="#2C3E50" stroke-width="5" stroke-miterlimit="10"/>
<path d="M531.455 214.232H506.898L509.004 205.061C509.034 204.902 509.118 204.759 509.242 204.656C509.368 204.554 509.524 204.497 509.686 204.498H528.685C528.854 204.502 529.016 204.565 529.144 204.675C529.272 204.786 529.356 204.937 529.384 205.103L531.455 214.232Z" fill="#2C3E50"/>
<path d="M286.21 359.937C285.698 359.085 285.204 358.232 284.727 357.38L278.922 363.184H288.179L286.21 359.937ZM367.518 295.557C362.365 294.545 357.793 291.606 354.732 287.34L313.349 328.715L323.987 339.352L348.936 314.403L351.732 317.199L327.865 341.065L325.393 343.554L323.987 344.952L310.553 331.519L288.153 353.945C291.074 359.658 294.929 364.844 299.558 369.287L325.496 394.006L351.425 369.287C357.027 363.906 361.49 357.452 364.55 350.31C367.608 343.169 369.2 335.486 369.231 327.717V295.898L367.518 295.557ZM388.631 376.192C387.018 375.627 385.553 374.705 384.344 373.497C383.136 372.289 382.215 370.823 381.65 369.211L381.147 367.787H359.139L358.499 368.52C357.204 370.003 355.942 371.342 354.604 372.603L325.496 400.314L296.378 372.569C295.066 371.308 293.753 369.927 292.492 368.486L291.861 367.753H274.311L248.126 393.972C249.722 396.12 251.427 398.206 253.24 400.229C261.631 409.715 271.808 417.456 283.191 423.008C294.573 428.562 306.939 431.818 319.579 432.592C332.221 433.366 344.89 431.643 356.865 427.52C368.84 423.398 379.886 416.956 389.372 408.565L390.088 407.926V376.695L388.631 376.192ZM392.313 358.727C390.978 358.73 389.675 359.129 388.567 359.872C387.46 360.616 386.597 361.672 386.088 362.906C385.58 364.14 385.449 365.496 385.711 366.805C385.973 368.113 386.618 369.315 387.563 370.257C388.507 371.199 389.71 371.84 391.019 372.099C392.328 372.359 393.685 372.224 394.917 371.712C396.15 371.201 397.203 370.336 397.945 369.226C398.685 368.116 399.081 366.812 399.081 365.477C399.081 364.588 398.905 363.707 398.564 362.886C398.223 362.064 397.722 361.319 397.092 360.692C396.461 360.065 395.713 359.568 394.89 359.23C394.067 358.894 393.185 358.722 392.296 358.727H392.313ZM419.964 316.202L419.333 313.568C415.215 296.448 406.486 280.783 394.095 268.273C390.719 264.864 387.102 261.705 383.269 258.82L358.082 284.016C359.537 286.262 361.53 288.109 363.88 289.388C366.231 290.666 368.864 291.337 371.541 291.338H373.834V316.202H419.964ZM421.064 322.646L420.799 320.813H373.834V327.692C373.815 339.067 370.678 350.22 364.764 359.937L362.795 363.176H381.079L381.573 361.744C382.206 359.93 383.288 358.307 384.719 357.026C386.15 355.745 387.883 354.848 389.755 354.42C391.628 353.992 393.578 354.045 395.423 354.576C397.27 355.107 398.95 356.099 400.308 357.457C401.666 358.815 402.658 360.495 403.189 362.341C403.72 364.187 403.773 366.137 403.345 368.01C402.917 369.882 402.02 371.614 400.739 373.046C399.458 374.477 397.835 375.559 396.021 376.192L394.597 376.686V400.135H397.692L398.408 399.402C407.49 388.994 414.217 376.748 418.126 363.501C422.037 350.253 423.039 336.317 421.064 322.646ZM510.827 221.315C509.906 221.314 509.006 221.586 508.239 222.095C507.473 222.606 506.875 223.332 506.521 224.183C506.168 225.033 506.074 225.969 506.253 226.872C506.431 227.776 506.874 228.606 507.525 229.257C508.175 229.909 509.005 230.353 509.907 230.533C510.811 230.714 511.747 230.622 512.597 230.27C513.448 229.918 514.176 229.322 514.687 228.556C515.199 227.79 515.472 226.89 515.472 225.969C515.47 224.737 514.981 223.556 514.11 222.684C513.239 221.812 512.06 221.32 510.827 221.315ZM527.534 221.315C526.613 221.315 525.713 221.588 524.948 222.1C524.183 222.611 523.586 223.338 523.234 224.189C522.881 225.039 522.789 225.975 522.969 226.877C523.149 227.78 523.592 228.609 524.243 229.26C524.894 229.911 525.723 230.354 526.626 230.534C527.528 230.714 528.464 230.622 529.314 230.269C530.165 229.917 530.892 229.32 531.403 228.555C531.915 227.79 532.187 226.89 532.187 225.969C532.185 224.736 531.694 223.553 530.822 222.681C529.949 221.809 528.767 221.318 527.534 221.315ZM527.534 221.315C526.613 221.315 525.713 221.588 524.948 222.1C524.183 222.611 523.586 223.338 523.234 224.189C522.881 225.039 522.789 225.975 522.969 226.877C523.149 227.78 523.592 228.609 524.243 229.26C524.894 229.911 525.723 230.354 526.626 230.534C527.528 230.714 528.464 230.622 529.314 230.269C530.165 229.917 530.892 229.32 531.403 228.555C531.915 227.79 532.187 226.89 532.187 225.969C532.185 224.736 531.694 223.553 530.822 222.681C529.949 221.809 528.767 221.318 527.534 221.315ZM510.827 221.315C509.906 221.314 509.006 221.586 508.239 222.095C507.473 222.606 506.875 223.332 506.521 224.183C506.168 225.033 506.074 225.969 506.253 226.872C506.431 227.776 506.874 228.606 507.525 229.257C508.175 229.909 509.005 230.353 509.907 230.533C510.811 230.714 511.747 230.622 512.597 230.27C513.448 229.918 514.176 229.322 514.687 228.556C515.199 227.79 515.472 226.89 515.472 225.969C515.47 224.737 514.981 223.556 514.11 222.684C513.239 221.812 512.06 221.32 510.827 221.315ZM457.468 184.663L386.466 255.666C398.005 264.377 407.542 275.462 414.433 288.172C421.324 300.883 425.407 314.923 426.409 329.347C427.41 343.77 425.307 358.241 420.239 371.782C415.172 385.323 407.259 397.62 397.034 407.842C386.809 418.064 374.511 425.974 360.969 431.039C347.426 436.102 332.956 438.203 318.533 437.198C304.109 436.193 290.069 432.105 277.36 425.212C264.651 418.318 253.569 408.779 244.861 397.237L154.51 487.588H555.023V184.663H457.468ZM527.534 233.249C525.839 233.246 524.199 232.647 522.903 231.556C521.605 230.465 520.734 228.951 520.442 227.282H517.885C517.565 229.062 516.591 230.658 515.154 231.755C513.717 232.852 511.921 233.372 510.12 233.212C508.319 233.051 506.644 232.222 505.423 230.889C504.202 229.555 503.526 227.811 503.526 226.004C503.526 224.196 504.202 222.453 505.423 221.119C506.644 219.785 508.319 218.956 510.12 218.795C511.921 218.635 513.717 219.155 515.154 220.253C516.591 221.35 517.565 222.945 517.885 224.725H520.442C520.692 223.378 521.319 222.13 522.252 221.126C523.186 220.123 524.385 219.407 525.71 219.061C527.036 218.714 528.433 218.753 529.737 219.172C531.041 219.59 532.199 220.373 533.076 221.425C533.952 222.479 534.51 223.76 534.685 225.119C534.86 226.477 534.643 227.857 534.062 229.099C533.481 230.339 532.557 231.388 531.402 232.123C530.245 232.858 528.903 233.249 527.534 233.249ZM537.975 216.823H500.377V214.266H504.264L506.488 204.566C506.648 203.84 507.051 203.191 507.632 202.725C508.211 202.26 508.933 202.008 509.676 202.009H528.676C529.43 202.01 530.16 202.273 530.743 202.751C531.326 203.23 531.725 203.896 531.872 204.635L534.088 214.3H537.975V216.823ZM527.534 221.315C526.613 221.315 525.713 221.588 524.948 222.1C524.183 222.611 523.586 223.338 523.234 224.189C522.881 225.039 522.789 225.975 522.969 226.877C523.149 227.78 523.592 228.609 524.243 229.26C524.894 229.911 525.723 230.354 526.626 230.534C527.528 230.714 528.464 230.622 529.314 230.269C530.165 229.917 530.892 229.32 531.403 228.555C531.915 227.79 532.187 226.89 532.187 225.969C532.185 224.736 531.694 223.553 530.822 222.681C529.949 221.809 528.767 221.318 527.534 221.315ZM510.827 221.315C509.906 221.314 509.006 221.586 508.239 222.095C507.473 222.606 506.875 223.332 506.521 224.183C506.168 225.033 506.074 225.969 506.253 226.872C506.431 227.776 506.874 228.606 507.525 229.257C508.175 229.909 509.005 230.353 509.907 230.533C510.811 230.714 511.747 230.622 512.597 230.27C513.448 229.918 514.176 229.322 514.687 228.556C515.199 227.79 515.472 226.89 515.472 225.969C515.47 224.737 514.981 223.556 514.11 222.684C513.239 221.812 512.06 221.32 510.827 221.315ZM510.827 221.315C509.906 221.314 509.006 221.586 508.239 222.095C507.473 222.606 506.875 223.332 506.521 224.183C506.168 225.033 506.074 225.969 506.253 226.872C506.431 227.776 506.874 228.606 507.525 229.257C508.175 229.909 509.005 230.353 509.907 230.533C510.811 230.714 511.747 230.622 512.597 230.27C513.448 229.918 514.176 229.322 514.687 228.556C515.199 227.79 515.472 226.89 515.472 225.969C515.47 224.737 514.981 223.556 514.11 222.684C513.239 221.812 512.06 221.32 510.827 221.315ZM527.534 221.315C526.613 221.315 525.713 221.588 524.948 222.1C524.183 222.611 523.586 223.338 523.234 224.189C522.881 225.039 522.789 225.975 522.969 226.877C523.149 227.78 523.592 228.609 524.243 229.26C524.894 229.911 525.723 230.354 526.626 230.534C527.528 230.714 528.464 230.622 529.314 230.269C530.165 229.917 530.892 229.32 531.403 228.555C531.915 227.79 532.187 226.89 532.187 225.969C532.185 224.736 531.694 223.553 530.822 222.681C529.949 221.809 528.767 221.318 527.534 221.315ZM527.534 221.315C526.613 221.315 525.713 221.588 524.948 222.1C524.183 222.611 523.586 223.338 523.234 224.189C522.881 225.039 522.789 225.975 522.969 226.877C523.149 227.78 523.592 228.609 524.243 229.26C524.894 229.911 525.723 230.354 526.626 230.534C527.528 230.714 528.464 230.622 529.314 230.269C530.165 229.917 530.892 229.32 531.403 228.555C531.915 227.79 532.187 226.89 532.187 225.969C532.185 224.736 531.694 223.553 530.822 222.681C529.949 221.809 528.767 221.318 527.534 221.315ZM510.827 221.315C509.906 221.314 509.006 221.586 508.239 222.095C507.473 222.606 506.875 223.332 506.521 224.183C506.168 225.033 506.074 225.969 506.253 226.872C506.431 227.776 506.874 228.606 507.525 229.257C508.175 229.909 509.005 230.353 509.907 230.533C510.811 230.714 511.747 230.622 512.597 230.27C513.448 229.918 514.176 229.322 514.687 228.556C515.199 227.79 515.472 226.89 515.472 225.969C515.47 224.737 514.981 223.556 514.11 222.684C513.239 221.812 512.06 221.32 510.827 221.315Z" fill="#2C3E50"/>
<path d="M457.477 184.629L488.913 153.194V126.395" stroke="#2C3E50" stroke-width="5" stroke-miterlimit="10"/>
<path d="M154.544 487.554L125.888 516.22V538.773" stroke="#2C3E50" stroke-width="5" stroke-miterlimit="10"/>
<path d="M488.913 153.194L509.915 132.191V111.786" stroke="#2C3E50" stroke-width="5" stroke-miterlimit="10"/>
<path d="M509.916 132.191V158.794" stroke="#2C3E50" stroke-width="5" stroke-miterlimit="10"/>
<path d="M488.912 126.395C492.443 126.395 495.305 123.533 495.305 120.003C495.305 116.472 492.443 113.61 488.912 113.61C485.382 113.61 482.52 116.472 482.52 120.003C482.52 123.533 485.382 126.395 488.912 126.395Z" stroke="#2C3E50" stroke-width="5" stroke-miterlimit="10"/>
<path d="M509.915 111.786C513.446 111.786 516.308 108.923 516.308 105.393C516.308 101.862 513.446 99 509.915 99C506.385 99 503.522 101.862 503.522 105.393C503.522 108.923 506.385 111.786 509.915 111.786Z" stroke="#2C3E50" stroke-width="5" stroke-miterlimit="10"/>
<path d="M509.915 171.579C513.446 171.579 516.308 168.717 516.308 165.187C516.308 161.656 513.446 158.794 509.915 158.794C506.385 158.794 503.522 161.656 503.522 165.187C503.522 168.717 506.385 171.579 509.915 171.579Z" stroke="#2C3E50" stroke-width="5" stroke-miterlimit="10"/>
<path d="M125.887 551.559C129.418 551.559 132.28 548.697 132.28 545.166C132.28 541.636 129.418 538.773 125.887 538.773C122.357 538.773 119.494 541.636 119.494 545.166C119.494 548.697 122.357 551.559 125.887 551.559Z" stroke="#2C3E50" stroke-width="5" stroke-miterlimit="10"/>
<path d="M6.3928 398.532C9.92341 398.532 12.7856 395.67 12.7856 392.14C12.7856 388.609 9.92341 385.747 6.3928 385.747C2.86215 385.747 0 388.609 0 392.14C0 395.67 2.86215 398.532 6.3928 398.532Z" stroke="#2C3E50" stroke-width="5" stroke-miterlimit="10"/>
<path d="M25.2136 333.394C28.7442 333.394 31.6064 330.532 31.6064 327.001C31.6064 323.471 28.7442 320.609 25.2136 320.609C21.6829 320.609 18.8208 323.471 18.8208 327.001C18.8208 330.532 21.6829 333.394 25.2136 333.394Z" stroke="#2C3E50" stroke-width="5" stroke-miterlimit="10"/>
<path d="M49.4538 302.496C52.9845 302.496 55.8466 299.633 55.8466 296.103C55.8466 292.572 52.9845 289.71 49.4538 289.71C45.9232 289.71 43.061 292.572 43.061 296.103C43.061 299.633 45.9232 302.496 49.4538 302.496Z" stroke="#2C3E50" stroke-width="5" stroke-miterlimit="10"/>
<path d="M95.9685 421.035H35.2881L10.9102 396.657" stroke="#2C3E50" stroke-width="5" stroke-miterlimit="10"/>
<path d="M82.987 421.035V329.627L53.9722 300.62" stroke="#2C3E50" stroke-width="5" stroke-miterlimit="10"/>
<path d="M53.9715 421.035V355.752L29.7385 331.519" stroke="#2C3E50" stroke-width="5" stroke-miterlimit="10"/>
<path d="M644.607 224.64C648.138 224.64 651 221.778 651 218.247C651 214.717 648.138 211.854 644.607 211.854C641.077 211.854 638.215 214.717 638.215 218.247C638.215 221.778 641.077 224.64 644.607 224.64Z" stroke="#2C3E50" stroke-width="5" stroke-miterlimit="10"/>
<path d="M605.219 378.144C608.75 378.144 611.612 375.281 611.612 371.751C611.612 368.22 608.75 365.358 605.219 365.358C601.689 365.358 598.827 368.22 598.827 371.751C598.827 375.281 601.689 378.144 605.219 378.144Z" stroke="#2C3E50" stroke-width="5" stroke-miterlimit="10"/>
<path d="M601.546 455.181C605.077 455.181 607.939 452.319 607.939 448.788C607.939 445.258 605.077 442.396 601.546 442.396C598.016 442.396 595.153 445.258 595.153 448.788C595.153 452.319 598.016 455.181 601.546 455.181Z" stroke="#2C3E50" stroke-width="5" stroke-miterlimit="10"/>
<path d="M555.023 247.143H615.712L640.09 222.807" stroke="#2C3E50" stroke-width="5" stroke-miterlimit="10"/>
<path d="M568.013 247.142V415.256L597.028 444.271" stroke="#2C3E50" stroke-width="5" stroke-miterlimit="10"/>
<path d="M588.504 247.142V355.036L600.693 367.233" stroke="#2C3E50" stroke-width="5" stroke-miterlimit="10"/>
<path d="M257.664 267.599C274.084 251.344 295.789 241.518 318.838 239.907C341.887 238.296 364.749 245.006 383.27 258.82L386.466 255.624C367.006 240.868 342.862 233.657 318.496 235.325C294.131 236.992 271.194 247.425 253.925 264.695C236.657 281.964 226.225 304.903 224.559 329.268C222.893 353.633 230.104 377.777 244.862 397.237L248.126 393.972C242.802 386.839 238.5 378.999 235.341 370.677L234.233 367.787H274.294L278.905 363.176H232.792L232.357 361.599C228.458 347.341 227.895 332.378 230.712 317.868C233.53 303.358 239.652 289.692 248.604 277.93L252.431 272.91V307.303L250.999 307.797C249.187 308.43 247.567 309.511 246.288 310.941C245.008 312.37 244.112 314.101 243.684 315.971C243.254 317.84 243.307 319.789 243.835 321.632C244.364 323.477 245.351 325.157 246.704 326.515C248.059 327.874 249.735 328.867 251.577 329.402C253.419 329.938 255.367 329.997 257.239 329.574C259.11 329.152 260.844 328.262 262.277 326.988C263.711 325.713 264.799 324.096 265.438 322.288L265.932 320.856H277.141V327.726C277.167 338.098 279.774 348.3 284.727 357.414L288.137 354.004C283.957 345.882 281.763 336.885 281.735 327.751V295.898L283.44 295.557C287.463 294.764 291.159 292.792 294.06 289.893C296.96 286.994 298.933 283.299 299.729 279.277L300.07 277.572H350.914L351.263 279.277C351.84 282.172 353.032 284.911 354.758 287.306L358.082 283.982C356.405 281.384 355.517 278.355 355.525 275.262V272.986H295.501V275.262C295.49 279.522 293.79 283.604 290.772 286.611C287.755 289.619 283.668 291.306 279.408 291.304H277.141V316.168H265.941L265.438 314.744C264.875 313.13 263.956 311.664 262.747 310.454C261.537 309.245 260.071 308.326 258.457 307.763L257.033 307.26V268.196L257.664 267.599ZM261.483 318.486C261.483 319.821 261.087 321.127 260.345 322.237C259.603 323.347 258.549 324.212 257.316 324.723C256.082 325.234 254.724 325.367 253.415 325.107C252.106 324.846 250.902 324.204 249.959 323.259C249.014 322.316 248.372 321.112 248.111 319.803C247.851 318.494 247.984 317.136 248.495 315.903C249.006 314.669 249.871 313.615 250.982 312.873C252.091 312.131 253.397 311.735 254.732 311.735C256.522 311.738 258.238 312.45 259.503 313.715C260.769 314.98 261.48 316.696 261.483 318.486Z" fill="#2C3E50"/>
<path d="M309.011 324.404L306.215 327.201L310.561 331.546L313.358 328.749L309.011 324.404Z" fill="#2C3E50"/>
</g>
<defs>
<clipPath id="clip0_1_1201">
<rect width="651" height="651" fill="white"/>
</clipPath>
</defs>
</svg>
