<svg width="244" height="170" viewBox="0 0 244 170" fill="none" xmlns="http://www.w3.org/2000/svg">
<path d="M103.135 3.51733H88V40.8213H103.135C114.433 40.8213 122.426 33.0408 122.426 22.1693C122.32 11.1913 114.433 3.51733 103.135 3.51733ZM102.602 31.442H98.3385V12.8966H102.602C108.144 12.8966 111.768 16.5204 111.768 22.0628C111.875 27.6051 108.144 31.442 102.602 31.442Z" fill="#453396"/>
<path d="M123.385 0V8.42005H133.191V0H123.385ZM123.279 12.0439V40.8212H133.191V12.0439H123.279Z" fill="#453396"/>
<path d="M158.771 12.0438L157.492 14.4952C155.041 12.3636 151.843 11.1912 148.433 11.1912C140.226 11.1912 134.044 17.4796 134.044 25.6864C134.044 33.9999 140.226 40.1817 148.433 40.1817C151.204 40.1817 153.762 39.4356 156 38.05V38.9027C156 42.3134 153.335 44.445 150.031 44.445C147.58 44.445 145.129 43.3792 144.489 41.4607H134.897C136.176 48.1754 141.931 52.2256 150.138 52.2256C159.624 52.2256 165.592 46.5767 165.592 37.6237V12.0438H158.771ZM150.138 31.8682C146.514 31.8682 143.956 29.2037 143.956 25.5798C143.956 21.956 146.514 19.2915 150.138 19.2915C153.655 19.2915 156.213 21.956 156.213 25.5798C156.213 29.2037 153.655 31.8682 150.138 31.8682Z" fill="#453396"/>
<path d="M168.151 0V8.42005H177.956V0H168.151ZM177.956 16.9467V12.0439H168.044V40.8212H177.956V19.6112H175.185L177.53 17.2664L177.956 16.9467Z" fill="#453396"/>
<path d="M196.075 32.0814C193.943 32.0814 192.771 30.8024 192.771 28.7773V19.6112H199.699V11.9372H192.451V3.62378H190.426L177.956 16.9466V19.7178H182.859V30.5892C182.859 36.9842 186.696 40.8212 193.091 40.8212H199.912V32.188H196.075V32.0814Z" fill="#453396"/>
<path d="M223.786 12.0438L222.72 14.2821C220.376 12.3636 217.285 11.1912 213.874 11.1912C205.028 11.1912 198.739 17.5861 198.739 26.4325C198.739 28.4576 199.059 30.3761 199.699 32.188C199.699 32.188 199.699 32.2946 199.805 32.4011C201.937 38.1566 207.159 41.887 213.874 41.887C217.178 41.887 220.162 40.8212 222.507 38.9027L223.36 40.9278H231.034V12.1504H223.786V12.0438ZM215.26 32.9341C211.529 32.9341 208.865 30.1629 208.865 26.3259C208.865 22.5955 211.529 19.8244 215.26 19.8244C218.99 19.8244 221.655 22.5955 221.655 26.3259C221.655 30.1629 218.99 32.9341 215.26 32.9341Z" fill="#453396"/>
<path d="M233.592 1.59863V40.8211H243.504V1.59863H233.592Z" fill="#453396"/>
<path d="M10.232 95.8178V90.2755H22.489V81.8555H10.232V76.3132H23.8746V67.4668H0V104.771H24.3009V95.8178H10.232Z" fill="#453396"/>
<path d="M53.9307 83.5608H53.3978H51.2661L53.2912 81.4292C51.5859 77.4856 48.0686 75.0342 43.2724 75.0342C39.542 75.0342 36.3445 76.4198 34.2129 78.8712L32.8273 75.8868H25.8994V104.664H35.8116V89.4229C35.8116 85.799 37.6235 83.5608 40.7144 83.5608C43.1658 83.5608 44.4448 85.1595 44.4448 88.5702V104.771H54.357V87.1846C54.2505 85.9056 54.1439 84.7332 53.9307 83.5608Z" fill="#453396"/>
<path d="M71.8371 96.031C69.7054 96.031 68.533 94.752 68.533 92.7269V83.5608H75.5675V75.8868H68.3198V67.4668H66.2947L53.1851 81.3226L53.2916 81.7489C53.5048 82.2818 53.718 82.9213 53.8246 83.5608H58.6208V94.4323C58.6208 100.827 62.4578 104.664 68.8527 104.664H75.674V96.031H71.8371Z" fill="#453396"/>
<path d="M105.944 90.0624C105.944 81.6423 99.5488 75.0342 90.2761 75.0342C81.2165 75.0342 74.6084 81.5357 74.6084 90.3821C74.6084 92.4072 74.9281 94.3257 75.6742 96.1376C77.9125 101.893 83.3482 105.73 90.2761 105.73C97.5237 105.73 103.279 101.68 105.304 95.0717H95.3921C94.4328 96.7771 92.5143 97.7363 90.1695 97.7363C87.0786 97.7363 84.9469 96.031 84.3074 92.7269H105.731C105.837 91.8743 105.944 90.915 105.944 90.0624ZM84.5206 87.1846C85.3733 84.3069 87.2918 82.7081 90.1695 82.7081C93.1538 82.7081 95.2855 84.3069 96.1381 87.1846H84.5206Z" fill="#453396"/>
<path d="M122.89 75.8869C119.479 75.8869 117.028 76.8461 115.003 79.1909L113.404 75.9934H106.796V104.771H116.708V90.0624C116.708 86.332 118.2 84.8398 121.717 84.8398H125.554V75.7803H122.89V75.8869Z" fill="#453396"/>
<path d="M142.288 75.0342C138.878 75.0342 135.787 76.2066 133.442 78.2317L132.163 75.9934H125.448V115.109H135.254V103.812C137.279 104.984 139.624 105.73 142.288 105.73C151.135 105.73 157.423 99.3351 157.423 90.3821C157.423 81.4292 151.135 75.0342 142.288 75.0342ZM141.009 96.9902C137.279 96.9902 134.614 94.2191 134.614 90.3821C134.614 86.6517 137.386 83.774 141.009 83.774C144.74 83.774 147.404 86.5451 147.404 90.3821C147.404 94.1125 144.633 96.9902 141.009 96.9902Z" fill="#453396"/>
<path d="M174.369 75.8869C170.959 75.8869 168.507 76.8461 166.482 79.1909L164.884 75.9934H158.275V104.771H168.188V90.0624C168.188 86.332 169.68 84.8398 173.197 84.8398H177.034V75.7803H174.369V75.8869Z" fill="#453396"/>
<path d="M177.034 63.9497V72.3698H186.839V63.9497H177.034ZM176.927 75.9936V104.771H186.839V75.9936H176.927Z" fill="#453396"/>
<path d="M213.166 95.2851C213.166 94.0061 212.846 92.9402 212.526 91.981C210.821 88.0374 206.238 87.2913 202.614 86.6518C199.843 86.1189 197.711 85.7992 197.711 84.0939C197.711 82.7083 198.777 81.9622 200.376 81.9622C202.188 81.9622 203.466 82.8149 203.466 84.6268H212.739C212.633 78.7647 207.836 74.9277 200.589 74.9277C193.235 74.9277 188.332 78.6581 188.332 84.4136C188.332 91.3415 194.194 92.7271 198.67 93.4731C201.441 93.8995 203.573 94.4324 203.573 96.0311C203.573 97.5233 202.188 98.2694 200.695 98.2694C198.777 98.2694 197.391 97.3101 197.391 95.1785H187.799C187.905 101.467 192.702 105.517 200.482 105.517C208.156 105.517 213.166 101.573 213.166 95.6048C213.166 95.6048 213.166 95.3916 213.166 95.2851Z" fill="#453396"/>
<path d="M243.755 90.0624C243.755 81.6423 237.36 75.0342 228.088 75.0342C219.028 75.0342 212.42 81.5357 212.42 90.3821C212.42 90.915 212.42 91.5545 212.526 92.0874C212.633 93.2598 212.846 94.3257 213.166 95.3915C215.191 101.573 220.84 105.73 227.981 105.73C235.229 105.73 240.984 101.68 243.009 95.0717H233.097C232.138 96.7771 230.219 97.7363 227.874 97.7363C224.784 97.7363 222.652 96.031 222.012 92.7269H243.436C243.649 91.8743 243.755 90.915 243.755 90.0624ZM222.332 87.1846C223.185 84.3069 225.103 82.7081 227.981 82.7081C230.965 82.7081 233.097 84.3069 233.95 87.1846H222.332Z" fill="#453396"/>
<path d="M32 131.417V168.721H42.4451V131.417H32Z" fill="#453396"/>
<path d="M62.3759 139.091C58.6455 139.091 55.448 140.476 53.3164 142.928L51.9308 139.943H45.0029V168.721H54.9151V153.373C54.9151 149.749 56.727 147.511 59.8179 147.511C62.2694 147.511 63.5483 149.109 63.5483 152.52V168.721H73.4606V151.134C73.4606 143.78 69.0907 139.091 62.3759 139.091Z" fill="#453396"/>
<path d="M75.8053 127.899V136.319H85.6109V127.899H75.8053ZM85.6109 144.846V139.943H75.6987V168.721H85.6109V147.617H85.1846H82.9464L85.6109 144.846Z" fill="#453396"/>
<path d="M103.73 159.981C101.599 159.981 100.426 158.702 100.426 156.677V147.511H107.354V139.837H100.107V131.417H98.0815L85.6113 144.74V147.511H90.5141V158.382C90.5141 164.777 94.3511 168.614 100.746 168.614H107.567V159.981H103.73Z" fill="#453396"/>
<path d="M108.527 127.899V136.319H118.332V127.899H108.527ZM108.42 139.943V168.721H118.332V139.943H108.42Z" fill="#453396"/>
<path d="M151.479 144.846V139.943H144.125L143.059 142.181C140.714 140.263 137.624 139.091 134.213 139.091C125.367 139.091 119.078 145.486 119.078 154.332C119.078 163.285 125.367 169.68 134.213 169.68C137.517 169.68 140.501 168.614 142.953 166.696L143.805 168.721H151.479V147.617H151.053H148.815L151.479 144.846ZM135.598 160.833C131.868 160.833 129.203 158.062 129.203 154.225C129.203 150.495 131.868 147.724 135.598 147.724C139.329 147.724 141.993 150.495 141.993 154.225C141.993 158.062 139.329 160.833 135.598 160.833Z" fill="#453396"/>
<path d="M169.599 159.981C167.467 159.981 166.295 158.702 166.295 156.677V147.511H173.222V139.837H165.975V131.417H163.95L151.479 144.74V147.511H156.382V158.382C156.382 164.777 160.219 168.614 166.614 168.614H173.436V159.981H169.599Z" fill="#453396"/>
<path d="M174.395 127.899V136.319H184.2V127.899H174.395ZM174.288 139.943V168.721H184.2V139.943H174.288Z" fill="#453396"/>
<path d="M205.304 139.943L199.975 156.997L194.539 139.943H183.667L184.307 141.436L195.392 168.721H204.345L215.962 139.943H205.304Z" fill="#453396"/>
<path d="M243.673 154.012C243.673 145.592 237.278 138.984 228.006 138.984C218.946 138.984 212.338 145.485 212.338 154.332C212.338 163.072 218.946 169.68 228.006 169.68C235.253 169.68 241.009 165.63 243.034 159.021H233.122C232.162 160.727 230.244 161.686 227.899 161.686C224.808 161.686 222.676 159.981 222.037 156.677H243.354C243.567 155.824 243.673 154.865 243.673 154.012ZM222.25 151.134C223.103 148.257 225.021 146.658 227.899 146.658C230.883 146.658 233.015 148.257 233.868 151.134H222.25Z" fill="#453396"/>
</svg>
