<svg width="1400" height="975" viewBox="0 0 1400 975" fill="none" xmlns="http://www.w3.org/2000/svg">
<circle cx="1325.7" cy="935.655" r="32.5041" fill="#21B3FF"/>
<path d="M86.9261 20.2015H0V234.456H86.9261C151.815 234.456 197.726 189.769 197.726 127.329C197.114 64.2767 151.815 20.2015 86.9261 20.2015ZM83.8653 180.586H59.3791V74.0712H83.8653C115.697 74.0712 136.511 94.8845 136.511 126.717C137.123 158.549 115.697 180.586 83.8653 180.586Z" fill="#453396"/>
<path d="M203.235 0V48.3603H259.554V0H203.235ZM202.623 69.1736V234.456H259.554V69.1736H202.623V69.1736Z" fill="#453396"/>
<path d="M406.471 69.1734L399.125 83.253C385.046 71.0098 366.681 64.2761 347.092 64.2761C299.956 64.2761 264.451 100.393 264.451 147.529C264.451 195.277 299.956 230.782 347.092 230.782C363.008 230.782 377.7 226.497 390.555 218.539V223.437C390.555 243.026 375.251 255.269 356.275 255.269C342.195 255.269 328.115 249.147 324.442 238.128H269.348C276.694 276.694 309.751 299.956 356.887 299.956C411.369 299.956 445.649 267.512 445.649 216.091V69.1734H406.471V69.1734ZM356.887 183.034C336.073 183.034 321.382 167.73 321.382 146.917C321.382 126.104 336.073 110.8 356.887 110.8C377.088 110.8 391.78 126.104 391.78 146.917C391.78 167.73 377.088 183.034 356.887 183.034Z" fill="#453396"/>
<path d="M460.341 0V48.3603H516.66V0H460.341ZM516.66 97.3328V69.1736H459.729V234.456H516.66V112.637H500.743L514.211 99.1692L516.66 97.3328Z" fill="#453396"/>
<path d="M620.726 184.259C608.483 184.259 601.749 176.913 601.749 165.282V112.637H641.539V68.5615H599.912V20.8134H588.281L516.659 97.3328V113.249H544.818V175.689C544.818 212.418 566.856 234.456 603.585 234.456H642.763V184.871H620.726V184.259Z" fill="#453396"/>
<path d="M779.886 69.1734L773.765 82.0286C760.297 71.0098 742.545 64.2761 722.956 64.2761C672.147 64.2761 636.03 101.005 636.03 151.814C636.03 163.445 637.866 174.464 641.539 184.871C641.539 184.871 641.539 185.483 642.151 186.095C654.394 219.152 684.39 240.577 722.956 240.577C741.932 240.577 759.073 234.455 772.54 223.437L777.438 235.068H821.513V69.7855H779.886V69.1734ZM730.914 189.156C709.488 189.156 694.184 173.24 694.184 151.202C694.184 129.777 709.488 113.861 730.914 113.861C752.339 113.861 767.643 129.777 767.643 151.202C767.643 173.24 752.339 189.156 730.914 189.156Z" fill="#453396"/>
<path d="M836.205 9.18219V234.455H893.135V9.18219H836.205Z" fill="#453396"/>
<path d="M58.767 550.328V518.496H129.165V470.136H58.767V438.303H137.123V387.495H0V601.749H139.572V550.328H58.767V550.328Z" fill="#453396"/>
<path d="M309.75 479.93H306.69H294.446L306.077 467.687C296.283 445.037 276.082 430.958 248.535 430.958C227.109 430.958 208.745 438.916 196.502 452.995L188.544 435.855H148.753V601.137H205.684V513.599C205.684 492.785 216.091 479.93 233.843 479.93C247.923 479.93 255.269 489.112 255.269 508.701V601.749H312.199V500.743C311.587 493.398 310.975 486.664 309.75 479.93Z" fill="#453396"/>
<path d="M412.593 551.552C400.35 551.552 393.616 544.206 393.616 532.575V479.93H434.019V435.855H392.392V387.495H380.761L305.466 467.075L306.078 469.523C307.302 472.584 308.527 476.257 309.139 479.93H336.686V542.37C336.686 579.099 358.723 601.137 395.453 601.137H434.631V551.552H412.593V551.552Z" fill="#453396"/>
<path d="M608.483 517.272C608.483 468.911 571.754 430.958 518.496 430.958C466.463 430.958 428.509 468.299 428.509 519.108C428.509 530.739 430.346 541.758 434.631 552.164C447.486 585.221 478.706 607.258 518.496 607.258C560.123 607.258 593.179 583.997 604.81 546.043H547.88C542.37 555.837 531.351 561.347 517.884 561.347C500.131 561.347 487.888 551.552 484.215 532.575H607.259C607.871 527.678 608.483 522.169 608.483 517.272ZM485.44 500.743C490.337 484.215 501.356 475.033 517.884 475.033C535.024 475.033 547.267 484.215 552.165 500.743H485.44Z" fill="#453396"/>
<path d="M705.815 435.855C686.226 435.855 672.147 441.364 660.516 454.832L651.334 436.467H613.38V601.749H670.31V517.272C670.31 495.846 678.881 487.276 699.082 487.276H721.119V435.243H705.815V435.855Z" fill="#453396"/>
<path d="M817.228 430.958C797.639 430.958 779.886 437.691 766.419 449.322L759.073 436.467H720.507V661.128H776.826V596.24C788.457 602.973 801.924 607.258 817.228 607.258C868.037 607.258 904.154 570.529 904.154 519.108C904.154 467.687 868.037 430.958 817.228 430.958ZM809.882 557.062C788.457 557.062 773.153 541.146 773.153 519.108C773.153 497.683 789.069 481.154 809.882 481.154C831.308 481.154 846.611 497.07 846.611 519.108C846.611 540.534 830.695 557.062 809.882 557.062Z" fill="#453396"/>
<path d="M1001.49 435.855C981.898 435.855 967.818 441.364 956.187 454.832L947.005 436.467H909.051V601.749H965.982V517.272C965.982 495.846 974.552 487.276 994.753 487.276H1016.79V435.243H1001.49V435.855Z" fill="#453396"/>
<path d="M1016.79 367.294V415.654H1073.11V367.294H1016.79ZM1016.18 436.467V601.749H1073.11V436.467H1016.18Z" fill="#453396"/>
<path d="M1224.31 547.267C1224.31 539.922 1222.48 533.8 1220.64 528.291C1210.84 505.641 1184.52 501.356 1163.71 497.683C1147.79 494.622 1135.55 492.786 1135.55 482.991C1135.55 475.033 1141.67 470.748 1150.85 470.748C1161.26 470.748 1168.61 475.645 1168.61 486.052H1221.86C1221.25 452.383 1193.7 430.346 1152.08 430.346C1109.84 430.346 1081.68 451.771 1081.68 484.828C1081.68 524.618 1115.35 532.576 1141.06 536.861C1156.97 539.309 1169.22 542.37 1169.22 551.552C1169.22 560.123 1161.26 564.408 1152.69 564.408C1141.67 564.408 1133.71 558.898 1133.71 546.655H1078.62C1079.23 582.772 1106.78 606.034 1151.47 606.034C1195.54 606.034 1224.31 583.385 1224.31 549.104C1224.31 549.104 1224.31 547.88 1224.31 547.267Z" fill="#453396"/>
<path d="M1400 517.272C1400 468.911 1363.27 430.958 1310.01 430.958C1257.98 430.958 1220.03 468.299 1220.03 519.108C1220.03 522.169 1220.03 525.842 1220.64 528.903C1221.25 535.636 1222.47 541.758 1224.31 547.879C1235.94 583.384 1268.39 607.258 1309.4 607.258C1351.03 607.258 1384.08 583.997 1395.72 546.043H1338.78C1333.28 555.837 1322.26 561.347 1308.79 561.347C1291.04 561.347 1278.79 551.552 1275.12 532.575H1398.16C1399.39 527.678 1400 522.169 1400 517.272ZM1276.96 500.743C1281.85 484.215 1292.87 475.033 1309.4 475.033C1326.54 475.033 1338.78 484.215 1343.68 500.743H1276.96Z" fill="#453396"/>
<path d="M0 754.788V969.043H59.9913V754.788H0V754.788Z" fill="#453396"/>
<path d="M174.465 798.863C153.039 798.863 134.675 806.822 122.431 820.901L114.473 803.761H74.6833V969.043H131.614V880.892C131.614 860.079 142.02 847.224 159.773 847.224C173.853 847.224 181.198 856.406 181.198 875.995V969.043H238.129V868.037C238.129 825.798 213.031 798.863 174.465 798.863Z" fill="#453396"/>
<path d="M251.596 734.587V782.947H307.914V734.587H251.596ZM307.914 831.92V803.761H250.984V969.043H307.914V847.836H305.466H292.61L307.914 831.92Z" fill="#453396"/>
<path d="M411.981 918.846C399.738 918.846 393.004 911.5 393.004 899.869V847.224H432.794V803.148H391.168V754.788H379.537L307.915 831.308V847.224H336.074V909.664C336.074 946.393 358.111 968.43 394.841 968.43H434.019V918.846H411.981Z" fill="#453396"/>
<path d="M439.528 734.587V782.947H495.846V734.587H439.528ZM438.916 803.761V969.043H495.846V803.761H438.916Z" fill="#453396"/>
<path d="M686.226 831.92V803.761H643.987L637.866 816.616C624.398 805.597 606.646 798.863 587.057 798.863C536.248 798.863 500.131 835.593 500.131 886.402C500.131 937.823 536.248 974.552 587.057 974.552C606.034 974.552 623.174 968.431 637.254 957.412L642.151 969.043H686.226V847.836H683.778H670.922L686.226 831.92ZM595.015 923.743C573.59 923.743 558.286 907.827 558.286 885.79C558.286 864.364 573.59 848.448 595.015 848.448C616.44 848.448 631.744 864.364 631.744 885.79C631.744 907.827 616.44 923.743 595.015 923.743Z" fill="#453396"/>
<path d="M790.293 918.846C778.05 918.846 771.316 911.5 771.316 899.869V847.224H811.106V803.148H769.479V754.788H757.849L686.226 831.308V847.224H714.385V909.664C714.385 946.393 736.423 968.43 773.152 968.43H812.33V918.846H790.293Z" fill="#453396"/>
<path d="M817.84 734.587V782.947H874.158V734.587H817.84ZM817.228 803.761V969.043H874.158V803.761H817.228Z" fill="#453396"/>
<path d="M995.365 803.761L964.757 901.706L933.537 803.761H871.098L874.771 812.331L938.435 969.043H989.856L1056.58 803.761H995.365Z" fill="#453396"/>
<path d="M1215.74 884.565C1215.74 836.205 1179.01 798.251 1125.75 798.251C1073.72 798.251 1035.77 835.593 1035.77 886.402C1035.77 936.598 1073.72 974.552 1125.75 974.552C1167.38 974.552 1200.44 951.29 1212.07 913.336H1155.14C1149.63 923.131 1138.61 928.64 1125.14 928.64C1107.39 928.64 1095.15 918.846 1091.47 899.869H1213.9C1215.13 894.972 1215.74 889.462 1215.74 884.565ZM1092.7 868.037C1097.6 851.509 1108.61 842.326 1125.14 842.326C1142.28 842.326 1154.53 851.509 1159.42 868.037H1092.7Z" fill="#453396"/>
</svg>
