<svg width="513" height="357" viewBox="0 0 513 357" fill="none" xmlns="http://www.w3.org/2000/svg">
<path d="M31.843 7.40015H0V85.8863H31.843C55.613 85.8863 72.4315 69.5163 72.4315 46.6432C72.2073 23.5459 55.613 7.40015 31.843 7.40015ZM30.7217 66.1526H21.7519V27.1338H30.7217C42.3825 27.1338 50.0069 34.7582 50.0069 46.419C50.2311 58.0798 42.3825 66.1526 30.7217 66.1526Z" fill="#453396"/>
<path d="M74.4496 0V17.7154H95.0803V0H74.4496ZM74.2253 25.3398V85.8863H95.0803V25.3398H74.2253Z" fill="#453396"/>
<path d="M148.899 25.3399L146.208 30.4975C141.051 26.0126 134.323 23.5459 127.148 23.5459C109.881 23.5459 96.8743 36.7764 96.8743 54.0434C96.8743 71.5346 109.881 84.5409 127.148 84.5409C132.978 84.5409 138.36 82.9711 143.069 80.0559V81.8499C143.069 89.0258 137.463 93.5107 130.511 93.5107C125.354 93.5107 120.196 91.2682 118.85 87.2318H98.6682C101.359 101.359 113.468 109.881 130.735 109.881C150.693 109.881 163.251 97.9956 163.251 79.1589V25.3399H148.899ZM130.735 67.0497C123.111 67.0497 117.729 61.4435 117.729 53.8191C117.729 46.1948 123.111 40.5886 130.735 40.5886C138.136 40.5886 143.517 46.1948 143.517 53.8191C143.517 61.4435 138.136 67.0497 130.735 67.0497Z" fill="#453396"/>
<path d="M168.633 0V17.7154H189.264V0H168.633ZM189.264 35.6551V25.3398H168.409V85.8863H189.264V41.2613H183.433L188.367 36.3279L189.264 35.6551Z" fill="#453396"/>
<path d="M227.386 67.4982C222.901 67.4982 220.434 64.8073 220.434 60.5466V41.2614H235.01V25.1157H219.761V7.62451H215.5L189.264 35.6553V41.4857H199.579V64.3588C199.579 77.8136 207.652 85.8864 221.107 85.8864H235.458V67.7225H227.386V67.4982Z" fill="#453396"/>
<path d="M285.69 25.3399L283.447 30.049C278.514 26.0126 272.011 23.5459 264.835 23.5459C246.222 23.5459 232.992 37.0007 232.992 55.6131C232.992 59.8738 233.664 63.9102 235.01 67.7224C235.01 67.7224 235.01 67.9466 235.234 68.1709C239.719 80.2802 250.707 88.1288 264.835 88.1288C271.786 88.1288 278.065 85.8863 282.999 81.8499L284.793 86.1106H300.938V25.5641H285.69V25.3399ZM267.75 69.2921C259.901 69.2921 254.295 63.4617 254.295 55.3889C254.295 47.5402 259.901 41.7098 267.75 41.7098C275.598 41.7098 281.205 47.5402 281.205 55.3889C281.205 63.4617 275.598 69.2921 267.75 69.2921Z" fill="#453396"/>
<path d="M306.32 3.36377V85.8864H327.175V3.36377H306.32Z" fill="#453396"/>
<path d="M21.5276 201.597V189.936H47.3159V172.221H21.5276V160.56H50.2311V141.948H0V220.434H51.1281V201.597H21.5276Z" fill="#453396"/>
<path d="M113.468 175.809H112.347H107.862L112.123 171.324C108.535 163.027 101.135 157.869 91.0438 157.869C83.1952 157.869 76.4678 160.785 71.9829 165.942L69.0677 159.663H54.4917V220.21H75.3466V188.143C75.3466 180.518 79.1588 175.809 85.6619 175.809C90.8196 175.809 93.5105 179.173 93.5105 186.349V220.434H114.365V183.433C114.141 180.742 113.917 178.276 113.468 175.809Z" fill="#453396"/>
<path d="M151.142 202.046C146.657 202.046 144.19 199.355 144.19 195.094V175.809H158.991V159.663H143.742V141.948H139.481L111.899 171.1L112.123 171.997C112.572 173.118 113.02 174.463 113.244 175.809H123.335V198.682C123.335 212.137 131.408 220.21 144.863 220.21H159.215V202.046H151.142Z" fill="#453396"/>
<path d="M222.901 189.488C222.901 171.773 209.446 157.869 189.937 157.869C170.876 157.869 156.972 171.548 156.972 190.161C156.972 194.422 157.645 198.458 159.215 202.27C163.924 214.379 175.361 222.452 189.937 222.452C205.185 222.452 217.295 213.931 221.555 200.028H200.7C198.682 203.616 194.646 205.634 189.712 205.634C183.209 205.634 178.724 202.046 177.379 195.094H222.452C222.677 193.3 222.901 191.282 222.901 189.488ZM177.827 183.433C179.621 177.379 183.658 174.015 189.712 174.015C195.991 174.015 200.476 177.379 202.27 183.433H177.827Z" fill="#453396"/>
<path d="M258.556 159.663C251.38 159.663 246.222 161.682 241.962 166.615L238.598 159.888H224.695V220.434H245.549V189.488C245.549 181.639 248.689 178.5 256.089 178.5H264.162V159.439H258.556V159.663Z" fill="#453396"/>
<path d="M299.369 157.869C292.193 157.869 285.69 160.336 280.756 164.597L278.065 159.888H263.938V242.186H284.568V218.416C288.829 220.883 293.762 222.452 299.369 222.452C317.981 222.452 331.212 208.998 331.212 190.161C331.212 171.324 317.981 157.869 299.369 157.869ZM296.678 204.064C288.829 204.064 283.223 198.234 283.223 190.161C283.223 182.312 289.053 176.258 296.678 176.258C304.526 176.258 310.132 182.088 310.132 190.161C310.132 198.009 304.302 204.064 296.678 204.064Z" fill="#453396"/>
<path d="M366.867 159.663C359.691 159.663 354.533 161.682 350.273 166.615L346.909 159.888H333.006V220.434H353.861V189.488C353.861 181.639 357 178.5 364.4 178.5H372.473V159.439H366.867V159.663Z" fill="#453396"/>
<path d="M372.473 134.548V152.263H393.103V134.548H372.473ZM372.249 159.888V220.434H393.103V159.888H372.249Z" fill="#453396"/>
<path d="M448.492 200.476C448.492 197.785 447.82 195.543 447.147 193.525C443.559 185.227 433.916 183.658 426.292 182.312C420.462 181.191 415.977 180.518 415.977 176.93C415.977 174.015 418.219 172.445 421.583 172.445C425.395 172.445 428.086 174.239 428.086 178.052H447.595C447.371 165.718 437.28 157.645 422.031 157.645C406.558 157.645 396.243 165.494 396.243 177.603C396.243 192.179 408.577 195.094 417.995 196.664C423.825 197.561 428.31 198.682 428.31 202.046C428.31 205.185 425.395 206.755 422.256 206.755C418.219 206.755 415.304 204.737 415.304 200.252H395.122C395.346 213.482 405.437 222.004 421.807 222.004C437.953 222.004 448.492 213.707 448.492 201.149C448.492 201.149 448.492 200.7 448.492 200.476Z" fill="#453396"/>
<path d="M512.851 189.488C512.851 171.773 499.396 157.869 479.887 157.869C460.826 157.869 446.923 171.548 446.923 190.161C446.923 191.282 446.923 192.628 447.147 193.749C447.371 196.215 447.82 198.458 448.492 200.7C452.753 213.707 464.638 222.452 479.663 222.452C494.911 222.452 507.021 213.931 511.281 200.028H490.426C488.408 203.616 484.372 205.634 479.438 205.634C472.935 205.634 468.45 202.046 467.105 195.094H512.178C512.627 193.3 512.851 191.282 512.851 189.488ZM467.778 183.433C469.571 177.379 473.608 174.015 479.663 174.015C485.941 174.015 490.426 177.379 492.22 183.433H467.778Z" fill="#453396"/>
<path d="M0 276.496V354.982H21.9761V276.496H0Z" fill="#453396"/>
<path d="M63.9103 292.641C56.0617 292.641 49.3343 295.557 44.8494 300.714L41.9342 294.435H27.3582V354.982H48.213V322.69C48.213 315.066 52.0252 310.357 58.5284 310.357C63.686 310.357 66.377 313.721 66.377 320.896V354.982H87.2319V317.981C87.2319 302.508 78.0378 292.641 63.9103 292.641Z" fill="#453396"/>
<path d="M92.1652 269.095V286.811H112.796V269.095H92.1652ZM112.796 304.751V294.435H91.9409V354.982H112.796V310.581H111.899H107.19L112.796 304.751Z" fill="#453396"/>
<path d="M150.918 336.594C146.433 336.594 143.966 333.903 143.966 329.642V310.357H158.542V294.211H143.293V276.496H139.033L112.796 304.526V310.357H123.111V333.23C123.111 346.685 131.184 354.757 144.639 354.757H158.991V336.594H150.918Z" fill="#453396"/>
<path d="M161.009 269.095V286.811H181.639V269.095H161.009ZM160.784 294.435V354.982H181.639V294.435H160.784Z" fill="#453396"/>
<path d="M251.38 304.751V294.435H235.907L233.664 299.144C228.731 295.108 222.228 292.641 215.052 292.641C196.44 292.641 183.209 306.096 183.209 324.709C183.209 343.545 196.44 357 215.052 357C222.004 357 228.282 354.758 233.44 350.721L235.234 354.982H251.38V310.581H250.483H245.774L251.38 304.751ZM217.967 338.388C210.119 338.388 204.512 332.557 204.512 324.484C204.512 316.636 210.119 310.805 217.967 310.805C225.816 310.805 231.422 316.636 231.422 324.484C231.422 332.557 225.816 338.388 217.967 338.388Z" fill="#453396"/>
<path d="M289.502 336.594C285.017 336.594 282.55 333.903 282.55 329.642V310.357H297.126V294.211H281.877V276.496H277.617L251.38 304.526V310.357H261.695V333.23C261.695 346.685 269.768 354.757 283.223 354.757H297.575V336.594H289.502Z" fill="#453396"/>
<path d="M299.593 269.095V286.811H320.224V269.095H299.593ZM299.369 294.435V354.982H320.224V294.435H299.369Z" fill="#453396"/>
<path d="M364.624 294.435L353.412 330.315L341.975 294.435H319.102L320.448 297.575L343.769 354.982H362.606L387.049 294.435H364.624Z" fill="#453396"/>
<path d="M445.353 324.036C445.353 306.32 431.898 292.417 412.389 292.417C393.328 292.417 379.425 306.096 379.425 324.708C379.425 343.097 393.328 357 412.389 357C427.637 357 439.747 348.479 444.007 334.575H423.153C421.134 338.163 417.098 340.181 412.165 340.181C405.661 340.181 401.176 336.594 399.831 329.642H444.68C445.129 327.848 445.353 325.83 445.353 324.036ZM400.279 317.981C402.073 311.926 406.11 308.563 412.165 308.563C418.443 308.563 422.928 311.926 424.722 317.981H400.279Z" fill="#453396"/>
</svg>
