<svg xmlns="http://www.w3.org/2000/svg" viewBox="0 0 77.92 30.39"><defs><style>.cls-1{fill:#2c3e50;}</style></defs><title>dei-dark-logo-vector</title><g id="Layer_2" data-name="Layer 2"><g id="Layer_1-2" data-name="Layer 1"><path class="cls-1" d="M0,30.39V0H11.7c2.54,0,9,.23,13.42,4.59,2,2,4.1,5.37,4.1,11A14.19,14.19,0,0,1,25.3,26.11a14.89,14.89,0,0,1-10.87,4.28Zm10.92-9.28h.82a6.7,6.7,0,0,0,4.69-1.41,5.71,5.71,0,0,0,1.77-4.37,6.32,6.32,0,0,0-1.77-4.55,6.22,6.22,0,0,0-4.32-1.46H10.92Z"/><path class="cls-1" d="M32.06,30.39V0H52.54V8.37H43.08v2.82h8.6v8h-8.6v2.91h9.74v8.33Z"/><path class="cls-1" d="M57.55,30.39V0h11V30.39Z"/><path class="cls-1" d="M72.28,2.89V1l-.57,0V0h2.23V1l-.56,0V2.89Zm1.75,0L74.49,0h1.14L76,1.29,76.32,0h1.14l.46,2.89H76.84l-.13-1.3-.39,1.3h-.7l-.38-1.27-.12,1.27Z"/></g></g></svg>