<svg xmlns="http://www.w3.org/2000/svg" viewBox="0 0 100.51 37.51"><defs><style>.cls-1{fill:#2c3e50;}</style></defs><g id="Layer_2" data-name="Layer 2"><g id="Layer_1-2" data-name="Layer 1"><g id="Layer_2-2" data-name="Layer 2"><g id="Layer_1-2-2" data-name="Layer 1-2"><path class="cls-1" d="M0,37.5V0H14.45C17.6,0,25.58.28,31,5.68c2.42,2.42,5.06,6.63,5.06,13.55,0,3.87-.73,8.88-4.83,13A18.39,18.39,0,0,1,17.82,37.5ZM13.49,26h1a8.28,8.28,0,0,0,5.79-1.74,7.05,7.05,0,0,0,2.2-5.4,7.79,7.79,0,0,0-2.2-5.62A7.69,7.69,0,0,0,15,11.47H13.49Z"/><path class="cls-1" d="M39.61,37.5V0H64.9V10.29H53.21v3.48H63.84v9.84H53.21v3.6h12V37.5Z"/><path class="cls-1" d="M71.09,37.5V0h13.6V37.5Z"/><path class="cls-1" d="M98.93,9.16a5.35,5.35,0,1,1,0-7.64A5.35,5.35,0,0,1,98.93,9.16Zm-6.67-7a4.62,4.62,0,0,0-1.32,3.18,4.65,4.65,0,0,0,1.32,3.21,4.2,4.2,0,0,0,5.86,0,4.55,4.55,0,0,0,0-6.39A4.18,4.18,0,0,0,92.26,2.16ZM95,2.34a2.52,2.52,0,0,1,1.84.6,1.85,1.85,0,0,1,.47,1.26,1.65,1.65,0,0,1-.44,1.16,1.5,1.5,0,0,1-.83.46L97.7,8.15h-2l-1.16-2v2h-1.7V2.34Zm-.5,2.58h.23a1.18,1.18,0,0,0,.69-.14.62.62,0,0,0,.29-.57.58.58,0,0,0-.22-.49,1.5,1.5,0,0,0-.78-.15H94.5Z"/></g></g></g></g></svg>