<svg width="513" height="357" viewBox="0 0 513 357" fill="none" xmlns="http://www.w3.org/2000/svg">
<path d="M21.2519 66.1528V66.6528H21.7519H30.7217C36.6706 66.6528 41.6825 64.5912 45.1791 61.0079C48.6744 57.4259 50.6201 52.3596 50.5069 46.4143C50.5058 40.4748 48.5613 35.5208 45.0907 32.0502C41.6191 28.5786 36.6633 26.6339 30.7217 26.6339H21.7519H21.2519V27.1339V66.1528ZM0.5 85.3864V7.90027H31.843C43.6125 7.90027 53.5743 11.8957 60.6191 18.7194C67.6626 25.542 71.82 35.2206 71.9315 46.6458C71.9303 69.2267 55.3511 85.3864 31.843 85.3864H0.5Z" fill="#453396" stroke="black"/>
<path d="M94.5803 17.2154H74.9497V0.5H94.5803V17.2154ZM94.5803 85.3863H74.7254V25.8398H94.5803V85.3863Z" fill="#453396" stroke="black"/>
<path d="M145.88 30.8747L146.359 31.2906L146.652 30.7287L149.203 25.8397H162.751V79.1588C162.751 88.4622 159.653 96.0031 154.134 101.22C148.612 106.44 140.616 109.381 130.736 109.381C122.182 109.381 114.945 107.27 109.524 103.445C104.265 99.7346 100.691 94.3934 99.2789 87.7317H118.5C119.289 89.7435 120.961 91.2847 123.025 92.3308C125.207 93.4362 127.865 94.0106 130.511 94.0106C134.093 94.0106 137.355 92.8549 139.729 90.7448C142.109 88.6295 143.569 85.5772 143.569 81.8498V80.0558V79.1582L142.806 79.6307C138.176 82.4968 132.885 84.0407 127.148 84.0407C110.159 84.0407 97.3744 71.2608 97.3744 54.0433C97.3744 37.0476 110.162 24.0458 127.148 24.0458C134.208 24.0458 140.818 26.4725 145.88 30.8747ZM117.229 53.819C117.229 61.7081 122.824 67.5495 130.736 67.5495C138.429 67.5495 144.018 61.7022 144.018 53.819C144.018 45.9358 138.429 40.0885 130.736 40.0885C122.824 40.0885 117.229 45.9299 117.229 53.819Z" fill="#453396" stroke="black"/>
<path d="M183.433 41.7613H188.764V85.3863H168.909V25.8398H188.764V35.4051L188.067 35.9279L188.038 35.9492L188.013 35.9743L183.08 40.9077L182.226 41.7613H183.433ZM188.764 17.2154H169.133V0.5H188.764V17.2154Z" fill="#453396" stroke="black"/>
<path d="M220.434 40.7613H219.934V41.2613V60.5465C219.934 62.7719 220.58 64.648 221.87 65.9694C223.07 67.1973 224.774 67.8931 226.886 67.9871V68.2224H227.386H234.959V85.3863H221.107C214.48 85.3863 209.237 83.4001 205.651 79.8145C202.065 76.2288 200.079 70.9858 200.079 64.3587V41.4856V40.9856H199.579H189.764V35.8527L215.717 8.12439H219.261V25.1156V25.6156H219.761H234.51V40.7613H220.434Z" fill="#453396" stroke="black"/>
<path d="M235.51 67.6965L235.51 67.6366L235.482 67.5559C234.156 63.8 233.492 59.8201 233.492 55.613C233.492 37.272 246.503 24.0458 264.835 24.0458C271.895 24.0458 278.286 26.4725 283.131 30.4359L283.624 30.8399L283.899 30.2639L285.899 26.064H300.438V85.6105H285.125L283.459 81.6558L283.2 81.0391L282.682 81.4628C277.842 85.4229 271.676 87.6287 264.835 87.6287C250.91 87.6287 240.113 79.9047 235.703 67.9971L235.665 67.8946L235.588 67.8172C235.537 67.7662 235.519 67.7236 235.512 67.7043C235.511 67.7013 235.511 67.6987 235.51 67.6965ZM253.795 55.3887C253.795 63.7213 259.609 69.792 267.75 69.792C275.891 69.792 281.705 63.7213 281.705 55.3887C281.705 47.275 275.886 41.2097 267.75 41.2097C259.614 41.2097 253.795 47.275 253.795 55.3887Z" fill="#453396" stroke="black"/>
<path d="M326.675 85.3862H306.82V3.86365H326.675V85.3862Z" fill="#453396" stroke="black"/>
<path d="M21.5276 189.436H21.0276V189.936V201.597H21.5276V202.097H50.6281V219.934H0.5V142.448H49.7311V160.06H21.5276H21.0276V160.56V172.221V172.721H21.5276H46.8159V189.436H21.5276Z" fill="#453396" stroke="black"/>
<path d="M113.866 183.454V219.934H94.0107V186.349C94.0107 182.713 93.3316 179.949 91.9189 178.086C90.4861 176.196 88.3592 175.309 85.662 175.309C82.2799 175.309 79.5528 176.539 77.6808 178.798C75.8188 181.044 74.8467 184.253 74.8467 188.143V219.71H54.9918V160.163H68.7487L71.5295 166.153L71.8543 166.852L72.3603 166.27C76.7387 161.235 83.3214 158.369 91.0439 158.369C100.814 158.369 107.976 163.286 111.531 171.221L107.5 175.465L106.698 176.309H107.862H112.347H113.049C113.444 178.607 113.654 180.922 113.866 183.454Z" fill="#453396" stroke="black"/>
<path d="M144.19 175.309H143.69V175.809V195.094C143.69 197.32 144.336 199.196 145.627 200.517C146.919 201.84 148.799 202.546 151.142 202.546H158.715V219.71H144.863C138.236 219.71 132.993 217.723 129.407 214.138C125.822 210.552 123.835 205.309 123.835 198.682V175.809V175.309H123.335H113.661C113.415 174.071 113.006 172.861 112.6 171.843L112.45 171.244L139.696 142.448H143.242V159.663V160.163H143.742H158.491V175.309H144.19Z" fill="#453396" stroke="black"/>
<path d="M159.681 202.089L159.681 202.089L159.677 202.08C158.136 198.338 157.472 194.368 157.472 190.161C157.472 171.834 171.143 158.369 189.936 158.369C209.179 158.369 222.401 172.058 222.401 189.488C222.401 191.106 222.214 192.918 222.01 194.594H177.379H176.773L176.888 195.189C177.577 198.752 179.081 201.499 181.29 203.354C183.499 205.209 186.367 206.134 189.712 206.134C194.663 206.134 198.816 204.149 200.988 200.528H220.872C216.508 213.822 204.744 221.952 189.936 221.952C175.559 221.952 164.312 213.999 159.681 202.089ZM177.348 183.291L177.158 183.933H177.827H202.27H202.94L202.749 183.291C201.827 180.178 200.202 177.726 197.973 176.054C195.744 174.382 192.943 173.515 189.712 173.515C186.588 173.515 183.95 174.385 181.859 176.064C179.771 177.74 178.266 180.191 177.348 183.291Z" fill="#453396" stroke="black"/>
<path d="M258.556 160.163H259.056V159.939H263.662V178H256.089C252.333 178 249.533 178.795 247.685 180.703C245.841 182.607 245.05 185.514 245.05 189.488V219.934H225.195V160.388H238.289L241.514 166.839L241.85 167.509L242.34 166.942C246.488 162.139 251.496 160.163 258.556 160.163Z" fill="#453396" stroke="black"/>
<path d="M280.322 164.845L280.623 165.372L281.083 164.975C285.923 160.795 292.309 158.369 299.369 158.369C317.698 158.369 330.712 171.593 330.712 190.161C330.712 208.728 317.698 221.952 299.369 221.952C293.86 221.952 289.012 220.411 284.819 217.983L284.068 217.549V218.416V241.686H264.438V160.388H277.775L280.322 164.845ZM282.723 190.161C282.723 198.493 288.537 204.564 296.678 204.564C304.594 204.564 310.632 198.269 310.632 190.161C310.632 181.828 304.819 175.758 296.678 175.758C288.761 175.758 282.723 182.052 282.723 190.161Z" fill="#453396" stroke="black"/>
<path d="M366.867 160.163H367.367V159.939H371.973V178H364.4C360.644 178 357.844 178.795 355.996 180.703C354.152 182.607 353.361 185.514 353.361 189.488V219.934H333.506V160.388H346.6L349.825 166.839L350.161 167.509L350.651 166.942C354.799 162.139 359.807 160.163 366.867 160.163Z" fill="#453396" stroke="black"/>
<path d="M392.604 151.763H372.973V135.048H392.604V151.763ZM392.604 219.934H372.749V160.388H392.604V219.934Z" fill="#453396" stroke="black"/>
<path d="M426.198 182.803L426.198 182.803L426.205 182.805C426.325 182.826 426.446 182.847 426.566 182.868C430.298 183.526 434.407 184.25 438.04 185.773C441.771 187.336 444.951 189.723 446.679 193.703C447.347 195.706 447.992 197.879 447.992 200.476V200.477V200.479V200.48V200.481V200.483V200.484V200.485V200.487V200.488V200.49V200.491V200.492V200.494V200.495V200.496V200.498V200.499V200.501V200.502V200.503V200.505V200.506V200.508V200.509V200.511V200.512V200.513V200.515V200.516V200.518V200.519V200.521V200.522V200.524V200.525V200.527V200.528V200.53V200.531V200.532V200.534V200.535V200.537V200.539V200.54V200.542V200.543V200.545V200.546V200.548V200.549V200.551V200.552V200.554V200.555V200.557V200.558V200.56V200.562V200.563V200.565V200.566V200.568V200.569V200.571V200.573V200.574V200.576V200.577V200.579V200.581V200.582V200.584V200.585V200.587V200.589V200.59V200.592V200.594V200.595V200.597V200.598V200.6V200.602V200.603V200.605V200.607V200.608V200.61V200.612V200.613V200.615V200.617V200.618V200.62V200.622V200.623V200.625V200.627V200.628V200.63V200.632V200.633V200.635V200.637V200.638V200.64V200.642V200.643V200.645V200.647V200.648V200.65V200.652V200.654V200.655V200.657V200.659V200.66V200.662V200.664V200.666V200.667V200.669V200.671V200.672V200.674V200.676V200.678V200.679V200.681V200.683V200.685V200.686V200.688V200.69V200.691V200.693V200.695V200.697V200.698V200.7V200.702V200.704V200.705V200.707V200.709V200.711V200.712V200.714V200.716V200.718V200.719V200.721V200.723V200.725V200.726V200.728V200.73V200.732V200.733V200.735V200.737V200.739V200.74V200.742V200.744V200.746V200.747V200.749V200.751V200.753V200.754V200.756V200.758V200.76V200.761V200.763V200.765V200.767V200.768V200.77V200.772V200.774V200.775V200.777V200.779V200.781V200.782V200.784V200.786V200.788V200.789V200.791V200.793V200.795V200.796V200.798V200.8V200.801V200.803V200.805V200.807V200.808V200.81V200.812V200.814V200.815V200.817V200.819V200.821V200.822V200.824V200.826V200.827V200.829V200.831V200.833V200.834V200.836V200.838V200.839V200.841V200.843V200.845V200.846V200.848V200.85V200.851V200.853V200.855V200.857V200.858V200.86V200.862V200.863V200.865V200.867V200.868V200.87V200.872V200.873V200.875V200.877V200.878V200.88V200.882V200.883V200.885V200.887V200.888V200.89V200.892V200.893V200.895V200.897V200.898V200.9V200.902V200.903V200.905V200.906V200.908V200.91V200.911V200.913V200.915V200.916V200.918V200.919V200.921V200.923V200.924V200.926V200.927V200.929V200.93V200.932V200.934V200.935V200.937V200.938V200.94V200.941V200.943V200.945V200.946V200.948V200.949V200.951V200.952V200.954V200.955V200.957V200.958V200.96V200.961V200.963V200.964V200.966V200.967V200.969V200.97V200.972V200.973V200.975V200.976V200.978V200.979V200.981V200.982V200.984V200.985V200.987V200.988V200.989V200.991V200.992V200.994V200.995V200.997V200.998V200.999V201.001V201.002V201.004V201.005V201.006V201.008V201.009V201.01V201.012V201.013V201.015V201.016V201.017V201.019V201.02V201.021V201.023V201.024V201.025V201.026V201.028V201.029V201.03V201.032V201.033V201.034V201.035V201.037V201.038V201.039V201.041V201.042V201.043V201.044V201.045V201.047V201.048V201.049V201.05V201.052V201.053V201.054V201.055V201.056V201.057V201.059V201.06V201.061V201.062V201.063V201.064V201.065V201.067V201.068V201.069V201.07V201.071V201.072V201.073V201.074V201.075V201.076V201.077V201.078V201.08V201.081V201.082V201.083V201.084V201.085V201.086V201.087V201.088V201.089V201.09V201.091V201.092V201.093V201.093V201.094V201.095V201.096V201.097V201.098V201.099V201.1V201.101V201.102V201.103V201.103V201.104V201.105V201.106V201.107V201.108V201.109V201.109V201.11V201.111V201.112V201.113V201.113V201.114V201.115V201.116V201.116V201.117V201.118V201.119V201.119V201.12V201.121V201.121V201.122V201.123V201.123V201.124V201.125V201.125V201.126V201.127V201.127V201.128V201.129V201.129V201.13V201.13V201.131V201.131V201.132V201.133V201.133V201.134V201.134V201.135V201.135V201.136V201.136V201.137V201.137V201.138V201.138V201.139V201.139V201.139V201.14V201.14V201.141V201.141V201.141V201.142V201.142V201.142V201.143V201.143V201.143V201.144V201.144V201.144V201.145V201.145V201.145V201.146V201.146V201.146V201.146V201.146V201.147V201.147V201.147V201.147V201.147V201.148V201.148V201.148V201.148V201.148V201.148V201.148V201.148V201.149V201.149V201.149V201.149V201.149V201.149V201.149C447.992 207.274 445.428 212.342 440.896 215.892C436.353 219.45 429.799 221.504 421.807 221.504C413.705 221.504 407.212 219.395 402.728 215.703C398.37 212.116 395.865 207.001 395.635 200.752H414.816C414.918 202.862 415.673 204.47 416.939 205.564C418.292 206.732 420.161 207.255 422.256 207.255C423.9 207.255 425.522 206.845 426.747 205.987C427.989 205.118 428.81 203.794 428.81 202.046C428.81 200.07 427.464 198.818 425.54 197.972C423.623 197.13 420.984 196.618 418.074 196.17C413.363 195.385 408.022 194.275 403.858 191.591C399.735 188.932 396.743 184.715 396.743 177.603C396.743 171.706 399.248 166.862 403.64 163.479C408.043 160.088 414.374 158.145 422.031 158.145C429.572 158.145 435.788 160.141 440.136 163.614C444.351 166.981 446.842 171.76 447.08 177.552H428.571C428.461 175.761 427.754 174.376 426.577 173.429C425.31 172.409 423.559 171.945 421.583 171.945C419.831 171.945 418.309 172.353 417.213 173.199C416.1 174.057 415.477 175.33 415.477 176.93C415.477 177.944 415.798 178.777 416.392 179.456C416.975 180.123 417.797 180.616 418.759 181.009C420.479 181.713 422.798 182.155 425.352 182.642C425.631 182.695 425.913 182.749 426.198 182.803Z" fill="#453396" stroke="black"/>
<path d="M447.645 193.703L447.642 193.677L447.637 193.651C447.424 192.587 447.423 191.294 447.423 190.161C447.423 171.834 461.093 158.369 479.887 158.369C499.129 158.369 512.351 172.058 512.351 189.488C512.351 191.119 512.161 192.941 511.784 194.594H467.105H466.499L466.614 195.189C467.303 198.752 468.808 201.499 471.016 203.354C473.225 205.209 476.093 206.134 479.438 206.134C484.389 206.134 488.542 204.149 490.714 200.528H510.598C506.234 213.822 494.471 221.952 479.663 221.952C464.848 221.952 453.162 213.34 448.969 200.551C448.307 198.341 447.866 196.134 447.645 193.703ZM467.298 183.291L467.108 183.933H467.778H492.22H492.89L492.7 183.291C491.777 180.178 490.152 177.726 487.923 176.054C485.694 174.382 482.893 173.515 479.663 173.515C476.538 173.515 473.901 174.385 471.809 176.064C469.722 177.74 468.217 180.191 467.298 183.291Z" fill="#453396" stroke="black"/>
<path d="M21.4761 354.482H0.5V276.996H21.4761V354.482Z" fill="#453396" stroke="black"/>
<path d="M44.3958 300.925L44.7206 301.624L45.2266 301.042C49.605 296.007 56.1877 293.141 63.9102 293.141C70.8523 293.141 76.5431 295.562 80.5015 299.848C84.4636 304.138 86.7318 310.343 86.7318 317.981V354.482H66.8769V320.896C66.8769 317.261 66.1978 314.497 64.7852 312.634C63.3523 310.743 61.2255 309.857 58.5283 309.857C55.1462 309.857 52.419 311.087 50.547 313.345C48.6851 315.592 47.713 318.801 47.713 322.69V354.482H27.8581V294.935H41.615L44.3958 300.925Z" fill="#453396" stroke="black"/>
<path d="M111.899 311.081H112.296V354.482H92.4409V294.935H112.296V304.549L106.829 310.234L106.015 311.081H107.19H111.899ZM112.296 286.311H92.6652V269.595H112.296V286.311Z" fill="#453396" stroke="black"/>
<path d="M143.966 309.857H143.466V310.357V329.642C143.466 331.867 144.112 333.743 145.402 335.065C146.695 336.388 148.574 337.094 150.918 337.094H158.49V354.257H144.639C138.012 354.257 132.769 352.271 129.183 348.686C125.597 345.1 123.611 339.857 123.611 333.23V310.357V309.857H123.111H113.296V304.724L139.249 276.996H142.793V294.211V294.711H143.293H158.042V309.857H143.966Z" fill="#453396" stroke="black"/>
<path d="M181.139 286.311H161.509V269.595H181.139V286.311ZM181.139 354.482H161.284V294.935H181.139V354.482Z" fill="#453396" stroke="black"/>
<path d="M250.483 311.081H250.88V354.482H235.566L233.901 350.527L233.647 349.924L233.132 350.327C228.062 354.295 221.892 356.5 215.052 356.5C196.723 356.5 183.709 343.276 183.709 324.709C183.709 306.368 196.72 293.141 215.052 293.141C222.112 293.141 228.504 295.568 233.348 299.531L233.842 299.935L234.116 299.359L236.223 294.935H250.88V304.549L245.413 310.234L244.599 311.081H245.774H250.483ZM204.012 324.484C204.012 332.817 209.826 338.888 217.967 338.888C226.108 338.888 231.922 332.817 231.922 324.484C231.922 316.371 226.103 310.305 217.967 310.305C209.832 310.305 204.012 316.371 204.012 324.484Z" fill="#453396" stroke="black"/>
<path d="M282.55 309.857H282.05V310.357V329.642C282.05 331.867 282.696 333.743 283.986 335.065C285.279 336.388 287.158 337.094 289.502 337.094H297.075V354.257H283.223C276.596 354.257 271.353 352.271 267.767 348.686C264.181 345.1 262.195 339.857 262.195 333.23V310.357V309.857H261.695H251.88V304.724L277.834 276.996H281.377V294.211V294.711H281.877H296.626V309.857H282.55Z" fill="#453396" stroke="black"/>
<path d="M319.724 286.311H300.093V269.595H319.724V286.311ZM319.724 354.482H299.869V294.935H319.724V354.482Z" fill="#453396" stroke="black"/>
<path d="M386.308 294.935L362.269 354.482H344.106L320.911 297.387L320.911 297.387L320.907 297.378L319.861 294.935H341.61L352.936 330.467L353.417 331.976L353.889 330.464L364.992 294.935H386.308Z" fill="#453396" stroke="black"/>
<path d="M443.324 335.075C438.96 348.37 427.197 356.5 412.389 356.5C393.597 356.5 379.925 342.814 379.925 324.708C379.925 306.381 393.595 292.917 412.389 292.917C431.631 292.917 444.853 306.606 444.853 324.036C444.853 325.667 444.663 327.488 444.286 329.142H399.831H399.225L399.34 329.737C400.03 333.299 401.534 336.046 403.742 337.901C405.951 339.757 408.819 340.681 412.165 340.681C417.115 340.681 421.268 338.697 423.44 335.075H443.324ZM399.8 317.839L399.61 318.481H400.279H424.722H425.392L425.202 317.839C424.279 314.725 422.654 312.273 420.425 310.601C418.196 308.929 415.395 308.063 412.165 308.063C409.04 308.063 406.403 308.933 404.311 310.612C402.224 312.287 400.719 314.739 399.8 317.839Z" fill="#453396" stroke="black"/>
</svg>
