<svg width="374" height="59" viewBox="0 0 374 59" fill="none" xmlns="http://www.w3.org/2000/svg">
<path d="M17 4H0.0200001V46H17C29.72 46 38.72 37.24 38.72 25C38.72 12.7 29.72 4 17 4ZM16.46 35.44H11.66V14.62H16.46C22.7 14.62 26.84 18.76 26.84 25C26.84 31.18 22.7 35.44 16.46 35.44ZM66.147 13.6L65.007 16.12C62.367 13.9 58.947 12.64 55.107 12.64C45.207 12.64 38.127 19.78 38.127 29.8C38.127 39.88 45.207 47.08 55.107 47.08C58.887 47.08 62.247 45.88 64.887 43.72L65.847 46H74.487V13.6H66.147ZM56.607 37.24C52.407 37.24 49.347 34.06 49.347 29.8C49.347 25.6 52.407 22.48 56.607 22.48C60.807 22.48 63.867 25.6 63.867 29.8C63.867 34.06 60.807 37.24 56.607 37.24ZM94.91 36.28C92.57 36.28 91.13 34.84 91.13 32.56V22.24H98.99V13.6H90.89V4.18H88.55L74.03 19.6V22.24H79.97V34.42C79.97 41.62 84.35 46 91.49 46H99.17V36.28H94.91ZM126.067 13.6L124.927 16.12C122.287 13.9 118.867 12.64 115.027 12.64C105.127 12.64 98.0473 19.78 98.0473 29.8C98.0473 39.88 105.127 47.08 115.027 47.08C118.807 47.08 122.167 45.88 124.807 43.72L125.767 46H134.407V13.6H126.067ZM116.527 37.24C112.327 37.24 109.267 34.06 109.267 29.8C109.267 25.6 112.327 22.48 116.527 22.48C120.727 22.48 123.787 25.6 123.787 29.8C123.787 34.06 120.727 37.24 116.527 37.24ZM161.478 47.08C171.258 47.08 178.278 42.28 178.278 33.1C178.278 23.56 170.238 21.46 163.998 19.9C160.098 18.88 156.918 18.1 156.918 15.7C156.918 13.72 158.898 12.82 160.938 12.82C163.338 12.82 165.318 14.08 165.318 16.78H176.958C176.958 8.2 171.138 3.04 161.058 3.04C151.158 3.04 145.098 7.78 145.098 16.06C145.098 25.6 152.838 27.46 158.898 28.96C162.918 29.92 166.218 30.7 166.218 33.34C166.218 35.62 163.878 36.94 161.478 36.94C158.838 36.94 156.498 35.44 156.498 32.44H144.558C144.558 41.62 151.218 47.08 161.478 47.08ZM212.953 29.5C212.953 20.02 205.753 12.58 195.313 12.58C185.113 12.58 177.733 19.9 177.733 29.8C177.733 39.7 185.173 47.08 195.313 47.08C203.413 47.08 210.013 42.46 212.293 35.08H201.133C200.113 37 197.893 38.14 195.313 38.14C191.773 38.14 189.433 36.22 188.713 32.5H212.773C212.893 31.48 212.953 30.52 212.953 29.5ZM195.313 21.34C198.673 21.34 201.013 23.08 201.973 26.32H188.893C189.793 23.08 192.073 21.34 195.313 21.34ZM229.85 47.08C238.97 47.08 245.93 41.14 247.19 32.38H236.21C235.31 35.26 232.85 37.12 229.85 37.12C225.95 37.12 223.13 34.06 223.13 29.8C223.13 25.6 225.95 22.6 229.85 22.6C232.79 22.6 235.25 24.34 236.15 26.98H247.07C245.81 18.34 239.03 12.64 229.91 12.64C219.41 12.64 211.97 19.78 211.97 29.8C211.97 39.82 219.47 47.08 229.85 47.08ZM263.315 47.08C272.915 47.08 279.275 41.2 279.275 32.14V13.6H268.115V31.66C268.115 35.02 266.315 37.06 263.315 37.06C260.375 37.06 258.515 35.08 258.515 31.66V13.6H247.355V32.14C247.355 41.2 253.775 47.08 263.315 47.08ZM299.78 13.48C295.94 13.48 293.18 14.56 290.9 17.2L289.16 13.6H281.66V46H292.82V29.56C292.82 25.42 294.5 23.68 298.4 23.68H302.78V13.48H299.78ZM302.833 9.58H313.873V0.0999973H302.833V9.58ZM302.773 46H313.933V13.6H302.773V46ZM334.317 36.28C331.977 36.28 330.537 34.84 330.537 32.56V22.24H338.397V13.6H330.297V4.18H327.957L313.437 19.6V22.24H319.377V34.42C319.377 41.62 323.757 46 330.897 46H338.577V36.28H334.317ZM361.507 13.6L355.087 31.48L348.187 13.6H336.067L349.447 43.36C347.947 47.38 346.687 48.52 342.427 48.52H339.307V58.06H343.147C351.547 58.06 355.507 54.52 359.887 44.56L373.507 13.6H361.507Z" fill="#2C3E50"/>
</svg>
