<svg width="294" height="189" viewBox="0 0 294 189" fill="none" xmlns="http://www.w3.org/2000/svg">
<path d="M289.02 62.3226C301.585 92.4505 283.594 140.855 253.895 159.132C224.195 177.266 182.93 165.414 152.231 142.426C121.675 119.294 101.684 85.0257 109.823 60.752C118.105 36.4783 154.373 22.1997 193.924 21.0574C233.619 20.0579 276.598 32.0519 289.02 62.3226Z" fill="#42B9F8"/>
<path d="M45.6472 43.8876C46.872 43.8876 47.8648 42.8948 47.8648 41.6701C47.8648 40.4454 46.872 39.4525 45.6472 39.4525C44.4225 39.4525 43.4297 40.4454 43.4297 41.6701C43.4297 42.8948 44.4225 43.8876 45.6472 43.8876Z" stroke="#2C3E50" stroke-width="2" stroke-miterlimit="10"/>
<path d="M53.8313 43.8876C55.0561 43.8876 56.0489 42.8948 56.0489 41.6701C56.0489 40.4454 55.0561 39.4525 53.8313 39.4525C52.6066 39.4525 51.6138 40.4454 51.6138 41.6701C51.6138 42.8948 52.6066 43.8876 53.8313 43.8876Z" stroke="#2C3E50" stroke-width="2" stroke-miterlimit="10"/>
<path d="M62.0149 43.8876C63.2397 43.8876 64.2325 42.8948 64.2325 41.6701C64.2325 40.4454 63.2397 39.4525 62.0149 39.4525C60.7902 39.4525 59.7974 40.4454 59.7974 41.6701C59.7974 42.8948 60.7902 43.8876 62.0149 43.8876Z" stroke="#2C3E50" stroke-width="2" stroke-miterlimit="10"/>
<path d="M220.118 34.9093H38.8906V154.395H220.118V34.9093Z" stroke="#2C3E50" stroke-width="2" stroke-miterlimit="10"/>
<path d="M106.423 109.987L147.776 68.6337C150.189 69.798 152.683 70.7637 155.166 71.5007C158.538 72.5035 161.893 73.0856 164.992 73.1765C165.207 73.1832 165.402 73.2774 165.54 73.4389C165.682 73.6005 165.746 73.8057 165.722 74.0177C163.69 91.7616 157.845 117.45 130.672 136.089C119.261 128.262 111.612 119.19 106.423 109.987Z" fill="#2C3E50"/>
<path d="M210.817 46.4921H201.116L201.947 42.8713C201.97 42.7434 202.085 42.6492 202.216 42.6492H209.717C209.848 42.6492 209.962 42.7434 209.993 42.8881L210.817 46.4921Z" fill="#2C3E50"/>
<path d="M181.605 34.8052L149.059 67.3518C154.48 69.8891 160.183 71.3495 165.039 71.4942C165.722 71.5144 166.368 71.8206 166.813 72.3355C167.26 72.8503 167.469 73.5334 167.391 74.2098C165.315 92.3844 159.295 118.753 131.143 137.802L130.672 138.122L130.201 137.802C118.44 129.847 110.542 120.61 105.182 111.229L62.0151 154.395H220.118V34.8052H181.605ZM209.266 53.9859C207.866 53.9859 206.702 52.973 206.466 51.6438H205.47C205.231 52.973 204.067 53.9859 202.67 53.9859C201.099 53.9859 199.824 52.7106 199.824 51.1391C199.824 49.571 201.099 48.2923 202.67 48.2923C204.067 48.2923 205.231 49.3051 205.467 50.6343H206.466C206.702 49.3051 207.866 48.2923 209.266 48.2923C210.834 48.2923 212.113 49.571 212.113 51.1391C212.113 52.7106 210.834 53.9859 209.266 53.9859ZM213.388 47.5015H198.545V46.492H200.079L200.958 42.6625C201.072 42.077 201.604 41.6396 202.216 41.6396H209.717C210.329 41.6396 210.861 42.077 210.979 42.676L211.854 46.492H213.388V47.5015ZM209.266 49.3018C208.253 49.3018 207.429 50.1262 207.429 51.1391C207.429 52.152 208.253 52.9764 209.266 52.9764C210.279 52.9764 211.103 52.152 211.103 51.1391C211.103 50.1262 210.279 49.3018 209.266 49.3018ZM202.67 49.3018C201.658 49.3018 200.833 50.1262 200.833 51.1391C200.833 52.152 201.658 52.9764 202.67 52.9764C203.683 52.9764 204.504 52.152 204.504 51.1391C204.504 50.1262 203.683 49.3018 202.67 49.3018Z" fill="#2C3E50"/>
<path d="M131.416 51.8086L130.672 50.3784L129.925 51.8086C123.814 63.5357 107.712 71.1575 96.3014 71.494C95.6217 71.5142 94.9756 71.8205 94.528 72.3353C94.0839 72.8502 93.8719 73.5333 93.9493 74.2096C95.1607 84.7927 97.708 98.1519 105.182 111.228L106.423 109.987C99.2593 97.277 96.7994 84.3115 95.6217 74.0178C95.5981 73.8058 95.6621 73.6006 95.8 73.439C95.9414 73.2775 96.1365 73.1833 96.3519 73.1766C102.55 72.9949 109.762 70.8513 116.138 67.2978C122.505 63.7511 127.61 59.04 130.672 53.9218C133.731 59.04 138.836 63.7511 145.206 67.2978C146.05 67.7689 146.908 68.2131 147.776 68.6338L149.059 67.3517C141.736 63.9294 134.929 58.5454 131.416 51.8086Z" fill="#2C3E50"/>
<path d="M181.605 34.8053L194.015 22.395V11.8153" stroke="#2C3E50" stroke-width="2" stroke-miterlimit="10"/>
<g filter="url(#filter0_d)">
<path d="M62.0149 154.395L50.6982 165.712V174.616" stroke="#2C3E50" stroke-width="2" stroke-miterlimit="10"/>
</g>
<path d="M194.015 22.3948L202.307 14.1034V6.04749" stroke="#2C3E50" stroke-width="2" stroke-miterlimit="10"/>
<path d="M202.307 14.1036V24.6059" stroke="#2C3E50" stroke-width="2" stroke-miterlimit="10"/>
<path d="M194.015 11.815C195.409 11.815 196.539 10.6851 196.539 9.29123C196.539 7.89739 195.409 6.76746 194.015 6.76746C192.622 6.76746 191.492 7.89739 191.492 9.29123C191.492 10.6851 192.622 11.815 194.015 11.815Z" stroke="#2C3E50" stroke-width="2" stroke-miterlimit="10"/>
<path d="M202.307 6.04756C203.701 6.04756 204.831 4.91762 204.831 3.52378C204.831 2.12993 203.701 1 202.307 1C200.913 1 199.783 2.12993 199.783 3.52378C199.783 4.91762 200.913 6.04756 202.307 6.04756Z" stroke="#2C3E50" stroke-width="2" stroke-miterlimit="10"/>
<path d="M202.307 29.6533C203.701 29.6533 204.831 28.5233 204.831 27.1295C204.831 25.7356 203.701 24.6057 202.307 24.6057C200.913 24.6057 199.783 25.7356 199.783 27.1295C199.783 28.5233 200.913 29.6533 202.307 29.6533Z" stroke="#2C3E50" stroke-width="2" stroke-miterlimit="10"/>
<g filter="url(#filter1_d)">
<path d="M50.6981 179.664C52.0919 179.664 53.2219 178.534 53.2219 177.14C53.2219 175.746 52.0919 174.616 50.6981 174.616C49.3043 174.616 48.1743 175.746 48.1743 177.14C48.1743 178.534 49.3043 179.664 50.6981 179.664Z" stroke="#2C3E50" stroke-width="2" stroke-miterlimit="10"/>
</g>
<path d="M3.52378 119.251C4.91762 119.251 6.04756 118.121 6.04756 116.727C6.04756 115.333 4.91762 114.203 3.52378 114.203C2.12993 114.203 1 115.333 1 116.727C1 118.121 2.12993 119.251 3.52378 119.251Z" fill="#42B9F8" stroke="#2C3E50" stroke-width="2" stroke-miterlimit="10"/>
<path d="M10.954 93.535C12.3478 93.535 13.4777 92.405 13.4777 91.0112C13.4777 89.6174 12.3478 88.4874 10.954 88.4874C9.56011 88.4874 8.43018 89.6174 8.43018 91.0112C8.43018 92.405 9.56011 93.535 10.954 93.535Z" stroke="#2C3E50" stroke-width="2" stroke-miterlimit="10"/>
<path d="M20.5238 81.3367C21.9176 81.3367 23.0476 80.2068 23.0476 78.813C23.0476 77.4191 21.9176 76.2892 20.5238 76.2892C19.1299 76.2892 18 77.4191 18 78.813C18 80.2068 19.1299 81.3367 20.5238 81.3367Z" fill="#2C3E50" stroke="#2C3E50" stroke-width="2" stroke-miterlimit="10"/>
<path d="M38.8902 128.135H14.9311L5.30713 118.511" stroke="#2C3E50" stroke-width="2" stroke-miterlimit="10"/>
<path d="M33.7622 128.134V92.0477L22.3076 80.5964" stroke="#2C3E50" stroke-width="2" stroke-miterlimit="10"/>
<path d="M22.3075 128.135V102.362L12.7407 92.7952" stroke="#2C3E50" stroke-width="2" stroke-miterlimit="10"/>
<path d="M255.481 50.6008C256.875 50.6008 258.005 49.4708 258.005 48.077C258.005 46.6832 256.875 45.5532 255.481 45.5532C254.087 45.5532 252.958 46.6832 252.958 48.077C252.958 49.4708 254.087 50.6008 255.481 50.6008Z" fill="#49E59A" stroke="#2C3E50" stroke-width="2" stroke-miterlimit="10"/>
<path d="M239.931 111.201C241.325 111.201 242.455 110.072 242.455 108.678C242.455 107.284 241.325 106.154 239.931 106.154C238.538 106.154 237.408 107.284 237.408 108.678C237.408 110.072 238.538 111.201 239.931 111.201Z" fill="#FDCF00" stroke="#2C3E50" stroke-width="2" stroke-miterlimit="10"/>
<path d="M238.481 141.615C239.875 141.615 241.005 140.485 241.005 139.091C241.005 137.697 239.875 136.567 238.481 136.567C237.087 136.567 235.957 137.697 235.957 139.091C235.957 140.485 237.087 141.615 238.481 141.615Z" stroke="#2C3E50" stroke-width="2" stroke-miterlimit="10"/>
<path d="M220.118 59.4847H244.074L253.698 49.8809" stroke="#2C3E50" stroke-width="2" stroke-miterlimit="10"/>
<path d="M225.243 59.4846V125.853L236.697 137.308" stroke="#2C3E50" stroke-width="2" stroke-miterlimit="10"/>
<path d="M233.333 59.4846V102.083L238.145 106.895" stroke="#2C3E50" stroke-width="2" stroke-miterlimit="10"/>
<defs>
<filter id="filter0_d" x="45.6982" y="153.688" width="21.0237" height="28.9276" filterUnits="userSpaceOnUse" color-interpolation-filters="sRGB">
<feFlood flood-opacity="0" result="BackgroundImageFix"/>
<feColorMatrix in="SourceAlpha" type="matrix" values="0 0 0 0 0 0 0 0 0 0 0 0 0 0 0 0 0 0 127 0"/>
<feOffset dy="4"/>
<feGaussianBlur stdDeviation="2"/>
<feColorMatrix type="matrix" values="0 0 0 0 0 0 0 0 0 0 0 0 0 0 0 0 0 0 0.25 0"/>
<feBlend mode="normal" in2="BackgroundImageFix" result="effect1_dropShadow"/>
<feBlend mode="normal" in="SourceGraphic" in2="effect1_dropShadow" result="shape"/>
</filter>
<filter id="filter1_d" x="43.1743" y="173.616" width="15.0476" height="15.0476" filterUnits="userSpaceOnUse" color-interpolation-filters="sRGB">
<feFlood flood-opacity="0" result="BackgroundImageFix"/>
<feColorMatrix in="SourceAlpha" type="matrix" values="0 0 0 0 0 0 0 0 0 0 0 0 0 0 0 0 0 0 127 0"/>
<feOffset dy="4"/>
<feGaussianBlur stdDeviation="2"/>
<feColorMatrix type="matrix" values="0 0 0 0 0 0 0 0 0 0 0 0 0 0 0 0 0 0 0.25 0"/>
<feBlend mode="normal" in2="BackgroundImageFix" result="effect1_dropShadow"/>
<feBlend mode="normal" in="SourceGraphic" in2="effect1_dropShadow" result="shape"/>
</filter>
</defs>
</svg>
