<svg width="15" height="22" viewBox="0 0 15 22" fill="none" xmlns="http://www.w3.org/2000/svg">
<path fill-rule="evenodd" clip-rule="evenodd" d="M5.25341 1.92008C6.48282 0.690673 8.15025 0 9.88889 0H13.2222C13.7745 0 14.2222 0.447715 14.2222 1V5.44444C14.2222 5.99673 13.7745 6.44444 13.2222 6.44444H9.88889C9.85942 6.44444 9.83116 6.45615 9.81032 6.47699C9.78948 6.49783 9.77778 6.52609 9.77778 6.55556V7.77778H13.2222C13.5302 7.77778 13.8209 7.91965 14.0104 8.16237C14.1999 8.40508 14.2671 8.72157 14.1924 9.02031L13.0813 13.4648C12.97 13.9099 12.57 14.2222 12.1111 14.2222H9.77778V21C9.77778 21.5523 9.33006 22 8.77778 22H4.33333C3.78105 22 3.33333 21.5523 3.33333 21V14.2222H1C0.447715 14.2222 0 13.7745 0 13.2222V8.77778C0 8.22549 0.447715 7.77778 1 7.77778H3.33333V6.55556C3.33333 4.81691 4.02401 3.14948 5.25341 1.92008ZM9.88889 2C8.68068 2 7.52196 2.47996 6.66762 3.33429C5.81329 4.18862 5.33333 5.34735 5.33333 6.55556V8.77778C5.33333 9.33006 4.88562 9.77778 4.33333 9.77778H2V12.2222H4.33333C4.88562 12.2222 5.33333 12.6699 5.33333 13.2222V20H7.77778V13.2222C7.77778 12.6699 8.22549 12.2222 8.77778 12.2222H11.3303L11.9414 9.77778H8.77778C8.22549 9.77778 7.77778 9.33006 7.77778 8.77778V6.55556C7.77778 5.99565 8.0002 5.45868 8.39611 5.06278C8.79202 4.66687 9.32899 4.44444 9.88889 4.44444H12.2222V2H9.88889Z" fill="#2C3E50"/>
</svg>
