<svg width="459" height="458" viewBox="0 0 459 458" fill="none" xmlns="http://www.w3.org/2000/svg">
<g clip-path="url(#clip0)">
<path d="M427.052 407.313C427.105 407.234 427.157 407.146 427.21 407.006C427.122 407.129 427.079 407.225 427.052 407.313Z" fill="#5D4DA3"/>
<path d="M408.415 399.02L408.687 398.932C408.538 398.906 408.468 398.95 408.415 399.02Z" fill="#5D4DA3"/>
<path d="M438.08 412.371C438.054 412.389 438.045 412.415 438.028 412.441C438.194 412.52 438.422 412.625 438.799 412.809L438.08 412.371Z" fill="#5D4DA3"/>
<path d="M366.477 386.931L366.749 386.966C366.626 386.94 366.547 386.887 366.477 386.931Z" fill="#5D4DA3"/>
<path d="M391.522 393.673C391.408 393.795 391.268 393.813 391.128 393.822C391.286 393.883 391.417 393.883 391.522 393.673Z" fill="#5D4DA3"/>
<path d="M441.254 421.585L441.131 420.989C441.061 421.19 441.087 421.444 441.254 421.585Z" fill="#5D4DA3"/>
<path d="M453.167 424.39C453.176 424.355 453.185 424.32 453.185 424.276C453.141 424.311 453.15 424.346 453.167 424.39Z" fill="#5D4DA3"/>
<path d="M449.608 420.655C449.494 420.655 449.354 420.69 449.205 420.725C449.354 420.769 449.52 420.839 449.608 420.655Z" fill="#5D4DA3"/>
<path d="M449.012 420.778C449.073 420.761 449.143 420.743 449.213 420.725C449.117 420.708 449.047 420.699 449.012 420.778Z" fill="#5D4DA3"/>
<path d="M210.655 407.006C210.313 407.129 210.19 407.593 210.015 408.005L210.655 407.006Z" fill="#5D4DA3"/>
<path d="M326.95 382.75L327.037 382.548C326.958 382.609 326.95 382.68 326.95 382.75Z" fill="#5D4DA3"/>
<path d="M211.988 411.179H211.716C211.83 411.214 211.917 411.205 211.988 411.179Z" fill="#5D4DA3"/>
<path d="M434.846 420.515C434.346 420.848 433.899 420.042 433.732 420.489C434.101 420.55 434.451 421.085 434.846 420.515Z" fill="#5D4DA3"/>
<path d="M318.429 401.106L318.201 401.133C318.306 401.141 318.376 401.133 318.429 401.106Z" fill="#5D4DA3"/>
<path d="M211.988 411.179L212.303 411.17C212.242 411.091 212.181 411.039 212.128 410.977C212.093 411.065 212.049 411.135 211.988 411.179Z" fill="#5D4DA3"/>
<path d="M285.441 384.1C285.45 384.1 285.45 384.1 285.458 384.1C285.485 384.065 285.502 384.038 285.529 384.003L285.441 384.1Z" fill="#5D4DA3"/>
<path d="M283.153 383.583C283.302 383.512 283.442 383.442 283.6 383.363C283.346 383.346 283.223 383.442 283.153 383.583Z" fill="#5D4DA3"/>
<path d="M210.015 408.005L209.656 408.575C209.822 408.452 209.928 408.233 210.015 408.005Z" fill="#5D4DA3"/>
<path d="M259.729 388.176C259.799 388.15 259.869 388.115 259.931 388.071C259.834 388.088 259.773 388.123 259.729 388.176Z" fill="#5D4DA3"/>
<path d="M393.057 394.347C393.1 394.409 393.162 394.444 393.214 394.496C393.267 394.391 393.267 394.304 393.057 394.347Z" fill="#5D4DA3"/>
<path d="M374.708 403.675L374.7 403.683C374.708 403.683 374.708 403.675 374.708 403.675Z" fill="#5D4DA3"/>
<path d="M375.647 403.237C375.41 403.079 374.98 403.351 374.708 403.675C374.971 403.727 375.235 403.675 375.647 403.237Z" fill="#5D4DA3"/>
<path d="M373.008 403.079C373.034 403.105 373.06 403.123 373.095 403.158C373.06 403.123 373.034 403.096 373.008 403.079Z" fill="#5D4DA3"/>
<path d="M389.173 407.593C389.173 407.576 389.182 407.558 389.182 407.541C389.173 407.558 389.164 407.567 389.173 407.593Z" fill="#5D4DA3"/>
<path d="M385.929 406.883C385.894 406.778 385.833 406.69 385.754 406.62C385.789 406.726 385.842 406.822 385.929 406.883Z" fill="#5D4DA3"/>
<path d="M364.644 403L364.653 402.982C364.644 402.982 364.644 402.991 364.636 402.982L364.644 403Z" fill="#5D4DA3"/>
<path d="M333.515 403.149C336.601 403.079 340.678 402.334 343.711 402.956C344.473 402.009 345.446 402.071 346.446 401.939L346.411 403.289L347.27 402.939C347.559 403.377 346.621 403.131 347.147 403.692L347.542 402.895C347.559 403.359 349.584 403.456 348.12 404.245L351.259 404.63C351.951 404.753 351.802 403.57 352.53 403.991C352.635 404.403 352.223 404.227 352.223 404.709C354.397 405.989 355.23 402.43 357.307 403.368L357.097 403.517C357.518 403.219 358.21 403.368 358.245 403.175C358.158 401.79 357.754 403.841 357.211 402.956C357.43 401.834 358.123 402.465 358.201 401.606C358.649 402.088 359.043 401.492 359.499 401.492C360.148 402.307 361.305 401.965 361.743 402.939C362.164 402.641 362.751 401.589 363.558 401.667C363.987 402.641 363.286 402.483 364.005 402.947L364.233 402.316C364.846 402.527 364.724 402.693 364.645 403C365.32 403.149 365.355 402.202 366.135 402.772L365.556 403.324C366.223 403.184 366.459 403.342 367.327 403.552C367.24 403.92 366.898 403.841 366.661 403.684C366.968 404.736 367.546 403.403 367.783 403.552C367.757 403.254 367.178 403.017 367.581 402.43C367.993 402.623 368.66 401.711 368.835 402.527L368.248 403.07C369.247 402.719 368.879 402.342 369.869 402.772C369.808 402.816 369.799 402.974 369.755 403.114C370.562 402.395 371.29 403.298 372.245 403.552L372.026 403.692C372.456 403.552 372.78 403.009 372.99 403.096C372.508 402.614 372.692 402.456 372.762 401.816C373.288 403.035 374.121 400.8 375.199 401.667C375.103 402.036 374.726 402.43 374.481 401.966C373.858 402.982 373.63 403.912 372.806 404.28C373.306 404.113 373.867 404.069 373.665 404.508L374.007 403.517C374.288 403.543 374.489 403.649 374.7 403.692C374.945 403.07 374.349 402.527 375.077 402.228C375.866 402.036 375.252 403.351 375.454 402.912C376.523 402.702 376.085 401.895 376.97 402.421C376.856 402.491 376.637 402.623 376.576 402.518C377.172 403.061 378.294 402.667 378.241 403.938C378.084 404.192 377.987 404.56 377.75 404.403L377.803 404.218C376.874 404.964 378.478 404.104 378.013 405.156C378.101 404.49 379.022 404.823 379.425 405.042L379.451 404.262C381.362 402.334 379.057 405.735 380.529 405.761C381.537 405.454 380.24 405.472 380.898 405.069C381.476 405.332 381.555 406.051 382.511 405.928C382.695 406.279 383.107 406.796 382.958 407.646C383.571 407.427 384.5 408.382 384.991 407.637C384.237 406.726 383.878 408.312 383.054 406.98L383.536 406.226C384.273 406.436 385.316 406.235 385.763 406.647C385.693 406.463 385.701 406.243 385.807 406.086C386.938 406.007 387.437 405.279 388.41 405.779C388.366 406.559 387.797 406.279 387.341 406.235C387.858 406.997 388.025 406.454 388.989 406.954C388.884 407.62 388.305 406.743 388.033 407.357L389.217 407.436C389.199 407.471 389.199 407.523 389.182 407.567C389.611 406.515 390.023 407.874 390.803 407.725C392.443 408.137 393.065 406.734 394.214 406.094C394.389 406.445 394.389 406.743 394.214 406.989C393.933 406.401 393.907 406.805 393.688 407.05C394.275 407.076 394.634 408.426 394.205 408.786C395.169 408.707 394.038 408.128 394.661 407.935L395.844 408.339C395.853 407.743 395.458 407.506 396.195 407.252C396.765 407.243 396.993 407.418 397.668 407.646C397.492 407.892 397.659 408.549 397.15 408.374C397.431 408.672 397.939 408.838 398.281 408.356C397.659 407.646 399.649 408.216 399.324 407.199L399.938 407.909C399.771 407.848 399.649 408.216 399.421 408.041C399.403 408.944 400.105 407.97 400.394 407.962C400.613 408.198 401.288 408.461 401.253 408.794C401.56 408.628 402.086 408.97 402.077 409.426C402.48 409.364 402.261 408.882 402.436 408.645L403.62 409.075C403.55 409.557 403.278 410.881 403.05 410.995C403.629 410.697 403.602 409.671 404.277 409.917C403.629 410.697 404.979 410.881 404.102 411.775C404.304 412.555 405.417 412.853 406.101 412.801C406.688 412.205 405.557 412.205 405.811 411.486C407.617 411.731 408.327 409.759 409.493 410.486L409.222 410.188C410.142 410.013 410.028 410.074 410.677 409.601C410.186 410.434 410.826 412.31 412.176 412.529C412.43 412.108 411.72 411.433 412.158 410.784L413.061 410.925C413.105 411.021 412.956 411.135 412.807 411.214C413.684 411.144 413.876 412.845 414.429 411.863L414.788 413.432L414.657 412.774C414.902 412.362 415.814 412.511 416.051 412.389C417.094 412.178 417.295 412.669 417.585 413.388C417.55 412.967 417.444 412.003 418.189 412.091C417.699 413.537 419.461 413.125 419.189 413.87C419.478 413.949 419.82 414.571 420.048 413.984L419.697 414.87C420.188 413.634 421.188 414.037 422.038 414.081C421.275 415.729 422.941 414.247 422.748 415.913C423.3 414.808 424.291 415.93 424.773 414.992C425.395 415.141 424.957 416.202 424.975 416.623L425.404 416.29C425.509 416.938 426.596 417.429 427.131 418.043L428.113 417.254L428.174 417.798C428.367 417.578 428.937 417.613 428.753 417.114L429.069 417.298C429.498 416.193 429.647 417.166 430.497 416.938C430.585 417.175 430.445 417.421 430.252 417.517C430.585 417.648 430.226 418.166 430.278 418.604C430.147 418.236 432.216 417.061 431.497 416.228C431.602 415.755 432.251 415.615 432.505 415.939L432.338 417.009L433.127 416.106C433.697 416.149 433.68 416.868 434.057 417.14C433.609 417.035 432.391 418.683 433.496 419.086C432.873 418.99 432.382 419.437 432.005 419.542C432.216 419.665 432.295 419.805 431.786 420.094C432.759 420.103 432.303 419.586 433.189 419.787C432.803 420.655 432.934 421.032 433.548 421.628L433.25 420.761C433.32 420.664 433.382 420.603 433.443 420.559C433.268 420.384 433.268 420.217 433.346 419.858C433.504 419.928 434.74 419.139 434.679 419.735C434.355 418.017 436.572 419.244 436.353 418.201C436.546 417.982 437.16 418.157 437.055 418.63C436.09 419.025 437.195 419.849 436.844 420.419C437.204 420.27 436.546 419.542 437.028 419.349C437.475 419.454 437.572 420.121 437.695 420.489L437.458 420.585L437.949 421.234C438.229 420.839 437.616 420.243 438.299 420.243C438.387 420.489 439.071 420.498 438.913 420.839C438.387 421.339 438.273 422.225 437.712 422.172C438.159 422.277 439.544 422.698 439.325 421.655L439.816 421.883C439.649 421.383 439.027 420.366 440.088 420.647L440.009 420.822L440.982 420.427L441.105 421.006C441.184 420.778 441.376 420.62 441.631 420.743C441.596 421.032 441.797 421.243 441.631 421.585C442.402 421.848 442.525 421.383 442.726 421.164C443.174 421.278 443.252 421.523 442.849 421.962C443.375 422.321 444.427 422.619 444.629 423.25C445.567 423.171 444.55 422.996 445.242 422.593C445.269 424.407 447.548 424.223 448.88 424.574C449.108 423.092 449.284 424.574 450.038 423.452C449.59 423.759 450.783 425.003 449.529 424.898L450.257 425.047C450.397 425.977 448.924 425.117 449.178 426.424C449.941 426.704 451.063 425.459 451.729 426.336C451.028 427.151 452.545 426.318 451.87 427.256C451.537 427.519 451.344 427.309 451.063 427.274L451.133 427.528C452.65 428.51 452.089 426.625 453.229 426.353C454.281 426.669 453.693 427.44 453.553 427.905C453.623 428.159 454.193 428.229 454.561 428.098C453.702 428.405 453.693 427.02 454.237 426.546C454.202 427.809 455.683 427.283 456.139 426.976C455.21 425.223 455.175 426.494 454.368 424.688C454.035 424.942 453.641 425.924 453.009 425.17C453.719 424.916 453.211 424.618 453.132 424.399C453.044 425.021 452.475 424.381 452.124 424.504C452.098 423.951 453.167 423.434 452.44 422.856L451.721 424.092C451.484 423.759 452.273 423.198 451.458 423.206C452.115 422.689 451.8 422.102 452.816 422.295C452.194 420.699 450.862 422.154 449.801 422.26C449.924 422.216 450.011 422.049 450.134 421.997C449.801 422.26 449.485 422.093 449.196 422.058C448.749 421.523 449.897 421.655 449.897 421.234L448.959 420.883C448.959 420.831 448.968 420.804 448.977 420.778C448.661 420.857 448.381 420.883 448.425 420.515C448.88 420.208 449.17 419.814 449.503 419.551L448.144 420.059C448.433 419.674 447.653 418.981 448.477 418.955L446.961 418.543L447.206 417.605C446.794 417.622 446.715 417.789 447.083 418.069C446.671 417.657 444.261 418.718 445.234 417.079C443.805 417.342 443.515 416.868 441.964 416.772C443.358 416.369 441.157 415.255 442.437 415.317C441.929 414.668 441.411 415.58 440.833 415.527C440.491 414.957 441.052 414.168 441.718 414.046L440.938 414.212L441.017 414.037L440.281 414.326C439.895 413.625 440.509 413.388 439.965 413.029L439.527 413.765L439.308 413.143C439.316 413.563 438.904 413.59 438.448 413.484L438.527 413.309L437.949 413.257C438.65 412.976 437.537 412.897 437.993 412.424C437.563 412.213 437.546 412.213 436.686 412.047L436.625 412.643C435.398 412.704 436.888 411.819 436.055 411.442L435.871 412.091C435.038 410.565 433.557 411.915 432.899 410.898C433.478 410.942 433.609 410.171 433.539 410.346C432.671 410.285 431.444 409.645 430.357 410.109C430.392 409.093 430.419 408.794 429.726 408.076C429.095 407.909 428.972 407.962 428.586 408.418C428.122 407.839 426.824 407.997 427.026 407.313C426.702 407.795 426.526 407.024 426.044 407.357L426.07 407.059L425.904 407.707C425.334 405.928 423.853 407.892 423.213 406.296L423.449 406.191L422.915 406.287C422.941 405.989 423.178 405.875 423.318 405.525L421.275 404.692L421.529 405.305C421.065 405.218 420.574 405.726 420.197 405.174C421.345 404.499 419.513 404.911 419.618 404.14L420.153 404.034C419.522 403.894 419.522 403.894 419.355 404.552C418.488 404.516 419.206 403.166 418.242 403.614L418.759 403.815C418.794 404.236 418.251 404.639 417.9 404.508C417.848 404.385 417.69 404.017 417.988 404.026C417.278 404.069 416.445 403.438 416.086 403.605C415.805 403.298 416.059 402.877 416.305 402.772C414.779 402.903 415.735 402.456 414.21 402.579L414.341 402.22L413.745 402.509L413.324 401.527L413.421 402.071C412.956 401.992 412.605 402.158 412.149 401.799L412.526 401.326C411.176 401.247 411.343 399.993 409.923 400.388C409.87 400.265 410.107 400.151 410.23 400.089C408.871 400.607 409.677 398.88 408.257 399.581C408.38 399.423 408.319 399.16 408.415 399.02L407.801 399.222L408.056 398.503L407.328 399.458L407.232 398.617L406.934 398.906C406.793 397.346 405.724 398.161 405.268 396.907L405.136 397.872C402.717 399.274 401.113 395.619 398.588 395.882L398.825 395.163L397.659 395.768C397.308 395.049 398.123 395.224 398.062 394.803C396.949 394.944 397.361 395.776 396.125 395.698C395.651 395.049 396.475 395.207 396.826 395.014C395.625 395.101 393.898 395.101 393.214 394.497C393.17 394.593 393.091 394.707 393.118 394.76C392.303 394.909 391.408 394.339 390.584 394.181C390.681 393.848 390.9 393.839 391.119 393.822C390.839 393.708 390.497 393.374 390.164 393.655L390.619 393.094C390.023 392.805 388.682 393.111 388.717 392.331C388.726 392.638 388.568 393.182 388.033 393.024C387.989 391.823 386.447 393.173 385.719 392.366C385.886 392.121 386.534 392.209 386.359 392.147C385.991 391.753 385.482 392.191 385.018 392.463L385.237 392.033L383.072 392.209C383.01 391.008 381.125 391.946 381.432 391.157C380.713 390.973 381.941 391.779 380.994 391.726C380.845 391.2 380.117 391.797 380.301 391.06L380.415 390.99L379.758 390.92L380.31 390.271C379.723 390.315 379.171 390.964 379.03 391.516C378.592 391.008 377.777 391.192 377.671 390.482L377.899 390.341C376.365 390.341 375.839 387.843 374.437 388.86C374.367 388.737 374.41 388.553 374.595 388.597L373.683 388.378L374.007 387.86L372.333 388.448L372.42 388.08C371.439 387.755 369.834 387.676 368.519 387.562L368.739 387.422C367.231 387.755 367.432 386.826 366.337 387.063C366.389 386.966 366.433 386.94 366.468 386.922C366.161 386.87 365.846 386.826 365.53 386.791L365.793 386.458C364.978 387.168 363.978 385.108 364.294 385.862C363.847 386.16 363.111 386.493 362.918 386.94C361.892 386.826 362.742 386.423 362.155 386.011C361.419 385.862 361.2 386.493 360.253 386.011L360.323 385.634C359.85 385.634 359.516 385.862 358.859 385.818L359.078 385.669C357.912 386.3 357.903 384.363 356.843 385.914C356.439 385.555 355.554 385.686 355.694 384.932C354.3 385.257 353.248 385.362 351.89 385.502C351.82 384.231 351.6 385.546 350.882 384.74L350.864 385.415C348.997 385.274 347.016 383.451 344.92 383.512L344.929 382.837L344.447 383.53C342.256 382.969 339.38 382.531 337.601 382.39C336.996 382.697 336.058 383.442 335.146 383.135L335.251 383.048C333.621 383.302 331.902 383.539 330.167 383.074C330.289 382.794 330.123 382.592 330.325 382.417C329.877 383.135 329.29 382.408 328.913 382.373L329.334 382.89C328.808 383.504 328.115 382.864 327.879 382.355L327.063 383.039C327.011 382.969 326.941 382.864 326.932 382.758L326.783 383.109L326.388 382.206C326.187 382.373 325.126 382.574 324.784 383.416C324.714 383.118 323.986 382.881 324.556 382.732L321.663 382.417L322.11 382.741C322.154 383.407 321.278 383.819 320.839 383.504C321.435 382.978 320.901 382.557 320.655 382.057C320.261 382.408 320.988 382.653 320.778 383.021C320.278 383.46 319.235 383.67 318.972 383.372L319.27 383.109C318.595 383.346 318.297 382.171 317.631 382.224C317.035 382.767 316.596 382.276 316.719 383.425C315.86 383.67 316.386 382.644 316.105 382.539C315.702 383.092 314.501 382.75 314.343 382.171C313.888 383.863 312.02 381.593 311.863 383.013L311.144 382.215C311.126 382.592 311.004 383.451 310.442 383.609C309.899 383.206 310.004 382.539 309.838 382.154L309.513 383.574C307.944 382.872 306.138 382.82 304.297 382.793C303.377 382.785 302.448 382.776 301.527 382.715C300.607 382.671 299.704 382.557 298.836 382.303C297.328 382.706 295.47 383.477 293.681 383.407L293.865 383.214L292.068 382.995L293.401 383.521C293.033 383.723 292.752 384.021 292.384 384.038C290.411 383.635 287.746 383.162 285.45 384.117C284.1 385.923 284.266 382.811 282.925 384.179C283.03 384.012 283.048 383.775 283.144 383.609C281.619 384.345 280.795 384.731 279.339 385.87C279.304 384.249 278.314 386.037 278.34 385.178L278.296 385.844C277.893 385.485 277.043 385.476 277.095 384.994L276.517 385.914L276.359 385.257C275.421 385.345 273.527 386.204 272.826 384.932C270.687 386.256 267.049 386.624 264.13 386.914C263.832 387.527 263.008 387.729 262.368 387.904L261.518 387.256C260.904 387.641 260.413 388.781 259.694 388.413C259.677 388.325 259.694 388.246 259.72 388.194C259.089 388.5 258.353 388.22 257.888 389.079C257.143 389.202 256.337 388.939 256.398 388.167C256.617 389.482 254.794 388.325 254.794 388.325C254.794 388.325 254.645 388.343 254.355 388.386C254.066 388.421 253.654 388.483 253.119 388.588C252.059 388.781 250.525 389.061 248.666 389.43C247.737 389.614 246.72 389.815 245.642 390.052C244.572 390.315 243.441 390.596 242.249 390.894C241.066 391.209 239.838 391.534 238.567 391.867C237.305 392.209 236.034 392.638 234.728 393.059C224.331 396.364 213.417 401.834 210.62 407.041C210.594 407.76 209.971 408.488 210.585 409.075C210.077 409.557 209.323 408.619 209.472 409.268C210.48 409.312 209.901 410.933 211.041 411.337L210.585 411.705C210.664 412.178 211.076 410.925 211.286 411.749L210.936 410.565C211.427 410.557 211.76 410.697 212.075 411.012C212.277 410.407 211.874 408.768 213.101 409.04L212.873 409.215C213.627 408.847 213.653 409.741 213.89 409.864L213.715 409.925L214.6 410.223C213.951 410.048 213.539 411.31 213.934 411.065C214.977 410.995 213.583 410.89 214.206 410.46C214.609 410.223 214.74 410.872 214.872 411.232L215.617 410.863C215.81 411.398 215.1 411.047 215.643 411.459L216.362 410.495C217.09 411.757 217.142 409.408 218.089 410.486C217.528 411.091 218.335 410.907 218.405 411.389C218.948 411.118 219.509 410.881 220.062 410.635C220.298 410.758 219.781 411.223 220.009 411.056C220.474 411.302 220.403 410.53 220.579 410.469C220.868 410.776 221.841 409.96 222.139 410.872C223.515 411.021 222.183 409.557 223.454 409.645C223.805 410.136 222.656 410.101 223.349 410.478L224.383 409.846C224.383 410.153 224.506 410.811 224.041 410.855C227.303 410.381 229.967 412.731 232.422 411.03C233.036 411.547 232.299 411.565 232.177 412.091C233.851 410.539 235.429 412.511 237.086 411.915L236.937 411.363C238.392 411.828 239.733 411.591 241.074 411.214C242.416 410.837 243.766 410.32 245.203 410.311L244.774 410.022C244.984 409.391 245.563 409.163 245.94 408.794C246.089 409.049 245.957 410.057 246.667 409.61C246.448 409.461 246.062 409.347 246.089 409.049C247.448 409.443 249.297 409.189 251.322 408.838C253.356 408.523 255.539 408.067 257.52 407.935C260.036 407.111 262.78 406.726 265.489 406.305C268.215 405.972 270.924 405.656 273.449 405.025C272.677 405.192 272.774 403.754 273.413 403.982C275.412 406.086 276.149 403.149 278.051 404.499C280.926 403.237 283.872 405.034 286.431 402.842L286.563 403.508C287.01 403.763 287.071 403.28 287.501 403.158L287.51 403.351C288.57 403.482 289.754 402.693 290.385 402.956L290.35 402.193C290.964 402.071 290.727 402.746 291.314 402.255L291.332 402.632L291.998 401.843C292.051 403.175 293.751 401.781 294.295 402.334C295.066 402.001 296.548 401.343 297.784 401.527C298.056 402.193 299.546 402.088 300.51 402.369C302.342 402.044 304.972 401.746 307.339 401.895L307.269 401.036L307.883 400.957C307.883 401.15 307.97 401.247 307.874 401.334C308.382 402.299 309.285 400.975 309.794 401.562C309.461 400.791 309.355 401.457 309.005 401.448C308.488 401.054 308.943 400.203 309.645 400.607L309.636 400.8L310.092 400.326C310.162 400.992 310.591 401.308 310.662 401.974C312.678 401.799 314.045 400.624 316.149 400.922C315.939 401.676 317.657 400.712 317.236 402.027C318.49 401.527 317.035 400.975 317.605 400.046C317.955 400.072 318.332 399.721 318.394 400.203C318.227 400.51 318.674 401.001 318.385 401.115L319.226 401.028C319.305 401.133 319.121 401.308 319.025 401.396C320.743 400.668 322.04 402.299 323.592 401.562C323.715 401.098 322.987 401.422 323.11 400.949C324.679 400.028 324.451 401.799 325.915 401.185L325.599 401.825C326.082 401.396 326.301 400.843 327.046 401.404C327.151 402.185 326.371 402.001 325.994 402.342C326.52 402.395 327.852 402.255 327.475 401.545C328.115 401.326 328.317 402.018 328.65 402.237C328.668 402.053 328.08 401.703 328.466 401.361C329.308 401.834 330.623 401.869 331.666 401.983C331.648 402.176 331.701 402.465 331.604 402.553C332.534 401.589 332.358 403.272 333.515 403.149Z" fill="#5D4DA3"/>
<path d="M389.559 407.804L389.173 407.585C389.129 407.751 389.068 407.935 388.831 408.067L389.559 407.804Z" fill="#5D4DA3"/>
<path d="M369.773 403.096C369.712 403.149 369.65 403.193 369.589 403.272C369.685 403.263 369.738 403.184 369.773 403.096Z" fill="#5D4DA3"/>
<path d="M364.68 403.587C365.057 403.482 364.776 403.228 364.636 403.009C364.61 403.158 364.584 403.342 364.68 403.587Z" fill="#5D4DA3"/>
<path d="M401.253 408.768C401.156 408.821 401.086 408.908 401.06 409.066C401.192 408.952 401.244 408.856 401.253 408.768Z" fill="#5D4DA3"/>
<path d="M431.532 419.244C431.506 419.191 431.479 419.165 431.453 419.095C431.453 419.148 431.488 419.2 431.532 419.244Z" fill="#5D4DA3"/>
<path d="M430.278 417.508C430.199 417.473 430.085 417.464 429.901 417.482C430.042 417.578 430.164 417.561 430.278 417.508Z" fill="#5D4DA3"/>
<path d="M393.679 407.024C393.556 407.024 393.433 407.05 393.293 407.181C393.477 407.208 393.591 407.12 393.679 407.024Z" fill="#5D4DA3"/>
<path d="M429.498 417.517L429.104 417.289C429.086 417.333 429.069 417.368 429.042 417.429L429.498 417.517Z" fill="#5D4DA3"/>
<path d="M432.031 419.524C431.874 419.446 431.654 419.358 431.532 419.244C431.672 419.516 431.83 419.577 432.031 419.524Z" fill="#5D4DA3"/>
<path d="M412.825 411.188C412.807 411.197 412.789 411.188 412.772 411.188C412.342 411.398 412.588 411.337 412.825 411.188Z" fill="#5D4DA3"/>
<path d="M427.21 418.078L427.166 418.025L426.974 418.183L427.21 418.078Z" fill="#5D4DA3"/>
<path d="M433.724 420.489C433.636 420.471 433.557 420.48 433.469 420.541C433.522 420.594 433.592 420.646 433.671 420.717C433.688 420.611 433.706 420.55 433.724 420.489Z" fill="#5D4DA3"/>
<path d="M418.855 414.387C419.066 414.16 419.171 413.993 419.224 413.853C419.075 413.809 418.943 413.905 418.855 414.387Z" fill="#5D4DA3"/>
<path d="M33.5666 124.756L152.263 79.8552L133.1 13.0732C130.996 5.73581 123.106 1.7296 115.944 4.35073L11.265 42.6421C4.04155 45.2895 0.622675 53.5387 3.84869 60.5167L33.5666 124.756Z" stroke="#2C3E50" stroke-width="5" stroke-miterlimit="10"/>
<path d="M307.094 374.676L116.137 446.91" stroke="#2C3E50" stroke-width="5" stroke-miterlimit="10"/>
<path d="M166.701 119.9L53.4575 162.741L66.6684 332.335C67.396 341.723 75.426 348.885 84.841 348.482C137.115 346.264 179.219 367.137 211.69 409.917C206.781 355.434 225.681 312.479 266.059 279.938C273.414 274.012 274.72 263.308 269.039 255.761L166.701 119.9Z" stroke="#2C3E50" stroke-width="5" stroke-miterlimit="10"/>
<path d="M313.239 378.928C316.87 378.928 319.814 375.984 319.814 372.353C319.814 368.722 316.87 365.778 313.239 365.778C309.608 365.778 306.664 368.722 306.664 372.353C306.664 375.984 309.608 378.928 313.239 378.928Z" stroke="#2C3E50" stroke-width="5" stroke-miterlimit="10"/>
<path d="M109.992 455.808C113.623 455.808 116.566 452.865 116.566 449.233C116.566 445.602 113.623 442.659 109.992 442.659C106.361 442.659 103.417 445.602 103.417 449.233C103.417 452.865 106.361 455.808 109.992 455.808Z" stroke="#2C3E50" stroke-width="5" stroke-miterlimit="10"/>
<path d="M134.932 237.246C134.932 241.077 136.816 244.47 139.718 246.538C144.75 250.141 148.423 255.331 150.676 261.082C150.737 261.248 150.807 261.415 150.869 261.573C153.525 268.34 156.199 275.099 158.864 281.858L175.783 324.804L209.63 410.688L213.732 409.136L182.27 322.35L166.534 278.956C164.053 272.11 161.573 265.263 159.083 258.417C158.978 258.128 158.873 257.838 158.767 257.549C156.646 251.737 156.427 245.478 157.601 239.403C157.829 238.228 157.873 236.992 157.715 235.73C157.049 230.549 152.797 226.402 147.599 225.867C140.717 225.166 134.932 230.531 134.932 237.246Z" fill="#453396"/>
<path d="M43.3149 169.701L174.696 120.005C178.597 118.524 180.569 114.167 179.088 110.257L167.481 79.5747C166 75.6737 161.643 73.7013 157.733 75.1828L26.3608 124.879C22.4598 126.361 20.4874 130.718 21.9689 134.627L33.5755 165.309C35.0483 169.211 39.4139 171.183 43.3149 169.701Z" fill="#FDCF00"/>
<path d="M217.984 388.851L192.456 398.512C190.063 399.415 188.862 402.088 189.765 404.473L199.426 430C200.329 432.394 203.002 433.595 205.387 432.692L230.914 423.031C233.308 422.128 234.509 419.454 233.606 417.07L223.945 391.542C223.042 389.149 220.368 387.948 217.984 388.851Z" fill="#2C3E50"/>
<path d="M211.681 421.348C217.994 421.348 223.112 416.23 223.112 409.917C223.112 403.603 217.994 398.485 211.681 398.485C205.367 398.485 200.25 403.603 200.25 409.917C200.25 416.23 205.367 421.348 211.681 421.348Z" fill="#FDCF00"/>
</g>
<defs>
<clipPath id="clip0">
<rect width="458.102" height="457.077" fill="white" transform="translate(0 0.923096)"/>
</clipPath>
</defs>
</svg>
