<svg width="651" height="651" viewBox="0 0 651 651" fill="none" xmlns="http://www.w3.org/2000/svg">
<rect width="651" height="651" fill="white"/>
<path d="M579.902 205.913C611.143 280.821 566.411 401.171 492.568 446.613C418.726 491.7 316.127 462.233 239.798 405.076C163.825 347.564 114.123 262.36 134.359 202.008C154.95 141.655 245.123 106.154 343.463 103.314C442.156 100.829 549.016 130.65 579.902 205.913Z" fill="#4DB6AC"/>
<path d="M117.008 209.804C120.053 209.804 122.521 207.335 122.521 204.29C122.521 201.245 120.053 198.776 117.008 198.776C113.962 198.776 111.494 201.245 111.494 204.29C111.494 207.335 113.962 209.804 117.008 209.804Z" stroke="#2C3E50" stroke-width="5" stroke-miterlimit="10"/>
<path d="M137.356 209.804C140.401 209.804 142.869 207.335 142.869 204.29C142.869 201.245 140.401 198.776 137.356 198.776C134.31 198.776 131.842 201.245 131.842 204.29C131.842 207.335 134.31 209.804 137.356 209.804Z" stroke="#2C3E50" stroke-width="5" stroke-miterlimit="10"/>
<path d="M157.704 209.804C160.75 209.804 163.218 207.335 163.218 204.29C163.218 201.245 160.75 198.776 157.704 198.776C154.659 198.776 152.191 201.245 152.191 204.29C152.191 207.335 154.659 209.804 157.704 209.804Z" stroke="#2C3E50" stroke-width="5" stroke-miterlimit="10"/>
<path d="M550.8 187.482H100.208V484.563H550.8V187.482Z" stroke="#2C3E50" stroke-width="5" stroke-miterlimit="10"/>
<path d="M527.659 216.279H503.555L505.621 207.277C505.65 207.121 505.733 206.981 505.856 206.879C505.978 206.779 506.132 206.724 506.291 206.725H524.94C525.105 206.728 525.264 206.79 525.39 206.898C525.515 207.007 525.598 207.156 525.626 207.319L527.659 216.279Z" fill="#2C3E50"/>
<path d="M286.934 359.298C286.432 358.461 285.947 357.625 285.478 356.788L279.781 362.486H288.867L286.934 359.298ZM366.743 296.105C361.685 295.112 357.198 292.227 354.193 288.04L313.573 328.651L324.015 339.093L348.504 314.604L351.248 317.348L327.822 340.774L325.395 343.217L324.015 344.59L310.829 331.404L288.842 353.416C291.709 359.024 295.492 364.115 300.036 368.476L325.496 392.739L350.947 368.476C356.446 363.194 360.827 356.859 363.83 349.849C366.832 342.839 368.395 335.298 368.425 327.672V296.44L366.743 296.105ZM387.467 375.253C385.884 374.699 384.446 373.794 383.26 372.609C382.074 371.422 381.17 369.984 380.615 368.401L380.121 367.004H358.519L357.891 367.723C356.619 369.179 355.381 370.493 354.068 371.731L325.496 398.931L296.915 371.697C295.627 370.459 294.338 369.104 293.1 367.69L292.481 366.97H275.254L249.552 392.706C251.119 394.814 252.792 396.862 254.572 398.847C262.808 408.158 272.798 415.757 283.971 421.207C295.143 426.658 307.281 429.854 319.688 430.613C332.097 431.374 344.533 429.682 356.287 425.635C368.042 421.589 378.884 415.267 388.195 407.03L388.898 406.402V375.747L387.467 375.253ZM391.081 358.11C389.771 358.113 388.492 358.505 387.404 359.234C386.318 359.965 385.471 361.001 384.971 362.212C384.473 363.424 384.344 364.755 384.602 366.039C384.858 367.323 385.491 368.503 386.419 369.428C387.346 370.353 388.526 370.982 389.811 371.236C391.097 371.491 392.428 371.359 393.637 370.857C394.848 370.355 395.881 369.505 396.609 368.416C397.336 367.327 397.725 366.047 397.725 364.736C397.725 363.864 397.552 362.999 397.217 362.193C396.882 361.386 396.391 360.654 395.772 360.039C395.153 359.424 394.419 358.936 393.611 358.604C392.803 358.274 391.937 358.106 391.065 358.11H391.081ZM418.223 316.369L417.604 313.784C413.561 296.979 404.993 281.603 392.83 269.324C389.517 265.978 385.966 262.877 382.205 260.045L357.481 284.777C358.909 286.981 360.866 288.794 363.173 290.049C365.481 291.304 368.065 291.963 370.692 291.964H372.943V316.369H418.223ZM419.302 322.694L419.043 320.895H372.943V327.647C372.924 338.813 369.845 349.76 364.041 359.298L362.108 362.477H380.054L380.54 361.072C381.16 359.291 382.223 357.698 383.628 356.441C385.032 355.183 386.733 354.303 388.571 353.882C390.409 353.462 392.323 353.515 394.134 354.036C395.947 354.558 397.596 355.531 398.929 356.863C400.262 358.197 401.235 359.846 401.756 361.658C402.278 363.47 402.33 365.384 401.91 367.222C401.49 369.06 400.609 370.76 399.352 372.165C398.094 373.57 396.501 374.632 394.721 375.253L393.324 375.738V398.755H396.361L397.064 398.035C405.978 387.82 412.581 375.8 416.419 362.796C420.258 349.793 421.241 336.113 419.302 322.694ZM507.411 223.232C506.507 223.23 505.623 223.497 504.871 223.997C504.119 224.499 503.531 225.211 503.184 226.046C502.838 226.881 502.746 227.799 502.921 228.686C503.096 229.573 503.53 230.388 504.17 231.027C504.808 231.667 505.622 232.103 506.508 232.28C507.395 232.457 508.314 232.367 509.149 232.021C509.984 231.675 510.698 231.091 511.2 230.339C511.702 229.587 511.971 228.704 511.971 227.8C511.968 226.59 511.488 225.431 510.633 224.576C509.779 223.72 508.621 223.236 507.411 223.232ZM523.809 223.232C522.906 223.232 522.022 223.5 521.272 224.002C520.52 224.504 519.935 225.217 519.589 226.052C519.243 226.886 519.152 227.805 519.329 228.691C519.506 229.577 519.941 230.391 520.579 231.03C521.218 231.669 522.032 232.104 522.918 232.28C523.804 232.457 524.723 232.367 525.557 232.02C526.392 231.675 527.106 231.089 527.608 230.338C528.11 229.587 528.378 228.704 528.378 227.8C528.375 226.589 527.893 225.428 527.037 224.572C526.18 223.716 525.02 223.234 523.809 223.232ZM523.809 223.232C522.906 223.232 522.022 223.5 521.272 224.002C520.52 224.504 519.935 225.217 519.589 226.052C519.243 226.886 519.152 227.805 519.329 228.691C519.506 229.577 519.941 230.391 520.579 231.03C521.218 231.669 522.032 232.104 522.918 232.28C523.804 232.457 524.723 232.367 525.557 232.02C526.392 231.675 527.106 231.089 527.608 230.338C528.11 229.587 528.378 228.704 528.378 227.8C528.375 226.589 527.893 225.428 527.037 224.572C526.18 223.716 525.02 223.234 523.809 223.232ZM507.411 223.232C506.507 223.23 505.623 223.497 504.871 223.997C504.119 224.499 503.531 225.211 503.184 226.046C502.838 226.881 502.746 227.799 502.921 228.686C503.096 229.573 503.53 230.388 504.17 231.027C504.808 231.667 505.622 232.103 506.508 232.28C507.395 232.457 508.314 232.367 509.149 232.021C509.984 231.675 510.698 231.091 511.2 230.339C511.702 229.587 511.971 228.704 511.971 227.8C511.968 226.59 511.488 225.431 510.633 224.576C509.779 223.72 508.621 223.236 507.411 223.232ZM455.036 187.255L385.342 256.949C396.669 265.499 406.03 276.38 412.794 288.856C419.557 301.333 423.566 315.114 424.549 329.272C425.532 343.429 423.467 357.633 418.493 370.924C413.519 384.216 405.752 396.286 395.716 406.32C385.679 416.353 373.608 424.118 360.315 429.089C347.022 434.06 332.818 436.121 318.661 435.135C304.503 434.148 290.722 430.136 278.248 423.37C265.773 416.603 254.895 407.24 246.348 395.91L157.661 484.596H550.792V187.255H455.036ZM523.809 234.945C522.146 234.943 520.536 234.354 519.264 233.284C517.99 232.213 517.135 230.727 516.848 229.089H514.338C514.025 230.835 513.068 232.402 511.658 233.478C510.247 234.556 508.485 235.066 506.717 234.909C504.949 234.751 503.305 233.938 502.106 232.628C500.908 231.319 500.244 229.608 500.244 227.834C500.244 226.059 500.908 224.348 502.106 223.039C503.305 221.729 504.949 220.916 506.717 220.758C508.485 220.601 510.247 221.111 511.658 222.189C513.068 223.265 514.025 224.832 514.338 226.579H516.848C517.094 225.257 517.709 224.031 518.625 223.046C519.542 222.061 520.719 221.359 522.02 221.019C523.321 220.678 524.692 220.717 525.972 221.128C527.252 221.539 528.389 222.307 529.249 223.34C530.109 224.374 530.657 225.631 530.829 226.965C531 228.299 530.788 229.653 530.217 230.871C529.647 232.089 528.741 233.119 527.606 233.84C526.471 234.562 525.154 234.945 523.809 234.945ZM534.059 218.823H497.153V216.313H500.969L503.152 206.792C503.309 206.079 503.704 205.441 504.274 204.984C504.843 204.528 505.552 204.28 506.281 204.282H524.93C525.671 204.282 526.387 204.54 526.959 205.009C527.532 205.48 527.923 206.133 528.068 206.858L530.243 216.346H534.059V218.823ZM523.809 223.232C522.906 223.232 522.022 223.5 521.272 224.002C520.52 224.504 519.935 225.217 519.589 226.052C519.243 226.886 519.152 227.805 519.329 228.691C519.506 229.577 519.941 230.391 520.579 231.03C521.218 231.669 522.032 232.104 522.918 232.28C523.804 232.457 524.723 232.367 525.557 232.02C526.392 231.675 527.106 231.089 527.608 230.338C528.11 229.587 528.378 228.704 528.378 227.8C528.375 226.589 527.893 225.428 527.037 224.572C526.18 223.716 525.02 223.234 523.809 223.232ZM507.411 223.232C506.507 223.23 505.623 223.497 504.871 223.997C504.119 224.499 503.531 225.211 503.184 226.046C502.838 226.881 502.746 227.799 502.921 228.686C503.096 229.573 503.53 230.388 504.17 231.027C504.808 231.667 505.622 232.103 506.508 232.28C507.395 232.457 508.314 232.367 509.149 232.021C509.984 231.675 510.698 231.091 511.2 230.339C511.702 229.587 511.971 228.704 511.971 227.8C511.968 226.59 511.488 225.431 510.633 224.576C509.779 223.72 508.621 223.236 507.411 223.232ZM507.411 223.232C506.507 223.23 505.623 223.497 504.871 223.997C504.119 224.499 503.531 225.211 503.184 226.046C502.838 226.881 502.746 227.799 502.921 228.686C503.096 229.573 503.53 230.388 504.17 231.027C504.808 231.667 505.622 232.103 506.508 232.28C507.395 232.457 508.314 232.367 509.149 232.021C509.984 231.675 510.698 231.091 511.2 230.339C511.702 229.587 511.971 228.704 511.971 227.8C511.968 226.59 511.488 225.431 510.633 224.576C509.779 223.72 508.621 223.236 507.411 223.232ZM523.809 223.232C522.906 223.232 522.022 223.5 521.272 224.002C520.52 224.504 519.935 225.217 519.589 226.052C519.243 226.886 519.152 227.805 519.329 228.691C519.506 229.577 519.941 230.391 520.579 231.03C521.218 231.669 522.032 232.104 522.918 232.28C523.804 232.457 524.723 232.367 525.557 232.02C526.392 231.675 527.106 231.089 527.608 230.338C528.11 229.587 528.378 228.704 528.378 227.8C528.375 226.589 527.893 225.428 527.037 224.572C526.18 223.716 525.02 223.234 523.809 223.232ZM523.809 223.232C522.906 223.232 522.022 223.5 521.272 224.002C520.52 224.504 519.935 225.217 519.589 226.052C519.243 226.886 519.152 227.805 519.329 228.691C519.506 229.577 519.941 230.391 520.579 231.03C521.218 231.669 522.032 232.104 522.918 232.28C523.804 232.457 524.723 232.367 525.557 232.02C526.392 231.675 527.106 231.089 527.608 230.338C528.11 229.587 528.378 228.704 528.378 227.8C528.375 226.589 527.893 225.428 527.037 224.572C526.18 223.716 525.02 223.234 523.809 223.232ZM507.411 223.232C506.507 223.23 505.623 223.497 504.871 223.997C504.119 224.499 503.531 225.211 503.184 226.046C502.838 226.881 502.746 227.799 502.921 228.686C503.096 229.573 503.53 230.388 504.17 231.027C504.808 231.667 505.622 232.103 506.508 232.28C507.395 232.457 508.314 232.367 509.149 232.021C509.984 231.675 510.698 231.091 511.2 230.339C511.702 229.587 511.971 228.704 511.971 227.8C511.968 226.59 511.488 225.431 510.633 224.576C509.779 223.72 508.621 223.236 507.411 223.232Z" fill="#2C3E50"/>
<path d="M455.044 187.222L485.9 156.366V130.061" stroke="#2C3E50" stroke-width="5" stroke-miterlimit="10"/>
<path d="M157.696 484.563L129.567 512.7V534.838" stroke="#2C3E50" stroke-width="5" stroke-miterlimit="10"/>
<path d="M485.901 156.366L506.516 135.751V115.721" stroke="#2C3E50" stroke-width="5" stroke-miterlimit="10"/>
<path d="M506.516 135.751V161.863" stroke="#2C3E50" stroke-width="5" stroke-miterlimit="10"/>
<path d="M485.9 130.062C489.366 130.062 492.175 127.252 492.175 123.787C492.175 120.321 489.366 117.512 485.9 117.512C482.435 117.512 479.625 120.321 479.625 123.787C479.625 127.252 482.435 130.062 485.9 130.062Z" stroke="#2C3E50" stroke-width="5" stroke-miterlimit="10"/>
<path d="M506.516 115.721C509.981 115.721 512.791 112.912 512.791 109.446C512.791 105.981 509.981 103.171 506.516 103.171C503.05 103.171 500.241 105.981 500.241 109.446C500.241 112.912 503.05 115.721 506.516 115.721Z" stroke="#2C3E50" stroke-width="5" stroke-miterlimit="10"/>
<path d="M506.516 174.413C509.981 174.413 512.791 171.603 512.791 168.138C512.791 164.672 509.981 161.863 506.516 161.863C503.05 161.863 500.241 164.672 500.241 168.138C500.241 171.603 503.05 174.413 506.516 174.413Z" stroke="#2C3E50" stroke-width="5" stroke-miterlimit="10"/>
<path d="M129.567 547.388C133.032 547.388 135.842 544.578 135.842 541.113C135.842 537.647 133.032 534.838 129.567 534.838C126.101 534.838 123.292 537.647 123.292 541.113C123.292 544.578 126.101 547.388 129.567 547.388Z" stroke="#2C3E50" stroke-width="5" stroke-miterlimit="10"/>
<path d="M12.2751 397.182C15.7406 397.182 18.55 394.373 18.55 390.907C18.55 387.442 15.7406 384.632 12.2751 384.632C8.80951 384.632 6.00012 387.442 6.00012 390.907C6.00012 394.373 8.80951 397.182 12.2751 397.182Z" stroke="#2C3E50" stroke-width="5" stroke-miterlimit="10"/>
<path d="M30.7488 333.245C34.2144 333.245 37.0238 330.435 37.0238 326.97C37.0238 323.504 34.2144 320.695 30.7488 320.695C27.2832 320.695 24.4739 323.504 24.4739 326.97C24.4739 330.435 27.2832 333.245 30.7488 333.245Z" stroke="#2C3E50" stroke-width="5" stroke-miterlimit="10"/>
<path d="M54.5425 302.916C58.0081 302.916 60.8174 300.106 60.8174 296.641C60.8174 293.175 58.0081 290.366 54.5425 290.366C51.0769 290.366 48.2675 293.175 48.2675 296.641C48.2675 300.106 51.0769 302.916 54.5425 302.916Z" stroke="#2C3E50" stroke-width="5" stroke-miterlimit="10"/>
<path d="M100.2 419.27H40.6378L16.7092 395.341" stroke="#2C3E50" stroke-width="5" stroke-miterlimit="10"/>
<path d="M87.4576 419.27V329.547L58.9775 301.075" stroke="#2C3E50" stroke-width="5" stroke-miterlimit="10"/>
<path d="M58.9768 419.27V355.19L35.1906 331.404" stroke="#2C3E50" stroke-width="5" stroke-miterlimit="10"/>
<path d="M638.725 226.495C642.191 226.495 645 223.685 645 220.22C645 216.755 642.191 213.945 638.725 213.945C635.26 213.945 632.45 216.755 632.45 220.22C632.45 223.685 635.26 226.495 638.725 226.495Z" stroke="#2C3E50" stroke-width="5" stroke-miterlimit="10"/>
<path d="M600.063 377.169C603.528 377.169 606.338 374.36 606.338 370.894C606.338 367.429 603.528 364.619 600.063 364.619C596.598 364.619 593.788 367.429 593.788 370.894C593.788 374.36 596.598 377.169 600.063 377.169Z" stroke="#2C3E50" stroke-width="5" stroke-miterlimit="10"/>
<path d="M596.458 452.787C599.923 452.787 602.733 449.977 602.733 446.512C602.733 443.046 599.923 440.237 596.458 440.237C592.992 440.237 590.183 443.046 590.183 446.512C590.183 449.977 592.992 452.787 596.458 452.787Z" stroke="#2C3E50" stroke-width="5" stroke-miterlimit="10"/>
<path d="M550.792 248.583H610.362L634.291 224.696" stroke="#2C3E50" stroke-width="5" stroke-miterlimit="10"/>
<path d="M563.542 248.583V413.597L592.022 442.077" stroke="#2C3E50" stroke-width="5" stroke-miterlimit="10"/>
<path d="M583.656 248.583V354.487L595.62 366.46" stroke="#2C3E50" stroke-width="5" stroke-miterlimit="10"/>
<path d="M258.915 268.663C275.031 252.707 296.337 243.062 318.961 241.48C341.585 239.899 364.025 246.486 382.205 260.045L385.342 256.908C366.241 242.424 342.541 235.346 318.625 236.983C294.71 238.62 272.195 248.861 255.244 265.812C238.294 282.763 228.055 305.278 226.42 329.194C224.784 353.11 231.863 376.809 246.348 395.91L249.552 392.706C244.327 385.704 240.103 378.008 237.003 369.84L235.915 367.004H275.238L279.764 362.477H234.501L234.074 360.93C230.246 346.935 229.694 332.247 232.459 318.005C235.225 303.762 241.234 290.348 250.021 278.803L253.778 273.875V307.634L252.372 308.12C250.594 308.74 249.004 309.802 247.748 311.205C246.492 312.608 245.613 314.307 245.192 316.142C244.77 317.977 244.822 319.89 245.341 321.699C245.859 323.51 246.828 325.159 248.157 326.493C249.486 327.826 251.132 328.801 252.94 329.326C254.748 329.852 256.66 329.91 258.497 329.495C260.334 329.08 262.035 328.207 263.443 326.956C264.85 325.705 265.918 324.118 266.545 322.343L267.03 320.937H278.032V327.681C278.057 337.862 280.617 347.876 285.479 356.822L288.825 353.475C284.723 345.502 282.57 336.671 282.542 327.706V296.44L284.215 296.105C288.164 295.326 291.792 293.391 294.639 290.546C297.486 287.7 299.422 284.073 300.204 280.125L300.539 278.452H350.445L350.788 280.125C351.355 282.967 352.524 285.655 354.219 288.006L357.482 284.743C355.835 282.193 354.963 279.22 354.972 276.184V273.95H296.054V276.184C296.043 280.366 294.374 284.372 291.412 287.324C288.45 290.276 284.44 291.933 280.258 291.93H278.032V316.336H267.039L266.545 314.938C265.993 313.354 265.09 311.915 263.904 310.727C262.716 309.541 261.277 308.638 259.693 308.086L258.296 307.592V269.248L258.915 268.663ZM262.663 318.611C262.663 319.922 262.275 321.203 261.546 322.293C260.818 323.383 259.783 324.232 258.572 324.733C257.362 325.235 256.029 325.366 254.744 325.11C253.459 324.854 252.277 324.224 251.351 323.297C250.424 322.37 249.793 321.189 249.537 319.904C249.282 318.619 249.413 317.286 249.915 316.075C250.416 314.865 251.265 313.83 252.355 313.102C253.445 312.373 254.726 311.985 256.037 311.985C257.794 311.987 259.478 312.686 260.719 313.929C261.962 315.17 262.66 316.854 262.663 318.611Z" fill="#2C3E50"/>
<path d="M309.315 324.42L306.57 327.165L310.836 331.431L313.582 328.686L309.315 324.42Z" fill="#2C3E50"/>
</svg>
