<svg width="523" height="628" viewBox="0 0 523 628" fill="none" xmlns="http://www.w3.org/2000/svg">
<path d="M419.267 116.53C450.781 160.582 469.828 203.945 488.182 265.549C506.537 327.152 524.199 406.652 492.684 456.21C461.17 505.424 381.172 524.008 316.066 508.865C250.96 493.723 201.437 444.853 145.335 395.639C89.5788 346.081 27.5892 296.867 12.0052 231.822C-3.57876 167.121 27.5892 86.5889 83.3452 42.8814C139.101 -1.1703 220.138 -9.08582 282.128 9.15432C344.463 27.7386 388.099 72.4786 419.267 116.53Z" fill="#FF7D7D"/>
<g clip-path="url(#clip0)">
<path d="M487.15 569.58C487.21 569.49 487.27 569.39 487.33 569.23C487.23 569.37 487.18 569.48 487.15 569.58Z" fill="#5D4DA3"/>
<path d="M465.89 560.12L466.2 560.02C466.03 559.99 465.95 560.04 465.89 560.12Z" fill="#5D4DA3"/>
<path d="M499.73 575.35C499.7 575.37 499.69 575.4 499.67 575.43C499.86 575.52 500.12 575.64 500.55 575.85L499.73 575.35Z" fill="#5D4DA3"/>
<path d="M418.05 546.33L418.36 546.37C418.22 546.34 418.13 546.28 418.05 546.33Z" fill="#5D4DA3"/>
<path d="M446.62 554.02C446.49 554.16 446.33 554.18 446.17 554.19C446.35 554.26 446.5 554.26 446.62 554.02Z" fill="#5D4DA3"/>
<path d="M503.35 585.86L503.21 585.18C503.13 585.41 503.16 585.7 503.35 585.86Z" fill="#5D4DA3"/>
<path d="M516.94 589.06C516.95 589.02 516.96 588.98 516.96 588.93C516.91 588.97 516.92 589.01 516.94 589.06Z" fill="#5D4DA3"/>
<path d="M512.88 584.8C512.75 584.8 512.59 584.84 512.42 584.88C512.59 584.93 512.78 585.01 512.88 584.8Z" fill="#5D4DA3"/>
<path d="M512.2 584.94C512.27 584.92 512.35 584.9 512.43 584.88C512.32 584.86 512.24 584.85 512.2 584.94Z" fill="#5D4DA3"/>
<path d="M240.3 569.23C239.91 569.37 239.77 569.9 239.57 570.37L240.3 569.23Z" fill="#5D4DA3"/>
<path d="M372.96 541.56L373.06 541.33C372.97 541.4 372.96 541.48 372.96 541.56Z" fill="#5D4DA3"/>
<path d="M241.82 573.99H241.51C241.64 574.03 241.74 574.02 241.82 573.99Z" fill="#5D4DA3"/>
<path d="M496.04 584.64C495.47 585.02 494.96 584.1 494.77 584.61C495.19 584.68 495.59 585.29 496.04 584.64Z" fill="#5D4DA3"/>
<path d="M363.24 562.5L362.98 562.53C363.1 562.54 363.18 562.53 363.24 562.5Z" fill="#5D4DA3"/>
<path d="M241.82 573.99L242.18 573.98C242.11 573.89 242.04 573.83 241.98 573.76C241.94 573.86 241.89 573.94 241.82 573.99Z" fill="#5D4DA3"/>
<path d="M325.61 543.1C325.62 543.1 325.62 543.1 325.63 543.1C325.66 543.06 325.68 543.03 325.71 542.99L325.61 543.1Z" fill="#5D4DA3"/>
<path d="M323 542.51C323.17 542.43 323.33 542.35 323.51 542.26C323.22 542.24 323.08 542.35 323 542.51Z" fill="#5D4DA3"/>
<path d="M239.57 570.37L239.16 571.02C239.35 570.88 239.47 570.63 239.57 570.37Z" fill="#5D4DA3"/>
<path d="M296.28 547.75C296.36 547.72 296.44 547.68 296.51 547.63C296.4 547.65 296.33 547.69 296.28 547.75Z" fill="#5D4DA3"/>
<path d="M448.37 554.79C448.42 554.86 448.49 554.9 448.55 554.96C448.61 554.84 448.61 554.74 448.37 554.79Z" fill="#5D4DA3"/>
<path d="M427.44 565.43L427.43 565.44C427.44 565.44 427.44 565.43 427.44 565.43Z" fill="#5D4DA3"/>
<path d="M428.51 564.93C428.24 564.75 427.75 565.06 427.44 565.43C427.74 565.49 428.04 565.43 428.51 564.93Z" fill="#5D4DA3"/>
<path d="M425.5 564.75C425.53 564.78 425.56 564.8 425.6 564.84C425.56 564.8 425.53 564.77 425.5 564.75Z" fill="#5D4DA3"/>
<path d="M443.94 569.9C443.94 569.88 443.95 569.86 443.95 569.84C443.94 569.86 443.93 569.87 443.94 569.9Z" fill="#5D4DA3"/>
<path d="M440.24 569.09C440.2 568.97 440.13 568.87 440.04 568.79C440.08 568.91 440.14 569.02 440.24 569.09Z" fill="#5D4DA3"/>
<path d="M415.96 564.66L415.97 564.64C415.96 564.64 415.96 564.65 415.95 564.64L415.96 564.66Z" fill="#5D4DA3"/>
<path d="M380.45 564.83C383.97 564.75 388.62 563.9 392.08 564.61C392.95 563.53 394.06 563.6 395.2 563.45L395.16 564.99L396.14 564.59C396.47 565.09 395.4 564.81 396 565.45L396.45 564.54C396.47 565.07 398.78 565.18 397.11 566.08L400.69 566.52C401.48 566.66 401.31 565.31 402.14 565.79C402.26 566.26 401.79 566.06 401.79 566.61C404.27 568.07 405.22 564.01 407.59 565.08L407.35 565.25C407.83 564.91 408.62 565.08 408.66 564.86C408.56 563.28 408.1 565.62 407.48 564.61C407.73 563.33 408.52 564.05 408.61 563.07C409.12 563.62 409.57 562.94 410.09 562.94C410.83 563.87 412.15 563.48 412.65 564.59C413.13 564.25 413.8 563.05 414.72 563.14C415.21 564.25 414.41 564.07 415.23 564.6L415.49 563.88C416.19 564.12 416.05 564.31 415.96 564.66C416.73 564.83 416.77 563.75 417.66 564.4L417 565.03C417.76 564.87 418.03 565.05 419.02 565.29C418.92 565.71 418.53 565.62 418.26 565.44C418.61 566.64 419.27 565.12 419.54 565.29C419.51 564.95 418.85 564.68 419.31 564.01C419.78 564.23 420.54 563.19 420.74 564.12L420.07 564.74C421.21 564.34 420.79 563.91 421.92 564.4C421.85 564.45 421.84 564.63 421.79 564.79C422.71 563.97 423.54 565 424.63 565.29L424.38 565.45C424.87 565.29 425.24 564.67 425.48 564.77C424.93 564.22 425.14 564.04 425.22 563.31C425.82 564.7 426.77 562.15 428 563.14C427.89 563.56 427.46 564.01 427.18 563.48C426.47 564.64 426.21 565.7 425.27 566.12C425.84 565.93 426.48 565.88 426.25 566.38L426.64 565.25C426.96 565.28 427.19 565.4 427.43 565.45C427.71 564.74 427.03 564.12 427.86 563.78C428.76 563.56 428.06 565.06 428.29 564.56C429.51 564.32 429.01 563.4 430.02 564C429.89 564.08 429.64 564.23 429.57 564.11C430.25 564.73 431.53 564.28 431.47 565.73C431.29 566.02 431.18 566.44 430.91 566.26L430.97 566.05C429.91 566.9 431.74 565.92 431.21 567.12C431.31 566.36 432.36 566.74 432.82 566.99L432.85 566.1C435.03 563.9 432.4 567.78 434.08 567.81C435.23 567.46 433.75 567.48 434.5 567.02C435.16 567.32 435.25 568.14 436.34 568C436.55 568.4 437.02 568.99 436.85 569.96C437.55 569.71 438.61 570.8 439.17 569.95C438.31 568.91 437.9 570.72 436.96 569.2L437.51 568.34C438.35 568.58 439.54 568.35 440.05 568.82C439.97 568.61 439.98 568.36 440.1 568.18C441.39 568.09 441.96 567.26 443.07 567.83C443.02 568.72 442.37 568.4 441.85 568.35C442.44 569.22 442.63 568.6 443.73 569.17C443.61 569.93 442.95 568.93 442.64 569.63L443.99 569.72C443.97 569.76 443.97 569.82 443.95 569.87C444.44 568.67 444.91 570.22 445.8 570.05C447.67 570.52 448.38 568.92 449.69 568.19C449.89 568.59 449.89 568.93 449.69 569.21C449.37 568.54 449.34 569 449.09 569.28C449.76 569.31 450.17 570.85 449.68 571.26C450.78 571.17 449.49 570.51 450.2 570.29L451.55 570.75C451.56 570.07 451.11 569.8 451.95 569.51C452.6 569.5 452.86 569.7 453.63 569.96C453.43 570.24 453.62 570.99 453.04 570.79C453.36 571.13 453.94 571.32 454.33 570.77C453.62 569.96 455.89 570.61 455.52 569.45L456.22 570.26C456.03 570.19 455.89 570.61 455.63 570.41C455.61 571.44 456.41 570.33 456.74 570.32C456.99 570.59 457.76 570.89 457.72 571.27C458.07 571.08 458.67 571.47 458.66 571.99C459.12 571.92 458.87 571.37 459.07 571.1L460.42 571.59C460.34 572.14 460.03 573.65 459.77 573.78C460.43 573.44 460.4 572.27 461.17 572.55C460.43 573.44 461.97 573.65 460.97 574.67C461.2 575.56 462.47 575.9 463.25 575.84C463.92 575.16 462.63 575.16 462.92 574.34C464.98 574.62 465.79 572.37 467.12 573.2L466.81 572.86C467.86 572.66 467.73 572.73 468.47 572.19C467.91 573.14 468.64 575.28 470.18 575.53C470.47 575.05 469.66 574.28 470.16 573.54L471.19 573.7C471.24 573.81 471.07 573.94 470.9 574.03C471.9 573.95 472.12 575.89 472.75 574.77L473.16 576.56L473.01 575.81C473.29 575.34 474.33 575.51 474.6 575.37C475.79 575.13 476.02 575.69 476.35 576.51C476.31 576.03 476.19 574.93 477.04 575.03C476.48 576.68 478.49 576.21 478.18 577.06C478.51 577.15 478.9 577.86 479.16 577.19L478.76 578.2C479.32 576.79 480.46 577.25 481.43 577.3C480.56 579.18 482.46 577.49 482.24 579.39C482.87 578.13 484 579.41 484.55 578.34C485.26 578.51 484.76 579.72 484.78 580.2L485.27 579.82C485.39 580.56 486.63 581.12 487.24 581.82L488.36 580.92L488.43 581.54C488.65 581.29 489.3 581.33 489.09 580.76L489.45 580.97C489.94 579.71 490.11 580.82 491.08 580.56C491.18 580.83 491.02 581.11 490.8 581.22C491.18 581.37 490.77 581.96 490.83 582.46C490.68 582.04 493.04 580.7 492.22 579.75C492.34 579.21 493.08 579.05 493.37 579.42L493.18 580.64L494.08 579.61C494.73 579.66 494.71 580.48 495.14 580.79C494.63 580.67 493.24 582.55 494.5 583.01C493.79 582.9 493.23 583.41 492.8 583.53C493.04 583.67 493.13 583.83 492.55 584.16C493.66 584.17 493.14 583.58 494.15 583.81C493.71 584.8 493.86 585.23 494.56 585.91L494.22 584.92C494.3 584.81 494.37 584.74 494.44 584.69C494.24 584.49 494.24 584.3 494.33 583.89C494.51 583.97 495.92 583.07 495.85 583.75C495.48 581.79 498.01 583.19 497.76 582C497.98 581.75 498.68 581.95 498.56 582.49C497.46 582.94 498.72 583.88 498.32 584.53C498.73 584.36 497.98 583.53 498.53 583.31C499.04 583.43 499.15 584.19 499.29 584.61L499.02 584.72L499.58 585.46C499.9 585.01 499.2 584.33 499.98 584.33C500.08 584.61 500.86 584.62 500.68 585.01C500.08 585.58 499.95 586.59 499.31 586.53C499.82 586.65 501.4 587.13 501.15 585.94L501.71 586.2C501.52 585.63 500.81 584.47 502.02 584.79L501.93 584.99L503.04 584.54L503.18 585.2C503.27 584.94 503.49 584.76 503.78 584.9C503.74 585.23 503.97 585.47 503.78 585.86C504.66 586.16 504.8 585.63 505.03 585.38C505.54 585.51 505.63 585.79 505.17 586.29C505.77 586.7 506.97 587.04 507.2 587.76C508.27 587.67 507.11 587.47 507.9 587.01C507.93 589.08 510.53 588.87 512.05 589.27C512.31 587.58 512.51 589.27 513.37 587.99C512.86 588.34 514.22 589.76 512.79 589.64L513.62 589.81C513.78 590.87 512.1 589.89 512.39 591.38C513.26 591.7 514.54 590.28 515.3 591.28C514.5 592.21 516.23 591.26 515.46 592.33C515.08 592.63 514.86 592.39 514.54 592.35L514.62 592.64C516.35 593.76 515.71 591.61 517.01 591.3C518.21 591.66 517.54 592.54 517.38 593.07C517.46 593.36 518.11 593.44 518.53 593.29C517.55 593.64 517.54 592.06 518.16 591.52C518.12 592.96 519.81 592.36 520.33 592.01C519.27 590.01 519.23 591.46 518.31 589.4C517.93 589.69 517.48 590.81 516.76 589.95C517.57 589.66 516.99 589.32 516.9 589.07C516.8 589.78 516.15 589.05 515.75 589.19C515.72 588.56 516.94 587.97 516.11 587.31L515.29 588.72C515.02 588.34 515.92 587.7 514.99 587.71C515.74 587.12 515.38 586.45 516.54 586.67C515.83 584.85 514.31 586.51 513.1 586.63C513.24 586.58 513.34 586.39 513.48 586.33C513.1 586.63 512.74 586.44 512.41 586.4C511.9 585.79 513.21 585.94 513.21 585.46L512.14 585.06C512.14 585 512.15 584.97 512.16 584.94C511.8 585.03 511.48 585.06 511.53 584.64C512.05 584.29 512.38 583.84 512.76 583.54L511.21 584.12C511.54 583.68 510.65 582.89 511.59 582.86L509.86 582.39L510.14 581.32C509.67 581.34 509.58 581.53 510 581.85C509.53 581.38 506.78 582.59 507.89 580.72C506.26 581.02 505.93 580.48 504.16 580.37C505.75 579.91 503.24 578.64 504.7 578.71C504.12 577.97 503.53 579.01 502.87 578.95C502.48 578.3 503.12 577.4 503.88 577.26L502.99 577.45L503.08 577.25L502.24 577.58C501.8 576.78 502.5 576.51 501.88 576.1L501.38 576.94L501.13 576.23C501.14 576.71 500.67 576.74 500.15 576.62L500.24 576.42L499.58 576.36C500.38 576.04 499.11 575.95 499.63 575.41C499.14 575.17 499.12 575.17 498.14 574.98L498.07 575.66C496.67 575.73 498.37 574.72 497.42 574.29L497.21 575.03C496.26 573.29 494.57 574.83 493.82 573.67C494.48 573.72 494.63 572.84 494.55 573.04C493.56 572.97 492.16 572.24 490.92 572.77C490.96 571.61 490.99 571.27 490.2 570.45C489.48 570.26 489.34 570.32 488.9 570.84C488.37 570.18 486.89 570.36 487.12 569.58C486.75 570.13 486.55 569.25 486 569.63L486.03 569.29L485.84 570.03C485.19 568 483.5 570.24 482.77 568.42L483.04 568.3L482.43 568.41C482.46 568.07 482.73 567.94 482.89 567.54L480.56 566.59L480.85 567.29C480.32 567.19 479.76 567.77 479.33 567.14C480.64 566.37 478.55 566.84 478.67 565.96L479.28 565.84C478.56 565.68 478.56 565.68 478.37 566.43C477.38 566.39 478.2 564.85 477.1 565.36L477.69 565.59C477.73 566.07 477.11 566.53 476.71 566.38C476.65 566.24 476.47 565.82 476.81 565.83C476 565.88 475.05 565.16 474.64 565.35C474.32 565 474.61 564.52 474.89 564.4C473.15 564.55 474.24 564.04 472.5 564.18L472.65 563.77L471.97 564.1L471.49 562.98L471.6 563.6C471.07 563.51 470.67 563.7 470.15 563.29L470.58 562.75C469.04 562.66 469.23 561.23 467.61 561.68C467.55 561.54 467.82 561.41 467.96 561.34C466.41 561.93 467.33 559.96 465.71 560.76C465.85 560.58 465.78 560.28 465.89 560.12L465.19 560.35L465.48 559.53L464.65 560.62L464.54 559.66L464.2 559.99C464.04 558.21 462.82 559.14 462.3 557.71L462.15 558.81C459.39 560.41 457.56 556.24 454.68 556.54L454.95 555.72L453.62 556.41C453.22 555.59 454.15 555.79 454.08 555.31C452.81 555.47 453.28 556.42 451.87 556.33C451.33 555.59 452.27 555.77 452.67 555.55C451.3 555.65 449.33 555.65 448.55 554.96C448.5 555.07 448.41 555.2 448.44 555.26C447.51 555.43 446.49 554.78 445.55 554.6C445.66 554.22 445.91 554.21 446.16 554.19C445.84 554.06 445.45 553.68 445.07 554L445.59 553.36C444.91 553.03 443.38 553.38 443.42 552.49C443.43 552.84 443.25 553.46 442.64 553.28C442.59 551.91 440.83 553.45 440 552.53C440.19 552.25 440.93 552.35 440.73 552.28C440.31 551.83 439.73 552.33 439.2 552.64L439.45 552.15L436.98 552.35C436.91 550.98 434.76 552.05 435.11 551.15C434.29 550.94 435.69 551.86 434.61 551.8C434.44 551.2 433.61 551.88 433.82 551.04L433.95 550.96L433.2 550.88L433.83 550.14C433.16 550.19 432.53 550.93 432.37 551.56C431.87 550.98 430.94 551.19 430.82 550.38L431.08 550.22C429.33 550.22 428.73 547.37 427.13 548.53C427.05 548.39 427.1 548.18 427.31 548.23L426.27 547.98L426.64 547.39L424.73 548.06L424.83 547.64C423.71 547.27 421.88 547.18 420.38 547.05L420.63 546.89C418.91 547.27 419.14 546.21 417.89 546.48C417.95 546.37 418 546.34 418.04 546.32C417.69 546.26 417.33 546.21 416.97 546.17L417.27 545.79C416.34 546.6 415.2 544.25 415.56 545.11C415.05 545.45 414.21 545.83 413.99 546.34C412.82 546.21 413.79 545.75 413.12 545.28C412.28 545.11 412.03 545.83 410.95 545.28L411.03 544.85C410.49 544.85 410.11 545.11 409.36 545.06L409.61 544.89C408.28 545.61 408.27 543.4 407.06 545.17C406.6 544.76 405.59 544.91 405.75 544.05C404.16 544.42 402.96 544.54 401.41 544.7C401.33 543.25 401.08 544.75 400.26 543.83L400.24 544.6C398.11 544.44 395.85 542.36 393.46 542.43L393.47 541.66L392.92 542.45C390.42 541.81 387.14 541.31 385.11 541.15C384.42 541.5 383.35 542.35 382.31 542L382.43 541.9C380.57 542.19 378.61 542.46 376.63 541.93C376.77 541.61 376.58 541.38 376.81 541.18C376.3 542 375.63 541.17 375.2 541.13L375.68 541.72C375.08 542.42 374.29 541.69 374.02 541.11L373.09 541.89C373.03 541.81 372.95 541.69 372.94 541.57L372.77 541.97L372.32 540.94C372.09 541.13 370.88 541.36 370.49 542.32C370.41 541.98 369.58 541.71 370.23 541.54L366.93 541.18L367.44 541.55C367.49 542.31 366.49 542.78 365.99 542.42C366.67 541.82 366.06 541.34 365.78 540.77C365.33 541.17 366.16 541.45 365.92 541.87C365.35 542.37 364.16 542.61 363.86 542.27L364.2 541.97C363.43 542.24 363.09 540.9 362.33 540.96C361.65 541.58 361.15 541.02 361.29 542.33C360.31 542.61 360.91 541.44 360.59 541.32C360.13 541.95 358.76 541.56 358.58 540.9C358.06 542.83 355.93 540.24 355.75 541.86L354.93 540.95C354.91 541.38 354.77 542.36 354.13 542.54C353.51 542.08 353.63 541.32 353.44 540.88L353.07 542.5C351.28 541.7 349.22 541.64 347.12 541.61C346.07 541.6 345.01 541.59 343.96 541.52C342.91 541.47 341.88 541.34 340.89 541.05C339.17 541.51 337.05 542.39 335.01 542.31L335.22 542.09L333.17 541.84L334.69 542.44C334.27 542.67 333.95 543.01 333.53 543.03C331.28 542.57 328.24 542.03 325.62 543.12C324.08 545.18 324.27 541.63 322.74 543.19C322.86 543 322.88 542.73 322.99 542.54C321.25 543.38 320.31 543.82 318.65 545.12C318.61 543.27 317.48 545.31 317.51 544.33L317.46 545.09C317 544.68 316.03 544.67 316.09 544.12L315.43 545.17L315.25 544.42C314.18 544.52 312.02 545.5 311.22 544.05C308.78 545.56 304.63 545.98 301.3 546.31C300.96 547.01 300.02 547.24 299.29 547.44L298.32 546.7C297.62 547.14 297.06 548.44 296.24 548.02C296.22 547.92 296.24 547.83 296.27 547.77C295.55 548.12 294.71 547.8 294.18 548.78C293.33 548.92 292.41 548.62 292.48 547.74C292.73 549.24 290.65 547.92 290.65 547.92C290.65 547.92 290.48 547.94 290.15 547.99C289.82 548.03 289.35 548.1 288.74 548.22C287.53 548.44 285.78 548.76 283.66 549.18C282.6 549.39 281.44 549.62 280.21 549.89C278.99 550.19 277.7 550.51 276.34 550.85C274.99 551.21 273.59 551.58 272.14 551.96C270.7 552.35 269.25 552.84 267.76 553.32C255.9 557.09 243.45 563.33 240.26 569.27C240.23 570.09 239.52 570.92 240.22 571.59C239.64 572.14 238.78 571.07 238.95 571.81C240.1 571.86 239.44 573.71 240.74 574.17L240.22 574.59C240.31 575.13 240.78 573.7 241.02 574.64L240.62 573.29C241.18 573.28 241.56 573.44 241.92 573.8C242.15 573.11 241.69 571.24 243.09 571.55L242.83 571.75C243.69 571.33 243.72 572.35 243.99 572.49L243.79 572.56L244.8 572.9C244.06 572.7 243.59 574.14 244.04 573.86C245.23 573.78 243.64 573.66 244.35 573.17C244.81 572.9 244.96 573.64 245.11 574.05L245.96 573.63C246.18 574.24 245.37 573.84 245.99 574.31L246.81 573.21C247.64 574.65 247.7 571.97 248.78 573.2C248.14 573.89 249.06 573.68 249.14 574.23C249.76 573.92 250.4 573.65 251.03 573.37C251.3 573.51 250.71 574.04 250.97 573.85C251.5 574.13 251.42 573.25 251.62 573.18C251.95 573.53 253.06 572.6 253.4 573.64C254.97 573.81 253.45 572.14 254.9 572.24C255.3 572.8 253.99 572.76 254.78 573.19L255.96 572.47C255.96 572.82 256.1 573.57 255.57 573.62C259.29 573.08 262.33 575.76 265.13 573.82C265.83 574.41 264.99 574.43 264.85 575.03C266.76 573.26 268.56 575.51 270.45 574.83L270.28 574.2C271.94 574.73 273.47 574.46 275 574.03C276.53 573.6 278.07 573.01 279.71 573L279.22 572.67C279.46 571.95 280.12 571.69 280.55 571.27C280.72 571.56 280.57 572.71 281.38 572.2C281.13 572.03 280.69 571.9 280.72 571.56C282.27 572.01 284.38 571.72 286.69 571.32C289.01 570.96 291.5 570.44 293.76 570.29C296.63 569.35 299.76 568.91 302.85 568.43C305.96 568.05 309.05 567.69 311.93 566.97C311.05 567.16 311.16 565.52 311.89 565.78C314.17 568.18 315.01 564.83 317.18 566.37C320.46 564.93 323.82 566.98 326.74 564.48L326.89 565.24C327.4 565.53 327.47 564.98 327.96 564.84L327.97 565.06C329.18 565.21 330.53 564.31 331.25 564.61L331.21 563.74C331.91 563.6 331.64 564.37 332.31 563.81L332.33 564.24L333.09 563.34C333.15 564.86 335.09 563.27 335.71 563.9C336.59 563.52 338.28 562.77 339.69 562.98C340 563.74 341.7 563.62 342.8 563.94C344.89 563.57 347.89 563.23 350.59 563.4L350.51 562.42L351.21 562.33C351.21 562.55 351.31 562.66 351.2 562.76C351.78 563.86 352.81 562.35 353.39 563.02C353.01 562.14 352.89 562.9 352.49 562.89C351.9 562.44 352.42 561.47 353.22 561.93L353.21 562.15L353.73 561.61C353.81 562.37 354.3 562.73 354.38 563.49C356.68 563.29 358.24 561.95 360.64 562.29C360.4 563.15 362.36 562.05 361.88 563.55C363.31 562.98 361.65 562.35 362.3 561.29C362.7 561.32 363.13 560.92 363.2 561.47C363.01 561.82 363.52 562.38 363.19 562.51L364.15 562.41C364.24 562.53 364.03 562.73 363.92 562.83C365.88 562 367.36 563.86 369.13 563.02C369.27 562.49 368.44 562.86 368.58 562.32C370.37 561.27 370.11 563.29 371.78 562.59L371.42 563.32C371.97 562.83 372.22 562.2 373.07 562.84C373.19 563.73 372.3 563.52 371.87 563.91C372.47 563.97 373.99 563.81 373.56 563C374.29 562.75 374.52 563.54 374.9 563.79C374.92 563.58 374.25 563.18 374.69 562.79C375.65 563.33 377.15 563.37 378.34 563.5C378.32 563.72 378.38 564.05 378.27 564.15C379.33 563.05 379.13 564.97 380.45 564.83Z" fill="#5D4DA3"/>
<path d="M444.38 570.14L443.94 569.89C443.89 570.08 443.82 570.29 443.55 570.44L444.38 570.14Z" fill="#5D4DA3"/>
<path d="M421.81 564.77C421.74 564.83 421.67 564.88 421.6 564.97C421.71 564.96 421.77 564.87 421.81 564.77Z" fill="#5D4DA3"/>
<path d="M416 565.33C416.43 565.21 416.11 564.92 415.95 564.67C415.92 564.84 415.89 565.05 416 565.33Z" fill="#5D4DA3"/>
<path d="M457.72 571.24C457.61 571.3 457.53 571.4 457.5 571.58C457.65 571.45 457.71 571.34 457.72 571.24Z" fill="#5D4DA3"/>
<path d="M492.26 583.19C492.23 583.13 492.2 583.1 492.17 583.02C492.17 583.08 492.21 583.14 492.26 583.19Z" fill="#5D4DA3"/>
<path d="M490.83 581.21C490.74 581.17 490.61 581.16 490.4 581.18C490.56 581.29 490.7 581.27 490.83 581.21Z" fill="#5D4DA3"/>
<path d="M449.08 569.25C448.94 569.25 448.8 569.28 448.64 569.43C448.85 569.46 448.98 569.36 449.08 569.25Z" fill="#5D4DA3"/>
<path d="M489.94 581.22L489.49 580.96C489.47 581.01 489.45 581.05 489.42 581.12L489.94 581.22Z" fill="#5D4DA3"/>
<path d="M492.83 583.51C492.65 583.42 492.4 583.32 492.26 583.19C492.42 583.5 492.6 583.57 492.83 583.51Z" fill="#5D4DA3"/>
<path d="M470.92 574C470.9 574.01 470.88 574 470.86 574C470.37 574.24 470.65 574.17 470.92 574Z" fill="#5D4DA3"/>
<path d="M487.33 581.86L487.28 581.8L487.06 581.98L487.33 581.86Z" fill="#5D4DA3"/>
<path d="M494.76 584.61C494.66 584.59 494.57 584.6 494.47 584.67C494.53 584.73 494.61 584.79 494.7 584.87C494.72 584.75 494.74 584.68 494.76 584.61Z" fill="#5D4DA3"/>
<path d="M477.8 577.65C478.04 577.39 478.16 577.2 478.22 577.04C478.05 576.99 477.9 577.1 477.8 577.65Z" fill="#5D4DA3"/>
<path d="M38.29 247.26L173.69 196.04L151.83 119.86C149.43 111.49 140.43 106.92 132.26 109.91L12.85 153.59C4.61 156.61 0.710003 166.02 4.39 173.98L38.29 247.26Z" stroke="#2C3E50" stroke-width="5" stroke-miterlimit="10"/>
<path d="M350.31 532.35L132.48 614.75" stroke="#2C3E50" stroke-width="5" stroke-miterlimit="10"/>
<path d="M190.16 241.72L60.98 290.59L76.05 484.05C76.88 494.76 86.04 502.93 96.78 502.47C156.41 499.94 204.44 523.75 241.48 572.55C235.88 510.4 257.44 461.4 303.5 424.28C311.89 417.52 313.38 405.31 306.9 396.7L190.16 241.72Z" stroke="#2C3E50" stroke-width="5" stroke-miterlimit="10"/>
<path d="M357.32 537.2C361.462 537.2 364.82 533.842 364.82 529.7C364.82 525.558 361.462 522.2 357.32 522.2C353.178 522.2 349.82 525.558 349.82 529.7C349.82 533.842 353.178 537.2 357.32 537.2Z" stroke="#2C3E50" stroke-width="5" stroke-miterlimit="10"/>
<path d="M125.47 624.9C129.612 624.9 132.97 621.542 132.97 617.4C132.97 613.258 129.612 609.9 125.47 609.9C121.328 609.9 117.97 613.258 117.97 617.4C117.97 621.542 121.328 624.9 125.47 624.9Z" stroke="#2C3E50" stroke-width="5" stroke-miterlimit="10"/>
<path d="M153.92 375.58C153.92 379.95 156.07 383.82 159.38 386.18C165.12 390.29 169.31 396.21 171.88 402.77C171.95 402.96 172.03 403.15 172.1 403.33C175.13 411.05 178.18 418.76 181.22 426.47L200.52 475.46L239.13 573.43L243.81 571.66L207.92 472.66L189.97 423.16C187.14 415.35 184.31 407.54 181.47 399.73C181.35 399.4 181.23 399.07 181.11 398.74C178.69 392.11 178.44 384.97 179.78 378.04C180.04 376.7 180.09 375.29 179.91 373.85C179.15 367.94 174.3 363.21 168.37 362.6C160.52 361.8 153.92 367.92 153.92 375.58Z" fill="#453396"/>
<path d="M49.41 298.53L199.28 241.84C203.73 240.15 205.98 235.18 204.29 230.72L191.05 195.72C189.36 191.27 184.39 189.02 179.93 190.71L30.07 247.4C25.62 249.09 23.37 254.06 25.06 258.52L38.3 293.52C39.98 297.97 44.96 300.22 49.41 298.53Z" fill="#FDCF00"/>
<path d="M248.66 548.52L219.54 559.54C216.81 560.57 215.44 563.62 216.47 566.34L227.49 595.46C228.52 598.19 231.57 599.56 234.29 598.53L263.41 587.51C266.14 586.48 267.51 583.43 266.48 580.71L255.46 551.59C254.43 548.86 251.38 547.49 248.66 548.52Z" fill="#2C3E50"/>
<path d="M241.47 585.59C248.672 585.59 254.51 579.752 254.51 572.55C254.51 565.348 248.672 559.51 241.47 559.51C234.268 559.51 228.43 565.348 228.43 572.55C228.43 579.752 234.268 585.59 241.47 585.59Z" fill="#FDCF00"/>
</g>
<defs>
<clipPath id="clip0">
<rect width="522.57" height="521.4" fill="white" transform="translate(0 106)"/>
</clipPath>
</defs>
</svg>
