<svg width="769" height="536" viewBox="0 0 769 536" fill="none" xmlns="http://www.w3.org/2000/svg">
<g clip-path="url(#clip0)">
<path d="M135.18 129.95C138.82 129.95 141.77 127 141.77 123.36C141.77 119.72 138.82 116.77 135.18 116.77C131.54 116.77 128.59 119.72 128.59 123.36C128.59 127 131.54 129.95 135.18 129.95Z" stroke="#2C3E50" stroke-width="5" stroke-miterlimit="10"/>
<path d="M159.5 129.95C163.14 129.95 166.09 127 166.09 123.36C166.09 119.72 163.14 116.77 159.5 116.77C155.86 116.77 152.91 119.72 152.91 123.36C152.91 127 155.86 129.95 159.5 129.95Z" stroke="#2C3E50" stroke-width="5" stroke-miterlimit="10"/>
<path d="M183.82 129.95C187.46 129.95 190.41 127 190.41 123.36C190.41 119.72 187.46 116.77 183.82 116.77C180.18 116.77 177.23 119.72 177.23 123.36C177.23 127 180.18 129.95 183.82 129.95Z" stroke="#2C3E50" stroke-width="5" stroke-miterlimit="10"/>
<path d="M653.66 103.27H115.1V458.35H653.66V103.27Z" stroke="#2C3E50" stroke-width="5" stroke-miterlimit="10"/>
<path d="M315.79 326.38L438.68 203.49C445.85 206.95 453.26 209.82 460.64 212.01C470.66 214.99 480.63 216.72 489.84 216.99C490.48 217.01 491.06 217.29 491.47 217.77C491.89 218.25 492.08 218.86 492.01 219.49C485.97 272.22 468.6 348.56 387.85 403.95C353.94 380.69 331.21 353.73 315.79 326.38Z" fill="#2C3E50"/>
<path d="M626.02 137.69H597.19L599.66 126.93C599.73 126.55 600.07 126.27 600.46 126.27H622.75C623.14 126.27 623.48 126.55 623.57 126.98L626.02 137.69Z" fill="#2C3E50"/>
<path d="M539.21 102.96L442.49 199.68C458.6 207.22 475.55 211.56 489.98 211.99C492.01 212.05 493.93 212.96 495.25 214.49C496.58 216.02 497.2 218.05 496.97 220.06C490.8 274.07 472.91 352.43 389.25 409.04L387.85 409.99L386.45 409.04C351.5 385.4 328.03 357.95 312.1 330.07L183.82 458.35H653.66V102.96H539.21ZM621.41 159.96C617.25 159.96 613.79 156.95 613.09 153H610.13C609.42 156.95 605.96 159.96 601.81 159.96C597.14 159.96 593.35 156.17 593.35 151.5C593.35 146.84 597.14 143.04 601.81 143.04C605.96 143.04 609.42 146.05 610.12 150H613.09C613.79 146.05 617.25 143.04 621.41 143.04C626.07 143.04 629.87 146.84 629.87 151.5C629.87 156.17 626.07 159.96 621.41 159.96ZM633.66 140.69H589.55V137.69H594.11L596.72 126.31C597.06 124.57 598.64 123.27 600.46 123.27H622.75C624.57 123.27 626.15 124.57 626.5 126.35L629.1 137.69H633.66V140.69ZM621.41 146.04C618.4 146.04 615.95 148.49 615.95 151.5C615.95 154.51 618.4 156.96 621.41 156.96C624.42 156.96 626.87 154.51 626.87 151.5C626.87 148.49 624.42 146.04 621.41 146.04ZM601.81 146.04C598.8 146.04 596.35 148.49 596.35 151.5C596.35 154.51 598.8 156.96 601.81 156.96C604.82 156.96 607.26 154.51 607.26 151.5C607.26 148.49 604.82 146.04 601.81 146.04Z" fill="#2C3E50"/>
<path d="M390.06 153.49L387.85 149.24L385.63 153.49C367.47 188.34 319.62 210.99 285.71 211.99C283.69 212.05 281.77 212.96 280.44 214.49C279.12 216.02 278.49 218.05 278.72 220.06C282.32 251.51 289.89 291.21 312.1 330.07L315.79 326.38C294.5 288.61 287.19 250.08 283.69 219.49C283.62 218.86 283.81 218.25 284.22 217.77C284.64 217.29 285.22 217.01 285.86 216.99C304.28 216.45 325.71 210.08 344.66 199.52C363.58 188.98 378.75 174.98 387.85 159.77C396.94 174.98 412.11 188.98 431.04 199.52C433.55 200.92 436.1 202.24 438.68 203.49L442.49 199.68C420.73 189.51 400.5 173.51 390.06 153.49Z" fill="#2C3E50"/>
<path d="M539.21 102.96L576.09 66.0801V34.6401" stroke="#2C3E50" stroke-width="5" stroke-miterlimit="10"/>
<path d="M183.82 458.35L150.19 491.98V518.44" stroke="#2C3E50" stroke-width="5" stroke-miterlimit="10"/>
<path d="M576.09 66.08L600.73 41.44V17.5" stroke="#2C3E50" stroke-width="5" stroke-miterlimit="10"/>
<path d="M600.73 41.4399V72.6499" stroke="#2C3E50" stroke-width="5" stroke-miterlimit="10"/>
<path d="M576.09 34.6401C580.232 34.6401 583.59 31.2823 583.59 27.1401C583.59 22.998 580.232 19.6401 576.09 19.6401C571.948 19.6401 568.59 22.998 568.59 27.1401C568.59 31.2823 571.948 34.6401 576.09 34.6401Z" stroke="#2C3E50" stroke-width="5" stroke-miterlimit="10"/>
<path d="M600.73 17.5C604.872 17.5 608.23 14.1421 608.23 10C608.23 5.85786 604.872 2.5 600.73 2.5C596.588 2.5 593.23 5.85786 593.23 10C593.23 14.1421 596.588 17.5 600.73 17.5Z" stroke="#2C3E50" stroke-width="5" stroke-miterlimit="10"/>
<path d="M600.73 87.6499C604.872 87.6499 608.23 84.292 608.23 80.1499C608.23 76.0078 604.872 72.6499 600.73 72.6499C596.588 72.6499 593.23 76.0078 593.23 80.1499C593.23 84.292 596.588 87.6499 600.73 87.6499Z" stroke="#2C3E50" stroke-width="5" stroke-miterlimit="10"/>
<path d="M150.19 533.44C154.332 533.44 157.69 530.082 157.69 525.94C157.69 521.798 154.332 518.44 150.19 518.44C146.048 518.44 142.69 521.798 142.69 525.94C142.69 530.082 146.048 533.44 150.19 533.44Z" stroke="#2C3E50" stroke-width="5" stroke-miterlimit="10"/>
<path d="M10 353.91C14.1421 353.91 17.5 350.552 17.5 346.41C17.5 342.268 14.1421 338.91 10 338.91C5.85786 338.91 2.5 342.268 2.5 346.41C2.5 350.552 5.85786 353.91 10 353.91Z" fill="#42B9F8" stroke="#2C3E50" stroke-width="5" stroke-miterlimit="10"/>
<path d="M32.08 277.49C36.2221 277.49 39.58 274.132 39.58 269.99C39.58 265.848 36.2221 262.49 32.08 262.49C27.9379 262.49 24.58 265.848 24.58 269.99C24.58 274.132 27.9379 277.49 32.08 277.49Z" stroke="#2C3E50" stroke-width="5" stroke-miterlimit="10"/>
<path d="M60.52 241.24C64.6621 241.24 68.02 237.882 68.02 233.74C68.02 229.598 64.6621 226.24 60.52 226.24C56.3779 226.24 53.02 229.598 53.02 233.74C53.02 237.882 56.3779 241.24 60.52 241.24Z" fill="#2C3E50" stroke="#2C3E50" stroke-width="5" stroke-miterlimit="10"/>
<path d="M115.1 380.31H43.9L15.3 351.71" stroke="#2C3E50" stroke-width="5" stroke-miterlimit="10"/>
<path d="M99.86 380.31V273.07L65.82 239.04" stroke="#2C3E50" stroke-width="5" stroke-miterlimit="10"/>
<path d="M65.82 380.31V303.72L37.39 275.29" stroke="#2C3E50" stroke-width="5" stroke-miterlimit="10"/>
<path d="M758.75 149.9C762.892 149.9 766.25 146.542 766.25 142.4C766.25 138.258 762.892 134.9 758.75 134.9C754.608 134.9 751.25 138.258 751.25 142.4C751.25 146.542 754.608 149.9 758.75 149.9Z" fill="#49E59A" stroke="#2C3E50" stroke-width="5" stroke-miterlimit="10"/>
<path d="M712.54 329.99C716.682 329.99 720.04 326.632 720.04 322.49C720.04 318.348 716.682 314.99 712.54 314.99C708.398 314.99 705.04 318.348 705.04 322.49C705.04 326.632 708.398 329.99 712.54 329.99Z" fill="#FDCF00" stroke="#2C3E50" stroke-width="5" stroke-miterlimit="10"/>
<path d="M708.23 420.37C712.372 420.37 715.73 417.012 715.73 412.87C715.73 408.728 712.372 405.37 708.23 405.37C704.088 405.37 700.73 408.728 700.73 412.87C700.73 417.012 704.088 420.37 708.23 420.37Z" stroke="#2C3E50" stroke-width="5" stroke-miterlimit="10"/>
<path d="M653.66 176.3H724.85L753.45 147.76" stroke="#2C3E50" stroke-width="5" stroke-miterlimit="10"/>
<path d="M668.89 176.3V373.53L702.93 407.57" stroke="#2C3E50" stroke-width="5" stroke-miterlimit="10"/>
<path d="M692.93 176.3V302.89L707.23 317.19" stroke="#2C3E50" stroke-width="5" stroke-miterlimit="10"/>
</g>
<defs>
<clipPath id="clip0">
<rect width="768.75" height="535.94" fill="white"/>
</clipPath>
</defs>
</svg>
