<svg width="22" height="22" viewBox="0 0 22 22" fill="none" xmlns="http://www.w3.org/2000/svg">
<path fill-rule="evenodd" clip-rule="evenodd" d="M3.5 2C2.67157 2 2 2.67157 2 3.5V18.5C2 19.3284 2.67157 20 3.5 20H18.5C19.3284 20 20 19.3284 20 18.5V3.5C20 2.67157 19.3284 2 18.5 2H3.5ZM0 3.5C0 1.567 1.567 0 3.5 0H18.5C20.433 0 22 1.567 22 3.5V18.5C22 20.433 20.433 22 18.5 22H3.5C1.567 22 0 20.433 0 18.5V3.5Z" fill="#2C3E50"/>
<path fill-rule="evenodd" clip-rule="evenodd" d="M6.00012 8.74988C6.55241 8.74988 7.00012 9.19759 7.00012 9.74988V15.9999C7.00012 16.5522 6.55241 16.9999 6.00012 16.9999C5.44784 16.9999 5.00012 16.5522 5.00012 15.9999V9.74988C5.00012 9.19759 5.44784 8.74988 6.00012 8.74988Z" fill="#2C3E50"/>
<path fill-rule="evenodd" clip-rule="evenodd" d="M6 5C6.55228 5 7 5.44772 7 6V6.01216C7 6.56445 6.55228 7.01216 6 7.01216C5.44772 7.01216 5 6.56445 5 6.01216V6C5 5.44772 5.44772 5 6 5Z" fill="#2C3E50"/>
<path fill-rule="evenodd" clip-rule="evenodd" d="M11.0001 8.74988C11.5524 8.74988 12.0001 9.19759 12.0001 9.74988V15.9999C12.0001 16.5522 11.5524 16.9999 11.0001 16.9999C10.4478 16.9999 10.0001 16.5522 10.0001 15.9999V9.74988C10.0001 9.19759 10.4478 8.74988 11.0001 8.74988Z" fill="#2C3E50"/>
<path fill-rule="evenodd" clip-rule="evenodd" d="M11.0252 9.775C11.6816 9.11863 12.5719 8.74988 13.5001 8.74988C14.4284 8.74988 15.3186 9.11863 15.975 9.775C16.6314 10.4314 17.0001 11.3216 17.0001 12.2499V15.9999C17.0001 16.5522 16.5524 16.9999 16.0001 16.9999C15.4478 16.9999 15.0001 16.5522 15.0001 15.9999V12.2499C15.0001 11.8521 14.8421 11.4705 14.5608 11.1892C14.2795 10.9079 13.8979 10.7499 13.5001 10.7499C13.1023 10.7499 12.7208 10.9079 12.4395 11.1892C12.1582 11.4705 12.0001 11.8521 12.0001 12.2499C12.0001 12.8022 11.5524 13.2499 11.0001 13.2499C10.4478 13.2499 10.0001 12.8022 10.0001 12.2499C10.0001 11.3216 10.3689 10.4314 11.0252 9.775Z" fill="#2C3E50"/>
</svg>
