<svg width="54" height="24" viewBox="0 0 54 24" fill="none" xmlns="http://www.w3.org/2000/svg">
<path d="M0 23.9079V0H9.18064C11.2208 0 16.3211 0.191263 19.7639 3.634C21.294 5.16411 23.0153 7.84179 23.0153 12.2409C23.0153 14.7273 22.5691 17.915 19.9551 20.5289C18.5525 21.9953 15.7473 23.9079 11.412 23.9079H0ZM8.60685 16.6399H9.24439C10.2645 16.6399 11.7308 16.5762 12.9421 15.5561C13.771 14.8548 14.3447 13.6434 14.3447 12.1133C14.3447 10.5832 13.7072 9.30815 12.9421 8.54309C11.9221 7.58678 10.5195 7.39551 9.56316 7.39551H8.60685V16.6399Z" fill="#2C3E50"/>
<path d="M25.2467 23.9079V0H41.3766V6.56671H33.9173V8.79811H40.6753V15.046H33.9173V17.3412H41.5678V23.9079H25.2467Z" fill="#2C3E50"/>
<path d="M45.3293 23.9079V0H53.9999V23.9079H45.3293Z" fill="#2C3E50"/>
</svg>
