<svg xmlns="http://www.w3.org/2000/svg" viewBox="0 0 250.27 162.22"><defs><style>.cls-1{fill:#009245;}.cls-2{fill:#13070c;}</style></defs><g id="Layer_2" data-name="Layer 2"><g id="Layer_1-2" data-name="Layer 1"><path class="cls-1" d="M120.28,0V42.1a64.34,64.34,0,0,0-18.47-19.27Z"/><path class="cls-1" d="M148.46,22.81A64.43,64.43,0,0,0,130,42.19V0Z"/><path class="cls-1" d="M120.28,115.27v6.32L89.87,84.05c-.65-.82-1.27-1.68-1.85-2.57-.13-.19-.25-.4-.38-.61-.43-.7-.86-1.42-1.25-2.17-.12-.24-.25-.5-.36-.74-.39-.76-.74-1.56-1.07-2.36-.08-.21-.18-.41-.26-.62a39.32,39.32,0,0,1-1.8-6.32c-.07-.35-.13-.74-.18-1.1-.13-.69-.22-1.39-.3-2.11,0-.48-.1-1-.13-1.44,0-.25,0-.51-.05-.76a55.07,55.07,0,0,1,35,34A54.51,54.51,0,0,1,120.28,115.27Z"/><path class="cls-1" d="M168,63.25c0,.25,0,.51,0,.76-.05.48-.08,1-.15,1.44-.07.72-.17,1.42-.3,2.12-.05.37-.11.74-.17,1.09A38.34,38.34,0,0,1,165.57,75c-.08.21-.17.41-.25.62-.34.8-.69,1.6-1.06,2.36-.12.24-.25.5-.38.74-.38.75-.81,1.47-1.25,2.19-.12.19-.25.4-.38.59a27.41,27.41,0,0,1-1.85,2.57l-23.47,29-7,8.59v-6.34a54.46,54.46,0,0,1,3.07-18A55.08,55.08,0,0,1,168,63.25Z"/><path class="cls-1" d="M120.28,75.78V81.3a63.77,63.77,0,0,0-37.43-28,35.58,35.58,0,0,1,7-15.77l5.83-7.18A54.6,54.6,0,0,1,120.28,75.78Z"/><path class="cls-1" d="M167.44,53.35A64.85,64.85,0,0,0,130,81.41V76h0a54.88,54.88,0,0,1,24.58-45.61l5.83,7.2A35.48,35.48,0,0,1,167.44,53.35Z"/><path class="cls-2" d="M18.33,160.94a11.07,11.07,0,0,1-5.25,1.28,12.77,12.77,0,0,1-9.36-3.46,12.76,12.76,0,0,1,0-18,12.64,12.64,0,0,1,8.9-3.43,14.16,14.16,0,0,1,5.71,1.32V145a7.52,7.52,0,0,0-5.57-2.54,6.71,6.71,0,0,0-4.86,1.86,7.65,7.65,0,0,0-2.25,5.5,7.19,7.19,0,0,0,2.07,5.26,7.23,7.23,0,0,0,5.15,2,7.5,7.5,0,0,0,5.46-2.47Z"/><path class="cls-2" d="M28.23,137.85V157h7.4v4.65H22.73V137.85Z"/><path class="cls-2" d="M44.35,137.85v23.84H38.84V137.85Z"/><path class="cls-2" d="M48.56,161.69l3.83-23.84H57l5.94,14.26,5.93-14.26H73.4l3.83,23.84H71.72l-1.89-14.23-6,14.23H61.93l-6-14.23-1.89,14.23Z"/><path class="cls-2" d="M95.34,157.19h-9l-1.83,4.5H78.8l9.61-23.84h5l9.4,23.84H97.13ZM93.84,153l-2.93-8-3,8Z"/><path class="cls-2" d="M112.39,142.5v19.19h-5.51V142.5H101.7v-4.65h15.87v4.65Z"/><path class="cls-2" d="M133.94,142.5h-8v4.61h7.57v4.64H126V157h8v4.65H120.46V137.85h13.48Z"/><path class="cls-2" d="M137.58,150.4h9.15v4.5h-9.15Z"/><path class="cls-2" d="M159.52,137.85a9,9,0,0,1,6.26,2,7.34,7.34,0,0,1,2.32,5.79,7.64,7.64,0,0,1-2,5.61,8.11,8.11,0,0,1-6.07,2.11h-3.36v8.36h-5.51V137.85Zm-2.89,11h2a4.2,4.2,0,0,0,3-.89,3.32,3.32,0,0,0,.89-2.36,3.12,3.12,0,0,0-.89-2.32,4.27,4.27,0,0,0-3.07-.9h-1.86Z"/><path class="cls-2" d="M191.72,152a10.14,10.14,0,0,1-2.64,7.54c-2.29,2.36-4.94,2.71-7.44,2.71s-5.14-.35-7.43-2.71a10.1,10.1,0,0,1-2.64-7.54V137.85h5.5v14a5.64,5.64,0,0,0,1.25,4,5,5,0,0,0,6.65,0,5.64,5.64,0,0,0,1.25-4v-14h5.5Z"/><path class="cls-2" d="M209.23,143.68a5.81,5.81,0,0,0-4-1.72,3,3,0,0,0-2.32.82,2.14,2.14,0,0,0-.61,1.5,1.7,1.7,0,0,0,.53,1.33,9.73,9.73,0,0,0,3,1.35l1.78.68a9.46,9.46,0,0,1,3.25,1.83,5.92,5.92,0,0,1,1.76,4.43,8.53,8.53,0,0,1-2.11,5.89c-2.11,2.22-5.18,2.43-6.76,2.43a10.09,10.09,0,0,1-4.71-1,14.85,14.85,0,0,1-3.51-2.61l2.86-3.93a15.25,15.25,0,0,0,2.22,1.83,5.54,5.54,0,0,0,3,.85,3.79,3.79,0,0,0,2.5-.82,2.44,2.44,0,0,0,.86-1.93,2.1,2.1,0,0,0-.82-1.71,11.64,11.64,0,0,0-2.79-1.33l-2-.67a8.17,8.17,0,0,1-3.32-1.9,5.85,5.85,0,0,1-1.43-4.14,7.31,7.31,0,0,1,2.07-5.36,7.67,7.67,0,0,1,5.9-2.18,11.54,11.54,0,0,1,7.08,2.35Z"/><path class="cls-2" d="M222.1,146.93h9.5v-9.08h5.5v23.84h-5.5V151.57h-9.5v10.12h-5.51V137.85h5.51Z"/><path class="cls-2" d="M243.84,138.8v3.44h-1.08V138.8h-.94v-1h3v1Zm1.13,3.44.76-4.39h1l.95,2.41,1-2.41h.94l.68,4.39h-1.08l-.32-2.4-1,2.4h-.46l-1-2.4-.36,2.4Z"/></g></g></svg>