<svg width="651" height="651" viewBox="0 0 651 651" fill="none" xmlns="http://www.w3.org/2000/svg">
<rect width="651" height="651" fill="white"/>
<path d="M469.736 78.063C502.765 118.332 505.734 180.398 505.363 242.464C504.992 304.53 501.652 366.227 468.993 420.534C435.964 474.473 373.987 521.022 316.092 516.958C258.197 512.895 204.014 458.587 158.737 404.279C113.461 350.341 76.3488 296.402 77.091 243.572C78.2044 190.742 116.801 139.021 162.077 98.7517C207.725 58.4826 259.682 30.0357 317.205 24.8636C374.729 19.6914 437.077 37.794 469.736 78.063Z" fill="#49E69A"/>
<g clip-path="url(#clip0_62_3748)">
<path d="M219.427 535.411L245.099 579.886L270.78 624.362H219.427H168.074L193.746 579.886L219.427 535.411Z" fill="#FDCF00" stroke="#2C3E50" stroke-width="5" stroke-miterlimit="10"/>
<path d="M346.781 295.505H177.588V390.979H346.781V295.505Z" stroke="#2C3E50" stroke-width="5" stroke-miterlimit="10"/>
<path d="M524.245 398.942H426.225V490.83" stroke="#2C3E50" stroke-width="5" stroke-miterlimit="10"/>
<path d="M521.646 489.783H470.421L463.408 477.632L489.013 433.27L521.646 489.783Z" fill="#453396"/>
<path d="M470.421 489.783H434.036L452.229 458.272L463.408 477.632L470.421 489.783Z" fill="#9C47ED"/>
<path d="M453.253 437.368C460.988 437.368 467.257 431.098 467.257 423.364C467.257 415.63 460.988 409.36 453.253 409.36C445.519 409.36 439.249 415.63 439.249 423.364C439.249 431.098 445.519 437.368 453.253 437.368Z" stroke="#2C3E50" stroke-width="5" stroke-miterlimit="10"/>
<path d="M163.23 272.416C165.972 272.416 168.194 270.194 168.194 267.452C168.194 264.71 165.972 262.488 163.23 262.488C160.488 262.488 158.266 264.71 158.266 267.452C158.266 270.194 160.488 272.416 163.23 272.416Z" stroke="#2C3E50" stroke-width="5" stroke-miterlimit="10"/>
<path d="M181.55 272.416C184.292 272.416 186.515 270.194 186.515 267.452C186.515 264.71 184.292 262.488 181.55 262.488C178.809 262.488 176.586 264.71 176.586 267.452C176.586 270.194 178.809 272.416 181.55 272.416Z" stroke="#2C3E50" stroke-width="5" stroke-miterlimit="10"/>
<path d="M199.871 272.416C202.613 272.416 204.835 270.194 204.835 267.452C204.835 264.71 202.613 262.488 199.871 262.488C197.129 262.488 194.907 264.71 194.907 267.452C194.907 270.194 197.129 272.416 199.871 272.416Z" stroke="#2C3E50" stroke-width="5" stroke-miterlimit="10"/>
<path d="M553.805 252.318H148.104V519.802H553.805V252.318Z" stroke="#2C3E50" stroke-width="5" stroke-miterlimit="10"/>
<path d="M391.731 187.564C378.058 201.236 356.559 202.321 341.651 190.803L307.383 225.071C305.477 226.977 302.388 226.977 300.475 225.071C298.569 223.165 298.569 220.077 300.475 218.163L334.743 183.895C330.743 178.72 328.265 172.746 327.308 166.584C325.492 154.998 329.056 142.742 337.982 133.815C345.877 125.921 356.386 122.222 366.728 122.727C375.821 123.179 384.785 126.87 391.738 133.815C406.571 148.656 406.571 172.724 391.731 187.564Z" stroke="#2C3E50" stroke-width="5" stroke-miterlimit="10"/>
<path d="M318.238 214.208C316.332 216.114 313.244 216.114 311.338 214.208C309.432 212.302 309.432 209.206 311.33 207.3" stroke="#2C3E50" stroke-width="5" stroke-miterlimit="10"/>
<path d="M364.853 192.573C382.464 192.573 396.74 178.297 396.74 160.686C396.74 143.075 382.464 128.798 364.853 128.798C347.242 128.798 332.965 143.075 332.965 160.686C332.965 178.297 347.242 192.573 364.853 192.573Z" stroke="#2C3E50" stroke-width="5" stroke-miterlimit="10"/>
<path d="M177.588 390.979L346.773 295.505" stroke="#2C3E50" stroke-width="5" stroke-miterlimit="10"/>
<path d="M346.773 390.979L177.588 295.505" stroke="#2C3E50" stroke-width="5" stroke-miterlimit="10"/>
<path d="M406.36 413.202H177.588V431.522H406.36V413.202Z" fill="#FF7D7D"/>
<path d="M406.36 441.685H177.588V460.005H406.36V441.685Z" fill="#FF7D7D"/>
<path d="M406.36 470.167H177.588V488.488H406.36V470.167Z" fill="#FF7D7D"/>
<path d="M422.537 295.501V367.11H447.283V295.501H422.537Z" stroke="#2C3E50" stroke-width="5" stroke-miterlimit="10"/>
<path d="M461.02 295.508V343.245H485.766V295.508H461.02Z" stroke="#2C3E50" stroke-width="5" stroke-miterlimit="10"/>
<path d="M384.062 295.508V390.983H408.808V295.508H384.062Z" stroke="#2C3E50" stroke-width="5" stroke-miterlimit="10"/>
<path d="M499.503 295.5V319.372H524.249V295.5H499.503Z" stroke="#2C3E50" stroke-width="5" stroke-miterlimit="10"/>
<path d="M215.457 608.294C215.457 605.868 217.137 604.12 219.427 604.12C221.852 604.12 223.397 605.868 223.397 608.294C223.397 610.651 221.852 612.459 219.427 612.459C217.069 612.467 215.457 610.651 215.457 608.294ZM217.137 598.681L216.195 566.395H222.651L221.709 598.681H217.137Z" stroke="#2C3E50" stroke-width="5" stroke-miterlimit="10"/>
<path d="M637.934 481.128C637.934 501.173 621.685 517.422 601.64 517.422C581.594 517.422 565.345 501.173 565.345 481.128C565.345 461.082 581.594 444.826 601.64 444.826C606.114 444.826 610.401 445.632 614.356 447.116L601.64 481.128L637.497 475.463C637.784 477.308 637.934 479.199 637.934 481.128Z" stroke="#2C3E50" stroke-width="5" stroke-miterlimit="10"/>
<path d="M644.578 469.572L608.721 475.237L621.437 441.233C633.505 445.745 642.529 456.502 644.578 469.572Z" fill="#9C47ED" stroke="#2C3E50" stroke-width="5" stroke-miterlimit="10"/>
<path d="M321.982 503.968C324.79 503.968 327.067 501.691 327.067 498.883C327.067 496.075 324.79 493.798 321.982 493.798C319.174 493.798 316.897 496.075 316.897 498.883C316.897 501.691 319.174 503.968 321.982 503.968Z" stroke="#2C3E50" stroke-width="5" stroke-miterlimit="10"/>
<path d="M158.537 397.707C161.345 397.707 163.622 395.43 163.622 392.622C163.622 389.813 161.345 387.537 158.537 387.537C155.729 387.537 153.452 389.813 153.452 392.622C153.452 395.43 155.729 397.707 158.537 397.707Z" stroke="#2C3E50" stroke-width="5" stroke-miterlimit="10"/>
<path d="M299.044 288.733C301.852 288.733 304.129 286.456 304.129 283.648C304.129 280.84 301.852 278.563 299.044 278.563C296.236 278.563 293.959 280.84 293.959 283.648C293.959 286.456 296.236 288.733 299.044 288.733Z" stroke="#2C3E50" stroke-width="5" stroke-miterlimit="10"/>
<path d="M507.009 340.011C509.818 340.011 512.094 337.734 512.094 334.926C512.094 332.117 509.818 329.841 507.009 329.841C504.201 329.841 501.925 332.117 501.925 334.926C501.925 337.734 504.201 340.011 507.009 340.011Z" stroke="#2C3E50" stroke-width="5" stroke-miterlimit="10"/>
<path d="M321.982 503.968C320.543 536.051 297.138 568.18 254.599 576.466" stroke="#2C3E50" stroke-width="5" stroke-miterlimit="10"/>
<path d="M82.8596 433.217C99.3043 406.852 120.487 394.015 153.452 392.622" stroke="#2C3E50" stroke-width="5" stroke-miterlimit="10"/>
<path d="M304.121 283.648C331.308 279.754 359.602 247.052 347.888 207.308" stroke="#2C3E50" stroke-width="5" stroke-miterlimit="10"/>
<path d="M511.876 336.395C557.18 353.397 583.545 387.416 592.178 437.376" stroke="#2C3E50" stroke-width="5" stroke-miterlimit="10"/>
<path d="M48.554 422.355C24.1318 422.355 4.26709 442.227 4.26709 466.649C4.26709 491.071 24.1318 510.936 48.554 510.936C72.9763 510.936 92.841 491.071 92.841 466.649C92.841 442.227 72.9763 422.355 48.554 422.355ZM18.2108 457.075C19.3031 457.075 20.192 457.963 20.192 459.056C20.192 460.148 19.3031 461.037 18.2108 461.037C17.1185 461.037 16.2296 460.148 16.2296 459.056C16.2296 457.963 17.126 457.075 18.2108 457.075ZM16.3125 442.204V453.594C14.0526 454.385 12.4329 456.525 12.4329 459.048C12.4329 462.235 15.0243 464.834 18.2183 464.834C20.7419 464.834 22.8813 463.206 23.6723 460.954H26.919V462.988C26.919 468.05 28.3428 473.007 30.9417 477.293H9.50258C8.57601 473.903 8.07129 470.333 8.07129 466.649C8.07129 457.474 11.1448 448.999 16.3125 442.204ZM59.0476 480.148L48.5616 490.145L38.068 480.148C33.39 475.696 30.7157 469.444 30.7157 462.98V450.099C34.5802 449.338 37.6386 446.28 38.407 442.415H58.7161C59.4845 446.28 62.5354 449.338 66.4074 450.099V462.98C66.3999 469.444 63.7181 475.696 59.0476 480.148ZM10.7455 481.09H33.7214C34.2713 481.715 34.8363 482.325 35.4465 482.905L48.5616 495.403L61.6766 482.905C62.2793 482.325 62.8518 481.723 63.4017 481.09H71.7785C72.3586 482.747 73.6693 484.058 75.3341 484.646V496.977C68.1928 503.29 58.8216 507.132 48.5616 507.132C31.3184 507.132 16.5761 496.299 10.7455 481.09ZM77.2324 481.165C76.1402 481.165 75.2513 480.276 75.2513 479.184C75.2513 478.092 76.1402 477.203 77.2324 477.203C78.3247 477.203 79.2136 478.092 79.2136 479.184C79.2061 480.284 78.3247 481.165 77.2324 481.165ZM79.1308 493.135V484.646C81.3832 483.855 83.0103 481.715 83.0103 479.192C83.0103 476.005 80.4189 473.406 77.2249 473.406C74.7013 473.406 72.5619 475.033 71.771 477.286H66.1739C68.7728 473.007 70.1965 468.05 70.1965 462.98V446.483H68.2982C65.0063 446.483 62.332 443.801 62.332 440.517V438.611H34.7836V440.517C34.7836 443.801 32.1093 446.483 28.8174 446.483H26.919V457.15H23.6723C23.0922 455.493 21.7815 454.174 20.1242 453.594V437.865C27.4388 430.633 37.4879 426.159 48.5616 426.159C67.6127 426.159 83.6205 439.394 87.9068 457.142H70.2041V460.947H88.6375C88.9012 462.807 89.0443 464.706 89.0443 466.642C89.0443 476.774 85.3004 486.032 79.1308 493.135Z" fill="#2C3E50"/>
<path d="M58.6032 456.374L47.9138 467.071L41.4881 460.645L39.3562 462.777L47.9138 471.327L48.9759 470.265L50.0381 469.203L60.7351 458.506L58.6032 456.374Z" fill="#2C3E50"/>
</g>
<defs>
<clipPath id="clip0_62_3748">
<rect width="642.466" height="505.447" fill="white" transform="translate(4.26709 120.798)"/>
</clipPath>
</defs>
</svg>
