<svg width="651" height="651" viewBox="0 0 651 651" fill="none" xmlns="http://www.w3.org/2000/svg">
<rect width="651" height="651" fill="white"/>
<path d="M471.652 74.7812C505.12 115.585 508.129 178.476 507.752 241.366C507.376 304.257 503.992 366.773 470.9 421.802C437.431 476.457 374.631 523.625 315.967 519.507C257.304 515.389 202.4 460.36 156.522 405.331C110.644 350.676 73.0393 296.021 73.7914 242.489C74.9195 188.957 114.029 136.549 159.907 95.7446C206.161 54.9407 258.808 26.1159 317.095 20.875C375.383 15.6342 438.559 33.9772 471.652 74.7812Z" fill="#49E69A"/>
<g clip-path="url(#clip0_1_949)">
<path d="M218.018 538.204L244.032 583.27L270.053 628.336H218.018H165.983L191.996 583.27L218.018 538.204Z" fill="#FDCF00" stroke="#2C3E50" stroke-width="5" stroke-miterlimit="10"/>
<path d="M347.064 295.112H175.623V391.854H347.064V295.112Z" stroke="#2C3E50" stroke-width="5" stroke-miterlimit="10"/>
<path d="M526.885 399.922H427.563V493.032" stroke="#2C3E50" stroke-width="5" stroke-miterlimit="10"/>
<path d="M524.252 491.97H472.346L465.24 479.658L491.185 434.707L524.252 491.97Z" fill="#453396"/>
<path d="M472.346 491.97H435.478L453.912 460.041L465.24 479.658L472.346 491.97Z" fill="#9C47ED"/>
<path d="M454.951 438.859C462.787 438.859 469.141 432.506 469.141 424.669C469.141 416.832 462.787 410.479 454.951 410.479C447.114 410.479 440.76 416.832 440.76 424.669C440.76 432.506 447.114 438.859 454.951 438.859Z" stroke="#2C3E50" stroke-width="5" stroke-miterlimit="10"/>
<path d="M161.075 271.716C163.853 271.716 166.105 269.464 166.105 266.686C166.105 263.908 163.853 261.656 161.075 261.656C158.296 261.656 156.044 263.908 156.044 266.686C156.044 269.464 158.296 271.716 161.075 271.716Z" stroke="#2C3E50" stroke-width="5" stroke-miterlimit="10"/>
<path d="M179.638 271.716C182.416 271.716 184.669 269.464 184.669 266.686C184.669 263.908 182.416 261.656 179.638 261.656C176.86 261.656 174.608 263.908 174.608 266.686C174.608 269.464 176.86 271.716 179.638 271.716Z" stroke="#2C3E50" stroke-width="5" stroke-miterlimit="10"/>
<path d="M198.202 271.716C200.98 271.716 203.232 269.464 203.232 266.686C203.232 263.908 200.98 261.656 198.202 261.656C195.424 261.656 193.172 263.908 193.172 266.686C193.172 269.464 195.424 271.716 198.202 271.716Z" stroke="#2C3E50" stroke-width="5" stroke-miterlimit="10"/>
<path d="M556.838 251.351H145.747V522.389H556.838V251.351Z" stroke="#2C3E50" stroke-width="5" stroke-miterlimit="10"/>
<path d="M392.611 185.737C378.756 199.591 356.971 200.69 341.865 189.019L307.142 223.742C305.211 225.673 302.082 225.673 300.143 223.742C298.212 221.811 298.212 218.681 300.143 216.742L334.866 182.019C330.813 176.775 328.301 170.722 327.332 164.478C325.492 152.738 329.103 140.319 338.148 131.274C346.148 123.275 356.796 119.527 367.276 120.038C376.489 120.496 385.573 124.236 392.618 131.274C407.648 146.311 407.648 170.699 392.611 185.737Z" stroke="#2C3E50" stroke-width="5" stroke-miterlimit="10"/>
<path d="M318.142 212.735C316.211 214.666 313.081 214.666 311.15 212.735C309.219 210.804 309.219 207.667 311.142 205.735" stroke="#2C3E50" stroke-width="5" stroke-miterlimit="10"/>
<path d="M365.376 190.813C383.22 190.813 397.687 176.346 397.687 158.502C397.687 140.657 383.22 126.19 365.376 126.19C347.531 126.19 333.064 140.657 333.064 158.502C333.064 176.346 347.531 190.813 365.376 190.813Z" stroke="#2C3E50" stroke-width="5" stroke-miterlimit="10"/>
<path d="M175.623 391.854L347.056 295.112" stroke="#2C3E50" stroke-width="5" stroke-miterlimit="10"/>
<path d="M347.056 391.854L175.623 295.112" stroke="#2C3E50" stroke-width="5" stroke-miterlimit="10"/>
<path d="M407.434 414.372H175.623V432.936H407.434V414.372Z" fill="#FF7D7D"/>
<path d="M407.434 443.233H175.623V461.797H407.434V443.233Z" fill="#FF7D7D"/>
<path d="M407.434 472.094H175.623V490.658H407.434V472.094Z" fill="#FF7D7D"/>
<path d="M423.826 295.108V367.668H448.901V295.108H423.826Z" stroke="#2C3E50" stroke-width="5" stroke-miterlimit="10"/>
<path d="M462.82 295.114V343.486H487.895V295.114H462.82Z" stroke="#2C3E50" stroke-width="5" stroke-miterlimit="10"/>
<path d="M384.84 295.115V391.858H409.915V295.115H384.84Z" stroke="#2C3E50" stroke-width="5" stroke-miterlimit="10"/>
<path d="M501.814 295.106V319.296H526.889V295.106H501.814Z" stroke="#2C3E50" stroke-width="5" stroke-miterlimit="10"/>
<path d="M213.995 612.055C213.995 609.597 215.697 607.826 218.018 607.826C220.476 607.826 222.04 609.597 222.04 612.055C222.04 614.444 220.476 616.276 218.018 616.276C215.629 616.284 213.995 614.444 213.995 612.055ZM215.697 602.315L214.743 569.6H221.285L220.331 602.315H215.697Z" stroke="#2C3E50" stroke-width="5" stroke-miterlimit="10"/>
<path d="M642.084 483.2C642.084 503.512 625.62 519.976 605.308 519.976C584.996 519.976 568.531 503.512 568.531 483.2C568.531 462.888 584.996 446.416 605.308 446.416C609.842 446.416 614.185 447.233 618.193 448.736L605.308 483.2L641.642 477.46C641.932 479.33 642.084 481.246 642.084 483.2Z" stroke="#2C3E50" stroke-width="5" stroke-miterlimit="10"/>
<path d="M648.817 471.491L612.483 477.231L625.368 442.775C637.596 447.347 646.741 458.247 648.817 471.491Z" fill="#9C47ED" stroke="#2C3E50" stroke-width="5" stroke-miterlimit="10"/>
<path d="M321.935 506.344C324.781 506.344 327.088 504.037 327.088 501.191C327.088 498.346 324.781 496.039 321.935 496.039C319.09 496.039 316.783 498.346 316.783 501.191C316.783 504.037 319.09 506.344 321.935 506.344Z" stroke="#2C3E50" stroke-width="5" stroke-miterlimit="10"/>
<path d="M156.319 398.671C159.165 398.671 161.471 396.364 161.471 393.518C161.471 390.673 159.165 388.366 156.319 388.366C153.474 388.366 151.167 390.673 151.167 393.518C151.167 396.364 153.474 398.671 156.319 398.671Z" stroke="#2C3E50" stroke-width="5" stroke-miterlimit="10"/>
<path d="M298.692 288.25C301.538 288.25 303.845 285.943 303.845 283.097C303.845 280.252 301.538 277.945 298.692 277.945C295.847 277.945 293.54 280.252 293.54 283.097C293.54 285.943 295.847 288.25 298.692 288.25Z" stroke="#2C3E50" stroke-width="5" stroke-miterlimit="10"/>
<path d="M509.421 340.208C512.266 340.208 514.573 337.902 514.573 335.056C514.573 332.21 512.266 329.904 509.421 329.904C506.575 329.904 504.268 332.21 504.268 335.056C504.268 337.902 506.575 340.208 509.421 340.208Z" stroke="#2C3E50" stroke-width="5" stroke-miterlimit="10"/>
<path d="M321.935 506.344C320.477 538.853 296.761 571.409 253.657 579.805" stroke="#2C3E50" stroke-width="5" stroke-miterlimit="10"/>
<path d="M79.6366 434.653C96.2997 407.937 117.764 394.93 151.167 393.518" stroke="#2C3E50" stroke-width="5" stroke-miterlimit="10"/>
<path d="M303.837 283.097C331.385 279.151 360.055 246.015 348.186 205.743" stroke="#2C3E50" stroke-width="5" stroke-miterlimit="10"/>
<path d="M514.352 336.545C560.257 353.773 586.973 388.244 595.721 438.867" stroke="#2C3E50" stroke-width="5" stroke-miterlimit="10"/>
<path d="M44.8752 423.646C20.1286 423.646 0 443.782 0 468.529C0 493.276 20.1286 513.404 44.8752 513.404C69.6219 513.404 89.7505 493.276 89.7505 468.529C89.7505 443.782 69.6219 423.646 44.8752 423.646ZM14.1289 458.827C15.2357 458.827 16.1365 459.728 16.1365 460.835C16.1365 461.942 15.2357 462.842 14.1289 462.842C13.0221 462.842 12.1214 461.942 12.1214 460.835C12.1214 459.728 13.0298 458.827 14.1289 458.827ZM12.2054 443.76V455.301C9.91545 456.102 8.27432 458.27 8.27432 460.827C8.27432 464.056 10.9001 466.69 14.1366 466.69C16.6937 466.69 18.8615 465.041 19.663 462.758H22.9529V464.819C22.9529 469.949 24.3955 474.971 27.0289 479.315H5.30503C4.36616 475.88 3.85474 472.262 3.85474 468.529C3.85474 459.232 6.96906 450.645 12.2054 443.76ZM55.5082 482.208L44.8829 492.337L34.2499 482.208C29.5097 477.697 26.8 471.361 26.8 464.812V451.759C30.7158 450.988 33.8148 447.889 34.5934 443.973H55.1723C55.9509 447.889 59.0423 450.988 62.9658 451.759V464.812C62.9581 471.361 60.2407 477.697 55.5082 482.208ZM6.5645 483.162H29.8456C30.4028 483.795 30.9753 484.414 31.5936 485.001L44.8829 497.665L58.1722 485.001C58.7828 484.414 59.3629 483.803 59.9201 483.162H68.4082C68.996 484.841 70.3241 486.169 72.011 486.765V499.26C64.7748 505.657 55.2792 509.55 44.8829 509.55C27.4106 509.55 12.4726 498.573 6.5645 483.162ZM73.9346 483.238C72.8278 483.238 71.9271 482.337 71.9271 481.231C71.9271 480.124 72.8278 479.223 73.9346 479.223C75.0414 479.223 75.9421 480.124 75.9421 481.231C75.9345 482.345 75.0414 483.238 73.9346 483.238ZM75.8581 495.367V486.765C78.1405 485.963 79.7892 483.795 79.7892 481.238C79.7892 478.009 77.1634 475.376 73.927 475.376C71.3699 475.376 69.202 477.025 68.4006 479.307H62.7291C65.3626 474.971 66.8052 469.949 66.8052 464.812V448.095H64.8817C61.546 448.095 58.8362 445.378 58.8362 442.05V440.119H30.9218V442.05C30.9218 445.378 28.2121 448.095 24.8764 448.095H22.9529V458.904H19.663C19.0752 457.224 17.7471 455.889 16.0678 455.301V439.363C23.4795 432.035 33.6621 427.501 44.8829 427.501C64.1871 427.501 80.4075 440.912 84.7508 458.896H66.8129V462.751H85.4912C85.7583 464.636 85.9034 466.56 85.9034 468.521C85.9034 478.788 82.1097 488.169 75.8581 495.367Z" fill="#2C3E50"/>
<path d="M55.0579 458.118L44.2264 468.957L37.7154 462.446L35.5552 464.606L44.2264 473.269L45.3027 472.193L46.379 471.117L57.218 460.278L55.0579 458.118Z" fill="#2C3E50"/>
</g>
<defs>
<clipPath id="clip0_1_949">
<rect width="651" height="512.161" fill="white" transform="translate(0 118.084)"/>
</clipPath>
</defs>
</svg>
