<svg xmlns="http://www.w3.org/2000/svg" viewBox="0 0 118.38 127.14"><defs><style>.cls-1{fill:#13070c;}</style></defs><title>NWO-Monochrome-Triangle-With-TM-vector</title><g id="Layer_2" data-name="Layer 2"><g id="Layer_1-2" data-name="Layer 1"><path class="cls-1" d="M23.92,98.38l0,28.11h4.23V98.38Zm-5.59,8.93a33.06,33.06,0,0,0,.89,6.66h-.29a30.55,30.55,0,0,0-2.66-5L9.74,98.38H6.29l16.22,26.53,0-26.53H18.33ZM5.55,126.49H9.74v-9.57a34.15,34.15,0,0,0-.64-5.18h.3a36.14,36.14,0,0,0,1.94,3.67l7,11.08h3.54L5.6,99.88Zm-5.55,0H4.18l.05-28.11H0Z"/><path class="cls-1" d="M71.11,98.38l-9.86,28.11h3.91l9.91-28.11Zm-6.66,0-2.91,12.26a20.19,20.19,0,0,0-.63,4.51h-.22a29.73,29.73,0,0,0-.58-4L56.86,98.38H54l6.61,25.9,9.08-25.9Zm-18.34,28,0,.07H49.4L52.31,115a28.73,28.73,0,0,0,.42-3.84h.34a24.66,24.66,0,0,0,.54,3.84l2.66,11.46h3.45L52.91,99.81Zm2.91-28-3.08,12.05a22.38,22.38,0,0,0-.71,4.72H45a13.41,13.41,0,0,0-.46-3.45L41.43,98.38H36.28l9,25.71,6.56-25.71Zm-18.17,0,9.87,28.11h4l-9.86-28.1Z"/><path class="cls-1" d="M102.34,102.28a16,16,0,0,0-11.68-4.51A16,16,0,0,0,79,102.28a15.17,15.17,0,0,0,0,20.35,16,16,0,0,0,11.67,4.51,16,16,0,0,0,11.68-4.51,15.17,15.17,0,0,0,0-20.35ZM99,119.74a12.28,12.28,0,0,1-16.6,0,10.85,10.85,0,0,1,0-14.57,12.28,12.28,0,0,1,16.6,0,10.82,10.82,0,0,1,0,14.57Zm-8.3-16.43a10,10,0,0,0-7.32,2.82,9.48,9.48,0,0,0,0,12.65,10.92,10.92,0,0,0,14.65,0,9.48,9.48,0,0,0,0-12.65A10,10,0,0,0,90.66,103.31Zm3.67,13.34a5.41,5.41,0,0,1-7.33,0,5.93,5.93,0,0,1-1.6-4.17,6.27,6.27,0,0,1,1.6-4.22,4.84,4.84,0,0,1,3.66-1.43,5.08,5.08,0,0,1,3.67,1.43,5.72,5.72,0,0,1,1.6,4.22A5.88,5.88,0,0,1,94.33,116.65Z"/><path class="cls-1" d="M111.24,98.82v3.82H110V98.82h-1v-1h3.29v1Zm1.26,3.82.83-4.87h1.06l1.06,2.67,1.12-2.67h1.05l.76,4.87h-1.2l-.36-2.67-1.12,2.67h-.51L114.1,100l-.4,2.67Z"/><path class="cls-1" d="M53.13,59.28a7.16,7.16,0,0,1-6.4-10.36l6.4-12.8,6.4,12.8A7.16,7.16,0,0,1,53.13,59.28Z"/><path class="cls-1" d="M81.74,19.09A40.27,40.27,0,0,0,66.51,9.5l3.56,7.1A35.46,35.46,0,0,1,88.55,47.7a36,36,0,0,1-.37,5.12l3.54,7.09a40.55,40.55,0,0,0-10-40.82ZM68.34,79.68a35.35,35.35,0,0,1-30.42,0H28.34a40.47,40.47,0,0,0,49.58,0ZM24.52,19.09a40.53,40.53,0,0,0-7.8,46.3l3-6a35,35,0,0,1-2-11.71A35.49,35.49,0,0,1,42.45,13.93l3-6A40.21,40.21,0,0,0,24.52,19.09Z"/><path class="cls-1" d="M89.18,66.11l-2.93-5.86L63,13.67,60,7.83,56.36.48a.87.87,0,0,0-1.55,0l-6,12.07L22.4,65.3l-2.64,5.29-1.4,2.79a.87.87,0,0,0,.78,1.26H92.28a.73.73,0,0,0,.64-1ZM27.11,68.78,52.66,17.67a.72.72,0,0,1,1.3,0L79.51,68.78a.73.73,0,0,1-.64,1H27.75A.73.73,0,0,1,27.11,68.78Z"/></g></g></svg>