<svg xmlns="http://www.w3.org/2000/svg" viewBox="0 0 345.26 106.1"><defs><style>.cls-1{fill:#13070c;}</style></defs><g id="Layer_2" data-name="Layer 2"><g id="Layer_1-2" data-name="Layer 1"><path class="cls-1" d="M53.05,99.21A46.13,46.13,0,1,1,91.38,78.79l5,4.95a53,53,0,0,0-5.76-68.2,53,53,0,1,0-16.86,86.39,52.19,52.19,0,0,0,9.94-5.54l-5-5A46,46,0,0,1,53.05,99.21Z"/><path class="cls-1" d="M53.05,11A42,42,0,0,0,23.33,82.77a42.07,42.07,0,0,0,52.39,5.69l-5-5A35.12,35.12,0,1,1,83.39,70.79l5,5A42,42,0,0,0,53.05,11Z"/><path class="cls-1" d="M104.53,97.79,93.79,87l-4.9-4.89L86,79.21,81,74.3l-3-3c.42-.57.81-1.15,1.19-1.74s.74-1.22,1.08-1.84A31,31,0,1,0,67.67,80.41c.63-.34,1.24-.69,1.85-1.07s1.17-.77,1.74-1.19L79.12,86,82.06,89,87,93.85l10.75,10.76a4.82,4.82,0,0,0,3.41,1.41,5,5,0,0,0,1.82-.35,4.87,4.87,0,0,0,1.59-1.06A4.81,4.81,0,0,0,104.53,97.79Zm-30.39-33a23,23,0,0,1-1.31,2.1,24.24,24.24,0,0,1-6,6,24.13,24.13,0,1,1,7.36-8.13Z"/><path class="cls-1" d="M143.81,31.5a21.3,21.3,0,1,1,4.94,42.06c-14.15,0-24.71-13.89-19.82-28.62A20.4,20.4,0,0,1,143.81,31.5Zm5,33.32A12.57,12.57,0,1,0,136.53,52.9,12.36,12.36,0,0,0,148.77,64.82Z"/><rect class="cls-1" x="158.31" y="59.63" width="8.94" height="16.65" rx="4.47" transform="translate(-0.37 135.01) rotate(-45)"/><path class="cls-1" d="M335.13,33.17H333.8a.56.56,0,0,0-.55.56v5.59a.56.56,0,0,1-.56.56h-.84a.56.56,0,0,1-.55-.56V33.73a.56.56,0,0,0-.55-.56h-1.63a.55.55,0,0,1-.56-.55V32a.55.55,0,0,1,.56-.55h8.1a.54.54,0,0,1,.49.31l1.92,3.9a.56.56,0,0,0,1,0l1.86-3.9a.54.54,0,0,1,.5-.31h.83a.55.55,0,0,1,.55.48l.88,7.34a.55.55,0,0,1-.55.62h-.82a.55.55,0,0,1-.55-.5L343,36.67a.55.55,0,0,0-1-.17l-1,2.11a.56.56,0,0,1-.5.32h-.69a.56.56,0,0,1-.5-.32l-1-2.14a.55.55,0,0,0-1.05.17l-.34,2.75a.55.55,0,0,1-.55.49h-.81a.56.56,0,0,1-.55-.63l.68-5.45A.55.55,0,0,0,335.13,33.17Z"/><path class="cls-1" d="M199.63,58.13V35.32a3.89,3.89,0,0,1,3.89-3.88h1.08a3.89,3.89,0,0,1,3.89,3.88V58.13c0,9.4-7.54,15.43-16,15.43s-16.15-6-16.15-15.43V35.32a3.88,3.88,0,0,1,3.88-3.88h1.21a3.89,3.89,0,0,1,3.89,3.88V58.13a7.17,7.17,0,0,0,14.34,0Z"/><path class="cls-1" d="M231.51,31.5a21.3,21.3,0,1,1,4.94,42.06c-14.15,0-24.71-13.89-19.82-28.62A20.4,20.4,0,0,1,231.51,31.5Zm5,33.32A12.57,12.57,0,1,0,224.23,52.9,12.36,12.36,0,0,0,236.47,64.82Z"/><path class="cls-1" d="M268.27,31.44h2.1a3.37,3.37,0,0,1,3.38,3.37V62.69a2.48,2.48,0,0,0,2.49,2.49h9.68a3.37,3.37,0,0,1,3.37,3.38v1A3.38,3.38,0,0,1,285.92,73H268.27a3.38,3.38,0,0,1-3.38-3.38V34.81A3.37,3.37,0,0,1,268.27,31.44Z"/><path class="cls-1" d="M304.48,35.32V69.07A3.89,3.89,0,0,1,300.59,73h-1a3.89,3.89,0,0,1-3.89-3.89V35.32a3.89,3.89,0,0,1,3.89-3.88h1A3.89,3.89,0,0,1,304.48,35.32Z"/><path class="cls-1" d="M323,35.32V69.07A3.89,3.89,0,0,1,319.15,73h-1a3.89,3.89,0,0,1-3.89-3.89V35.32a3.89,3.89,0,0,1,3.89-3.88h1A3.89,3.89,0,0,1,323,35.32Z"/></g></g></svg>