<svg width="493" height="348" viewBox="0 0 493 348" fill="none" xmlns="http://www.w3.org/2000/svg">
<path fill-rule="evenodd" clip-rule="evenodd" d="M12.406 200.599C8.68041 160.878 16.9272 118.304 47.5683 89.4365C76.5935 62.0912 121.765 54.0066 162.578 59.119C196.104 63.3187 212.436 95.0662 239.424 113.469C269.18 133.76 313.658 138.728 326.31 170.766C341.093 208.201 334.344 253.411 307.252 285.229C279.613 317.688 233.055 329.145 188.575 332.523C145.156 335.82 101.049 328.443 67.639 303.424C34.1281 278.329 16.1362 240.37 12.406 200.599Z" fill="#EC407A"/>
<path d="M371.66 40.0671V37.3809H368.974V40.0671H371.66ZM474.212 40.0671H476.898V37.3809H474.212V40.0671ZM474.212 173.764V176.45H476.898V173.764H474.212ZM371.66 173.764H368.974V176.45H371.66V173.764ZM399.338 44.3124L401.27 46.179L401.3 46.1475L401.33 46.115L399.338 44.3124ZM374.723 69.7838L372.792 67.9171L372.037 68.6979V69.7838H374.723ZM374.723 146.002H372.037V147.084L372.786 147.864L374.723 146.002ZM401.399 173.764L399.462 175.625L400.254 176.45H401.399V173.764ZM448.094 173.764V176.45H449.279L450.077 175.576L448.094 173.764ZM475.215 144.075L477.198 145.887L477.901 145.118V144.075H475.215ZM475.215 69.6162H477.901V68.5262L477.141 67.7444L475.215 69.6162ZM446.507 40.0671L448.434 38.1953L447.642 37.3809H446.507V40.0671ZM403.181 40.0671V37.3809H401.989L401.189 38.2645L403.181 40.0671ZM423.952 82.3524L426.508 81.525L423.952 73.6312L421.396 81.525L423.952 82.3524ZM429.911 100.758L427.355 101.585L427.957 103.444H429.911V100.758ZM449.207 100.758L450.788 102.93L457.464 98.0715H449.207V100.758ZM433.586 112.125L432.006 109.953L430.428 111.101L431.032 112.956L433.586 112.125ZM439.573 130.53L437.992 132.702L444.689 137.576L442.127 129.699L439.573 130.53ZM423.952 119.163L425.533 116.991L423.951 115.84L422.37 116.992L423.952 119.163ZM408.359 130.53L405.803 129.703L403.255 137.576L409.941 132.701L408.359 130.53ZM414.318 112.125L416.873 112.952L417.473 111.099L415.898 109.953L414.318 112.125ZM398.697 100.758V98.0715H390.44L397.116 102.93L398.697 100.758ZM417.993 100.758V103.444H419.947L420.549 101.585L417.993 100.758ZM490 328.773V331.46H492.686V328.773H490ZM161.433 328.773H158.747V331.46H161.433V328.773ZM161.433 108.133V105.447H158.747V108.133H161.433ZM208.297 288.275H205.611V290.961H208.297V288.275ZM293 288.275V290.961H295.686V288.275H293ZM328.78 214.036C327.297 214.036 326.094 215.238 326.094 216.722C326.094 218.205 327.297 219.408 328.78 219.408V214.036ZM463.549 219.408C465.032 219.408 466.235 218.205 466.235 216.722C466.235 215.238 465.032 214.036 463.549 214.036V219.408ZM328.78 237.775C327.297 237.775 326.094 238.977 326.094 240.461C326.094 241.945 327.297 243.147 328.78 243.147V237.775ZM463.549 243.147C465.032 243.147 466.235 241.945 466.235 240.461C466.235 238.977 465.032 237.775 463.549 237.775V243.147ZM328.78 260.453C327.297 260.453 326.094 261.656 326.094 263.139C326.094 264.623 327.297 265.826 328.78 265.826V260.453ZM463.549 265.826C465.032 265.826 466.235 264.623 466.235 263.139C466.235 261.656 465.032 260.453 463.549 260.453V265.826ZM371.66 42.7533H474.212V37.3809H371.66V42.7533ZM471.525 40.0671V173.764H476.898V40.0671H471.525ZM474.212 171.078H371.66V176.45H474.212V171.078ZM374.346 173.764V40.0671H368.974V173.764H374.346ZM397.406 42.4457L372.792 67.9171L376.655 71.6504L401.27 46.179L397.406 42.4457ZM372.037 69.7838V146.002H377.41V69.7838H372.037ZM372.786 147.864L399.462 175.625L403.336 171.903L376.66 144.141L372.786 147.864ZM401.399 176.45H448.094V171.078H401.399V176.45ZM450.077 175.576L477.198 145.887L473.231 142.264L446.111 171.952L450.077 175.576ZM477.901 144.075V69.6162H472.529V144.075H477.901ZM477.141 67.7444L448.434 38.1953L444.58 41.9389L473.288 71.488L477.141 67.7444ZM446.507 37.3809H403.181V42.7533H446.507V37.3809ZM401.189 38.2645L397.347 42.5097L401.33 46.115L405.172 41.8698L401.189 38.2645ZM421.396 83.1798L427.355 101.585L432.466 99.9303L426.508 81.525L421.396 83.1798ZM429.911 103.444H449.207V98.0715H429.911V103.444ZM447.627 98.5857L432.006 109.953L435.167 114.297L450.788 102.93L447.627 98.5857ZM431.032 112.956L437.018 131.361L442.127 129.699L436.141 111.294L431.032 112.956ZM441.153 128.358L425.533 116.991L422.371 121.335L437.992 132.702L441.153 128.358ZM422.37 116.992L406.777 128.36L409.941 132.701L425.534 121.334L422.37 116.992ZM410.915 131.358L416.873 112.952L411.762 111.298L405.803 129.703L410.915 131.358ZM415.898 109.953L400.277 98.5857L397.116 102.93L412.737 114.297L415.898 109.953ZM398.697 103.444H417.993V98.0715H398.697V103.444ZM420.549 101.585L426.508 83.1798L421.396 81.525L415.438 99.9303L420.549 101.585ZM390.85 3.32982L423.679 60.9477L428.347 58.2881L395.518 0.670182L390.85 3.32982ZM408.581 61.2702H438.264V55.8978H408.581V61.2702ZM432.093 41.2082L449.941 3.14074L445.077 0.860041L427.229 38.9275L432.093 41.2082ZM487.314 108.133V328.773H492.686V108.133H487.314ZM490 326.087H161.433V331.46H490V326.087ZM164.119 328.773V108.133H158.747V328.773H164.119ZM161.433 110.819H360.662V105.447H161.433V110.819ZM250.648 229.182C269.148 229.182 284.13 214.142 284.13 195.606H278.758C278.758 211.19 266.165 223.81 250.648 223.81V229.182ZM284.13 195.606C284.13 177.07 269.148 162.03 250.648 162.03V167.403C266.165 167.403 278.758 180.022 278.758 195.606H284.13ZM250.648 162.03C232.149 162.03 217.166 177.07 217.166 195.606H222.538C222.538 180.022 235.131 167.403 250.648 167.403V162.03ZM217.166 195.606C217.166 214.142 232.149 229.182 250.648 229.182V223.81C235.131 223.81 222.538 211.19 222.538 195.606H217.166ZM250.648 243.108C225.768 243.108 205.611 263.338 205.611 288.275H210.983C210.983 266.29 228.75 248.481 250.648 248.481V243.108ZM208.297 290.961H293V285.588H208.297V290.961ZM295.686 288.275C295.686 263.338 275.529 243.108 250.648 243.108V248.481C272.547 248.481 290.314 266.29 290.314 288.275H295.686ZM328.78 219.408H463.549V214.036H328.78V219.408ZM328.78 243.147H463.549V237.775H328.78V243.147ZM328.78 265.826H463.549V260.453H328.78V265.826Z" fill="#FFD260"/>
</svg>
