<svg width="651" height="651" viewBox="0 0 651 651" fill="none" xmlns="http://www.w3.org/2000/svg">
<rect width="651" height="651" fill="white"/>
<path d="M586.114 107.686C620.694 165.489 614.072 241.701 615.176 318.28C615.911 395.228 624.005 472.544 589.424 516.356C554.476 560.169 477.222 570.109 401.072 568.636C324.921 567.164 250.243 554.646 201.315 510.834C152.755 467.021 129.579 392.283 126.268 313.862C122.59 235.81 138.776 154.076 187.336 96.2732C236.263 38.4704 317.932 4.23046 396.657 7.17583C475.383 10.1212 551.533 49.8837 586.114 107.686Z" fill="#FDCF00"/>
<g clip-path="url(#clip0_1_924)">
<path d="M446.999 205.716H76.282C69.8755 205.716 64.6826 210.909 64.6826 217.306V452.864H334.806C329.114 416.486 340.294 377.985 368.32 349.959C393.125 325.154 426.12 313.546 458.599 315.134V217.306C458.599 210.909 453.406 205.716 446.999 205.716ZM118.049 417.084C112.892 417.084 108.716 412.908 108.716 407.751C108.716 402.603 112.892 398.418 118.049 398.418C123.197 398.418 127.382 402.603 127.382 407.751C127.382 412.908 123.197 417.084 118.049 417.084ZM192.696 342.428C187.547 342.428 183.371 338.253 183.371 333.104C183.371 327.947 187.547 323.771 192.696 323.771C197.853 323.771 202.029 327.947 202.029 333.104C202.029 338.253 197.853 342.428 192.696 342.428ZM229.867 379.6C224.71 379.6 220.534 375.424 220.534 370.267C220.534 365.11 224.71 360.934 229.867 360.934C235.016 360.934 239.2 365.11 239.2 370.267C239.2 375.424 235.016 379.6 229.867 379.6ZM321.512 287.956C316.354 287.956 312.178 283.78 312.178 278.623C312.178 273.465 316.354 269.29 321.512 269.29C326.66 269.29 330.845 273.465 330.845 278.623C330.845 283.78 326.66 287.956 321.512 287.956ZM363.501 329.892C358.353 329.892 354.168 325.716 354.168 320.559C354.168 315.411 358.353 311.235 363.501 311.235C368.659 311.235 372.835 315.411 372.835 320.559C372.835 325.716 368.659 329.892 363.501 329.892ZM395.052 298.279C389.895 298.279 385.719 294.103 385.719 288.946C385.719 283.789 389.895 279.613 395.052 279.613C400.209 279.613 404.385 283.789 404.385 288.946C404.385 294.103 400.209 298.279 395.052 298.279Z" fill="#FF7D7D" stroke="#2C3E50" stroke-width="5" stroke-miterlimit="10"/>
<path d="M334.797 452.864H320.387V456.281C320.387 460.894 316.658 464.624 312.045 464.624H211.201C206.588 464.624 202.858 460.894 202.858 456.281V452.864H36.7191V459.413C36.7191 473.618 48.2382 485.146 62.4519 485.146H344.648" stroke="#2C3E50" stroke-width="5" stroke-miterlimit="10"/>
<path d="M320.396 452.864V456.281C320.396 460.894 316.667 464.624 312.054 464.624H211.201C206.588 464.624 202.858 460.894 202.858 456.281V452.864H320.396Z" stroke="#2C3E50" stroke-width="5" stroke-miterlimit="10"/>
<path d="M186.093 339.716L124.661 401.148" stroke="#2C3E50" stroke-width="5" stroke-miterlimit="10"/>
<path d="M314.909 285.217L236.452 363.673" stroke="#2C3E50" stroke-width="5" stroke-miterlimit="10"/>
<path d="M388.44 295.558L370.077 313.921" stroke="#2C3E50" stroke-width="5" stroke-miterlimit="10"/>
<path d="M356.881 313.992L328.096 285.217" stroke="#2C3E50" stroke-width="5" stroke-miterlimit="10"/>
<path d="M223.273 363.673L199.307 339.716" stroke="#2C3E50" stroke-width="5" stroke-miterlimit="10"/>
<path d="M537.109 518.748C494.164 561.693 426.647 565.093 379.839 528.92L272.214 636.545C266.227 642.532 256.519 642.532 250.532 636.545C244.545 630.558 244.545 620.85 250.532 614.863L358.157 507.238C345.594 490.981 337.813 472.226 334.806 452.873C329.114 416.495 340.294 377.994 368.329 349.968C393.134 325.163 426.129 313.555 458.599 315.143C487.151 316.562 515.311 328.152 537.136 349.968C583.73 396.562 583.73 472.146 537.109 518.748Z" stroke="#2C3E50" stroke-width="5" stroke-miterlimit="10"/>
<path d="M306.316 602.434C300.338 608.412 290.621 608.412 284.643 602.434C278.656 596.447 278.656 586.73 284.634 580.752" stroke="#2C3E50" stroke-width="5" stroke-miterlimit="10"/>
<path d="M452.719 534.506C508.029 534.506 552.866 489.668 552.866 434.358C552.866 379.048 508.029 334.211 452.719 334.211C397.409 334.211 352.571 379.048 352.571 434.358C352.571 489.668 397.409 534.506 452.719 534.506Z" stroke="#2C3E50" stroke-width="5" stroke-miterlimit="10"/>
<path d="M396.952 378.592C427.744 347.8 477.675 347.8 508.476 378.592" stroke="white" stroke-width="15" stroke-miterlimit="10" stroke-linecap="round"/>
<path d="M108.716 246.376H173.253" stroke="#2C3E50" stroke-width="5" stroke-miterlimit="10"/>
<path d="M183.371 246.376H217.09" stroke="#2C3E50" stroke-width="5" stroke-miterlimit="10"/>
<path d="M108.716 270.922H242.502" stroke="#2C3E50" stroke-width="5" stroke-miterlimit="10"/>
<path d="M503.551 244.262V270.923" stroke="#2C3E50" stroke-width="5" stroke-miterlimit="10"/>
<path d="M490.221 257.592H516.873" stroke="#2C3E50" stroke-width="5" stroke-miterlimit="10"/>
<path d="M196.604 517.571L215.448 536.424" stroke="#2C3E50" stroke-width="5" stroke-miterlimit="10"/>
<path d="M196.604 536.424L215.448 517.571" stroke="#2C3E50" stroke-width="5" stroke-miterlimit="10"/>
<path d="M275.676 205.716L330.827 150.565" stroke="#2C3E50" stroke-width="5" stroke-miterlimit="10"/>
<path d="M298.482 150.565H330.827V182.919" stroke="#2C3E50" stroke-width="5" stroke-miterlimit="10"/>
</g>
<defs>
<clipPath id="clip0_1_924">
<rect width="539.819" height="494.938" fill="white" transform="translate(34.4884 148.334)"/>
</clipPath>
</defs>
</svg>
