<svg width="651" height="651" viewBox="0 0 651 651" fill="none" xmlns="http://www.w3.org/2000/svg">
<rect width="651" height="651" fill="white"/>
<path d="M591.029 103.585C626.261 162.478 619.515 240.127 620.639 318.151C621.389 396.55 629.635 475.324 594.402 519.963C558.795 564.601 480.084 574.729 402.497 573.229C324.911 571.728 248.823 558.975 198.973 514.336C149.498 469.697 125.884 393.549 122.511 313.65C118.763 234.125 135.255 150.85 184.73 91.9569C234.58 33.0639 317.789 -1.82177 397.999 1.17914C478.21 4.18006 555.796 44.6924 591.029 103.585Z" fill="#FDCF00"/>
<g clip-path="url(#clip0_1_924)">
<path d="M449.291 203.464H71.5818C65.0545 203.464 59.7636 208.755 59.7636 215.273V455.273H334.982C329.182 418.209 340.573 378.982 369.127 350.427C394.4 325.155 428.018 313.327 461.109 314.945V215.273C461.109 208.755 455.818 203.464 449.291 203.464ZM114.136 418.818C108.882 418.818 104.627 414.564 104.627 409.309C104.627 404.064 108.882 399.8 114.136 399.8C119.382 399.8 123.645 404.064 123.645 409.309C123.645 414.564 119.382 418.818 114.136 418.818ZM190.191 342.755C184.945 342.755 180.691 338.5 180.691 333.255C180.691 328 184.945 323.745 190.191 323.745C195.445 323.745 199.7 328 199.7 333.255C199.7 338.5 195.445 342.755 190.191 342.755ZM228.064 380.627C222.809 380.627 218.555 376.373 218.555 371.118C218.555 365.864 222.809 361.609 228.064 361.609C233.309 361.609 237.573 365.864 237.573 371.118C237.573 376.373 233.309 380.627 228.064 380.627ZM321.436 287.255C316.182 287.255 311.927 283 311.927 277.745C311.927 272.491 316.182 268.236 321.436 268.236C326.682 268.236 330.945 272.491 330.945 277.745C330.945 283 326.682 287.255 321.436 287.255ZM364.218 329.982C358.973 329.982 354.709 325.727 354.709 320.473C354.709 315.227 358.973 310.973 364.218 310.973C369.473 310.973 373.727 315.227 373.727 320.473C373.727 325.727 369.473 329.982 364.218 329.982ZM396.364 297.773C391.109 297.773 386.855 293.518 386.855 288.264C386.855 283.009 391.109 278.755 396.364 278.755C401.618 278.755 405.873 283.009 405.873 288.264C405.873 293.518 401.618 297.773 396.364 297.773Z" fill="#FF7D7D" stroke="#2C3E50" stroke-width="5" stroke-miterlimit="10"/>
<path d="M334.973 455.273H320.291V458.755C320.291 463.455 316.491 467.255 311.791 467.255H209.045C204.345 467.255 200.545 463.455 200.545 458.755V455.273H31.2727V461.945C31.2727 476.418 43.0091 488.164 57.4909 488.164H345.009" stroke="#2C3E50" stroke-width="5" stroke-miterlimit="10"/>
<path d="M320.3 455.273V458.755C320.3 463.455 316.5 467.255 311.8 467.255H209.045C204.345 467.255 200.545 463.455 200.545 458.755V455.273H320.3Z" stroke="#2C3E50" stroke-width="5" stroke-miterlimit="10"/>
<path d="M183.464 339.991L120.873 402.582" stroke="#2C3E50" stroke-width="5" stroke-miterlimit="10"/>
<path d="M314.709 284.464L234.773 364.4" stroke="#2C3E50" stroke-width="5" stroke-miterlimit="10"/>
<path d="M389.627 295L370.918 313.709" stroke="#2C3E50" stroke-width="5" stroke-miterlimit="10"/>
<path d="M357.473 313.782L328.146 284.464" stroke="#2C3E50" stroke-width="5" stroke-miterlimit="10"/>
<path d="M221.345 364.4L196.927 339.991" stroke="#2C3E50" stroke-width="5" stroke-miterlimit="10"/>
<path d="M541.1 522.4C497.345 566.155 428.555 569.618 380.864 532.764L271.209 642.418C265.109 648.518 255.218 648.518 249.118 642.418C243.018 636.318 243.018 626.427 249.118 620.327L358.773 510.673C345.973 494.109 338.045 475 334.982 455.282C329.182 418.218 340.573 378.991 369.136 350.436C394.409 325.164 428.027 313.336 461.109 314.955C490.2 316.4 518.891 328.209 541.127 350.436C588.6 397.909 588.6 474.918 541.1 522.4Z" stroke="#2C3E50" stroke-width="5" stroke-miterlimit="10"/>
<path d="M305.955 607.664C299.864 613.755 289.964 613.755 283.873 607.664C277.773 601.564 277.773 591.664 283.864 585.573" stroke="#2C3E50" stroke-width="5" stroke-miterlimit="10"/>
<path d="M455.118 538.455C511.471 538.455 557.155 492.771 557.155 436.418C557.155 380.065 511.471 334.382 455.118 334.382C398.765 334.382 353.082 380.065 353.082 436.418C353.082 492.771 398.765 538.455 455.118 538.455Z" stroke="#2C3E50" stroke-width="5" stroke-miterlimit="10"/>
<path d="M398.3 379.6C429.673 348.227 480.545 348.227 511.927 379.6" stroke="white" stroke-width="15" stroke-miterlimit="10" stroke-linecap="round"/>
<path d="M104.627 244.891H170.382" stroke="#2C3E50" stroke-width="5" stroke-miterlimit="10"/>
<path d="M180.691 244.891H215.045" stroke="#2C3E50" stroke-width="5" stroke-miterlimit="10"/>
<path d="M104.627 269.9H240.936" stroke="#2C3E50" stroke-width="5" stroke-miterlimit="10"/>
<path d="M506.909 242.736V269.9" stroke="#2C3E50" stroke-width="5" stroke-miterlimit="10"/>
<path d="M493.327 256.318H520.482" stroke="#2C3E50" stroke-width="5" stroke-miterlimit="10"/>
<path d="M194.173 521.2L213.373 540.409" stroke="#2C3E50" stroke-width="5" stroke-miterlimit="10"/>
<path d="M194.173 540.409L213.373 521.2" stroke="#2C3E50" stroke-width="5" stroke-miterlimit="10"/>
<path d="M274.736 203.464L330.927 147.273" stroke="#2C3E50" stroke-width="5" stroke-miterlimit="10"/>
<path d="M297.973 147.273H330.927V180.236" stroke="#2C3E50" stroke-width="5" stroke-miterlimit="10"/>
</g>
<defs>
<clipPath id="clip0_1_924">
<rect width="550" height="504.273" fill="white" transform="translate(29 145)"/>
</clipPath>
</defs>
</svg>
