<svg width="593" height="649" viewBox="0 0 593 649" fill="none" xmlns="http://www.w3.org/2000/svg">
<path d="M562.029 102.585C597.261 161.478 590.515 239.127 591.639 317.151C592.389 395.55 600.635 474.324 565.402 518.963C529.795 563.601 451.084 573.729 373.497 572.229C295.911 570.728 219.823 557.974 169.973 513.336C120.498 468.697 96.8842 392.549 93.5109 312.65C89.7627 233.125 106.255 149.85 155.73 90.9569C205.58 32.0639 288.789 -2.82177 368.999 0.179144C449.21 3.18006 526.796 43.6924 562.029 102.585Z" fill="#FDCF00"/>
<g clip-path="url(#clip0)">
<path d="M420.291 202.464H42.5818C36.0546 202.464 30.7636 207.755 30.7636 214.273V454.273H305.982C300.182 417.209 311.573 377.982 340.127 349.427C365.4 324.155 399.018 312.327 432.109 313.945V214.273C432.109 207.755 426.818 202.464 420.291 202.464ZM85.1364 417.818C79.8818 417.818 75.6273 413.564 75.6273 408.309C75.6273 403.064 79.8818 398.8 85.1364 398.8C90.3818 398.8 94.6455 403.064 94.6455 408.309C94.6455 413.564 90.3818 417.818 85.1364 417.818ZM161.191 341.755C155.945 341.755 151.691 337.5 151.691 332.255C151.691 327 155.945 322.745 161.191 322.745C166.445 322.745 170.7 327 170.7 332.255C170.7 337.5 166.445 341.755 161.191 341.755ZM199.064 379.627C193.809 379.627 189.555 375.373 189.555 370.118C189.555 364.864 193.809 360.609 199.064 360.609C204.309 360.609 208.573 364.864 208.573 370.118C208.573 375.373 204.309 379.627 199.064 379.627ZM292.436 286.255C287.182 286.255 282.927 282 282.927 276.745C282.927 271.491 287.182 267.236 292.436 267.236C297.682 267.236 301.945 271.491 301.945 276.745C301.945 282 297.682 286.255 292.436 286.255ZM335.218 328.982C329.973 328.982 325.709 324.727 325.709 319.473C325.709 314.227 329.973 309.973 335.218 309.973C340.473 309.973 344.727 314.227 344.727 319.473C344.727 324.727 340.473 328.982 335.218 328.982ZM367.364 296.773C362.109 296.773 357.855 292.518 357.855 287.264C357.855 282.009 362.109 277.755 367.364 277.755C372.618 277.755 376.873 282.009 376.873 287.264C376.873 292.518 372.618 296.773 367.364 296.773Z" fill="#FF7D7D" stroke="#2C3E50" stroke-width="5" stroke-miterlimit="10"/>
<path d="M305.973 454.273H291.291V457.755C291.291 462.455 287.491 466.255 282.791 466.255H180.045C175.345 466.255 171.545 462.455 171.545 457.755V454.273H2.27273V460.945C2.27273 475.418 14.0091 487.164 28.4909 487.164H316.009" stroke="#2C3E50" stroke-width="5" stroke-miterlimit="10"/>
<path d="M291.3 454.273V457.755C291.3 462.455 287.5 466.255 282.8 466.255H180.045C175.345 466.255 171.545 462.455 171.545 457.755V454.273H291.3Z" stroke="#2C3E50" stroke-width="5" stroke-miterlimit="10"/>
<path d="M154.464 338.991L91.8727 401.582" stroke="#2C3E50" stroke-width="5" stroke-miterlimit="10"/>
<path d="M285.709 283.464L205.773 363.4" stroke="#2C3E50" stroke-width="5" stroke-miterlimit="10"/>
<path d="M360.627 294L341.918 312.709" stroke="#2C3E50" stroke-width="5" stroke-miterlimit="10"/>
<path d="M328.473 312.782L299.145 283.464" stroke="#2C3E50" stroke-width="5" stroke-miterlimit="10"/>
<path d="M192.345 363.4L167.927 338.991" stroke="#2C3E50" stroke-width="5" stroke-miterlimit="10"/>
<path d="M512.1 521.4C468.345 565.155 399.555 568.618 351.864 531.764L242.209 641.418C236.109 647.518 226.218 647.518 220.118 641.418C214.018 635.318 214.018 625.427 220.118 619.327L329.773 509.673C316.973 493.109 309.045 474 305.982 454.282C300.182 417.218 311.573 377.991 340.136 349.436C365.409 324.164 399.027 312.336 432.109 313.955C461.2 315.4 489.891 327.209 512.127 349.436C559.6 396.909 559.6 473.918 512.1 521.4Z" stroke="#2C3E50" stroke-width="5" stroke-miterlimit="10"/>
<path d="M276.955 606.664C270.864 612.755 260.964 612.755 254.873 606.664C248.773 600.564 248.773 590.664 254.864 584.573" stroke="#2C3E50" stroke-width="5" stroke-miterlimit="10"/>
<path d="M426.118 537.455C482.471 537.455 528.155 491.771 528.155 435.418C528.155 379.065 482.471 333.382 426.118 333.382C369.765 333.382 324.082 379.065 324.082 435.418C324.082 491.771 369.765 537.455 426.118 537.455Z" stroke="#2C3E50" stroke-width="5" stroke-miterlimit="10"/>
<path d="M369.3 378.6C400.673 347.227 451.545 347.227 482.927 378.6" stroke="white" stroke-width="15" stroke-miterlimit="10" stroke-linecap="round"/>
<path d="M75.6273 243.891H141.382" stroke="#2C3E50" stroke-width="5" stroke-miterlimit="10"/>
<path d="M151.691 243.891H186.045" stroke="#2C3E50" stroke-width="5" stroke-miterlimit="10"/>
<path d="M75.6273 268.9H211.936" stroke="#2C3E50" stroke-width="5" stroke-miterlimit="10"/>
<path d="M477.909 241.736V268.9" stroke="#2C3E50" stroke-width="5" stroke-miterlimit="10"/>
<path d="M464.327 255.318H491.482" stroke="#2C3E50" stroke-width="5" stroke-miterlimit="10"/>
<path d="M165.173 520.2L184.373 539.409" stroke="#2C3E50" stroke-width="5" stroke-miterlimit="10"/>
<path d="M165.173 539.409L184.373 520.2" stroke="#2C3E50" stroke-width="5" stroke-miterlimit="10"/>
<path d="M245.736 202.464L301.927 146.273" stroke="#2C3E50" stroke-width="5" stroke-miterlimit="10"/>
<path d="M268.973 146.273H301.927V179.236" stroke="#2C3E50" stroke-width="5" stroke-miterlimit="10"/>
</g>
<defs>
<clipPath id="clip0">
<rect width="550" height="504.273" fill="white" transform="translate(0 144)"/>
</clipPath>
</defs>
</svg>
