<svg width="270" height="210" viewBox="0 0 270 210" fill="none" xmlns="http://www.w3.org/2000/svg">
<path d="M259.182 35.162C271.258 55.3481 268.946 81.9628 269.331 108.706C269.588 135.578 272.414 162.578 260.338 177.879C248.133 193.179 221.155 196.65 194.561 196.136C167.968 195.622 141.888 191.25 124.802 175.95C107.843 160.65 99.7498 134.549 98.5936 107.163C97.3089 79.9056 102.962 51.3623 119.92 31.1762C137.006 10.9902 165.527 -0.967186 193.02 0.061403C220.512 1.08999 247.106 14.9759 259.182 35.162Z" fill="#FDCF00"/>
<g clip-path="url(#clip0)">
<path d="M144.058 56.5589H14.5952C12.3579 56.5589 10.5444 58.3724 10.5444 60.6066V142.869H104.878C102.89 130.165 106.794 116.719 116.581 106.932C125.244 98.2695 136.767 94.2156 148.109 94.7702V60.6066C148.109 58.3724 146.295 56.5589 144.058 56.5589ZM29.1811 130.373C27.3801 130.373 25.9218 128.915 25.9218 127.114C25.9218 125.316 27.3801 123.855 29.1811 123.855C30.9791 123.855 32.4405 125.316 32.4405 127.114C32.4405 128.915 30.9791 130.373 29.1811 130.373ZM55.2495 104.302C53.4515 104.302 51.9933 102.844 51.9933 101.046C51.9933 99.2448 53.4515 97.7865 55.2495 97.7865C57.0505 97.7865 58.5088 99.2448 58.5088 101.046C58.5088 102.844 57.0505 104.302 55.2495 104.302ZM68.2307 117.283C66.4296 117.283 64.9713 115.825 64.9713 114.024C64.9713 112.223 66.4296 110.765 68.2307 110.765C70.0286 110.765 71.49 112.223 71.49 114.024C71.49 115.825 70.0286 117.283 68.2307 117.283ZM100.235 85.2789C98.4339 85.2789 96.9756 83.8207 96.9756 82.0196C96.9756 80.2186 98.4339 78.7603 100.235 78.7603C102.033 78.7603 103.494 80.2186 103.494 82.0196C103.494 83.8207 102.033 85.2789 100.235 85.2789ZM114.899 99.9241C113.101 99.9241 111.639 98.4658 111.639 96.6647C111.639 94.8668 113.101 93.4085 114.899 93.4085C116.7 93.4085 118.158 94.8668 118.158 96.6647C118.158 98.4658 116.7 99.9241 114.899 99.9241ZM125.917 88.8841C124.116 88.8841 122.658 87.4258 122.658 85.6248C122.658 83.8238 124.116 82.3655 125.917 82.3655C127.718 82.3655 129.176 83.8238 129.176 85.6248C129.176 87.4258 127.718 88.8841 125.917 88.8841Z" fill="#FF7D7D" stroke="#2C3E50" stroke-width="2" stroke-miterlimit="10"/>
<path d="M104.874 142.869H99.8422V144.062C99.8422 145.673 98.5397 146.975 96.9287 146.975H61.7119C60.1009 146.975 58.7984 145.673 58.7984 144.062V142.869H0.778809V145.156C0.778809 150.116 4.80154 154.142 9.76531 154.142H108.315" stroke="#2C3E50" stroke-width="2" stroke-miterlimit="10"/>
<path d="M99.8457 142.869V144.062C99.8457 145.673 98.5432 146.975 96.9322 146.975H61.7123C60.1013 146.975 58.7988 145.673 58.7988 144.062V142.869H99.8457Z" stroke="#2C3E50" stroke-width="2" stroke-miterlimit="10"/>
<path d="M52.9438 103.355L31.4902 124.808" stroke="#2C3E50" stroke-width="2" stroke-miterlimit="10"/>
<path d="M97.9291 84.3223L70.5303 111.721" stroke="#2C3E50" stroke-width="2" stroke-miterlimit="10"/>
<path d="M123.608 87.9337L117.195 94.3464" stroke="#2C3E50" stroke-width="2" stroke-miterlimit="10"/>
<path d="M112.587 94.3714L102.535 84.3223" stroke="#2C3E50" stroke-width="2" stroke-miterlimit="10"/>
<path d="M65.9281 111.721L57.5586 103.355" stroke="#2C3E50" stroke-width="2" stroke-miterlimit="10"/>
<path d="M175.527 165.877C160.529 180.874 136.951 182.061 120.604 169.429L83.0194 207.014C80.9285 209.105 77.5383 209.105 75.4475 207.014C73.3567 204.923 73.3567 201.533 75.4475 199.442L113.033 161.857C108.645 156.18 105.928 149.63 104.878 142.872C102.89 130.168 106.794 116.722 116.585 106.935C125.247 98.2727 136.77 94.2188 148.109 94.7734C158.08 95.2688 167.914 99.3165 175.536 106.935C191.808 123.207 191.808 149.602 175.527 165.877Z" stroke="#2C3E50" stroke-width="2" stroke-miterlimit="10"/>
<path d="M94.9282 195.102C92.8405 197.189 89.4472 197.189 87.3595 195.102C85.2687 193.011 85.2687 189.618 87.3564 187.53" stroke="#2C3E50" stroke-width="2" stroke-miterlimit="10"/>
<path d="M146.055 171.38C165.371 171.38 181.029 155.722 181.029 136.406C181.029 117.091 165.371 101.432 146.055 101.432C126.74 101.432 111.082 117.091 111.082 136.406C111.082 155.722 126.74 171.38 146.055 171.38Z" stroke="#2C3E50" stroke-width="2" stroke-miterlimit="10"/>
<path d="M126.581 116.931C137.334 106.178 154.771 106.178 165.527 116.931" stroke="white" stroke-width="7" stroke-miterlimit="10" stroke-linecap="round"/>
<path d="M25.9219 70.7585H48.4598" stroke="#2C3E50" stroke-width="3" stroke-miterlimit="10"/>
<path d="M51.9932 70.7585H63.7685" stroke="#2C3E50" stroke-width="3" stroke-miterlimit="10"/>
<path d="M25.9219 79.3306H72.6429" stroke="#2C3E50" stroke-width="3" stroke-miterlimit="10"/>
<path d="M163.807 70.02V79.3306" stroke="#2C3E50" stroke-width="2" stroke-miterlimit="10"/>
<path d="M159.152 74.6753H168.459" stroke="#2C3E50" stroke-width="2" stroke-miterlimit="10"/>
<path d="M56.6143 165.466L63.1952 172.05" stroke="#2C3E50" stroke-width="2" stroke-miterlimit="10"/>
<path d="M56.6143 172.05L63.1952 165.466" stroke="#2C3E50" stroke-width="2" stroke-miterlimit="10"/>
<path d="M84.228 56.5589L103.488 37.299" stroke="#2C3E50" stroke-width="2" stroke-miterlimit="10"/>
<path d="M92.1924 37.299H103.488V48.5976" stroke="#2C3E50" stroke-width="2" stroke-miterlimit="10"/>
</g>
<defs>
<clipPath id="clip0">
<rect width="188.517" height="172.844" fill="white" transform="translate(0 36.52)"/>
</clipPath>
</defs>
</svg>
