<svg width="307" height="149" viewBox="0 0 307 149" fill="none" xmlns="http://www.w3.org/2000/svg">
<path d="M189.972 23.9432H199.332C199.329 24.4365 199.431 24.9248 199.63 25.3762C199.829 25.8276 200.121 26.2319 200.487 26.5626C200.852 26.8934 201.284 27.1431 201.753 27.2956C202.222 27.448 202.719 27.4996 203.209 27.447C205.123 27.447 206.94 26.4413 206.94 24.6407C206.94 22.5643 204.361 21.9641 201.23 21.2179C196.477 20.0338 190.394 18.5738 190.394 11.0794C190.394 4.59074 195.163 0.875977 202.933 0.875977C210.703 0.875977 215.359 4.91517 215.359 11.6309H206.259C206.266 11.1894 206.177 10.7517 205.998 10.3479C205.819 9.94418 205.555 9.5841 205.223 9.29256C204.891 9.00102 204.5 8.78497 204.077 8.65936C203.654 8.53375 203.208 8.50157 202.771 8.56504C201.149 8.56504 199.527 9.26257 199.527 10.8036C199.527 12.6691 202.009 13.2855 205.107 14.048C209.973 15.3132 216.284 16.9192 216.284 24.446C216.284 31.6485 210.768 35.3794 203.112 35.3794C195.179 35.3957 189.972 31.1294 189.972 23.9432Z" fill="#453396"/>
<path d="M256.189 18.6546V34.5843H247.429V19.7253C247.429 17.0811 246.456 15.7996 244.59 15.7996C242.189 15.7996 240.957 17.4218 240.957 20.6661V34.6005H232.424V19.7253C232.424 17.1623 231.467 15.7996 229.634 15.7996C227.249 15.7996 225.951 17.4218 225.951 20.6661V34.6005H217.208V9.1812H223.356L224.605 11.9064C225.508 10.8274 226.633 9.95688 227.905 9.35479C229.176 8.75269 230.563 8.43336 231.97 8.41878C233.401 8.38233 234.818 8.70644 236.091 9.36127C237.363 10.0161 238.451 10.9806 239.253 12.166C240.186 10.9919 241.372 10.0447 242.724 9.39562C244.075 8.74655 245.557 8.41255 247.056 8.41878C252.571 8.41878 256.189 12.6689 256.189 18.6546Z" fill="#453396"/>
<path d="M284.901 9.14893V34.552H278.137L277.39 32.7677C275.219 34.5048 272.514 35.4388 269.734 35.4118C267.95 35.4627 266.174 35.145 264.518 34.4785C262.862 33.812 261.362 32.8111 260.11 31.5383C258.859 30.2655 257.883 28.7482 257.245 27.0813C256.606 25.4144 256.319 23.6337 256.4 21.8505C256.332 20.0753 256.63 18.3052 257.275 16.6499C257.919 14.9945 258.897 13.4891 260.147 12.2269C261.397 10.9647 262.893 9.97254 264.542 9.31195C266.191 8.65137 267.958 8.33639 269.734 8.38652C272.559 8.35423 275.304 9.31925 277.488 11.1118L278.38 9.14893H284.901ZM276.563 21.8667C276.622 21.085 276.519 20.2996 276.261 19.5595C276.002 18.8195 275.594 18.1408 275.061 17.5659C274.528 16.9911 273.882 16.5325 273.163 16.2189C272.445 15.9053 271.669 15.7434 270.886 15.7434C270.102 15.7434 269.326 15.9053 268.608 16.2189C267.889 16.5325 267.243 16.9911 266.71 17.5659C266.177 18.1408 265.769 18.8195 265.51 19.5595C265.252 20.2996 265.149 21.085 265.208 21.8667C265.149 22.6484 265.252 23.4339 265.51 24.1739C265.769 24.914 266.177 25.5927 266.71 26.1675C267.243 26.7423 267.889 27.2009 268.608 27.5145C269.326 27.8281 270.102 27.99 270.886 27.99C271.669 27.99 272.445 27.8281 273.163 27.5145C273.882 27.2009 274.528 26.7423 275.061 26.1675C275.594 25.5927 276.002 24.914 276.261 24.1739C276.519 23.4339 276.622 22.6484 276.563 21.8667Z" fill="#453396"/>
<path d="M286.88 0H295.624V34.5846H286.88V0Z" fill="#453396"/>
<path d="M297.603 0H306.346V34.5846H297.603V0Z" fill="#453396"/>
<path d="M34.4548 91.0362L31.8756 72.073L23.1483 91.0848H20.4555L11.7283 72.073L9.19768 91.0362H0L4.98005 58.1062H14.048L21.8019 75.95L29.6045 58.1062H38.6724L43.5389 91.0362H34.4548Z" fill="#453396"/>
<path d="M69.9642 78.0911C69.9493 78.8684 69.8788 79.6436 69.7533 80.4108H50.92C51.0357 81.6793 51.6441 82.8519 52.6146 83.6768C53.5851 84.5017 54.8404 84.9133 56.1109 84.8231C57.0175 84.8718 57.9207 84.678 58.7276 84.2617C59.5345 83.8455 60.2159 83.2218 60.7017 82.4548H69.4127C68.5425 85.2698 66.7666 87.7185 64.361 89.42C61.9554 91.1215 59.0551 91.9804 56.1109 91.8633C54.2938 91.9262 52.4826 91.6226 50.7853 90.9707C49.088 90.3187 47.5393 89.3317 46.2316 88.0684C44.9239 86.8052 43.8838 85.2916 43.1735 83.6179C42.4632 81.9442 42.0972 80.1446 42.0972 78.3263C42.0972 76.5081 42.4632 74.7085 43.1735 73.0348C43.8838 71.361 44.9239 69.8475 46.2316 68.5842C47.5393 67.321 49.088 66.334 50.7853 65.682C52.4826 65.03 54.2938 64.7264 56.1109 64.7894C64.2218 64.7894 69.9642 70.6454 69.9642 78.0911ZM51.066 75.5605H61.3505C61.0688 74.4009 60.3913 73.3759 59.4348 72.6622C58.4783 71.9485 57.3028 71.591 56.1109 71.6511C54.9401 71.5856 53.785 71.945 52.8581 72.6633C51.9312 73.3816 51.2948 74.4104 51.066 75.5605Z" fill="#453396"/>
<path d="M97.3301 56.4514V91.036H90.8415L89.9493 89.2192C87.7986 91.0155 85.0785 91.9874 82.2764 91.9606C80.4908 92.0138 78.7134 91.6978 77.0556 91.0323C75.3978 90.3668 73.8952 89.3663 72.6419 88.0932C71.3887 86.8202 70.4118 85.3021 69.7724 83.634C69.133 81.966 68.8448 80.1839 68.926 78.3993C68.8471 76.6161 69.137 74.8357 69.7774 73.1696C70.4178 71.5035 71.3951 69.9874 72.6481 68.7161C73.9011 67.4448 75.4029 66.4457 77.0596 65.7812C78.7163 65.1168 80.4922 64.8012 82.2764 64.8542C84.4984 64.8037 86.6901 65.3769 88.6029 66.5088V56.4514H97.3301ZM89.2193 78.3344C89.1969 77.2134 88.8441 76.1239 88.205 75.2027C87.5659 74.2814 86.6691 73.5693 85.6269 73.1557C84.5847 72.7421 83.4436 72.6454 82.3467 72.8778C81.2498 73.1101 80.2459 73.6612 79.4609 74.4618C78.676 75.2624 78.1449 76.277 77.9342 77.3783C77.7236 78.4796 77.8428 79.6185 78.2768 80.6523C78.7109 81.6861 79.4406 82.5688 80.3743 83.1895C81.308 83.8103 82.4043 84.1416 83.5255 84.1418C84.2867 84.1556 85.0427 84.0139 85.7472 83.7255C86.4517 83.437 87.09 83.0079 87.623 82.4643C88.156 81.9207 88.5725 81.274 88.8469 80.5639C89.1214 79.8538 89.2481 79.0952 89.2193 78.3344Z" fill="#453396"/>
<path d="M99.1953 65.6326H107.955V91.0358H99.1953V65.6326ZM99.1953 55.0237H107.825V62.4532H99.2602L99.1953 55.0237Z" fill="#453396"/>
<path d="M109.594 80.135V65.6328H118.418V79.7457C118.418 82.4222 119.862 84.012 122.198 84.012C124.534 84.012 125.945 82.3898 125.945 79.7457V65.6328H134.64V80.135C134.64 87.2401 129.628 91.8632 122.133 91.8632C114.639 91.8632 109.594 87.2401 109.594 80.135Z" fill="#453396"/>
<path d="M175.194 75.1066V91.0362H166.45V76.2421C166.45 73.5979 165.477 72.3164 163.611 72.3164C161.211 72.3164 159.978 73.9386 159.978 77.1829V91.1173H151.494V76.2421C151.494 73.6791 150.521 72.3164 148.688 72.3164C146.319 72.3164 145.021 73.9386 145.021 77.1829V91.1173H136.262V65.6331H142.426L143.675 68.3583C144.586 67.274 145.723 66.4016 147.006 65.802C148.29 65.2024 149.688 64.8901 151.105 64.8869C152.535 64.8549 153.95 65.181 155.222 65.8354C156.494 66.4898 157.583 67.4519 158.388 68.6341C159.319 67.4582 160.505 66.5097 161.857 65.8605C163.209 65.2112 164.691 64.8783 166.191 64.8869C171.625 64.8869 175.194 69.1208 175.194 75.1066Z" fill="#453396"/>
<path d="M176.719 74.0356H193.962V81.9843H176.719V74.0356Z" fill="#453396"/>
<path d="M194.562 80.3948H203.922C203.92 80.8881 204.021 81.3764 204.22 81.8278C204.419 82.2792 204.711 82.6835 205.077 83.0143C205.443 83.3451 205.875 83.5948 206.344 83.7472C206.813 83.8996 207.309 83.9512 207.799 83.8987C209.697 83.8987 211.514 82.893 211.514 81.0924C211.514 79.016 208.951 78.4158 205.82 77.6696C201.067 76.4854 194.984 75.0255 194.984 67.5311C194.984 61.0424 199.753 57.3276 207.524 57.3276C215.294 57.3276 219.933 61.3668 219.933 68.0826H210.881C210.89 67.6465 210.804 67.2138 210.63 66.8139C210.456 66.4141 210.197 66.0565 209.873 65.7655C209.548 65.4745 209.164 65.257 208.747 65.1277C208.331 64.9985 207.891 64.9607 207.459 65.0167C205.837 65.0167 204.214 65.7142 204.214 67.2553C204.214 69.1208 206.696 69.7372 209.811 70.4996C214.677 71.7649 220.988 73.3709 220.988 80.8977C220.988 88.0839 215.456 91.8311 207.816 91.8311C199.77 91.8473 194.562 87.5972 194.562 80.3948Z" fill="#453396"/>
<path d="M221.799 65.6326H230.542V91.0358H221.799V65.6326ZM221.799 55.0237H230.413V62.4532H221.799V55.0237Z" fill="#453396"/>
<path d="M252.669 83.2495V91.0359H230.721V89.7382L240.454 73.3543H231.597V65.6328H252.571V67.0603L242.968 83.282L252.669 83.2495Z" fill="#453396"/>
<path d="M279.013 78.0911C279.003 78.8679 278.938 79.6431 278.818 80.4108H260.017C260.133 81.6792 260.741 82.8518 261.712 83.6767C262.682 84.5017 263.938 84.9132 265.208 84.8231C266.115 84.8717 267.018 84.678 267.825 84.2617C268.632 83.8454 269.313 83.2217 269.799 82.4547H278.51C277.796 84.9201 276.409 87.1379 274.506 88.8598C272.602 90.5816 270.257 91.7394 267.733 92.2033C265.208 92.6673 262.605 92.4191 260.213 91.4866C257.822 90.5541 255.738 88.9741 254.194 86.9237C252.65 84.8733 251.707 82.4335 251.472 79.8776C251.236 77.3217 251.717 74.7508 252.861 72.4529C254.004 70.155 255.765 68.2209 257.946 66.8673C260.127 65.5138 262.641 64.7942 265.208 64.7893C273.319 64.7893 279.078 70.6453 279.078 78.0911H279.013ZM260.114 75.5605H270.383C270.104 74.3993 269.427 73.3724 268.47 72.6582C267.513 71.9441 266.336 71.5877 265.143 71.6511C263.986 71.6055 262.85 71.9741 261.941 72.6906C261.031 73.4072 260.406 74.4248 260.179 75.5605H260.114Z" fill="#453396"/>
<path d="M306.346 56.4514V91.036H299.857L299.046 89.2192C296.902 91.0157 294.187 91.9878 291.39 91.9606C289.604 92.0138 287.827 91.6978 286.169 91.0323C284.511 90.3668 283.008 89.3663 281.755 88.0932C280.502 86.8202 279.525 85.3021 278.886 83.634C278.246 81.966 277.958 80.1839 278.039 78.3993C277.96 76.6161 278.25 74.8357 278.891 73.1696C279.531 71.5035 280.508 69.9874 281.761 68.7161C283.014 67.4448 284.516 66.4457 286.173 65.7812C287.83 65.1168 289.606 64.8012 291.39 64.8542C293.607 64.8032 295.793 65.3766 297.7 66.5088V56.4514H306.346ZM298.235 78.3344C298.213 77.2127 297.86 76.1226 297.22 75.201C296.58 74.2794 295.682 73.5673 294.639 73.1542C293.596 72.7411 292.454 72.6454 291.357 72.8791C290.259 73.1127 289.256 73.6654 288.471 74.4676C287.687 75.2699 287.157 76.2859 286.948 77.3883C286.739 78.4906 286.861 79.63 287.298 80.6636C287.734 81.6971 288.466 82.5786 289.402 83.1974C290.338 83.8162 291.436 84.1448 292.558 84.1418C293.318 84.1533 294.072 84.01 294.774 83.7206C295.477 83.4312 296.113 83.0017 296.645 82.4583C297.176 81.9149 297.591 81.2691 297.864 80.5601C298.138 79.8511 298.264 79.0938 298.235 78.3344Z" fill="#453396"/>
<path d="M97.557 130.098C99.0849 130.8 100.376 131.931 101.271 133.354C102.167 134.777 102.63 136.43 102.602 138.111C102.602 143.448 97.995 147.487 91.9119 147.487H76.7446V114.557H91.6199C97.4597 114.557 101.71 118.11 101.71 122.976C101.691 124.421 101.299 125.836 100.571 127.084C99.8431 128.332 98.8049 129.37 97.557 130.098ZM93.0961 124.485C93.1026 124.091 93.0257 123.701 92.8706 123.339C92.7155 122.978 92.4857 122.653 92.1961 122.386C91.9065 122.12 91.5639 121.917 91.1906 121.793C90.8173 121.668 90.4218 121.623 90.0302 121.662H85.4557V127.405H90.0302C90.4267 127.444 90.8271 127.399 91.2047 127.271C91.5823 127.144 91.9283 126.937 92.2199 126.666C92.5115 126.394 92.7419 126.063 92.8958 125.696C93.0496 125.328 93.1234 124.932 93.1123 124.534L93.0961 124.485ZM93.6314 137.024C93.6332 136.61 93.5483 136.2 93.3821 135.821C93.216 135.441 92.9723 135.101 92.6668 134.821C92.3612 134.542 92.0005 134.329 91.6079 134.197C91.2153 134.066 90.7994 134.017 90.387 134.056H85.5205V140.042H90.387C90.8036 140.081 91.2236 140.031 91.6196 139.896C92.0157 139.762 92.3787 139.545 92.6851 139.26C92.9914 138.975 93.2341 138.628 93.3971 138.243C93.5602 137.858 93.64 137.443 93.6314 137.024Z" fill="#453396"/>
<path d="M103.073 136.586V122.084H111.832V136.262C111.832 138.939 113.26 140.528 115.612 140.528C117.964 140.528 119.359 138.906 119.359 136.262V122.149H128.151V136.586C128.151 143.691 123.155 148.315 115.661 148.315C108.166 148.315 103.073 143.691 103.073 136.586Z" fill="#453396"/>
<path d="M139.507 148.315C132.58 148.315 128.362 144.665 128.281 139.166H136.717C136.699 139.547 136.765 139.928 136.911 140.281C137.057 140.635 137.278 140.952 137.56 141.21C137.841 141.468 138.176 141.662 138.54 141.777C138.905 141.891 139.29 141.925 139.669 141.875C140.95 141.875 142.151 141.226 142.151 139.912C142.151 138.598 140.285 138.014 137.884 137.625C133.943 136.976 128.719 135.792 128.719 129.627C128.719 124.534 133.067 121.241 139.572 121.241C146.076 121.241 150.245 124.696 150.343 129.838H142.102C142.102 128.216 140.999 127.454 139.426 127.454C137.852 127.454 137.073 128.151 137.073 129.335C137.073 130.779 139.02 131.12 141.437 131.541C145.444 132.255 150.781 133.164 150.781 139.539C150.781 144.843 146.304 148.315 139.539 148.315H139.507Z" fill="#453396"/>
<path d="M151.332 122.084H160.092V147.487H151.332V122.084ZM151.332 111.475H159.962V118.905H151.397L151.332 111.475Z" fill="#453396"/>
<path d="M187.181 131.995V147.487H178.438V133.196C178.438 130.243 177.335 128.784 175.194 128.784C172.468 128.784 170.895 130.681 170.895 133.926V147.487H162.07V122.084H168.202L169.402 124.696C170.421 123.6 171.66 122.732 173.039 122.15C174.418 121.569 175.904 121.286 177.4 121.322C183.304 121.322 187.181 125.523 187.181 131.995Z" fill="#453396"/>
<path d="M215.067 134.542C215.057 135.319 214.992 136.095 214.872 136.862H196.006C196.122 138.131 196.73 139.303 197.701 140.128C198.671 140.953 199.927 141.365 201.197 141.274C202.104 141.323 203.007 141.129 203.814 140.713C204.621 140.297 205.302 139.673 205.788 138.906H214.499C213.786 141.369 212.401 143.586 210.5 145.307C208.598 147.028 206.256 148.187 203.734 148.652C201.212 149.118 198.61 148.873 196.219 147.944C193.829 147.016 191.744 145.44 190.197 143.394C188.651 141.348 187.705 138.912 187.464 136.359C187.223 133.806 187.697 131.236 188.834 128.937C189.97 126.638 191.724 124.7 193.899 123.341C196.074 121.982 198.584 121.255 201.149 121.241C209.341 121.241 215.018 127.097 215.018 134.542H215.067ZM196.169 132.012H206.437C206.147 130.851 205.459 129.829 204.492 129.123C203.526 128.418 202.343 128.074 201.149 128.151C199.995 128.1 198.862 128.459 197.949 129.167C197.037 129.874 196.406 130.882 196.169 132.012Z" fill="#453396"/>
<path d="M225.302 148.315C218.376 148.315 214.174 144.665 214.093 139.166H222.512C222.497 139.548 222.566 139.929 222.713 140.282C222.861 140.636 223.084 140.952 223.367 141.21C223.649 141.468 223.985 141.661 224.35 141.776C224.716 141.891 225.101 141.925 225.481 141.875C226.762 141.875 227.979 141.226 227.979 139.912C227.979 138.598 226.049 138.014 223.615 137.625C219.674 136.976 214.45 135.792 214.45 129.627C214.45 124.534 218.798 121.241 225.302 121.241C231.807 121.241 235.96 124.696 236.057 129.838H227.947C227.947 128.216 226.86 127.454 225.27 127.454C223.68 127.454 222.934 128.151 222.934 129.335C222.934 130.779 224.864 131.12 227.281 131.541C231.304 132.255 236.641 133.164 236.641 139.539C236.641 144.843 232.148 148.315 225.4 148.315H225.302Z" fill="#453396"/>
<path d="M246.894 148.315C239.967 148.315 235.766 144.665 235.685 139.166H244.104C244.089 139.547 244.157 139.926 244.304 140.278C244.451 140.63 244.672 140.946 244.953 141.203C245.234 141.461 245.567 141.655 245.931 141.771C246.294 141.887 246.678 141.922 247.056 141.875C248.337 141.875 249.554 141.226 249.554 139.912C249.554 138.598 247.624 138.014 245.19 137.625C241.249 136.976 236.025 135.792 236.025 129.627C236.025 124.534 240.373 121.241 246.878 121.241C253.382 121.241 257.535 124.696 257.649 129.838H249.441C249.441 128.216 248.354 127.454 246.764 127.454C245.174 127.454 244.428 128.151 244.428 129.335C244.428 130.779 246.375 131.12 248.775 131.541C252.798 132.255 258.135 133.164 258.135 139.539C258.135 144.843 253.658 148.315 246.894 148.315Z" fill="#453396"/>
<path d="M284.869 134.543C284.864 135.319 284.805 136.094 284.69 136.862H265.824C265.94 138.131 266.548 139.303 267.519 140.128C268.489 140.953 269.745 141.365 271.015 141.275C271.922 141.323 272.825 141.13 273.632 140.713C274.439 140.297 275.12 139.673 275.606 138.906H284.317C283.256 141.993 281.145 144.609 278.353 146.298C275.561 147.988 272.264 148.644 269.037 148.151C265.811 147.659 262.86 146.05 260.699 143.604C258.537 141.159 257.303 138.032 257.211 134.77C257.171 132.959 257.504 131.159 258.187 129.482C258.871 127.804 259.891 126.285 261.184 125.017C262.478 123.749 264.018 122.76 265.709 122.11C267.399 121.461 269.206 121.165 271.015 121.241C279.126 121.241 284.869 127.097 284.869 134.543ZM266.035 132.012H276.32C276.026 130.85 275.335 129.827 274.366 129.122C273.397 128.417 272.211 128.073 271.015 128.151C269.862 128.1 268.728 128.46 267.816 129.167C266.904 129.874 266.273 130.882 266.035 132.012Z" fill="#453396"/>
<path d="M295.12 148.315C288.194 148.315 283.976 144.665 283.895 139.166H292.33C292.314 139.543 292.379 139.919 292.522 140.268C292.665 140.618 292.882 140.932 293.158 141.189C293.434 141.447 293.762 141.641 294.121 141.76C294.479 141.878 294.859 141.917 295.234 141.875C296.515 141.875 297.732 141.226 297.732 139.912C297.732 138.598 295.802 138.014 293.352 137.625C289.427 136.976 284.203 135.792 284.203 129.627C284.203 124.534 288.534 121.241 295.056 121.241C301.577 121.241 305.713 124.696 305.81 129.838H297.667C297.667 128.216 296.58 127.454 294.991 127.454C293.401 127.454 292.638 128.151 292.638 129.335C292.638 130.779 294.585 131.12 297.002 131.541C301.009 132.255 306.346 133.164 306.346 139.539C306.346 144.843 301.869 148.315 295.12 148.315Z" fill="#453396"/>
</svg>
