<svg width="642" height="313" viewBox="0 0 642 313" fill="none" xmlns="http://www.w3.org/2000/svg">
<path d="M0.577881 50.1772H20.1931C20.1873 51.2109 20.3997 52.2343 20.8166 53.1803C21.2335 54.1263 21.8455 54.9735 22.6125 55.6667C23.3794 56.3599 24.2841 56.8833 25.2673 57.2026C26.2505 57.522 27.2901 57.6302 28.318 57.5201C32.3294 57.5201 36.1369 55.4124 36.1369 51.639C36.1369 47.2876 30.7317 46.0297 24.1706 44.466C14.21 41.9843 1.46176 38.9247 1.46176 23.2189C1.46176 9.62085 11.4564 1.83594 27.7401 1.83594C44.0238 1.83594 53.7804 10.1988 53.7804 24.3748H34.7091C34.7215 23.4593 34.537 22.5519 34.1682 21.714C33.7995 20.876 33.2549 20.1271 32.5716 19.5179C31.8882 18.9086 31.0819 18.4533 30.2073 18.1828C29.3327 17.9122 28.4101 17.8327 27.5021 17.9497C24.1026 17.9497 20.873 19.4115 20.873 22.641C20.873 26.5505 26.0743 27.8423 32.5674 29.4401C42.766 32.0917 55.9901 35.4572 55.9901 51.231C55.9901 66.3249 44.4317 74.1438 28.386 74.1438C11.4904 74.1778 0.577881 65.2371 0.577881 50.1772Z" fill="#453396"/>
<path d="M139.38 39.0947V72.4781H121.023V41.3384C121.023 35.7972 118.983 33.1116 115.074 33.1116C110.043 33.1116 107.459 36.5111 107.459 43.3101V72.512H89.5435V41.3384C89.5435 35.9672 87.5378 33.1116 83.6963 33.1116C78.699 33.1116 75.9794 36.5111 75.9794 43.3101V72.512H57.7919V19.2415H70.6761L73.2938 24.9527C75.1853 22.6914 77.5445 20.8671 80.209 19.6053C82.8734 18.3435 85.7797 17.6743 88.7276 17.6437C91.7263 17.5673 94.6961 18.2466 97.3634 19.6189C100.031 20.9912 102.31 23.0125 103.991 25.4966C105.946 23.0362 108.432 21.0511 111.265 19.6909C114.097 18.3306 117.201 17.6307 120.343 17.6437C131.766 17.6437 139.38 26.5505 139.38 39.0947Z" fill="#453396"/>
<path d="M199.518 19.1735V72.4101H185.308L183.744 68.6706C179.194 72.311 173.526 74.2684 167.698 74.2118C163.959 74.3186 160.238 73.6527 156.768 72.256C153.298 70.8593 150.153 68.7616 147.53 66.0943C144.908 63.4269 142.863 60.2472 141.525 56.7538C140.187 53.2605 139.585 49.5287 139.754 45.7918C139.613 42.0717 140.237 38.3621 141.588 34.893C142.939 31.4239 144.988 28.269 147.608 25.6239C150.227 22.9787 153.362 20.8996 156.818 19.5152C160.274 18.1308 163.977 17.4707 167.698 17.5758C173.618 17.5081 179.372 19.5305 183.948 23.287L185.818 19.1735H199.518ZM182.044 45.8258C182.168 44.1877 181.953 42.5416 181.411 40.9907C180.869 39.4398 180.013 38.0174 178.896 36.8128C177.779 35.6081 176.425 34.6471 174.92 33.9899C173.414 33.3326 171.789 32.9934 170.146 32.9934C168.503 32.9934 166.878 33.3326 165.373 33.9899C163.867 34.6471 162.513 35.6081 161.396 36.8128C160.279 38.0174 159.423 39.4398 158.881 40.9907C158.34 42.5416 158.124 44.1877 158.248 45.8258C158.124 47.464 158.34 49.11 158.881 50.6609C159.423 52.2119 160.279 53.6342 161.396 54.8389C162.513 56.0435 163.867 57.0046 165.373 57.6618C166.878 58.319 168.503 58.6582 170.146 58.6582C171.789 58.6582 173.414 58.319 174.92 57.6618C176.425 57.0046 177.779 56.0435 178.896 54.8389C180.013 53.6342 180.869 52.2119 181.411 50.6609C181.953 49.11 182.168 47.464 182.044 45.8258Z" fill="#453396"/>
<path d="M203.665 0H221.989V72.4778H203.665V0Z" fill="#453396"/>
<path d="M226.136 0H244.46V72.4778H226.136V0Z" fill="#453396"/>
<path d="M72.2059 190.781L66.8007 151.041L48.5113 190.883H42.8681L24.5786 151.041L19.2754 190.781H6.10352e-05L10.4366 121.771H29.4399L45.6897 159.166L62.0414 121.771H81.0447L91.2433 190.781H72.2059Z" fill="#453396"/>
<path d="M146.621 163.653C146.59 165.282 146.442 166.907 146.179 168.515H106.711C106.953 171.173 108.228 173.63 110.262 175.359C112.296 177.088 114.927 177.95 117.589 177.761C119.489 177.863 121.382 177.457 123.073 176.585C124.764 175.713 126.192 174.405 127.21 172.798H145.465C143.642 178.698 139.92 183.829 134.879 187.395C129.838 190.961 123.759 192.761 117.589 192.515C113.781 192.647 109.986 192.011 106.429 190.645C102.872 189.278 99.6261 187.21 96.8856 184.563C94.145 181.915 91.9655 178.743 90.4769 175.236C88.9883 171.728 88.2212 167.957 88.2212 164.146C88.2212 160.336 88.9883 156.565 90.4769 153.057C91.9655 149.549 94.145 146.377 96.8856 143.73C99.6261 141.083 102.872 139.014 106.429 137.648C109.986 136.282 113.781 135.645 117.589 135.777C134.587 135.777 146.621 148.05 146.621 163.653ZM107.017 158.35H128.57C127.979 155.92 126.56 153.772 124.555 152.276C122.551 150.781 120.087 150.031 117.589 150.157C115.136 150.02 112.715 150.773 110.773 152.278C108.83 153.784 107.496 155.94 107.017 158.35Z" fill="#453396"/>
<path d="M203.971 118.304V190.781H190.373L188.504 186.974C183.997 190.739 178.296 192.775 172.424 192.719C168.682 192.831 164.957 192.168 161.483 190.774C158.009 189.379 154.86 187.282 152.233 184.614C149.607 181.946 147.56 178.765 146.22 175.269C144.88 171.774 144.276 168.039 144.446 164.299C144.281 160.562 144.888 156.831 146.23 153.339C147.572 149.848 149.62 146.671 152.246 144.006C154.872 141.342 158.019 139.248 161.491 137.856C164.963 136.463 168.685 135.802 172.424 135.913C177.081 135.807 181.674 137.008 185.682 139.381V118.304H203.971ZM186.974 164.163C186.927 161.814 186.188 159.531 184.848 157.6C183.509 155.669 181.629 154.177 179.445 153.31C177.261 152.444 174.87 152.241 172.571 152.728C170.272 153.215 168.169 154.37 166.524 156.047C164.879 157.725 163.765 159.851 163.324 162.159C162.883 164.467 163.132 166.854 164.042 169.021C164.952 171.187 166.481 173.037 168.438 174.338C170.394 175.639 172.692 176.333 175.042 176.333C176.637 176.362 178.221 176.065 179.697 175.461C181.174 174.857 182.512 173.957 183.629 172.818C184.746 171.679 185.618 170.324 186.194 168.835C186.769 167.347 187.034 165.757 186.974 164.163Z" fill="#453396"/>
<path d="M207.881 137.545H226.238V190.782H207.881V137.545ZM207.881 115.312H225.966V130.882H208.017L207.881 115.312Z" fill="#453396"/>
<path d="M229.672 167.936V137.545H248.165V167.121C248.165 172.73 251.191 176.061 256.086 176.061C260.981 176.061 263.939 172.662 263.939 167.121V137.545H282.16V167.936C282.16 182.826 271.656 192.515 255.95 192.515C240.244 192.515 229.672 182.826 229.672 167.936Z" fill="#453396"/>
<path d="M367.149 157.398V190.781H348.825V159.777C348.825 154.236 346.785 151.551 342.876 151.551C337.845 151.551 335.261 154.95 335.261 161.749V190.951H317.482V159.777C317.482 154.406 315.442 151.551 311.6 151.551C306.637 151.551 303.917 154.95 303.917 161.749V190.951H285.56V137.545H298.478L301.096 143.256C303.005 140.983 305.388 139.155 308.077 137.898C310.766 136.642 313.697 135.988 316.666 135.981C319.663 135.914 322.629 136.597 325.295 137.969C327.961 139.34 330.241 141.356 331.929 143.834C333.88 141.369 336.366 139.382 339.199 138.021C342.033 136.66 345.138 135.963 348.281 135.981C359.67 135.981 367.149 144.854 367.149 157.398Z" fill="#453396"/>
<path d="M370.344 155.154H406.481V171.812H370.344V155.154Z" fill="#453396"/>
<path d="M407.739 168.48H427.354C427.348 169.514 427.561 170.538 427.978 171.483C428.395 172.429 429.006 173.277 429.773 173.97C430.54 174.663 431.445 175.186 432.428 175.506C433.412 175.825 434.451 175.933 435.479 175.823C439.456 175.823 443.264 173.716 443.264 169.942C443.264 165.591 437.893 164.333 431.332 162.769C421.371 160.288 408.623 157.228 408.623 141.522C408.623 127.924 418.617 120.139 434.901 120.139C451.185 120.139 460.907 128.604 460.907 142.678H441.938C441.955 141.764 441.776 140.857 441.411 140.019C441.046 139.181 440.504 138.432 439.824 137.822C439.143 137.212 438.339 136.756 437.466 136.486C436.593 136.215 435.671 136.135 434.765 136.253C431.366 136.253 427.966 137.715 427.966 140.944C427.966 144.854 433.167 146.146 439.694 147.743C449.893 150.395 463.117 153.76 463.117 169.534C463.117 184.594 451.525 192.447 435.513 192.447C418.651 192.481 407.739 183.574 407.739 168.48Z" fill="#453396"/>
<path d="M464.817 137.545H483.14V190.782H464.817V137.545ZM464.817 115.312H482.868V130.882H464.817V115.312Z" fill="#453396"/>
<path d="M529.51 174.464V190.781H483.514V188.062L503.911 153.726H485.35V137.545H529.306V140.536L509.181 174.531L529.51 174.464Z" fill="#453396"/>
<path d="M584.718 163.653C584.698 165.281 584.561 166.906 584.31 168.514H544.91C545.152 171.173 546.427 173.63 548.461 175.359C550.495 177.088 553.125 177.95 555.788 177.761C557.688 177.863 559.581 177.457 561.272 176.585C562.963 175.712 564.391 174.405 565.409 172.798H583.664C582.168 177.964 579.263 182.612 575.273 186.221C571.284 189.829 566.369 192.255 561.079 193.228C555.789 194.2 550.332 193.68 545.321 191.726C540.309 189.771 535.941 186.46 532.705 182.163C529.47 177.866 527.495 172.753 527.002 167.397C526.508 162.041 527.516 156.653 529.913 151.837C532.309 147.022 535.999 142.968 540.569 140.132C545.139 137.295 550.409 135.787 555.788 135.777C572.786 135.777 584.854 148.049 584.854 163.653H584.718ZM545.114 158.35H566.633C566.048 155.916 564.63 153.764 562.624 152.268C560.618 150.771 558.151 150.024 555.652 150.157C553.227 150.061 550.847 150.834 548.94 152.336C547.034 153.837 545.725 155.97 545.25 158.35H545.114Z" fill="#453396"/>
<path d="M642 118.304V190.781H628.402L626.702 186.974C622.208 190.739 616.518 192.776 610.656 192.719C606.914 192.831 603.19 192.168 599.715 190.774C596.241 189.379 593.092 187.282 590.466 184.614C587.839 181.946 585.792 178.765 584.452 175.269C583.112 171.774 582.508 168.039 582.678 164.299C582.513 160.562 583.12 156.831 584.463 153.339C585.805 149.848 587.853 146.671 590.479 144.006C593.104 141.342 596.252 139.248 599.724 137.856C603.195 136.463 606.917 135.802 610.656 135.913C615.302 135.806 619.885 137.008 623.881 139.381V118.304H642ZM625.002 164.163C624.955 161.812 624.215 159.528 622.874 157.597C621.533 155.665 619.652 154.173 617.466 153.307C615.28 152.441 612.887 152.241 610.587 152.731C608.288 153.22 606.184 154.378 604.54 156.06C602.897 157.741 601.786 159.87 601.349 162.18C600.911 164.49 601.166 166.878 602.08 169.044C602.995 171.21 604.53 173.057 606.491 174.354C608.452 175.651 610.753 176.34 613.104 176.333C614.696 176.358 616.277 176.057 617.749 175.451C619.222 174.844 620.555 173.944 621.669 172.805C622.782 171.667 623.652 170.313 624.225 168.827C624.798 167.342 625.063 165.755 625.002 164.163Z" fill="#453396"/>
<path d="M47.5932 272.642C50.7953 274.113 53.5 276.484 55.3773 279.466C57.2547 282.448 58.2236 285.912 58.1658 289.436C58.1658 300.62 48.5111 309.085 35.7969 309.085H3.94336V240.074H35.117C47.3553 240.074 56.296 247.519 56.296 257.718C56.2532 260.744 55.4296 263.708 53.9049 266.323C52.3802 268.938 50.2061 271.114 47.5932 272.642ZM38.2785 260.88C38.2927 260.052 38.1309 259.23 37.8039 258.47C37.4768 257.709 36.9919 257.026 36.3813 256.467C35.7706 255.908 35.0482 255.485 34.2618 255.226C33.4754 254.967 32.6429 254.878 31.8195 254.964H22.1988V266.999H31.8195C32.649 267.082 33.4866 266.986 34.2762 266.719C35.0658 266.451 35.7892 266.018 36.3976 265.448C37.0061 264.878 37.4857 264.185 37.8043 263.415C38.1228 262.644 38.2729 261.815 38.2446 260.982L38.2785 260.88ZM39.3664 287.158C39.3754 286.288 39.2011 285.427 38.8547 284.629C38.5084 283.831 37.9978 283.116 37.3563 282.529C36.7147 281.942 35.9567 281.497 35.1315 281.222C34.3064 280.948 33.4326 280.851 32.5674 280.937H22.3688V293.481H32.5674C33.4375 293.558 34.3141 293.45 35.1399 293.165C35.9658 292.881 36.7224 292.425 37.3606 291.829C37.9988 291.232 38.5042 290.508 38.8439 289.703C39.1836 288.899 39.3501 288.031 39.3324 287.158H39.3664Z" fill="#453396"/>
<path d="M59.1177 286.24V255.848H77.4752V285.56C77.4752 291.169 80.5007 294.501 85.3961 294.501C90.2914 294.501 93.249 291.101 93.249 285.56V255.984H111.606V286.24C111.606 301.13 101.102 310.818 85.3961 310.818C69.6903 310.818 59.1177 301.13 59.1177 286.24Z" fill="#453396"/>
<path d="M135.573 310.818C121.057 310.818 112.218 303.169 112.048 291.645H129.726C129.694 292.45 129.838 293.252 130.149 293.995C130.461 294.738 130.931 295.403 131.527 295.945C132.124 296.486 132.832 296.89 133.601 297.128C134.371 297.366 135.183 297.432 135.981 297.322C138.667 297.322 141.216 295.962 141.216 293.209C141.216 290.455 137.171 289.231 132.038 288.416C123.811 287.056 112.864 284.574 112.864 271.656C112.864 260.981 121.941 254.08 135.607 254.08C149.273 254.08 157.942 261.321 158.146 272.098H141.148C141.148 268.698 138.871 267.101 135.539 267.101C132.208 267.101 130.61 268.562 130.61 271.044C130.61 274.07 134.689 274.783 139.755 275.667C148.151 277.163 159.336 279.067 159.336 292.427C159.336 303.543 149.953 310.818 135.811 310.818H135.573Z" fill="#453396"/>
<path d="M160.288 255.848H178.611V309.085H160.288V255.848ZM160.288 233.615H178.475V249.185H160.424L160.288 233.615Z" fill="#453396"/>
<path d="M235.383 276.619V309.085H217.06V279.135C217.06 272.948 214.714 269.888 210.091 269.888C204.379 269.888 201.082 273.866 201.082 280.665V309.085H182.758V255.848H195.609L198.124 261.322C200.259 259.025 202.856 257.206 205.745 255.988C208.634 254.769 211.749 254.177 214.884 254.251C227.258 254.251 235.383 263.055 235.383 276.619Z" fill="#453396"/>
<path d="M293.821 281.956C293.812 283.584 293.687 285.208 293.447 286.818H253.877C254.119 289.476 255.394 291.933 257.428 293.662C259.462 295.391 262.092 296.253 264.755 296.064C266.655 296.17 268.55 295.766 270.241 294.893C271.933 294.02 273.36 292.711 274.376 291.101H292.631C291.135 296.268 288.229 300.916 284.24 304.524C280.251 308.132 275.336 310.559 270.046 311.531C264.755 312.503 259.299 311.983 254.288 310.029C249.276 308.075 244.908 304.764 241.672 300.467C238.437 296.17 236.462 291.057 235.968 285.7C235.475 280.344 236.483 274.956 238.879 270.141C241.276 265.325 244.966 261.272 249.536 258.435C254.106 255.599 259.376 254.091 264.755 254.08C281.923 254.08 293.821 266.353 293.821 281.956ZM254.216 276.653H275.735C275.131 274.239 273.704 272.11 271.7 270.633C269.696 269.157 267.24 268.425 264.755 268.562C262.321 268.429 259.921 269.172 257.987 270.656C256.054 272.14 254.717 274.268 254.216 276.653Z" fill="#453396"/>
<path d="M315.272 310.818C300.756 310.818 291.951 303.169 291.781 291.645H309.357C309.326 292.443 309.469 293.239 309.776 293.976C310.084 294.714 310.548 295.375 311.136 295.916C311.725 296.456 312.424 296.861 313.185 297.104C313.946 297.347 314.751 297.421 315.544 297.322C318.229 297.322 320.779 295.962 320.779 293.209C320.779 290.455 316.768 289.231 311.634 288.416C303.374 287.056 292.427 284.574 292.427 271.656C292.427 260.981 301.538 254.08 315.17 254.08C328.802 254.08 337.539 261.321 337.743 272.098H320.609C320.609 268.698 318.331 267.101 315 267.101C311.668 267.101 310.105 268.562 310.105 271.044C310.105 274.07 314.184 274.783 319.215 275.667C327.646 277.163 338.831 279.067 338.831 292.427C338.831 303.543 329.448 310.818 315.272 310.818Z" fill="#453396"/>
<path d="M360.554 310.818C346.038 310.818 337.199 303.169 337.029 291.645H354.672C354.641 292.447 354.785 293.245 355.094 293.986C355.403 294.726 355.87 295.389 356.463 295.93C357.056 296.471 357.759 296.876 358.524 297.116C359.29 297.356 360.098 297.427 360.894 297.322C363.545 297.322 366.095 295.962 366.095 293.209C366.095 290.455 362.083 289.231 356.95 288.416C348.689 287.056 337.743 284.574 337.743 271.656C337.743 260.981 346.853 254.08 360.486 254.08C374.118 254.08 382.854 261.321 383.058 272.098H365.891C365.891 268.698 363.579 267.101 360.282 267.101C356.984 267.101 355.352 268.562 355.352 271.044C355.352 274.07 359.432 274.783 364.497 275.667C372.894 277.163 384.078 279.067 384.078 292.427C384.078 303.543 374.696 310.818 360.52 310.818H360.554Z" fill="#453396"/>
<path d="M440.102 281.956C440.094 283.584 439.969 285.208 439.728 286.818H400.192C400.434 289.476 401.709 291.933 403.743 293.662C405.777 295.391 408.408 296.253 411.07 296.064C412.97 296.166 414.863 295.76 416.554 294.888C418.245 294.016 419.673 292.709 420.691 291.101H438.946C437.45 296.268 434.545 300.916 430.556 304.524C426.567 308.132 421.652 310.559 416.361 311.531C411.071 312.503 405.614 311.983 400.603 310.029C395.592 308.075 391.223 304.764 387.988 300.467C384.752 296.17 382.777 291.057 382.284 285.7C381.791 280.344 382.799 274.956 385.195 270.141C387.591 265.325 391.281 261.272 395.851 258.435C400.422 255.599 405.691 254.091 411.07 254.08C428.068 254.08 440.102 266.353 440.102 281.956ZM400.498 276.653H422.051C421.44 274.242 420.012 272.117 418.009 270.642C416.007 269.166 413.554 268.431 411.07 268.562C408.631 268.421 406.222 269.16 404.282 270.645C402.341 272.13 400.999 274.262 400.498 276.653Z" fill="#453396"/>
<path d="M461.587 310.818C447.071 310.818 438.267 303.169 438.097 291.645H455.74C455.709 292.443 455.853 293.239 456.16 293.976C456.467 294.714 456.931 295.375 457.52 295.916C458.109 296.456 458.808 296.861 459.569 297.104C460.33 297.347 461.135 297.421 461.927 297.322C464.613 297.322 467.163 295.962 467.163 293.209C467.163 290.455 463.117 289.231 458.018 288.416C449.757 287.056 438.811 284.574 438.811 271.656C438.811 260.981 447.887 254.08 461.553 254.08C475.219 254.08 483.888 261.321 484.092 272.098H466.925C466.925 268.698 464.647 267.101 461.315 267.101C457.984 267.101 456.386 268.562 456.386 271.044C456.386 274.07 460.466 274.783 465.531 275.667C473.928 277.163 485.112 279.067 485.112 292.427C485.112 303.543 475.729 310.818 461.587 310.818Z" fill="#453396"/>
</svg>
