<svg width="466" height="354" viewBox="0 0 466 354" fill="none" xmlns="http://www.w3.org/2000/svg">
<path fill-rule="evenodd" clip-rule="evenodd" d="M12.4167 189.888C8.68787 150.123 16.9418 107.501 47.6095 78.6011C76.6599 51.2254 121.871 43.1318 162.719 48.2499C196.275 52.4542 212.62 84.237 239.632 102.661C269.414 122.974 313.93 127.947 326.593 160.021C341.389 197.497 334.635 242.758 307.518 274.611C279.856 307.106 233.257 318.576 188.738 321.958C145.282 325.258 101.137 317.873 67.6977 292.826C34.1577 267.704 16.1502 229.702 12.4167 189.888Z" fill="#EC407A"/>
<g clip-path="url(#clip0_1_1137)">
<path d="M353.125 313.099H126.641V90.2622H459.457V313.099" stroke="#273F52" stroke-width="4.95105" stroke-miterlimit="10"/>
<path d="M238.133 5.64062H345.96C360.542 5.64062 372.36 17.4876 372.36 32.0425V87.7517C372.36 89.1338 371.231 90.2621 369.849 90.2621H214.103C212.721 90.2621 211.593 89.1338 211.593 87.7517V32.1836C211.593 17.544 223.495 5.64062 238.133 5.64062Z" stroke="#273F52" stroke-width="4.95105" stroke-miterlimit="10"/>
<path d="M335.636 169.468H250.486V228.703H335.636V169.468Z" stroke="#273F52" stroke-width="3.71329" stroke-miterlimit="10"/>
<path d="M274.545 199.086C278.642 199.086 281.963 195.764 281.963 191.667C281.963 187.57 278.642 184.249 274.545 184.249C270.448 184.249 267.127 187.57 267.127 191.667C267.127 195.764 270.448 199.086 274.545 199.086Z" fill="#FFCD00"/>
<path d="M274.545 203.712C268.932 203.712 264.363 208.281 264.363 213.895H284.727C284.727 208.281 280.158 203.712 274.545 203.712Z" fill="#FFCD00"/>
<path d="M301.988 188.987H324.213" stroke="#273F52" stroke-width="3.71329" stroke-miterlimit="10" stroke-linecap="round"/>
<path d="M301.988 199.085H324.213" stroke="#273F52" stroke-width="3.71329" stroke-miterlimit="10" stroke-linecap="round"/>
<path d="M301.988 208.731H324.213" stroke="#273F52" stroke-width="3.71329" stroke-miterlimit="10" stroke-linecap="round"/>
<path d="M356.426 151.5C366.241 164.673 372.023 180.977 372.023 198.663C372.023 216.603 366.043 233.132 355.974 246.389" stroke="#273F52" stroke-width="3.71329" stroke-miterlimit="10"/>
<path d="M257.2 128.257C267.974 122.757 280.158 119.654 293.048 119.654C305.938 119.654 319.137 123.01 330.222 128.934" stroke="#273F52" stroke-width="3.71329" stroke-miterlimit="10"/>
<path d="M230.716 247.15C220.281 233.752 214.076 216.94 214.076 198.634C214.076 180.609 220.112 163.967 230.293 150.682" stroke="#273F52" stroke-width="3.71329" stroke-miterlimit="10"/>
<path d="M329.884 268.531C318.884 274.341 306.361 277.642 293.048 277.642C279.736 277.642 268.425 274.652 257.792 269.349" stroke="#273F52" stroke-width="3.71329" stroke-miterlimit="10"/>
<path d="M257.566 269.208C254.633 274.962 248.626 278.911 241.715 278.911C231.9 278.911 223.918 270.929 223.918 261.113C223.918 251.297 231.9 243.314 241.715 243.314C251.531 243.314 259.513 251.297 259.513 261.113C259.513 264.018 258.807 266.782 257.566 269.208" stroke="#273F52" stroke-width="2.47552" stroke-miterlimit="10"/>
<path d="M241.716 261.14C244.551 261.14 246.849 258.842 246.849 256.007C246.849 253.171 244.551 250.873 241.716 250.873C238.881 250.873 236.583 253.171 236.583 256.007C236.583 258.842 238.881 261.14 241.716 261.14Z" fill="#A840F6"/>
<path d="M241.715 264.328C237.823 264.328 234.664 267.487 234.664 271.379H248.766C248.766 267.487 245.608 264.328 241.715 264.328Z" fill="#A840F6"/>
<path d="M346.073 278.939C355.902 278.939 363.871 270.971 363.871 261.141C363.871 251.311 355.902 243.342 346.073 243.342C336.244 243.342 328.276 251.311 328.276 261.141C328.276 270.971 336.244 278.939 346.073 278.939Z" stroke="#273F52" stroke-width="2.47552" stroke-miterlimit="10"/>
<path d="M346.073 261.141C348.908 261.141 351.206 258.843 351.206 256.007C351.206 253.172 348.908 250.874 346.073 250.874C343.238 250.874 340.94 253.172 340.94 256.007C340.94 258.843 343.238 261.141 346.073 261.141Z" fill="#A840F6"/>
<path d="M346.072 264.328C342.18 264.328 339.021 267.487 339.021 271.38H353.124C353.124 267.487 349.965 264.328 346.072 264.328Z" fill="#A840F6"/>
<path d="M230.292 150.681C226.4 147.409 223.918 142.501 223.918 137.029C223.918 127.213 231.9 119.23 241.715 119.23C251.531 119.23 259.513 127.213 259.513 137.029C259.513 146.845 251.531 154.828 241.715 154.828C237.372 154.828 233.395 153.277 230.292 150.681" stroke="#273F52" stroke-width="2.47552" stroke-miterlimit="10"/>
<path d="M241.716 137.03C244.551 137.03 246.849 134.732 246.849 131.896C246.849 129.061 244.551 126.763 241.716 126.763C238.881 126.763 236.583 129.061 236.583 131.896C236.583 134.732 238.881 137.03 241.716 137.03Z" fill="#A840F6"/>
<path d="M241.715 140.217C237.823 140.217 234.664 143.376 234.664 147.269H248.766C248.766 143.376 245.608 140.217 241.715 140.217Z" fill="#A840F6"/>
<path d="M330.196 128.934C333.129 123.179 339.137 119.23 346.047 119.23C355.862 119.23 363.844 127.213 363.844 137.029C363.844 146.845 355.862 154.828 346.047 154.828C336.231 154.828 328.25 146.845 328.25 137.029C328.25 134.124 328.955 131.36 330.196 128.934" stroke="#273F52" stroke-width="2.47552" stroke-miterlimit="10"/>
<path d="M346.075 137.03C348.91 137.03 351.208 134.732 351.208 131.896C351.208 129.061 348.91 126.763 346.075 126.763C343.24 126.763 340.942 129.061 340.942 131.896C340.942 134.732 343.24 137.03 346.075 137.03Z" fill="#A840F6"/>
<path d="M346.074 140.217C342.182 140.217 339.023 143.376 339.023 147.269H353.125C353.125 143.376 349.966 140.217 346.074 140.217Z" fill="#A840F6"/>
<path d="M395.939 354.002C395.939 351.237 395.967 348.473 395.939 345.737C395.939 345.568 395.769 345.257 395.628 345.201C393.175 344.242 390.693 343.283 388.098 342.267L382.259 348.135L370.16 336.062L376.167 330.11C375.631 328.982 375.124 328.079 374.701 327.12C374.165 325.851 373.629 324.553 373.262 323.228C373.036 322.466 372.698 322.269 371.965 322.297C369.708 322.353 367.452 322.297 365.196 322.297C364.913 322.297 364.631 322.297 364.293 322.297V305.006C364.547 305.006 364.829 305.006 365.111 305.006C367.48 305.006 369.849 305.006 372.218 305.006C372.783 305.006 373.008 304.865 373.206 304.301C374.052 301.959 374.983 299.675 375.942 297.249L370.019 291.382L382.175 279.224L388.098 285.176C389.875 284.386 391.454 283.653 393.034 282.976C393.682 282.694 394.359 282.44 395.036 282.299C395.826 282.158 395.995 281.735 395.967 281.001C395.91 278.745 395.967 276.488 395.967 274.232C395.967 273.95 395.967 273.668 395.967 273.329H413.256V274.147C413.256 276.545 413.256 278.942 413.256 281.312C413.256 281.819 413.397 282.017 413.877 282.214C416.049 283.061 418.192 283.963 420.336 284.894C420.815 285.12 421.069 285.035 421.408 284.697C423.072 282.976 424.792 281.312 426.484 279.619C426.682 279.45 426.851 279.253 426.992 279.14L439.12 291.241L433.084 297.192C433.62 298.264 434.1 299.139 434.466 300.069C435.059 301.536 435.566 303.003 436.159 304.47C436.243 304.695 436.554 305.006 436.751 305.006C439.515 305.006 442.279 305.006 445.015 305.006V322.353C442.477 322.353 439.91 322.353 437.371 322.297C436.554 322.297 436.13 322.438 435.961 323.312C435.848 323.989 435.566 324.61 435.313 325.258C434.636 326.838 433.902 328.418 433.113 330.195L439.148 336.175L427.133 348.388L421.097 342.352C418.474 343.368 416.02 344.298 413.567 345.286C413.426 345.342 413.256 345.624 413.256 345.822C413.256 348.586 413.256 351.35 413.256 354.086H395.91L395.939 354.002ZM432.52 291.241L426.964 285.656L421.577 291.043C421.577 291.043 421.492 291.043 421.464 291.043C417.685 288.42 413.538 286.615 408.997 285.797C408.8 285.768 408.574 285.374 408.546 285.148C408.518 283.653 408.546 282.158 408.546 280.663C408.546 279.789 408.546 278.886 408.546 277.983H400.733C400.733 278.294 400.733 278.576 400.733 278.858C400.733 280.917 400.733 282.948 400.733 285.007C400.733 285.571 400.564 285.768 400 285.881C397.151 286.417 394.387 287.263 391.821 288.617C390.411 289.379 389.057 290.225 387.618 291.071L382.288 285.74L376.731 291.297L382.09 296.628C382.09 296.628 382.006 296.826 381.949 296.91C379.354 300.634 377.634 304.695 376.844 309.18C376.759 309.66 376.506 309.688 376.111 309.688C373.995 309.688 371.908 309.688 369.793 309.688C369.511 309.688 369.257 309.688 368.975 309.688V317.502H369.877C371.908 317.502 373.939 317.502 375.942 317.502C376.534 317.502 376.731 317.671 376.844 318.263C377.549 322.015 378.847 325.541 380.934 328.756C381.3 329.349 381.695 329.941 382.147 330.646L376.731 336.034L382.231 341.534L387.618 336.146C387.618 336.146 387.703 336.146 387.731 336.146C391.511 338.77 395.657 340.575 400.198 341.393C400.395 341.421 400.621 341.816 400.649 342.042C400.677 343.537 400.649 345.032 400.649 346.527C400.649 347.401 400.649 348.304 400.649 349.206H408.462V348.332C408.462 346.273 408.462 344.242 408.462 342.183C408.462 341.619 408.631 341.421 409.195 341.308C412.044 340.772 414.808 339.926 417.374 338.572C418.785 337.811 420.138 336.964 421.577 336.118L426.907 341.449L432.464 335.893L427.105 330.561C427.105 330.561 427.19 330.364 427.246 330.279C429.841 326.556 431.561 322.494 432.351 318.009C432.436 317.53 432.689 317.502 433.084 317.502C435.2 317.502 437.287 317.502 439.402 317.502C439.684 317.502 439.938 317.502 440.22 317.502V309.688C439.882 309.688 439.6 309.688 439.318 309.688C437.287 309.688 435.256 309.688 433.254 309.688C432.661 309.688 432.464 309.519 432.351 308.927C431.646 305.175 430.348 301.649 428.261 298.433C427.895 297.841 427.5 297.249 427.105 296.628L432.52 291.212V291.241Z" fill="#00B6FF"/>
<path d="M422.508 313.638C422.48 323.539 414.413 331.549 404.598 331.493C394.67 331.437 386.66 323.369 386.772 313.553C386.885 303.624 394.811 295.726 404.654 295.754C414.526 295.754 422.564 303.822 422.536 313.666L422.508 313.638ZM417.769 313.638C417.769 306.389 411.959 300.521 404.682 300.465C397.462 300.409 391.567 306.248 391.483 313.553C391.398 320.802 397.321 326.754 404.626 326.754C411.875 326.754 417.741 320.915 417.769 313.638Z" fill="#00B6FF"/>
<path d="M166.832 179.115C166.832 178.382 166.832 177.649 166.832 176.915C166.832 176.859 166.804 176.802 166.747 176.774C166.099 176.52 165.45 176.267 164.745 175.984L163.194 177.536L159.978 174.32L161.586 172.741C161.445 172.43 161.304 172.205 161.191 171.951C161.05 171.612 160.909 171.274 160.796 170.907C160.74 170.71 160.655 170.653 160.458 170.653C159.865 170.653 159.245 170.653 158.653 170.653C158.568 170.653 158.512 170.653 158.427 170.653V166.056C158.427 166.056 158.568 166.056 158.653 166.056C159.273 166.056 159.922 166.056 160.542 166.056C160.683 166.056 160.768 166.027 160.796 165.858C161.022 165.238 161.276 164.617 161.53 163.968L159.95 162.417L163.194 159.173L164.773 160.753C165.253 160.555 165.676 160.358 166.099 160.16C166.268 160.076 166.437 160.019 166.635 159.991C166.832 159.963 166.888 159.85 166.888 159.652C166.888 159.06 166.888 158.44 166.888 157.847C166.888 157.763 166.888 157.706 166.888 157.622H171.486V157.847C171.486 158.496 171.486 159.117 171.486 159.765C171.486 159.906 171.514 159.963 171.655 159.991C172.219 160.217 172.811 160.442 173.376 160.696C173.517 160.753 173.573 160.724 173.658 160.64C174.109 160.188 174.56 159.737 175.011 159.286C175.068 159.229 175.124 159.201 175.152 159.173L178.368 162.389L176.76 163.968C176.901 164.25 177.042 164.476 177.127 164.73C177.296 165.125 177.409 165.52 177.578 165.914C177.578 165.971 177.691 166.056 177.747 166.056C178.481 166.056 179.214 166.056 179.947 166.056V170.681C179.27 170.681 178.593 170.681 177.916 170.681C177.691 170.681 177.578 170.71 177.55 170.964C177.522 171.133 177.437 171.302 177.381 171.471C177.211 171.894 177.014 172.318 176.788 172.797L178.396 174.377L175.209 177.62L173.601 176.013C172.896 176.295 172.247 176.52 171.599 176.802C171.57 176.802 171.514 176.887 171.514 176.943C171.514 177.677 171.514 178.41 171.514 179.144H166.888L166.832 179.115ZM176.563 162.417L175.068 160.922L173.629 162.36H173.601C172.586 161.655 171.486 161.176 170.273 160.95C170.217 160.95 170.16 160.837 170.16 160.781C170.16 160.386 170.16 159.991 170.16 159.596C170.16 159.37 170.16 159.117 170.16 158.891H168.073C168.073 158.891 168.073 159.06 168.073 159.117C168.073 159.652 168.073 160.217 168.073 160.753C168.073 160.894 168.017 160.95 167.876 160.978C167.114 161.119 166.381 161.345 165.704 161.712C165.337 161.909 164.971 162.135 164.576 162.36L163.165 160.95L161.699 162.417L163.137 163.827C163.137 163.827 163.137 163.884 163.109 163.912C162.432 164.899 161.953 165.999 161.755 167.184C161.755 167.297 161.671 167.325 161.558 167.325C160.994 167.325 160.43 167.325 159.865 167.325C159.781 167.325 159.724 167.325 159.64 167.325V169.412H159.894C160.43 169.412 160.965 169.412 161.501 169.412C161.671 169.412 161.727 169.469 161.755 169.61C161.953 170.597 162.291 171.556 162.827 172.402L163.137 172.91L161.699 174.348L163.165 175.815L164.604 174.377H164.632C165.647 175.082 166.747 175.561 167.96 175.787C168.017 175.787 168.073 175.9 168.073 175.956C168.073 176.351 168.073 176.746 168.073 177.141C168.073 177.367 168.073 177.62 168.073 177.846H170.16V177.62C170.16 177.085 170.16 176.52 170.16 175.984C170.16 175.843 170.217 175.787 170.358 175.759C171.119 175.618 171.852 175.392 172.529 175.025C172.896 174.828 173.263 174.602 173.658 174.377L175.068 175.787L176.534 174.32L175.096 172.91C175.096 172.91 175.096 172.853 175.124 172.825C175.801 171.838 176.281 170.738 176.478 169.553C176.478 169.44 176.563 169.412 176.675 169.412C177.24 169.412 177.804 169.412 178.368 169.412C178.452 169.412 178.509 169.412 178.593 169.412V167.325C178.593 167.325 178.424 167.325 178.34 167.325C177.804 167.325 177.268 167.325 176.732 167.325C176.563 167.325 176.506 167.268 176.478 167.127C176.281 166.14 175.942 165.181 175.406 164.335C175.293 164.166 175.209 164.025 175.096 163.855L176.534 162.417H176.563Z" fill="#273F52"/>
<path d="M173.883 168.369C173.883 170.992 171.74 173.136 169.117 173.108C166.466 173.108 164.35 170.936 164.378 168.341C164.378 165.689 166.522 163.602 169.145 163.602C171.768 163.602 173.912 165.746 173.912 168.369H173.883ZM172.614 168.369C172.614 166.451 171.063 164.871 169.117 164.871C167.199 164.871 165.619 166.423 165.619 168.341C165.619 170.259 167.171 171.867 169.117 171.867C171.035 171.867 172.614 170.315 172.614 168.369Z" fill="#273F52"/>
<path d="M156.367 148.088C156.367 146.452 156.367 144.816 156.367 143.18C156.367 143.067 156.283 142.898 156.17 142.87C154.703 142.306 153.237 141.742 151.685 141.149L148.216 144.619L141.024 137.426L144.578 133.872C144.239 133.195 143.957 132.659 143.703 132.095C143.393 131.333 143.083 130.572 142.829 129.782C142.688 129.331 142.491 129.218 142.067 129.218C140.714 129.246 139.388 129.218 138.034 129.218C137.865 129.218 137.696 129.218 137.498 129.218V118.95C137.668 118.95 137.809 118.95 137.978 118.95C139.388 118.95 140.798 118.95 142.18 118.95C142.519 118.95 142.66 118.866 142.773 118.527C143.28 117.145 143.844 115.763 144.408 114.324L140.883 110.827L148.103 103.606L151.629 107.131C152.701 106.652 153.631 106.229 154.562 105.834C154.957 105.665 155.352 105.524 155.747 105.439C156.226 105.354 156.311 105.101 156.311 104.677C156.311 103.324 156.311 101.998 156.311 100.644C156.311 100.475 156.311 100.305 156.311 100.108H166.577V100.587C166.577 101.998 166.577 103.436 166.577 104.847C166.577 105.129 166.662 105.27 166.944 105.383C168.241 105.89 169.511 106.426 170.78 106.962C171.062 107.075 171.203 107.047 171.4 106.849C172.388 105.834 173.403 104.847 174.418 103.831C174.531 103.718 174.644 103.606 174.729 103.549L181.921 110.742L178.339 114.268C178.649 114.917 178.931 115.424 179.157 115.96C179.523 116.835 179.805 117.709 180.144 118.584C180.2 118.725 180.37 118.894 180.511 118.894C182.146 118.894 183.782 118.894 185.418 118.894V129.189C183.895 129.189 182.4 129.19 180.877 129.161C180.398 129.161 180.144 129.246 180.059 129.754C180.003 130.149 179.834 130.543 179.664 130.91C179.27 131.841 178.846 132.772 178.367 133.844L181.949 137.398L174.813 144.647L171.231 141.065C169.68 141.657 168.213 142.221 166.747 142.785C166.662 142.814 166.549 142.983 166.549 143.096C166.549 144.732 166.549 146.368 166.549 148.004H156.254L156.367 148.088ZM178.085 110.798L174.785 107.498L171.598 110.714H171.541C169.285 109.162 166.831 108.091 164.124 107.611C164.011 107.611 163.87 107.357 163.87 107.216C163.87 106.313 163.87 105.439 163.87 104.536C163.87 104 163.87 103.493 163.87 102.957H159.216C159.216 103.154 159.216 103.324 159.216 103.493C159.216 104.706 159.216 105.919 159.216 107.16C159.216 107.498 159.131 107.611 158.793 107.667C157.101 108.006 155.465 108.485 153.942 109.303C153.096 109.755 152.306 110.262 151.46 110.77L148.301 107.611L145.001 110.911L148.188 114.099C148.188 114.099 148.131 114.211 148.103 114.268C146.58 116.468 145.537 118.894 145.085 121.545C145.029 121.827 144.888 121.856 144.662 121.856C143.421 121.856 142.152 121.856 140.911 121.856C140.742 121.856 140.573 121.856 140.432 121.856V126.51H140.967C142.18 126.51 143.365 126.51 144.578 126.51C144.916 126.51 145.057 126.623 145.114 126.961C145.537 129.189 146.298 131.277 147.539 133.195C147.765 133.533 147.99 133.9 148.273 134.323L145.057 137.511L148.329 140.783L151.516 137.567H151.572C153.829 139.118 156.283 140.19 158.99 140.67C159.103 140.67 159.244 140.924 159.244 141.065C159.244 141.967 159.244 142.842 159.244 143.744C159.244 144.28 159.244 144.788 159.244 145.324H163.898V144.788C163.898 143.575 163.898 142.362 163.898 141.121C163.898 140.783 163.983 140.67 164.321 140.613C166.013 140.275 167.649 139.795 169.172 138.977C170.018 138.526 170.808 138.018 171.654 137.511L174.813 140.67L178.113 137.37L174.926 134.21C174.926 134.21 174.982 134.098 175.011 134.041C176.534 131.841 177.577 129.415 178.029 126.764C178.085 126.482 178.226 126.453 178.452 126.482C179.693 126.482 180.962 126.482 182.203 126.482C182.372 126.482 182.541 126.482 182.682 126.482V121.827C182.485 121.827 182.316 121.827 182.146 121.827C180.934 121.827 179.749 121.827 178.536 121.827C178.198 121.827 178.057 121.715 178 121.376C177.577 119.148 176.816 117.06 175.575 115.142C175.349 114.804 175.123 114.437 174.898 114.07L178.113 110.855L178.085 110.798Z" fill="#273F52"/>
<path d="M172.134 124.112C172.134 130.007 167.339 134.746 161.5 134.718C155.606 134.69 150.839 129.895 150.896 124.056C150.952 118.16 155.662 113.478 161.529 113.478C167.395 113.478 172.162 118.273 172.134 124.112ZM169.313 124.112C169.313 119.796 165.872 116.327 161.529 116.299C157.242 116.271 153.744 119.74 153.688 124.056C153.66 128.371 157.157 131.897 161.5 131.897C165.816 131.897 169.285 128.428 169.313 124.112Z" fill="#273F52"/>
</g>
<defs>
<clipPath id="clip0_1_1137">
<rect width="344.098" height="354" fill="white" transform="translate(121)"/>
</clipPath>
</defs>
</svg>
