<svg width="651" height="651" viewBox="0 0 651 651" fill="none" xmlns="http://www.w3.org/2000/svg">
<rect width="651" height="651" fill="white"/>
<path d="M411.622 158.27C464.161 212.907 523.659 257.86 536.185 315.263C548.711 372.666 514.265 442.171 461.726 473.985C409.186 505.798 339.25 499.228 277.316 490.929C215.731 482.63 162.148 472.256 128.745 440.442C95.3429 408.975 82.1211 355.722 71.3349 292.095C60.5487 228.122 51.8502 153.429 85.2526 98.7928C118.655 44.1565 193.81 9.23082 254.004 24.1002C314.198 38.9695 359.431 103.634 411.622 158.27Z" fill="#EC407A"/>
<g clip-path="url(#clip0_110_3592)">
<path d="M303.685 431.163H57.7094V554.033H303.685V431.163Z" stroke="#2C3E50" stroke-width="5" stroke-miterlimit="10"/>
<path d="M293.534 443.372H160.901V543.563" stroke="#2C3E50" stroke-width="5" stroke-miterlimit="10"/>
<path d="M289.718 542.609H220.899L211.473 529.268L245.878 480.586L289.718 542.609Z" fill="#453396"/>
<path d="M221.015 542.609H171.397L196.206 508.258L211.45 529.359L221.015 542.609Z" fill="#9C47ED"/>
<path d="M196.303 485.101C204.788 485.101 211.667 478.229 211.667 469.752C211.667 461.275 204.788 454.404 196.303 454.404C187.818 454.404 180.939 461.275 180.939 469.752C180.939 478.229 187.818 485.101 196.303 485.101Z" fill="#FDCF00"/>
<path d="M36.855 239.174C42.1249 239.174 46.397 234.902 46.397 229.632C46.397 224.362 42.1249 220.09 36.855 220.09C31.5851 220.09 27.313 224.362 27.313 229.632C27.313 234.902 31.5851 239.174 36.855 239.174Z" fill="#FF7D7D"/>
<path d="M63.4736 236.814C67.4611 236.814 70.6936 233.584 70.6936 229.601C70.6936 225.617 67.4611 222.388 63.4736 222.388C59.4861 222.388 56.2535 225.617 56.2535 229.601C56.2535 233.584 59.4861 236.814 63.4736 236.814Z" stroke="#2C3E50" stroke-width="5" stroke-miterlimit="10"/>
<path d="M90.1071 236.814C94.0946 236.814 97.3271 233.584 97.3271 229.601C97.3271 225.617 94.0946 222.388 90.1071 222.388C86.1196 222.388 82.8871 225.617 82.8871 229.601C82.8871 233.584 86.1196 236.814 90.1071 236.814Z" stroke="#2C3E50" stroke-width="5" stroke-miterlimit="10"/>
<path d="M604.664 207.623H14.8475V596.107H604.664V207.623Z" stroke="#2C3E50" stroke-width="5" stroke-miterlimit="10"/>
<path d="M138.954 457.685L138.954 533.067" stroke="#21B3FF" stroke-width="15" stroke-miterlimit="10"/>
<path d="M111.282 457.685L111.282 533.067" stroke="#21B3FF" stroke-width="15" stroke-miterlimit="10"/>
<path d="M83.6107 457.685L83.6107 533.067" stroke="#21B3FF" stroke-width="15" stroke-miterlimit="10"/>
<path d="M72.4894 276.201H161.169" stroke="white" stroke-width="20" stroke-miterlimit="10"/>
<path d="M72.4894 313.114H275.869" stroke="#2C3E50" stroke-width="5" stroke-miterlimit="10"/>
<path d="M72.4894 337.421H275.869" stroke="#2C3E50" stroke-width="5" stroke-miterlimit="10"/>
<path d="M72.4894 361.729H275.869" stroke="#2C3E50" stroke-width="5" stroke-miterlimit="10"/>
<path d="M72.4894 386.036H275.869" stroke="#2C3E50" stroke-width="5" stroke-miterlimit="10"/>
<path d="M561.699 334.944V554.026H342.394L561.699 334.944Z" stroke="#2C3E50" stroke-width="5" stroke-miterlimit="10"/>
<path d="M413.02 276.112C444.56 278.755 469.701 303.878 472.346 335.387" stroke="white" stroke-width="5" stroke-miterlimit="10"/>
<path d="M342.63 335.387C345.276 303.878 370.424 278.755 401.964 276.112" stroke="white" stroke-width="5" stroke-miterlimit="10"/>
<path d="M472.583 360.496C472.583 396.413 443.437 425.53 407.485 425.53C371.532 425.53 342.386 396.413 342.386 360.496H472.583Z" fill="#FDCF00"/>
<path d="M407.492 281.42C410.553 281.42 413.034 278.941 413.034 275.883C413.034 272.825 410.553 270.346 407.492 270.346C404.431 270.346 401.949 272.825 401.949 275.883C401.949 278.941 404.431 281.42 407.492 281.42Z" stroke="white" stroke-width="5" stroke-miterlimit="10"/>
<path d="M342.394 346.447C345.455 346.447 347.936 343.968 347.936 340.91C347.936 337.852 345.455 335.373 342.394 335.373C339.333 335.373 336.851 337.852 336.851 340.91C336.851 343.968 339.333 346.447 342.394 346.447Z" stroke="white" stroke-width="5" stroke-miterlimit="10"/>
<path d="M472.583 346.447C475.644 346.447 478.125 343.968 478.125 340.91C478.125 337.852 475.644 335.373 472.583 335.373C469.522 335.373 467.041 337.852 467.041 340.91C467.041 343.968 469.522 346.447 472.583 346.447Z" stroke="white" stroke-width="5" stroke-miterlimit="10"/>
</g>
<rect x="490.099" y="481.54" width="147.901" height="147.901" fill="#C4C4C4"/>
<defs>
<clipPath id="clip0_110_3592">
<rect width="593.511" height="392.176" fill="white" transform="translate(13 205.777)"/>
</clipPath>
</defs>
</svg>
