<svg width="424" height="87" viewBox="0 0 424 87" fill="none" xmlns="http://www.w3.org/2000/svg">
<path d="M0 46.4453H18.8194C18.8126 47.439 19.0172 48.4228 19.4194 49.3314C19.8217 50.2401 20.4125 51.0529 21.1526 51.716C21.8928 52.379 22.7654 52.8772 23.7127 53.1775C24.6599 53.4778 25.6602 53.5733 26.6472 53.4577C30.4633 53.4577 34.1162 51.4355 34.1162 47.8152C34.1162 43.6729 28.9629 42.4662 22.6354 40.9332C13.0464 38.5522 0.848014 35.6168 0.848014 20.5483C0.848014 7.5019 10.4371 0.000244141 26.0927 0.000244141C41.7484 0.000244141 51.0765 8.15422 51.0765 21.6246H32.6159C32.6208 20.7614 32.4434 19.9069 32.0953 19.117C31.7472 18.3271 31.2362 17.6196 30.5958 17.0408C29.9554 16.462 29.2 16.0249 28.3791 15.7581C27.5581 15.4914 26.6901 15.401 25.8318 15.4928C22.5702 15.4928 19.4717 16.8953 19.4717 19.9938C19.4717 23.7446 24.4619 25.0166 30.6916 26.517C40.4763 29.0284 53.1639 32.29 53.1639 47.3912C53.1639 61.8726 42.0745 69.3743 26.6798 69.3743C10.4697 69.4395 0 60.8615 0 46.4453Z" fill="#453396"/>
<path d="M88.0629 52.4141V67.8088H76.0603C64.7752 67.8088 57.8932 60.9269 57.8932 49.5439V30.2679H48.5325V26.0931L71.3636 1.729H75.0166V16.7323H88.0629V30.2679H75.6689V46.5759C75.6041 47.3618 75.7118 48.1524 75.9844 48.8923C76.257 49.6323 76.6879 50.3038 77.2471 50.8598C77.8062 51.4159 78.4801 51.8431 79.2216 52.1116C79.9631 52.38 80.7542 52.4833 81.5398 52.4141H88.0629Z" fill="#453396"/>
<path d="M143.184 16.667V67.7762H129.583L128.083 64.1558C123.715 67.6721 118.262 69.5628 112.655 69.5048C109.068 69.6029 105.498 68.9598 102.17 67.6157C98.8425 66.2717 95.8277 64.2555 93.3144 61.6933C90.8012 59.1311 88.8436 56.0779 87.564 52.7247C86.2844 49.3715 85.7103 45.7904 85.8776 42.2053C85.7132 38.6315 86.291 35.0625 87.5747 31.7232C88.8583 28.3839 90.8199 25.3468 93.3358 22.8033C95.8516 20.2599 98.8672 18.2653 102.192 16.9453C105.517 15.6254 109.08 15.0087 112.655 15.1341C118.342 15.0837 123.869 17.0219 128.278 20.6136L130.072 16.667H143.184ZM126.452 42.401C126.571 40.8293 126.364 39.25 125.844 37.762C125.324 36.2741 124.503 34.9094 123.431 33.7536C122.359 32.5979 121.061 31.6758 119.616 31.0453C118.172 30.4147 116.612 30.0893 115.036 30.0893C113.46 30.0893 111.901 30.4147 110.456 31.0453C109.012 31.6758 107.713 32.5979 106.641 33.7536C105.57 34.9094 104.748 36.2741 104.228 37.762C103.709 39.25 103.502 40.8293 103.621 42.401C103.502 43.9727 103.709 45.5519 104.228 47.0399C104.748 48.5279 105.57 49.8925 106.641 51.0483C107.713 52.2041 109.012 53.1262 110.456 53.7567C111.901 54.3873 113.46 54.7127 115.036 54.7127C116.612 54.7127 118.172 54.3873 119.616 53.7567C121.061 53.1262 122.359 52.2041 123.431 51.0483C124.503 49.8925 125.324 48.5279 125.844 47.0399C126.364 45.5519 126.571 43.9727 126.452 42.401V42.401Z" fill="#453396"/>
<path d="M180.431 16.4713V32.6161H173.614C167.385 32.6161 164.775 35.3559 164.775 41.8791V67.9718H147.163V16.7322H158.937L161.71 22.4074C163.429 20.3925 165.596 18.8067 168.036 17.7762C170.476 16.7457 173.124 16.2989 175.767 16.4713H180.431Z" fill="#453396"/>
<path d="M215.265 52.4141V67.8088H203.197C191.879 67.8088 185.03 60.9269 185.03 49.5439V30.2679H175.669V26.0931L198.5 1.729H202.219V16.7323H215.037V30.2679H202.643V46.5759C202.577 47.3691 202.686 48.1669 202.962 48.9134C203.239 49.6598 203.675 50.3367 204.241 50.8963C204.807 51.456 205.488 51.8848 206.238 52.1527C206.987 52.4205 207.786 52.5209 208.579 52.4467L215.265 52.4141Z" fill="#453396"/>
<path d="M216.015 33.6274H250.653V49.6419H216.015V33.6274Z" fill="#453396"/>
<path d="M253.556 45.8908V16.7322H271.169V45.108C271.169 50.5223 274.071 53.686 278.768 53.686C283.465 53.686 286.302 50.4244 286.302 45.108V16.7322H303.915V45.8908C303.915 60.1766 293.869 69.5047 278.768 69.5047C263.667 69.5047 253.556 60.1766 253.556 45.8908Z" fill="#453396"/>
<path d="M363.83 42.4008C363.993 45.9832 363.415 49.5608 362.134 52.9101C360.852 56.2594 358.894 59.3086 356.381 61.8672C353.868 64.4259 350.855 66.4391 347.529 67.7812C344.204 69.1233 340.637 69.7655 337.053 69.6677C332.679 69.744 328.368 68.6156 324.593 66.4061V86.5301H307.209V16.732H319.179L321.364 20.7764C325.73 17.0376 331.305 15.0095 337.053 15.0686C340.643 14.9702 344.215 15.6142 347.546 16.9603C350.876 18.3063 353.892 20.3255 356.406 22.8912C358.92 25.457 360.876 28.5142 362.154 31.8712C363.432 35.2283 364.002 38.813 363.83 42.4008ZM346.12 42.4008C346.239 40.8291 346.032 39.2498 345.512 37.7618C344.992 36.2738 344.171 34.9092 343.099 33.7534C342.027 32.5976 340.729 31.6756 339.284 31.045C337.84 30.4145 336.28 30.089 334.704 30.089C333.128 30.089 331.569 30.4145 330.124 31.045C328.68 31.6756 327.381 32.5976 326.309 33.7534C325.238 34.9092 324.416 36.2738 323.896 37.7618C323.377 39.2498 323.17 40.8291 323.289 42.4008C323.17 43.9724 323.377 45.5517 323.896 47.0397C324.416 48.5277 325.238 49.8923 326.309 51.0481C327.381 52.2039 328.68 53.1259 330.124 53.7565C331.569 54.387 333.128 54.7125 334.704 54.7125C336.28 54.7125 337.84 54.387 339.284 53.7565C340.729 53.1259 342.027 52.2039 343.099 51.0481C344.171 49.8923 344.992 48.5277 345.512 47.0397C346.032 45.5517 346.239 43.9724 346.12 42.4008Z" fill="#453396"/>
<path d="M364.059 24.1686C365.072 24.1696 366.075 23.9653 367.007 23.5681C367.939 23.1708 368.781 22.5889 369.482 21.8574C370.183 21.1259 370.729 20.26 371.086 19.3118C371.443 18.3637 371.605 17.353 371.561 16.3408H363.341V0.000244141H380.497V14.9709C380.611 17.2196 380.279 19.4685 379.52 21.5881C378.76 23.7076 377.589 25.6559 376.073 27.3205C374.557 28.9851 372.726 30.3331 370.686 31.2868C368.647 32.2405 366.439 32.7809 364.189 32.8771L364.059 24.1686Z" fill="#453396"/>
<path d="M401.339 69.5048C387.412 69.5048 378.964 62.1336 378.801 51.0768H395.729C395.699 51.8427 395.837 52.6059 396.131 53.3134C396.426 54.0209 396.872 54.6558 397.436 55.174C398.001 55.6922 398.672 56.0813 399.402 56.3144C400.132 56.5475 400.904 56.6189 401.665 56.5237C404.242 56.5237 406.688 55.219 406.688 52.5771C406.688 49.9353 402.839 48.9242 397.914 47.9783C389.988 46.6737 379.486 44.2927 379.486 31.8987C379.486 21.6573 388.227 15.0688 401.306 15.0688C414.385 15.0688 422.735 21.9834 422.963 32.3227H406.459C406.459 29.0611 404.274 27.5607 401.078 27.5607C397.881 27.5607 396.381 28.9306 396.381 31.3116C396.381 34.2144 400.295 34.8993 405.122 35.7473C413.211 37.1824 423.942 39.0089 423.942 51.827C423.942 62.4924 414.94 69.5048 401.339 69.5048V69.5048Z" fill="#453396"/>
</svg>
