<svg width="277" height="174" viewBox="0 0 277 174" fill="none" xmlns="http://www.w3.org/2000/svg">
<path d="M232.441 48.1453C250.823 67.2611 271.64 82.9893 276.022 103.073C280.405 123.157 268.353 147.475 249.971 158.605C231.589 169.736 207.12 167.437 185.451 164.534C163.904 161.63 145.157 158.001 133.47 146.87C121.783 135.86 117.157 117.228 113.384 94.9669C109.61 72.5845 106.566 46.4515 118.253 27.3357C129.94 8.21995 156.234 -3.99963 177.295 1.20276C198.355 6.40516 214.181 29.0295 232.441 48.1453Z" fill="#9C47ED"/>
<g clip-path="url(#clip0)">
<path d="M101.703 103.857H15.6426V146.845H101.703V103.857Z" stroke="#2C3E50" stroke-width="2" stroke-miterlimit="10"/>
<path d="M98.1515 108.128H51.7466V143.182" stroke="#2C3E50" stroke-width="2" stroke-miterlimit="10"/>
<path d="M96.816 142.849H72.738L69.4404 138.181L81.4778 121.148L96.816 142.849Z" fill="#453396"/>
<path d="M72.7791 142.849H55.4189L64.099 130.83L69.4324 138.213L72.7791 142.849Z" fill="#9C47ED"/>
<path d="M64.1327 122.728C67.1014 122.728 69.5081 120.324 69.5081 117.358C69.5081 114.392 67.1014 111.988 64.1327 111.988C61.164 111.988 58.7573 114.392 58.7573 117.358C58.7573 120.324 61.164 122.728 64.1327 122.728Z" fill="#FDCF00"/>
<path d="M8.3463 36.6847C10.1901 36.6847 11.6848 35.19 11.6848 33.3462C11.6848 31.5024 10.1901 30.0078 8.3463 30.0078C6.5025 30.0078 5.00781 31.5024 5.00781 33.3462C5.00781 35.19 6.5025 36.6847 8.3463 36.6847Z" fill="#FF7D7D"/>
<path d="M17.6594 35.859C19.0545 35.859 20.1855 34.7291 20.1855 33.3354C20.1855 31.9416 19.0545 30.8118 17.6594 30.8118C16.2643 30.8118 15.1333 31.9416 15.1333 33.3354C15.1333 34.7291 16.2643 35.859 17.6594 35.859Z" stroke="#2C3E50" stroke-width="2" stroke-miterlimit="10"/>
<path d="M26.9777 35.859C28.3729 35.859 29.5038 34.7291 29.5038 33.3354C29.5038 31.9416 28.3729 30.8118 26.9777 30.8118C25.5826 30.8118 24.4517 31.9416 24.4517 33.3354C24.4517 34.7291 25.5826 35.859 26.9777 35.859Z" stroke="#2C3E50" stroke-width="2" stroke-miterlimit="10"/>
<path d="M207.008 25.6458H0.646484V161.566H207.008V25.6458Z" stroke="#2C3E50" stroke-width="2" stroke-miterlimit="10"/>
<path d="M44.0679 113.136L44.0679 139.51" stroke="#21B3FF" stroke-width="6" stroke-miterlimit="10"/>
<path d="M34.3862 113.136L34.3862 139.51" stroke="#21B3FF" stroke-width="6" stroke-miterlimit="10"/>
<path d="M24.7046 113.136L24.7046 139.51" stroke="#21B3FF" stroke-width="6" stroke-miterlimit="10"/>
<path d="M20.814 49.6393H51.8406" stroke="white" stroke-width="8" stroke-miterlimit="10"/>
<path d="M20.814 62.5544H91.9711" stroke="#2C3E50" stroke-width="2" stroke-miterlimit="10"/>
<path d="M20.814 71.0589H91.9711" stroke="#2C3E50" stroke-width="2" stroke-miterlimit="10"/>
<path d="M20.814 79.5634H91.9711" stroke="#2C3E50" stroke-width="2" stroke-miterlimit="10"/>
<path d="M20.814 88.0679H91.9711" stroke="#2C3E50" stroke-width="2" stroke-miterlimit="10"/>
<path d="M191.975 70.1923V146.843H115.246L191.975 70.1923Z" stroke="#2C3E50" stroke-width="2" stroke-miterlimit="10"/>
<path d="M139.956 49.6082C150.991 50.5329 159.787 59.3229 160.713 70.3472" stroke="white" stroke-width="2" stroke-miterlimit="10"/>
<path d="M115.329 70.3472C116.254 59.3229 125.053 50.5329 136.088 49.6082" stroke="white" stroke-width="2" stroke-miterlimit="10"/>
<path d="M160.796 79.132C160.796 91.6983 150.599 101.886 138.02 101.886C125.441 101.886 115.244 91.6983 115.244 79.132H160.796Z" fill="#FDCF00"/>
<path d="M138.022 51.4655C139.093 51.4655 139.961 50.5982 139.961 49.5283C139.961 48.4583 139.093 47.591 138.022 47.591C136.951 47.591 136.083 48.4583 136.083 49.5283C136.083 50.5982 136.951 51.4655 138.022 51.4655Z" stroke="white" stroke-width="2" stroke-miterlimit="10"/>
<path d="M115.246 74.2166C116.317 74.2166 117.185 73.3493 117.185 72.2794C117.185 71.2094 116.317 70.3421 115.246 70.3421C114.175 70.3421 113.307 71.2094 113.307 72.2794C113.307 73.3493 114.175 74.2166 115.246 74.2166Z" stroke="white" stroke-width="2" stroke-miterlimit="10"/>
<path d="M160.796 74.2166C161.867 74.2166 162.735 73.3493 162.735 72.2794C162.735 71.2094 161.867 70.3421 160.796 70.3421C159.725 70.3421 158.856 71.2094 158.856 72.2794C158.856 73.3493 159.725 74.2166 160.796 74.2166Z" stroke="white" stroke-width="2" stroke-miterlimit="10"/>
</g>
<rect x="166.924" y="121.482" width="51.7465" height="51.7465" fill="#C4C4C4"/>
<defs>
<clipPath id="clip0">
<rect width="207.654" height="137.212" fill="white" transform="translate(0 25)"/>
</clipPath>
</defs>
</svg>
