<svg width="651" height="651" viewBox="0 0 651 651" fill="none" xmlns="http://www.w3.org/2000/svg">
<rect width="651" height="651" fill="white"/>
<path d="M415.205 151.332C469.929 208.241 531.903 255.065 544.95 314.856C557.997 374.646 522.117 447.044 467.393 480.181C412.668 513.317 339.822 506.474 275.312 497.83C211.164 489.185 155.352 478.38 120.56 445.243C85.7683 412.466 71.9965 356.997 60.7616 290.724C49.5267 224.089 40.4663 146.29 75.2583 89.3804C110.05 32.4713 188.332 -3.90734 251.03 11.5806C313.728 27.0685 360.842 94.423 415.205 151.332Z" fill="#9C47ED"/>
<g clip-path="url(#clip0_1_895)">
<path d="M302.777 435.577H46.5693V563.559H302.777V435.577Z" stroke="#2C3E50" stroke-width="5" stroke-miterlimit="10"/>
<path d="M292.205 448.295H154.053V552.653" stroke="#2C3E50" stroke-width="5" stroke-miterlimit="10"/>
<path d="M288.229 551.659H216.547L206.73 537.764L242.566 487.056L288.229 551.659Z" fill="#453396"/>
<path d="M216.669 551.659H164.986L190.827 515.879L206.705 537.858L216.669 551.659Z" fill="#9C47ED"/>
<path d="M190.928 491.759C199.766 491.759 206.931 484.601 206.931 475.772C206.931 466.942 199.766 459.785 190.928 459.785C182.09 459.785 174.925 466.942 174.925 475.772C174.925 484.601 182.09 491.759 190.928 491.759Z" fill="#FDCF00"/>
<path d="M24.8473 235.601C30.3365 235.601 34.7863 231.152 34.7863 225.663C34.7863 220.173 30.3365 215.724 24.8473 215.724C19.3582 215.724 14.9084 220.173 14.9084 225.663C14.9084 231.152 19.3582 235.601 24.8473 235.601Z" fill="#FF7D7D"/>
<path d="M52.5733 233.143C56.7266 233.143 60.0936 229.779 60.0936 225.63C60.0936 221.481 56.7266 218.117 52.5733 218.117C48.4199 218.117 45.0529 221.481 45.0529 225.63C45.0529 229.779 48.4199 233.143 52.5733 233.143Z" stroke="#2C3E50" stroke-width="5" stroke-miterlimit="10"/>
<path d="M80.3147 233.143C84.4681 233.143 87.8351 229.779 87.8351 225.63C87.8351 221.481 84.4681 218.117 80.3147 218.117C76.1613 218.117 72.7943 221.481 72.7943 225.63C72.7943 229.779 76.1613 233.143 80.3147 233.143Z" stroke="#2C3E50" stroke-width="5" stroke-miterlimit="10"/>
<path d="M616.277 202.738H1.92435V607.383H616.277V202.738Z" stroke="#2C3E50" stroke-width="5" stroke-miterlimit="10"/>
<path d="M131.194 463.203L131.194 541.721" stroke="#21B3FF" stroke-width="15" stroke-miterlimit="10"/>
<path d="M102.371 463.203L102.371 541.721" stroke="#21B3FF" stroke-width="15" stroke-miterlimit="10"/>
<path d="M73.5481 463.203L73.5481 541.721" stroke="#21B3FF" stroke-width="15" stroke-miterlimit="10"/>
<path d="M61.9641 274.168H154.333" stroke="white" stroke-width="20" stroke-miterlimit="10"/>
<path d="M61.9641 312.617H273.804" stroke="#2C3E50" stroke-width="5" stroke-miterlimit="10"/>
<path d="M61.9641 337.936H273.804" stroke="#2C3E50" stroke-width="5" stroke-miterlimit="10"/>
<path d="M61.9641 363.255H273.804" stroke="#2C3E50" stroke-width="5" stroke-miterlimit="10"/>
<path d="M61.9641 388.573H273.804" stroke="#2C3E50" stroke-width="5" stroke-miterlimit="10"/>
<path d="M571.524 335.356V563.551H343.096L571.524 335.356Z" stroke="#2C3E50" stroke-width="5" stroke-miterlimit="10"/>
<path d="M416.66 274.076C449.513 276.829 475.7 302.997 478.455 335.817" stroke="white" stroke-width="5" stroke-miterlimit="10"/>
<path d="M343.343 335.817C346.098 302.997 372.293 276.829 405.145 274.076" stroke="white" stroke-width="5" stroke-miterlimit="10"/>
<path d="M478.702 361.97C478.702 399.381 448.343 429.71 410.895 429.71C373.447 429.71 343.089 399.381 343.089 361.97H478.702V361.97Z" fill="#FDCF00"/>
<path d="M410.903 279.605C414.091 279.605 416.676 277.023 416.676 273.838C416.676 270.652 414.091 268.07 410.903 268.07C407.714 268.07 405.13 270.652 405.13 273.838C405.13 277.023 407.714 279.605 410.903 279.605Z" stroke="white" stroke-width="5" stroke-miterlimit="10"/>
<path d="M343.096 347.337C346.285 347.337 348.869 344.755 348.869 341.569C348.869 338.384 346.285 335.802 343.096 335.802C339.908 335.802 337.323 338.384 337.323 341.569C337.323 344.755 339.908 347.337 343.096 347.337Z" stroke="white" stroke-width="5" stroke-miterlimit="10"/>
<path d="M478.702 347.337C481.89 347.337 484.475 344.755 484.475 341.569C484.475 338.384 481.89 335.802 478.702 335.802C475.513 335.802 472.928 338.384 472.928 341.569C472.928 344.755 475.513 347.337 478.702 347.337Z" stroke="white" stroke-width="5" stroke-miterlimit="10"/>
</g>
<rect x="496.947" y="488.05" width="154.053" height="154.053" fill="#C4C4C4"/>
<defs>
<clipPath id="clip0_1_895">
<rect width="618.202" height="408.49" fill="white" transform="translate(0 200.815)"/>
</clipPath>
</defs>
</svg>
