<svg width="651" height="651" viewBox="0 0 651 651" fill="none" xmlns="http://www.w3.org/2000/svg">
<rect width="651" height="651" fill="white"/>
<path d="M412.941 155.716C466.285 211.189 526.695 256.831 539.412 315.113C552.13 373.395 517.156 443.965 463.812 476.266C410.468 508.567 339.461 501.896 276.578 493.47C214.049 485.044 159.646 474.511 125.731 442.21C91.8174 410.26 78.3931 356.191 67.4417 291.59C56.4903 226.637 47.6585 150.8 81.5726 95.3271C115.487 39.8539 191.793 4.39324 252.909 19.4904C314.025 34.5875 359.95 100.242 412.941 155.716Z" fill="#9C47ED"/>
<g clip-path="url(#clip0_1_895)">
<path d="M303.351 432.788H53.6075V557.54H303.351V432.788Z" stroke="#2C3E50" stroke-width="5" stroke-miterlimit="10"/>
<path d="M293.045 445.185H158.38V546.91" stroke="#2C3E50" stroke-width="5" stroke-miterlimit="10"/>
<path d="M289.169 545.941H219.296L209.727 532.396L244.659 482.969L289.169 545.941Z" fill="#453396"/>
<path d="M219.415 545.941H169.036L194.226 511.064L209.703 532.489L219.415 545.941Z" fill="#9C47ED"/>
<path d="M194.324 487.552C202.939 487.552 209.923 480.575 209.923 471.969C209.923 463.362 202.939 456.385 194.324 456.385C185.709 456.385 178.725 463.362 178.725 471.969C178.725 480.575 185.709 487.552 194.324 487.552Z" fill="#FDCF00"/>
<path d="M32.4336 237.859C37.7843 237.859 42.1218 233.521 42.1218 228.17C42.1218 222.82 37.7843 218.482 32.4336 218.482C27.083 218.482 22.7455 222.82 22.7455 228.17C22.7455 233.521 27.083 237.859 32.4336 237.859Z" fill="#FF7D7D"/>
<path d="M59.46 235.462C63.5086 235.462 66.7906 232.183 66.7906 228.139C66.7906 224.094 63.5086 220.815 59.46 220.815C55.4114 220.815 52.1294 224.094 52.1294 228.139C52.1294 232.183 55.4114 235.462 59.46 235.462Z" stroke="#2C3E50" stroke-width="5" stroke-miterlimit="10"/>
<path d="M86.5014 235.462C90.55 235.462 93.832 232.183 93.832 228.139C93.832 224.094 90.55 220.815 86.5014 220.815C82.4528 220.815 79.1708 224.094 79.1708 228.139C79.1708 232.183 82.4528 235.462 86.5014 235.462Z" stroke="#2C3E50" stroke-width="5" stroke-miterlimit="10"/>
<path d="M608.94 205.824H10.0891V600.259H608.94V205.824Z" stroke="#2C3E50" stroke-width="5" stroke-miterlimit="10"/>
<path d="M136.097 459.717L136.097 536.253" stroke="#21B3FF" stroke-width="15" stroke-miterlimit="10"/>
<path d="M108.001 459.717L108.001 536.253" stroke="#21B3FF" stroke-width="15" stroke-miterlimit="10"/>
<path d="M79.9055 459.717L79.9055 536.253" stroke="#21B3FF" stroke-width="15" stroke-miterlimit="10"/>
<path d="M68.6138 275.452H158.652" stroke="white" stroke-width="20" stroke-miterlimit="10"/>
<path d="M68.6138 312.931H275.109" stroke="#2C3E50" stroke-width="5" stroke-miterlimit="10"/>
<path d="M68.6138 337.611H275.109" stroke="#2C3E50" stroke-width="5" stroke-miterlimit="10"/>
<path d="M68.6138 362.291H275.109" stroke="#2C3E50" stroke-width="5" stroke-miterlimit="10"/>
<path d="M68.6138 386.97H275.109" stroke="#2C3E50" stroke-width="5" stroke-miterlimit="10"/>
<path d="M565.317 335.096V557.533H342.652L565.317 335.096Z" stroke="#2C3E50" stroke-width="5" stroke-miterlimit="10"/>
<path d="M414.36 275.362C446.384 278.046 471.91 303.554 474.596 335.546" stroke="white" stroke-width="5" stroke-miterlimit="10"/>
<path d="M342.892 335.546C345.579 303.554 371.112 278.046 403.135 275.362" stroke="white" stroke-width="5" stroke-miterlimit="10"/>
<path d="M474.836 361.039C474.836 397.506 445.243 427.069 408.74 427.069C372.237 427.069 342.645 397.506 342.645 361.039H474.836Z" fill="#FDCF00"/>
<path d="M408.748 280.752C411.856 280.752 414.375 278.235 414.375 275.13C414.375 272.025 411.856 269.508 408.748 269.508C405.64 269.508 403.12 272.025 403.12 275.13C403.12 278.235 405.64 280.752 408.748 280.752Z" stroke="white" stroke-width="5" stroke-miterlimit="10"/>
<path d="M342.652 346.774C345.76 346.774 348.28 344.257 348.28 341.153C348.28 338.048 345.76 335.531 342.652 335.531C339.544 335.531 337.025 338.048 337.025 341.153C337.025 344.257 339.544 346.774 342.652 346.774Z" stroke="white" stroke-width="5" stroke-miterlimit="10"/>
<path d="M474.836 346.774C477.944 346.774 480.463 344.257 480.463 341.153C480.463 338.048 477.944 335.531 474.836 335.531C471.728 335.531 469.208 338.048 469.208 341.153C469.208 344.257 471.728 346.774 474.836 346.774Z" stroke="white" stroke-width="5" stroke-miterlimit="10"/>
</g>
<rect x="492.62" y="483.937" width="150.166" height="150.166" fill="#C4C4C4"/>
<defs>
<clipPath id="clip0_1_895">
<rect width="602.603" height="398.183" fill="white" transform="translate(8.21329 203.95)"/>
</clipPath>
</defs>
</svg>
