<svg width="696" height="484" viewBox="0 0 696 484" fill="none" xmlns="http://www.w3.org/2000/svg">
<path d="M622.734 113.384C656.485 194.079 608.159 323.728 528.382 372.681C448.605 421.251 337.761 389.508 255.298 327.935C173.22 265.979 119.524 174.192 141.386 109.177C163.632 44.1613 261.052 5.91682 367.294 2.85727C473.918 0.180158 589.366 32.3054 622.734 113.384Z" fill="#9C47ED"/>
<path d="M122.641 117.575C125.931 117.575 128.597 114.916 128.597 111.635C128.597 108.355 125.931 105.696 122.641 105.696C119.351 105.696 116.684 108.355 116.684 111.635C116.684 114.916 119.351 117.575 122.641 117.575Z" stroke="#2C3E50" stroke-width="5" stroke-miterlimit="10"/>
<path d="M144.623 117.575C147.913 117.575 150.58 114.916 150.58 111.635C150.58 108.355 147.913 105.696 144.623 105.696C141.333 105.696 138.667 108.355 138.667 111.635C138.667 114.916 141.333 117.575 144.623 117.575Z" stroke="#2C3E50" stroke-width="5" stroke-miterlimit="10"/>
<path d="M166.606 117.575C169.896 117.575 172.563 114.916 172.563 111.635C172.563 108.355 169.896 105.696 166.606 105.696C163.316 105.696 160.649 108.355 160.649 111.635C160.649 114.916 163.316 117.575 166.606 117.575Z" stroke="#2C3E50" stroke-width="5" stroke-miterlimit="10"/>
<path d="M591.293 93.5283H104.49V413.563H591.293V93.5283Z" stroke="#2C3E50" stroke-width="5" stroke-miterlimit="10"/>
<path d="M566.291 124.551H540.25L542.482 114.853C542.514 114.685 542.603 114.534 542.735 114.425C542.868 114.317 543.034 114.257 543.205 114.258H563.353C563.532 114.262 563.704 114.328 563.839 114.445C563.975 114.562 564.064 114.722 564.094 114.898L566.291 124.551Z" fill="#2C3E50"/>
<path d="M306.222 278.62C305.68 277.719 305.155 276.817 304.649 275.916L298.494 282.054H308.31L306.222 278.62ZM392.445 210.545C386.981 209.475 382.132 206.367 378.886 201.856L335.002 245.605L346.283 256.853L372.74 230.472L375.705 233.429L350.395 258.665L347.774 261.297L346.283 262.775L332.037 248.571L308.283 272.284C311.381 278.325 315.468 283.809 320.377 288.507L347.883 314.645L375.379 288.507C381.32 282.816 386.053 275.993 389.297 268.441C392.541 260.89 394.229 252.765 394.262 244.551V210.905L392.445 210.545ZM414.834 295.808C413.124 295.21 411.57 294.236 410.289 292.959C409.008 291.681 408.031 290.131 407.431 288.426L406.898 286.921H383.559L382.881 287.696C381.508 289.264 380.17 290.679 378.751 292.013L347.883 321.315L317.006 291.977C315.614 290.643 314.222 289.183 312.884 287.66L312.215 286.885H293.604L265.836 314.609C267.529 316.88 269.337 319.086 271.259 321.225C280.157 331.255 290.95 339.441 303.02 345.312C315.091 351.184 328.204 354.627 341.609 355.445C355.014 356.265 368.45 354.442 381.149 350.083C393.848 345.724 405.561 338.913 415.621 330.039L416.38 329.363V296.34L414.834 295.808ZM418.739 277.34C417.324 277.344 415.941 277.766 414.766 278.551C413.592 279.338 412.678 280.454 412.138 281.759C411.599 283.064 411.46 284.498 411.738 285.882C412.016 287.265 412.699 288.536 413.702 289.532C414.703 290.529 415.979 291.207 417.367 291.481C418.755 291.755 420.193 291.612 421.5 291.071C422.808 290.531 423.925 289.616 424.711 288.442C425.497 287.269 425.916 285.89 425.916 284.478C425.916 283.538 425.73 282.606 425.367 281.738C425.006 280.87 424.475 280.081 423.806 279.419C423.137 278.755 422.345 278.23 421.472 277.873C420.599 277.517 419.664 277.336 418.721 277.34H418.739ZM448.061 232.374L447.393 229.589C443.025 211.486 433.768 194.922 420.628 181.694C417.049 178.089 413.213 174.749 409.149 171.698L382.439 198.341C383.982 200.716 386.095 202.669 388.588 204.021C391.081 205.373 393.873 206.082 396.711 206.083H399.143V232.374H448.061ZM449.227 239.188L448.947 237.25H399.143V244.524C399.123 256.552 395.796 268.345 389.525 278.62L387.437 282.045H406.826L407.35 280.531C408.021 278.613 409.169 276.897 410.686 275.542C412.204 274.187 414.042 273.239 416.026 272.786C418.012 272.333 420.08 272.39 422.037 272.952C423.995 273.513 425.777 274.561 427.218 275.997C428.658 277.434 429.709 279.21 430.272 281.163C430.835 283.114 430.892 285.176 430.438 287.156C429.984 289.136 429.033 290.968 427.674 292.481C426.316 293.994 424.594 295.139 422.671 295.808L421.161 296.331V321.125H424.443L425.202 320.35C434.833 309.345 441.966 296.396 446.113 282.388C450.26 268.38 451.322 253.644 449.227 239.188ZM544.417 132.041C543.441 132.039 542.485 132.327 541.673 132.866C540.86 133.406 540.225 134.173 539.85 135.073C539.476 135.972 539.377 136.961 539.566 137.917C539.755 138.872 540.225 139.75 540.915 140.438C541.605 141.128 542.484 141.597 543.441 141.788C544.4 141.979 545.392 141.881 546.294 141.509C547.196 141.137 547.968 140.507 548.511 139.697C549.053 138.887 549.343 137.935 549.343 136.962C549.34 135.659 548.821 134.41 547.898 133.488C546.975 132.566 545.724 132.045 544.417 132.041ZM562.133 132.041C561.157 132.041 560.202 132.329 559.392 132.87C558.58 133.411 557.947 134.18 557.574 135.079C557.2 135.978 557.102 136.967 557.293 137.922C557.483 138.876 557.954 139.753 558.643 140.442C559.334 141.13 560.213 141.598 561.171 141.789C562.128 141.979 563.12 141.881 564.021 141.508C564.923 141.136 565.694 140.505 566.237 139.696C566.779 138.887 567.068 137.935 567.068 136.962C567.066 135.658 566.545 134.407 565.62 133.485C564.695 132.563 563.441 132.044 562.133 132.041ZM562.133 132.041C561.157 132.041 560.202 132.329 559.392 132.87C558.58 133.411 557.947 134.18 557.574 135.079C557.2 135.978 557.102 136.967 557.293 137.922C557.483 138.876 557.954 139.753 558.643 140.442C559.334 141.13 560.213 141.598 561.171 141.789C562.128 141.979 563.12 141.881 564.021 141.508C564.923 141.136 565.694 140.505 566.237 139.696C566.779 138.887 567.068 137.935 567.068 136.962C567.066 135.658 566.545 134.407 565.62 133.485C564.695 132.563 563.441 132.044 562.133 132.041ZM544.417 132.041C543.441 132.039 542.485 132.327 541.673 132.866C540.86 133.406 540.225 134.173 539.85 135.073C539.476 135.972 539.377 136.961 539.566 137.917C539.755 138.872 540.225 139.75 540.915 140.438C541.605 141.128 542.484 141.597 543.441 141.788C544.4 141.979 545.392 141.881 546.294 141.509C547.196 141.137 547.968 140.507 548.511 139.697C549.053 138.887 549.343 137.935 549.343 136.962C549.34 135.659 548.821 134.41 547.898 133.488C546.975 132.566 545.724 132.045 544.417 132.041ZM487.833 93.2847L412.538 168.364C424.775 177.574 434.889 189.295 442.196 202.736C449.503 216.176 453.834 231.022 454.896 246.274C455.958 261.525 453.727 276.826 448.353 291.144C442.98 305.463 434.588 318.466 423.746 329.275C412.903 340.083 399.861 348.448 385.5 353.803C371.139 359.158 355.794 361.379 340.499 360.316C325.203 359.253 310.315 354.931 296.838 347.642C283.361 340.352 271.608 330.266 262.374 318.061L166.561 413.599H591.284V93.2847H487.833ZM562.133 144.659C560.336 144.657 558.597 144.023 557.222 142.869C555.847 141.716 554.923 140.115 554.613 138.35H551.901C551.562 140.232 550.529 141.919 549.005 143.079C547.481 144.24 545.577 144.79 543.667 144.62C541.758 144.45 539.98 143.574 538.686 142.164C537.392 140.753 536.674 138.91 536.674 136.998C536.674 135.086 537.392 133.243 538.686 131.833C539.98 130.422 541.758 129.546 543.667 129.376C545.577 129.206 547.481 129.756 549.005 130.917C550.529 132.077 551.562 133.764 551.901 135.646H554.613C554.878 134.222 555.543 132.902 556.533 131.841C557.522 130.78 558.794 130.023 560.2 129.657C561.605 129.29 563.087 129.332 564.47 129.774C565.853 130.217 567.081 131.044 568.01 132.157C568.939 133.271 569.532 134.626 569.717 136.063C569.902 137.499 569.673 138.958 569.056 140.271C568.44 141.582 567.461 142.692 566.235 143.469C565.008 144.246 563.586 144.659 562.133 144.659ZM573.206 127.291H533.335V124.587H537.457L539.816 114.33C539.985 113.562 540.413 112.876 541.028 112.384C541.643 111.891 542.408 111.625 543.197 111.626H563.344C564.144 111.627 564.918 111.905 565.536 112.411C566.155 112.917 566.578 113.621 566.734 114.402L569.084 124.623H573.206V127.291ZM562.133 132.041C561.157 132.041 560.202 132.329 559.392 132.87C558.58 133.411 557.947 134.18 557.574 135.079C557.2 135.978 557.102 136.967 557.293 137.922C557.483 138.876 557.954 139.753 558.643 140.442C559.334 141.13 560.213 141.598 561.171 141.789C562.128 141.979 563.12 141.881 564.021 141.508C564.923 141.136 565.694 140.505 566.237 139.696C566.779 138.887 567.068 137.935 567.068 136.962C567.066 135.658 566.545 134.407 565.62 133.485C564.695 132.563 563.441 132.044 562.133 132.041ZM544.417 132.041C543.441 132.039 542.485 132.327 541.673 132.866C540.86 133.406 540.225 134.173 539.85 135.073C539.476 135.972 539.377 136.961 539.566 137.917C539.755 138.872 540.225 139.75 540.915 140.438C541.605 141.128 542.484 141.597 543.441 141.788C544.4 141.979 545.392 141.881 546.294 141.509C547.196 141.137 547.968 140.507 548.511 139.697C549.053 138.887 549.343 137.935 549.343 136.962C549.34 135.659 548.821 134.41 547.898 133.488C546.975 132.566 545.724 132.045 544.417 132.041ZM544.417 132.041C543.441 132.039 542.485 132.327 541.673 132.866C540.86 133.406 540.225 134.173 539.85 135.073C539.476 135.972 539.377 136.961 539.566 137.917C539.755 138.872 540.225 139.75 540.915 140.438C541.605 141.128 542.484 141.597 543.441 141.788C544.4 141.979 545.392 141.881 546.294 141.509C547.196 141.137 547.968 140.507 548.511 139.697C549.053 138.887 549.343 137.935 549.343 136.962C549.34 135.659 548.821 134.41 547.898 133.488C546.975 132.566 545.724 132.045 544.417 132.041ZM562.133 132.041C561.157 132.041 560.202 132.329 559.392 132.87C558.58 133.411 557.947 134.18 557.574 135.079C557.2 135.978 557.102 136.967 557.293 137.922C557.483 138.876 557.954 139.753 558.643 140.442C559.334 141.13 560.213 141.598 561.171 141.789C562.128 141.979 563.12 141.881 564.021 141.508C564.923 141.136 565.694 140.505 566.237 139.696C566.779 138.887 567.068 137.935 567.068 136.962C567.066 135.658 566.545 134.407 565.62 133.485C564.695 132.563 563.441 132.044 562.133 132.041ZM562.133 132.041C561.157 132.041 560.202 132.329 559.392 132.87C558.58 133.411 557.947 134.18 557.574 135.079C557.2 135.978 557.102 136.967 557.293 137.922C557.483 138.876 557.954 139.753 558.643 140.442C559.334 141.13 560.213 141.598 561.171 141.789C562.128 141.979 563.12 141.881 564.021 141.508C564.923 141.136 565.694 140.505 566.237 139.696C566.779 138.887 567.068 137.935 567.068 136.962C567.066 135.658 566.545 134.407 565.62 133.485C564.695 132.563 563.441 132.044 562.133 132.041ZM544.417 132.041C543.441 132.039 542.485 132.327 541.673 132.866C540.86 133.406 540.225 134.173 539.85 135.073C539.476 135.972 539.377 136.961 539.566 137.917C539.755 138.872 540.225 139.75 540.915 140.438C541.605 141.128 542.484 141.597 543.441 141.788C544.4 141.979 545.392 141.881 546.294 141.509C547.196 141.137 547.968 140.507 548.511 139.697C549.053 138.887 549.343 137.935 549.343 136.962C549.34 135.659 548.821 134.41 547.898 133.488C546.975 132.566 545.724 132.045 544.417 132.041Z" fill="#2C3E50"/>
<path d="M487.842 93.2488L521.178 60.0089V31.6719" stroke="#2C3E50" stroke-width="5" stroke-miterlimit="10"/>
<path d="M166.597 413.563L136.208 443.874V467.722" stroke="#2C3E50" stroke-width="5" stroke-miterlimit="10"/>
<path d="M521.178 60.0089L543.45 37.8008V16.2236" stroke="#2C3E50" stroke-width="5" stroke-miterlimit="10"/>
<path d="M543.449 37.8003V65.93" stroke="#2C3E50" stroke-width="5" stroke-miterlimit="10"/>
<path d="M521.178 31.6719C524.922 31.6719 527.957 28.6455 527.957 24.9121C527.957 21.1788 524.922 18.1523 521.178 18.1523C517.434 18.1523 514.398 21.1788 514.398 24.9121C514.398 28.6455 517.434 31.6719 521.178 31.6719Z" stroke="#2C3E50" stroke-width="5" stroke-miterlimit="10"/>
<path d="M543.45 16.2236C547.194 16.2236 550.229 13.1971 550.229 9.46387C550.229 5.73055 547.194 2.7041 543.45 2.7041C539.706 2.7041 536.67 5.73055 536.67 9.46387C536.67 13.1971 539.706 16.2236 543.45 16.2236Z" stroke="#2C3E50" stroke-width="5" stroke-miterlimit="10"/>
<path d="M543.45 79.4498C547.194 79.4498 550.229 76.4233 550.229 72.69C550.229 68.9567 547.194 65.9302 543.45 65.9302C539.706 65.9302 536.67 68.9567 536.67 72.69C536.67 76.4233 539.706 79.4498 543.45 79.4498Z" stroke="#2C3E50" stroke-width="5" stroke-miterlimit="10"/>
<path d="M136.208 481.242C139.952 481.242 142.987 478.215 142.987 474.482C142.987 470.749 139.952 467.722 136.208 467.722C132.464 467.722 129.429 470.749 129.429 474.482C129.429 478.215 132.464 481.242 136.208 481.242Z" stroke="#2C3E50" stroke-width="5" stroke-miterlimit="10"/>
<path d="M9.49113 319.431C13.2352 319.431 16.2704 316.404 16.2704 312.671C16.2704 308.938 13.2352 305.911 9.49113 305.911C5.74707 305.911 2.71191 308.938 2.71191 312.671C2.71191 316.404 5.74707 319.431 9.49113 319.431Z" stroke="#2C3E50" stroke-width="5" stroke-miterlimit="10"/>
<path d="M29.4491 250.553C33.1932 250.553 36.2284 247.527 36.2284 243.794C36.2284 240.06 33.1932 237.034 29.4491 237.034C25.705 237.034 22.6699 240.06 22.6699 243.794C22.6699 247.527 25.705 250.553 29.4491 250.553Z" stroke="#2C3E50" stroke-width="5" stroke-miterlimit="10"/>
<path d="M55.1557 217.881C58.8998 217.881 61.9349 214.855 61.9349 211.121C61.9349 207.388 58.8998 204.362 55.1557 204.362C51.4117 204.362 48.3765 207.388 48.3765 211.121C48.3765 214.855 51.4117 217.881 55.1557 217.881Z" stroke="#2C3E50" stroke-width="5" stroke-miterlimit="10"/>
<path d="M104.482 343.225H40.1333L14.2817 317.448" stroke="#2C3E50" stroke-width="5" stroke-miterlimit="10"/>
<path d="M90.715 343.225V246.57L59.9463 215.898" stroke="#2C3E50" stroke-width="5" stroke-miterlimit="10"/>
<path d="M59.9463 343.225V274.195L34.2485 248.571" stroke="#2C3E50" stroke-width="5" stroke-miterlimit="10"/>
<path d="M686.283 135.556C690.027 135.556 693.062 132.529 693.062 128.796C693.062 125.063 690.027 122.036 686.283 122.036C682.539 122.036 679.504 125.063 679.504 128.796C679.504 132.529 682.539 135.556 686.283 135.556Z" stroke="#2C3E50" stroke-width="5" stroke-miterlimit="10"/>
<path d="M644.514 297.872C648.258 297.872 651.293 294.845 651.293 291.112C651.293 287.379 648.258 284.352 644.514 284.352C640.77 284.352 637.735 287.379 637.735 291.112C637.735 294.845 640.77 297.872 644.514 297.872Z" stroke="#2C3E50" stroke-width="5" stroke-miterlimit="10"/>
<path d="M640.618 379.332C644.362 379.332 647.397 376.305 647.397 372.572C647.397 368.839 644.362 365.812 640.618 365.812C636.874 365.812 633.839 368.839 633.839 372.572C633.839 376.305 636.874 379.332 640.618 379.332Z" stroke="#2C3E50" stroke-width="5" stroke-miterlimit="10"/>
<path d="M591.284 159.35H655.641L681.493 133.618" stroke="#2C3E50" stroke-width="5" stroke-miterlimit="10"/>
<path d="M605.059 159.35V337.115L635.828 367.795" stroke="#2C3E50" stroke-width="5" stroke-miterlimit="10"/>
<path d="M626.789 159.35V273.437L639.714 286.335" stroke="#2C3E50" stroke-width="5" stroke-miterlimit="10"/>
<path d="M275.951 180.982C293.362 163.793 316.38 153.403 340.822 151.699C365.265 149.996 389.508 157.092 409.149 171.698L412.538 168.318C391.901 152.716 366.298 145.091 340.46 146.855C314.622 148.618 290.298 159.65 271.985 177.911C253.673 196.171 242.611 220.426 240.844 246.19C239.077 271.954 246.725 297.484 262.374 318.061L265.836 314.609C260.19 307.066 255.627 298.776 252.278 289.976L251.102 286.921H293.586L298.476 282.045H249.575L249.114 280.377C244.979 265.301 244.382 249.479 247.369 234.136C250.358 218.793 256.849 204.343 266.342 191.906L270.401 186.597V222.964L268.882 223.487C266.961 224.156 265.243 225.3 263.886 226.811C262.53 228.323 261.58 230.152 261.125 232.13C260.669 234.106 260.725 236.167 261.286 238.116C261.846 240.067 262.893 241.843 264.328 243.28C265.765 244.717 267.543 245.767 269.496 246.333C271.449 246.899 273.515 246.961 275.5 246.514C277.484 246.068 279.322 245.127 280.842 243.779C282.363 242.432 283.516 240.722 284.194 238.809L284.718 237.295H296.605V244.56C296.632 255.528 299.397 266.315 304.649 275.952L308.265 272.347C303.833 263.758 301.506 254.245 301.477 244.587V210.905L303.284 210.545C307.551 209.705 311.47 207.621 314.546 204.555C317.621 201.49 319.714 197.583 320.558 193.33L320.919 191.527H374.837L375.207 193.33C375.819 196.391 377.083 199.287 378.913 201.82L382.439 198.305C380.66 195.558 379.718 192.354 379.727 189.084V186.678H316.075V189.084C316.063 193.589 314.26 197.905 311.06 201.084C307.86 204.265 303.527 206.05 299.009 206.047H296.605V232.338H284.727L284.194 230.833C283.598 229.126 282.622 227.576 281.341 226.297C280.058 225.019 278.503 224.046 276.791 223.451L275.282 222.919V181.613L275.951 180.982ZM280 234.79C280 236.201 279.581 237.582 278.793 238.755C278.007 239.93 276.889 240.845 275.581 241.384C274.273 241.925 272.833 242.066 271.445 241.791C270.056 241.515 268.78 240.836 267.779 239.837C266.778 238.839 266.096 237.567 265.82 236.182C265.544 234.798 265.685 233.362 266.227 232.058C266.769 230.754 267.686 229.639 268.864 228.854C270.041 228.069 271.426 227.651 272.841 227.651C274.739 227.654 276.559 228.407 277.9 229.745C279.243 231.083 279.997 232.897 280 234.79Z" fill="#2C3E50"/>
<path d="M330.402 241.047L327.437 244.005L332.046 248.599L335.011 245.642L330.402 241.047Z" fill="#2C3E50"/>
</svg>
