<svg width="655" height="638" viewBox="0 0 655 638" fill="none" xmlns="http://www.w3.org/2000/svg">
<path d="M417.756 144.213C472.817 201.472 535.171 248.583 548.298 308.741C561.425 368.899 525.326 441.741 470.264 475.082C415.203 508.422 341.91 501.537 277.004 492.839C212.462 484.142 156.307 473.27 121.301 439.929C86.2953 406.951 72.4389 351.142 61.135 284.461C49.831 217.417 40.7149 139.139 75.7207 81.8806C110.726 24.6218 189.489 -11.9804 252.573 3.60272C315.656 19.1858 363.059 86.9541 417.756 144.213Z" fill="#9C47ED"/>
<g clip-path="url(#clip0)">
<path d="M304.638 430.205H46.8554V558.972H304.638V430.205Z" stroke="#2C3E50" stroke-width="5" stroke-miterlimit="10"/>
<path d="M294 443H155V548" stroke="#2C3E50" stroke-width="5" stroke-miterlimit="10"/>
<path d="M290 547H217.878L208 533.019L244.056 482L290 547Z" fill="#453396"/>
<path d="M218 547H166L192 511L207.976 533.114L218 547Z" fill="#9C47ED"/>
<path d="M192.101 486.731C200.994 486.731 208.202 479.53 208.202 470.646C208.202 461.762 200.994 454.561 192.101 454.561C183.209 454.561 176 461.762 176 470.646C176 479.53 183.209 486.731 192.101 486.731Z" fill="#FDCF00"/>
<path d="M25 229C30.5228 229 35 224.523 35 219C35 213.477 30.5228 209 25 209C19.4772 209 15 213.477 15 219C15 224.523 19.4772 229 25 229Z" fill="#FF7D7D"/>
<path d="M52.8963 226.527C57.0752 226.527 60.4629 223.142 60.4629 218.968C60.4629 214.793 57.0752 211.408 52.8963 211.408C48.7174 211.408 45.3297 214.793 45.3297 218.968C45.3297 223.142 48.7174 226.527 52.8963 226.527Z" stroke="#2C3E50" stroke-width="5" stroke-miterlimit="10"/>
<path d="M80.8082 226.527C84.9871 226.527 88.3748 223.142 88.3748 218.968C88.3748 214.793 84.9871 211.408 80.8082 211.408C76.6293 211.408 73.2416 214.793 73.2416 218.968C73.2416 223.142 76.6293 226.527 80.8082 226.527Z" stroke="#2C3E50" stroke-width="5" stroke-miterlimit="10"/>
<path d="M620.064 195.934H1.93616V603.066H620.064V195.934Z" stroke="#2C3E50" stroke-width="5" stroke-miterlimit="10"/>
<path d="M132 458L132 537" stroke="#21B3FF" stroke-width="15" stroke-miterlimit="10"/>
<path d="M103 458L103 537" stroke="#21B3FF" stroke-width="15" stroke-miterlimit="10"/>
<path d="M74 458L74 537" stroke="#21B3FF" stroke-width="15" stroke-miterlimit="10"/>
<path d="M62.3448 267.804H155.281" stroke="white" stroke-width="20" stroke-miterlimit="10"/>
<path d="M62.3448 306.489H275.487" stroke="#2C3E50" stroke-width="5" stroke-miterlimit="10"/>
<path d="M62.3448 331.963H275.487" stroke="#2C3E50" stroke-width="5" stroke-miterlimit="10"/>
<path d="M62.3448 357.438H275.487" stroke="#2C3E50" stroke-width="5" stroke-miterlimit="10"/>
<path d="M62.3448 382.912H275.487" stroke="#2C3E50" stroke-width="5" stroke-miterlimit="10"/>
<path d="M575.036 329.367V558.964H345.204L575.036 329.367Z" stroke="#2C3E50" stroke-width="5" stroke-miterlimit="10"/>
<path d="M419.221 267.711C452.275 270.481 478.622 296.81 481.395 329.832" stroke="white" stroke-width="5" stroke-miterlimit="10"/>
<path d="M345.452 329.832C348.225 296.81 374.58 270.481 407.634 267.711" stroke="white" stroke-width="5" stroke-miterlimit="10"/>
<path d="M481.643 356.146C481.643 393.786 451.098 424.301 413.42 424.301C375.742 424.301 345.197 393.786 345.197 356.146H481.643Z" fill="#FDCF00"/>
<path d="M413.428 273.274C416.635 273.274 419.236 270.676 419.236 267.471C419.236 264.266 416.635 261.668 413.428 261.668C410.22 261.668 407.619 264.266 407.619 267.471C407.619 270.676 410.22 273.274 413.428 273.274Z" stroke="white" stroke-width="5" stroke-miterlimit="10"/>
<path d="M345.204 341.422C348.412 341.422 351.013 338.824 351.013 335.619C351.013 332.414 348.412 329.816 345.204 329.816C341.997 329.816 339.396 332.414 339.396 335.619C339.396 338.824 341.997 341.422 345.204 341.422Z" stroke="white" stroke-width="5" stroke-miterlimit="10"/>
<path d="M481.643 341.422C484.851 341.422 487.451 338.824 487.451 335.619C487.451 332.414 484.851 329.816 481.643 329.816C478.435 329.816 475.834 332.414 475.834 335.619C475.834 338.824 478.435 341.422 481.643 341.422Z" stroke="white" stroke-width="5" stroke-miterlimit="10"/>
</g>
<rect x="500" y="483" width="155" height="155" fill="#C4C4C4"/>
<defs>
<clipPath id="clip0">
<rect width="622" height="411" fill="white" transform="translate(0 194)"/>
</clipPath>
</defs>
</svg>
