<svg xmlns="http://www.w3.org/2000/svg" viewBox="0 0 905.04 402.16"><defs><style>.cls-1{fill:#13070c;}</style></defs><g id="Layer_2" data-name="Layer 2"><g id="Layer_1-2" data-name="Layer 1"><path class="cls-1" d="M237.92,203.5l-37.41-.42a2.11,2.11,0,0,1-2-1.44l-12-35.45a2.12,2.12,0,0,0-4,0l-12,35.45a2.12,2.12,0,0,1-2,1.44l-37.41.42a2.12,2.12,0,0,0-1.24,3.81l30,22.33a2.11,2.11,0,0,1,.75,2.33l-11.15,35.71a2.12,2.12,0,0,0,3.24,2.36l30.51-21.65a2.12,2.12,0,0,1,2.45,0L216.31,270a2.12,2.12,0,0,0,3.24-2.36L208.39,232a2.1,2.1,0,0,1,.76-2.33l30-22.33A2.11,2.11,0,0,0,237.92,203.5Zm-53.35,29.05a9.25,9.25,0,0,1-8.27-13.38l7-14a1.41,1.41,0,0,1,2.52,0l7,14A9.25,9.25,0,0,1,184.57,232.55Z"/><path class="cls-1" d="M54.06,87.08A184.91,184.91,0,0,0,18.47,298.29L32.1,271A160.68,160.68,0,0,1,23,217.59c0-72.11,47.49-133.34,112.83-154l13.6-27.2A183.43,183.43,0,0,0,54.06,87.08ZM254,363.47a161.43,161.43,0,0,1-138.76,0H71.48a184.62,184.62,0,0,0,226.18,0ZM315.08,87.08a183.81,183.81,0,0,0-69.47-43.76l16.22,32.41a161.7,161.7,0,0,1,84.29,141.86,163.4,163.4,0,0,1-1.68,23.35l16.17,32.36A185.08,185.08,0,0,0,315.08,87.08Z"/><path class="cls-1" d="M366.09,335.69,349,301.56l-13.38-26.73L229.41,62.37,216.08,35.7,199.32,2.18a4,4,0,0,0-7.07,0L164.72,57.26,44.41,297.87,32.33,322,26,334.75a3.94,3.94,0,0,0,3.53,5.71H363.14A3.3,3.3,0,0,0,366.09,335.69ZM302,318.52H68.82a3.3,3.3,0,0,1-2.95-4.77L182.44,80.59a3.3,3.3,0,0,1,5.9,0L304.92,313.75A3.3,3.3,0,0,1,302,318.52Z"/><polygon class="cls-1" points="184.57 218.47 184.57 218.47 184.57 218.46 184.57 218.46 184.57 218.47 184.57 218.47"/><path class="cls-1" d="M427.68,93.4l10,31,10-31h7.44l10,31,10-31h11.23L470.3,140.24h-9.13l-9.83-28.44-9.83,28.44h-9.13L416.44,93.4Z"/><path class="cls-1" d="M533.14,99.16a24.93,24.93,0,0,1,0,35.25c-4.35,4.21-10.25,6.88-18.12,6.88-8.77,0-14.74-3.51-18.25-6.88A23.89,23.89,0,0,1,489.46,117a26.13,26.13,0,0,1,7.24-17.77c3.16-3.16,9-6.88,18.32-6.88C522.33,92.35,528.44,94.6,533.14,99.16Zm-28.44,7.16a14.39,14.39,0,0,0-4.14,10.61,14,14,0,0,0,4.28,10.53,13.77,13.77,0,0,0,10,3.86,13.83,13.83,0,0,0,14.47-14.46,14.81,14.81,0,0,0-4.07-10.54,15.07,15.07,0,0,0-10.33-4A14.41,14.41,0,0,0,504.7,106.32Z"/><path class="cls-1" d="M565,93.4c6,0,9.69,2,11.93,4.08A14.08,14.08,0,0,1,581,107.94a12.85,12.85,0,0,1-3.65,9.55,14.82,14.82,0,0,1-6.54,3.58l14.4,19.17H572l-12.64-18.47v18.47H548.51V93.4Zm-5.62,21.28h2.46c2,0,4.63-.21,6.46-2a6.29,6.29,0,0,0,1.75-4.56,5.69,5.69,0,0,0-2.18-4.78c-1.75-1.33-4.56-1.47-6-1.47h-2.53Z"/><path class="cls-1" d="M602,93.4v37.71h14.53v9.13H591.13V93.4Z"/><path class="cls-1" d="M637.41,93.4c6.17,0,12.71.92,18.46,6.46,4.15,4,6.74,9.48,6.74,16.79s-2.52,12.71-6.38,16.57c-6.47,6.53-14.54,7-18.47,7H622.59V93.4Zm-4,37.71h2.88c2.25,0,7.16-.21,10.68-3.16,2.52-2.11,4.56-6.11,4.56-11.3a13.91,13.91,0,0,0-3.86-10.12c-3.51-3.51-8.08-4-11.38-4H633.4Z"/><path class="cls-1" d="M432.31,177.66V224.5H421.5V177.66Z"/><path class="cls-1" d="M466.93,189.11c-3.51-3.16-6.53-3.37-7.87-3.37a5.86,5.86,0,0,0-4.56,1.61,4.2,4.2,0,0,0-1.19,3,3.3,3.3,0,0,0,1.05,2.6c1.12,1,2.74,1.47,5.9,2.67l3.51,1.33a18.84,18.84,0,0,1,6.39,3.58,11.68,11.68,0,0,1,3.44,8.71c0,4.84-1.69,9.06-4.14,11.59-4.15,4.35-10.19,4.77-13.28,4.77a19.79,19.79,0,0,1-9.27-2,30.07,30.07,0,0,1-6.88-5.12l5.62-7.73a28.82,28.82,0,0,0,4.35,3.59,10.94,10.94,0,0,0,5.9,1.68,7.46,7.46,0,0,0,4.92-1.62,4.84,4.84,0,0,0,1.68-3.79,4.15,4.15,0,0,0-1.61-3.37,23.18,23.18,0,0,0-5.48-2.6l-3.86-1.33a15.64,15.64,0,0,1-6.53-3.72,11.52,11.52,0,0,1-2.81-8.15,14.39,14.39,0,0,1,4.07-10.53c3.3-3.37,7.24-4.28,11.59-4.28a22.62,22.62,0,0,1,13.9,4.63Z"/><path class="cls-1" d="M495.57,224.5l7.51-46.84h9l11.66,28,11.66-28h9l7.52,46.84H541.07l-3.72-27.95L525.63,224.5h-3.8l-11.72-27.95-3.72,27.95Z"/><path class="cls-1" d="M571.61,202.66l-16.78-25h12.78L577,192.2l9.41-14.54h12.78l-16.78,25V224.5H571.61Z"/><path class="cls-1" d="M437.79,261.92c4.07,0,8.57.56,12.29,3.86,4,3.51,4.56,8.14,4.56,11.37,0,5.9-2.24,9.2-4,11-3.72,3.79-8.64,4.14-11.94,4.14h-6.6v16.43H421.29V261.92Zm-5.69,21.55H436c1.48,0,4.08-.07,5.83-1.75a6.54,6.54,0,0,0,1.76-4.64,6.19,6.19,0,0,0-1.76-4.56c-1.61-1.55-3.93-1.76-6-1.76H432.1Z"/><path class="cls-1" d="M472.26,261.92v37.7H486.8v9.13H461.45V261.92Z"/><path class="cls-1" d="M522.61,299.91h-17.7l-3.58,8.84H490.09L509,261.92h9.91l18.46,46.83H526.12Zm-3-8.29-5.76-15.73-5.83,15.73Z"/><path class="cls-1" d="M549.15,286.91l-16.79-25h12.78l9.41,14.53L564,261.92h12.78l-16.78,25v21.84H549.15Z"/><path class="cls-1" d="M602,283.19h23.24v.49c0,5.69-2,14.33-7.23,19.74s-11.17,6.39-16.71,6.39-11.66-.92-17.14-6.53a24.84,24.84,0,0,1-6.88-17.84c0-7.65,2.81-13.76,6.74-17.77,5.76-6,12.85-6.81,18.4-6.81a23.58,23.58,0,0,1,13.13,3.51,25.86,25.86,0,0,1,7.58,8.36L613.39,278a14.23,14.23,0,0,0-4.14-5.06,11.78,11.78,0,0,0-7.16-2.25c-4.29,0-7.45,1.41-9.69,3.8a16,16,0,0,0-4,11.09c0,5.34,2,8.78,3.94,10.75,2.74,2.8,5.9,3.65,9.48,3.65,4.63,0,7.09-1.62,8.14-2.53a10.93,10.93,0,0,0,3.37-5.55H602Z"/><path class="cls-1" d="M649.76,261.92c6,0,9.69,2,11.94,4.07a14.12,14.12,0,0,1,4.07,10.46,12.81,12.81,0,0,1-3.65,9.55,14.63,14.63,0,0,1-6.53,3.58L670,308.75h-13.2l-12.64-18.46v18.46H633.33V261.92Zm-5.62,21.27h2.46c2,0,4.64-.21,6.46-2a6.34,6.34,0,0,0,1.76-4.57,5.67,5.67,0,0,0-2.18-4.77c-1.75-1.34-4.56-1.48-6-1.48h-2.53Z"/><path class="cls-1" d="M717.45,267.67a24.94,24.94,0,0,1,0,35.26c-4.35,4.21-10.25,6.88-18.12,6.88-8.77,0-14.74-3.51-18.26-6.88a24,24,0,0,1-7.3-17.42A26.19,26.19,0,0,1,681,267.74c3.16-3.16,9-6.88,18.33-6.88C706.64,260.86,712.74,263.11,717.45,267.67ZM689,274.84a14.31,14.31,0,0,0-4.14,10.6A14,14,0,0,0,689.15,296a13.78,13.78,0,0,0,10,3.87,14.14,14.14,0,0,0,10.39-4,14,14,0,0,0,4.08-10.46,14.74,14.74,0,0,0-4.08-10.53,15,15,0,0,0-10.32-4A14.37,14.37,0,0,0,689,274.84Z"/><path class="cls-1" d="M772.43,289.65c0,4.5-.57,10.05-5.2,14.82s-9.69,5.34-14.61,5.34-10.11-.7-14.6-5.34-5.2-10.32-5.2-14.82V261.92h10.82v27.45c0,2,.14,5.48,2.45,7.87a9.9,9.9,0,0,0,13.06,0c2.32-2.39,2.46-5.83,2.46-7.87V261.92h10.82Z"/><path class="cls-1" d="M782.67,308.75V261.92h9.41l25.42,30.19V261.92h10.82v46.83h-9.41l-25.42-30.33v30.33Z"/><path class="cls-1" d="M853.38,261.92c6.18,0,12.71.91,18.47,6.46,4.14,4,6.74,9.48,6.74,16.78s-2.53,12.71-6.39,16.57c-6.46,6.53-14.54,7-18.47,7H838.56V261.92Zm-4,37.7h2.88c2.24,0,7.16-.21,10.67-3.16,2.53-2.1,4.56-6.1,4.56-11.3a13.82,13.82,0,0,0-3.86-10.11c-3.51-3.51-8.07-4-11.37-4h-2.88Z"/><path class="cls-1" d="M888,264.43v9.14h-2.89v-9.14h-2.48v-2.51h7.88v2.51Zm3,9.14,2-11.65h2.54l2.52,6.41,2.7-6.41h2.51L905,273.57h-2.88l-.86-6.38-2.67,6.38h-1.22l-2.61-6.38-.95,6.38Z"/></g></g></svg>