<?xml version="1.0" standalone="no"?>
<!DOCTYPE svg PUBLIC "-//W3C//DTD SVG 20010904//EN"
 "http://www.w3.org/TR/2001/REC-SVG-20010904/DTD/svg10.dtd">
<svg version="1.0" xmlns="http://www.w3.org/2000/svg"
 width="1000.000000pt" height="1000.000000pt" viewBox="0 0 1000.000000 1000.000000"
 preserveAspectRatio="xMidYMid meet">
<metadata>
Created by potrace 1.11, written by Peter Selinger 2001-2013
</metadata>
<g transform="translate(0.000000,1000.000000) scale(0.100000,-0.100000)"
fill="#000000" stroke="none">
<path d="M4719 9996 c-2 -2 -49 -7 -104 -10 -55 -3 -116 -8 -135 -11 -44 -6
-107 -13 -167 -21 -304 -37 -712 -139 -1043 -262 -1293 -479 -2353 -1491
-2876 -2744 -14 -35 -32 -76 -39 -93 -23 -53 -105 -278 -110 -305 -1 -3 -16
-51 -33 -107 -32 -101 -96 -346 -107 -413 -3 -19 -10 -53 -15 -75 -13 -57 -47
-278 -55 -355 -4 -36 -9 -73 -11 -83 -12 -64 -19 -262 -19 -517 0 -327 9 -481
41 -681 2 -14 6 -41 8 -60 9 -70 27 -173 42 -243 9 -39 18 -82 20 -96 6 -33
38 -159 59 -235 9 -33 18 -67 20 -75 12 -52 111 -348 140 -415 7 -16 36 -86
65 -155 285 -677 711 -1265 1310 -1805 222 -200 585 -454 892 -624 157 -86
532 -261 561 -261 7 0 17 -4 22 -9 6 -5 39 -18 75 -30 36 -12 74 -26 85 -31
22 -10 217 -72 280 -90 204 -57 483 -117 632 -136 20 -2 48 -6 62 -8 203 -32
352 -41 681 -41 257 0 454 7 516 19 11 2 46 7 79 10 33 4 71 9 85 11 14 2 45
7 70 10 44 6 236 40 275 49 199 44 327 78 491 130 112 35 284 96 339 121 17 7
58 25 93 39 329 138 749 374 983 555 26 20 59 45 74 56 304 218 704 615 972
965 82 108 259 366 294 429 11 20 33 58 50 85 62 101 208 384 254 496 15 36
36 85 47 110 80 181 181 495 247 765 23 91 67 321 76 390 3 28 8 57 10 65 2 8
7 44 10 80 4 36 8 79 10 95 26 195 26 946 0 1028 -2 6 -6 41 -9 77 -4 36 -9
81 -12 100 -7 48 -43 259 -49 290 -13 67 -39 181 -52 230 -8 30 -16 64 -18 74
-17 75 -138 449 -170 521 -7 17 -36 86 -65 155 -409 975 -1165 1828 -2095
2367 -402 232 -817 403 -1275 522 -104 27 -324 73 -415 86 -156 23 -239 34
-295 40 -36 4 -83 9 -105 11 -51 6 -691 14 -696 10z m636 -440 c22 -2 72 -8
110 -11 78 -7 125 -13 170 -20 17 -2 48 -7 70 -10 82 -12 245 -45 351 -70 60
-15 117 -28 128 -30 10 -3 71 -21 135 -41 617 -192 1114 -461 1611 -873 104
-87 414 -388 500 -486 169 -194 379 -486 515 -715 161 -273 377 -769 435
-1000 4 -19 20 -75 34 -125 14 -49 26 -93 26 -97 0 -3 -449 -5 -997 -5 l-998
2 0 598 c0 524 -2 598 -15 601 -8 3 -67 4 -130 4 -135 -1 -186 5 -276 33 -202
62 -366 225 -432 429 -28 88 -35 144 -34 280 0 63 -1 122 -4 130 -3 13 -183
15 -1556 15 l-1553 0 -2 -148 c-1 -172 -18 -256 -70 -362 -85 -171 -233 -296
-413 -349 -74 -22 -132 -28 -280 -30 l-125 -1 0 -595 c0 -329 -3 -598 -8 -601
-5 -4 -86 -6 -180 -7 l-172 0 -40 82 c-56 115 -169 229 -283 282 l-81 39 -1
885 0 885 68 66 c386 376 914 717 1437 927 222 89 553 192 726 226 183 36 242
46 284 51 28 3 57 8 65 10 8 2 42 7 75 10 33 3 71 8 85 10 14 3 70 7 125 11
55 3 101 7 103 9 5 5 552 -3 597 -9z m-3999 -2442 l-1 -637 -79 -41 c-96 -50
-159 -103 -218 -181 -93 -122 -127 -218 -134 -374 -22 -513 535 -847 979 -587
123 72 234 199 277 319 6 18 17 27 32 28 25 1 317 1 333 0 6 -1 10 -66 11
-173 0 -159 11 -384 18 -397 2 -3 7 -35 10 -71 4 -36 9 -74 11 -85 3 -11 7
-33 10 -49 13 -81 33 -167 80 -337 48 -177 174 -473 274 -644 23 -38 41 -73
41 -77 0 -5 -542 -8 -1204 -8 l-1204 0 -26 106 c-25 98 -56 249 -70 334 -3 19
-8 46 -11 60 -3 14 -7 45 -10 70 -3 25 -7 59 -10 75 -24 184 -28 267 -29 535
0 218 7 420 19 491 2 13 6 49 9 79 4 30 8 66 11 80 2 14 6 43 10 65 11 78 16
111 25 155 6 25 12 56 14 70 2 14 18 84 36 155 84 343 196 648 350 955 68 137
81 160 153 285 58 101 282 432 293 435 1 0 1 -286 0 -636z m321 -1063 c74 -37
124 -126 117 -208 -16 -193 -243 -276 -378 -137 -138 142 -27 383 169 370 28
-2 70 -13 92 -25z m7836 -410 c10 -1 17 -7 16 -13 -2 -12 6 -101 16 -168 26
-176 26 -757 0 -930 -2 -14 -6 -50 -10 -81 -3 -31 -7 -65 -9 -75 -2 -11 -7
-41 -10 -69 -10 -72 -15 -101 -32 -185 -9 -41 -18 -86 -20 -99 -30 -155 -143
-519 -224 -721 -72 -182 -211 -464 -290 -590 -5 -8 -23 -40 -41 -70 -29 -50
-147 -228 -216 -325 -37 -53 -223 -284 -233 -290 -4 -3 -8 207 -8 467 l1 471
66 33 c86 42 114 62 181 128 120 118 181 263 186 441 6 196 -51 341 -191 480
-126 127 -262 185 -443 190 -262 7 -499 -141 -608 -380 l-25 -55 -315 0 -314
0 23 38 c58 91 137 254 222 457 16 36 75 210 80 233 2 9 13 49 24 87 20 74 56
236 65 295 2 19 8 58 11 85 4 28 9 61 11 75 9 59 18 238 18 397 l1 172 40 3
c33 2 1970 1 2028 -1z m-1167 -1866 c98 -58 138 -173 94 -272 -28 -63 -55 -91
-113 -118 -125 -59 -275 15 -305 150 -41 187 160 336 324 240z m-4977 -458
c72 -78 166 -170 332 -329 85 -80 177 -168 205 -195 200 -190 387 -369 434
-413 30 -29 129 -123 219 -209 90 -86 182 -173 205 -195 23 -21 85 -81 139
-132 l97 -94 91 87 c51 49 115 111 144 138 57 55 337 321 420 400 29 28 128
122 220 210 92 88 192 184 223 214 354 335 547 524 564 555 6 11 100 13 484
14 430 0 476 -2 481 -17 9 -30 56 -116 82 -151 69 -94 173 -177 269 -215 l42
-17 0 -698 0 -698 -23 -19 c-13 -10 -80 -63 -149 -119 -175 -142 -401 -296
-578 -396 -106 -60 -131 -73 -250 -133 -126 -64 -315 -146 -425 -185 -33 -12
-69 -25 -80 -30 -128 -56 -611 -179 -805 -204 -19 -3 -73 -10 -120 -16 -47 -6
-98 -12 -115 -15 -140 -19 -656 -27 -820 -12 -95 9 -185 18 -215 22 -139 20
-189 27 -210 31 -14 2 -41 7 -60 10 -19 3 -43 7 -52 10 -10 3 -30 8 -45 10
-16 3 -75 17 -133 30 -58 14 -116 28 -128 30 -63 12 -452 148 -572 198 -564
240 -1032 556 -1466 990 -192 193 -293 309 -435 501 -49 66 -92 125 -97 130
-29 38 -160 248 -210 336 -110 194 -292 577 -292 615 0 10 277 12 1291 12
l1291 -1 47 -50z"/>
</g>
</svg>
